<?xml version="1.0" encoding="utf-8"?>
<!-- Generator: Adobe Illustrator 19.0.0, SVG Export Plug-In . SVG Version: 6.00 Build 0)  -->
<svg version="1.0" xmlns="http://www.w3.org/2000/svg" xmlns:xlink="http://www.w3.org/1999/xlink" x="0px" y="0px"
	 viewBox="0 0 1613.3 1296.7" style="enable-background:new 0 0 1613.3 1296.7;" xml:space="preserve">
<style type="text/css">
	.st0{fill:#E5E5E5;}
	.st1{fill:#F9F9F9;}
	.st2{fill:#969696;}
	.st3{fill:#FFFFFF;}
	.st4{fill:#F7B7F7;}
	.st5{fill:#BCBCBC;}
	.st6{fill:#A8A8A8;}
	.st7{fill:#2D2D2D;}
	.st8{fill:#1A5687;}
	.st9{fill:#F9B384;}
	.st10{fill:#B6D4FF;}
	.st11{fill:#E28B6D;}
	.st12{fill:#EFEDA3;}
	.st13{opacity:0.8;}
	.st14{fill:#102048;}
	.st15{fill:#FBC343;}
	.st16{opacity:0.4;fill:#EB5D60;}
	.st17{fill:#EFEFEF;}
	.st18{fill:#333333;}
	.st19{fill:#A0A0A0;}
</style>
<g id="BACKGROUND">
</g>
<g id="OBJECTS">
	<g>
		<path class="st0" d="M1516.5,712.9h-96.7v-43.2h96.7V712.9z M1421.8,710.9h92.7v-39.2h-92.7V710.9z"/>
		<path class="st0" d="M1453.6,754.2h-96.7V711h96.7V754.2z M1358.9,752.2h92.7V713h-92.7V752.2z"/>
	</g>
	<g>
		<path class="st0" d="M1613.3,714h-96.7v-43.2h96.7V714z M1518.6,712h92.7v-39.2h-92.7V712z"/>
		<path class="st0" d="M1550.3,755.3h-96.7v-43.2h96.7V755.3z M1455.6,753.3h92.7v-39.2h-92.7V753.3z"/>
	</g>
	<g>
		<g>
			<path class="st1" d="M226.2,729.9c-10.6-12.1-21.4-27-32.6-44.7c-47.1-0.7-93.3-9.6-138.7-21.3c-4.5-8.4-9-17.1-13.5-26
				c11.9-44.8,28.5-76.3,49.9-150.4c16.9-0.2,33.9-1.9,50.9-4.8c27.6,72.9,53.6,133.1,78,179c14.6-1.4,29.3-3.6,44.1-6.8
				c3.9,8.2,7.7,16.1,11.5,23.7c-14.5,2.5-28.9,4.4-43.2,5.4c10.5,18.1,20.7,33.7,30.5,47.1C250.8,730.8,238.5,730.4,226.2,729.9z
				 M180.4,663.2c-14-24.3-28.4-52.9-43.2-85.1c-7-15.2-13.6-31.1-19.7-47.8c-0.5,0-1,0-1.6,0c-2.4,18.6-4.7,30.9-7.4,43.3
				c-11.1,29.9-20.7,51.3-29,72.8c0.1,0.3,0.3,0.5,0.4,0.8C113.1,657,146.5,662.6,180.4,663.2z"/>
			<path class="st1" d="M612.7,444c8.3,55.8,3,115.8-12.1,161.5c-15.3,46.2-40.4,78.2-74.8,89c-30.4,10.1-58.2-0.2-82.9-20
				c-24.6-20.5-46-50.6-61.3-98.2c-31-97.3,1.7-193.7,78.4-226.1c39.3-17.5,74.1-16.7,100.5-2.4C587,362.8,604.9,391.3,612.7,444z
				 M427.1,553.2c10.6,39.3,24.8,66.7,41,84.2c16.3,17.2,34.5,24.5,54,16.3c43.5-16.5,57.9-98,43.7-182.3
				c-13.7-79.2-48.6-110.9-100.2-87C421.7,405.5,404.4,471,427.1,553.2z"/>
			<path class="st1" d="M916.2,594.1c1.2-45.2,2.1-88.7,2.7-129.4c-55.3-9.7-109.7-3.6-163.3,11.7c-0.6-12.5-1.3-24.5-2-36.1
				c47.3-99.6,99.4-165.7,156.3-221.1c19.5-4,39-8.3,58.7-13.2c0.7,52.3-0.1,130.2-2.5,222.1c17.1,4.8,34.3,10.9,51.5,18.4
				c-0.7,16.9-1.4,33.9-2.2,51c-17-8.7-33.9-15.8-50.7-21.4c-1.3,41.9-2.9,85.7-4.7,129.8C945.3,600.8,930.7,596.8,916.2,594.1z
				 M919.4,418.6c0.4-46.9,0.4-88.7,0-124.1c-0.2-16.6,0.1-31.9,0.9-45.8c-0.6,0.1-1.2,0.2-1.8,0.2c-11.6,17-20.7,30.1-30.9,44.8
				c-30.1,36.4-58.7,77.5-86,127.3c0,0.4,0,0.8,0,1.2C840.5,414.9,879.7,413.2,919.4,418.6z"/>
		</g>
	</g>
	<path class="st2" d="M1508,932.6c-24.1-54.8-70.4-100.6-126-123.1c-57.9-23.5-124.4-14.9-185.4-22.8c-53-6.8-91.2-30.5-122.8-72.5
		c-30.3-40.3-57.5-84.9-107-103.5c-39.2-14.7-83.7-10.6-122.6,4.7c-71.7,28.3-125.9,88.4-171.5,148.3C631,818.3,597,878.2,520,880.1
		c-77.1,2-150.5-42-228.1-30.4c-102.6,15.4-188,100.8-205.9,202.5c-16.8,95.3,25.3,187.7,97.7,242h1243.2
		C1518,1197.6,1565.8,1064,1508,932.6z"/>
	<g>
		<path class="st3" d="M384.2,1294.2h3.4c23.8-26.1,42.4-57.8,54.2-92.9c19.1-56.9,18.3-116.6-2.3-168.2c-10.4-26-25.5-50.3-40-73.8
			c-14.8-23.8-30-48.4-40.4-74.8c-4.3-10.9-7.4-22.6-9.3-34.6c-0.9-0.1-1.7-0.2-2.6-0.3c1.9,12.4,5.2,24.5,9.6,35.8
			c10.4,26.6,25.7,51.3,40.6,75.2c14.5,23.4,29.5,47.6,39.8,73.4c20.4,51,21.2,110.1,2.2,166.5
			C427.4,1236.1,408.4,1268.1,384.2,1294.2z"/>
		<path class="st3" d="M1420.8,1185.8c25.6,5.5,50.3,10.4,74.2,13.4c0.4-0.8,0.8-1.6,1.2-2.4c-24.1-3.1-49-8-74.9-13.5
			c-39.4-8.4-82-17.5-124.3-17.5c-26.2,0-52.2,3.5-77.3,12.8c-9.5,3.5-18.6,8-27.4,13.3c-22.6-9.6-45.4-20.2-67.9-31.7
			c16.4-12.3,32.9-24.4,49.6-36c124-86.6,238.4-135.7,348.9-149.6c-0.2-0.8-0.5-1.6-0.7-2.4c-110.8,14-225.5,63.2-349.7,150
			c-17.1,11.9-33.9,24.2-50.6,36.8c-25.3-13.1-50.4-27.5-74.6-43.4c-44-28.8-96.2-69.9-141.9-124.5
			c176.9-19.9,357.1-44.9,504.2-143.2c5.6-3.7,11.8-8.1,18.2-13.1c-0.7-0.5-1.4-1-2.1-1.5c-6.1,4.8-12.1,9-17.4,12.5
			c-147.1,98.3-327.6,123.1-504.7,143c-32.3-39-61.1-84.9-81.1-137.9c-31.2-82.7-29.6-163.8,4.5-222.6c1.5-2.6,3-5.1,4.7-7.6
			c-1.4,0.7-2.8,1.3-4.2,2c-0.9,1.4-1.7,2.8-2.6,4.3c-34.5,59.4-36.2,141.3-4.7,224.7c19.9,52.8,48.5,98.4,80.5,137.4
			c-10.3,1.1-20.5,2.3-30.7,3.4c-36.9,4.1-75,8.3-112.1,13.1c-13.5,1.7-27.3,3.8-41,6.3c-29.3-61.9-61.6-122.3-103.2-174.1
			c-0.6,0.6-1.2,1.2-1.8,1.8c41.3,51.4,73.3,111.3,102.5,172.8c-59.7,11.4-117.6,32.8-148.6,82.6c-28.9,46.5-28.9,110.8,0.1,191.1
			c1,2.8,2,5.5,3.1,8.2h2.7c-1.1-3-2.3-6-3.4-9.1c-28.7-79.5-28.8-143.1-0.3-188.9c30.6-49.2,88.2-70.3,147.6-81.6
			c10.4,21.9,20.4,44,30.3,65.9l1.1,2.4c34.5,76.2,70.2,149.8,117,211.2h3.1c-47.2-61.6-83.1-135.6-117.8-212.3l-1.1-2.4
			c-9.9-21.8-19.8-43.7-30-65.4c13.4-2.5,26.9-4.5,40.2-6.2c37-4.8,75.2-9,112-13c10.8-1.2,21.6-2.4,32.4-3.6
			c46.1,55.5,99,97.2,143.5,126.3c24,15.7,48.7,30,73.8,42.9c-42.5,32.2-83.9,66-124.3,99.1c-14,11.4-28.1,23-42.4,34.6h4
			c13.4-10.9,26.8-21.8,40-32.6c40.7-33.3,82.3-67.4,125.2-99.7c22.4,11.5,45,22,67.5,31.7c-30.8,19.6-55.9,49.9-71.1,86.7
			c-1.9,4.6-3.6,9.3-5.1,13.9h2.6c1.5-4.4,3-8.7,4.8-13c15.2-36.9,40.5-67.2,71.5-86.5c62.9,26.7,124.8,46.6,177.9,62.3l2,0.6
			c22.4,6.6,45.3,13.4,65.5,24.3c0.6-0.6,1.1-1.3,1.7-1.9c-20.6-11.2-43.8-18-66.5-24.8l-2-0.6c-52.6-15.6-113.7-35.2-176-61.5
			c8.1-4.8,16.6-8.9,25.4-12.2C1285.4,1157,1357.4,1172.3,1420.8,1185.8z"/>
		<path class="st3" d="M189.9,1023.9c11,45.2,6.1,94-13.5,133.9c-12.9,26.1-31.4,49.8-54.3,70.1c0.5,0.7,0.9,1.4,1.4,2.1
			c23.2-20.6,42.1-44.6,55.2-71.1c19.9-40.4,24.9-89.9,13.7-135.6c-8.7-35.8-26.3-66-50.6-87.9c-0.5,0.6-1.1,1.3-1.6,1.9
			C164,958.8,181.3,988.7,189.9,1023.9z"/>
	</g>
	<path class="st4" d="M755.7,451.3c21.8,22.3,31.5,59.7,19.5,94.3c-11.6,33.5-37.1,61.2-67.7,79c-24.6,14.3-56.8,22.3-81,7.2
		c-18.1-11.2-27.5-33.2-28-54.5c-0.5-21.3,6.6-42.1,15.5-61.4c12.5-27.3,29.3-53.8,54.3-70.4C702.7,422.6,734.8,429.9,755.7,451.3z"
		/>
	<g>
		<path class="st0" d="M591,187.5h-96.7v-43.2H591V187.5z M496.3,185.5H589v-39.2h-92.7V185.5z"/>
		<path class="st0" d="M528.1,228.8h-96.7v-43.2h96.7V228.8z M433.4,226.8h92.7v-39.2h-92.7V226.8z"/>
	</g>
	<path class="st5" d="M1493.1,224c-11.7-38.8-32.2-74.5-61.6-107.1c-29.5-32.6-69.6-59.5-120.5-80.8c-50.9-21.3-115.6-31.9-194-31.9
		c-62.6,0-126.3,8.4-191.3,25.3c-65,16.9-121.4,41-169.3,72.3l62.3,171l-33.4,27l48.4,14.2c47.8-25,91.3-43.2,130.6-54.5
		c39.2-11.3,80.9-16.9,125.1-16.9c44.1,0,77.5,10.6,100.2,31.9c22.7,21.3,34,47,34,77c0,36.3-11.7,68.5-34.9,96.7
		c-23.4,28.2-49.1,56.7-77.3,85.5c-19.6,20-38.6,40.7-57,61.9c-18.4,21.3-34.7,44.1-48.7,68.6c-14.1,24.4-25.4,50.7-34,78.9
		c-8.6,28.2-12.9,59.8-12.9,94.8c0,11.3,0.2,24.8,0.9,40.4c0.1,2.9,0.3,5.7,0.4,8.5h-45.8l49.9,33.8h242.8
		c-1.3-7.5-1.9-16.3-1.9-26.3c0-10,0-17.5,0-22.6c0-21.3,4.3-42.3,12.9-62.9c8.6-20.7,19.3-40.4,32.2-59.2
		c12.9-18.8,27.2-36.6,43.2-53.5c15.9-16.9,31.3-32.9,46-47.9c19.6-20,39.8-41.3,60.7-63.8c20.8-22.6,39.3-46.3,55.2-71.4
		c15.9-25.1,29.1-52.3,39.5-81.8c10.4-29.4,15.7-61.6,15.7-96.7C1510.6,299.8,1504.7,262.8,1493.1,224z"/>
	<path class="st1" d="M1037.9,230.9c-43.7,0-84.9,5.4-123.6,16.3c-38.8,10.9-81.8,28.5-129.1,52.7L708.8,94.5
		c47.3-30.3,103-53.6,167.3-70C940.3,8.2,1003.4,0,1065.2,0c77.5,0,141.4,10.3,191.7,30.9c50.3,20.6,90,46.6,119.1,78.2
		c29.1,31.5,49.4,66,60.9,103.6c11.5,37.6,17.3,73.3,17.3,107.2c0,34-5.2,65.2-15.5,93.6c-10.3,28.5-23.3,54.9-39.1,79.1
		c-15.7,24.3-34,47.2-54.6,69.1c-20.6,21.8-40.6,42.4-59.9,61.8c-14.6,14.6-29.7,30-45.4,46.4c-15.8,16.3-30,33.6-42.7,51.8
		c-12.7,18.2-23.4,37.3-31.8,57.3c-8.5,20-12.7,40.3-12.7,60.9c0,4.9,0,12.1,0,21.8c0,9.7,0.6,18.2,1.8,25.4h-240
		c-2.5-12.1-4-25.7-4.6-40.9c-0.7-15.1-0.9-28.2-0.9-39.1c0-33.9,4.2-64.5,12.7-91.8c8.5-27.3,19.6-52.7,33.6-76.3
		c13.9-23.7,30-45.7,48.2-66.4c18.2-20.6,37-40.6,56.3-59.9c27.9-27.9,53.3-55.4,76.4-82.7c23-27.3,34.5-58.5,34.5-93.6
		c0-29.1-11.2-53.9-33.6-74.6C1114.6,241.2,1081.5,230.9,1037.9,230.9z"/>
	<path class="st5" d="M1223.7,1156.6c0,43.8-14.2,77.6-42.5,101.4c-28.3,23.9-60.4,35.8-96.1,35.8c-35.8,0-67.9-11.9-96.2-35.8
		c-28.3-23.8-42.5-57.6-42.5-101.4c0-43.7,14.2-77.5,42.5-101.4c43.6-36.8,108.2-45,159.3-19.2
		C1193.4,1059,1223.7,1105.5,1223.7,1156.6z"/>
	<path class="st1" d="M1176.2,1156.6c0,43.8-14.2,77.6-42.5,101.4c-28.3,23.9-60.4,35.8-96.1,35.8c-35.8,0-67.9-11.9-96.2-35.8
		c-28.3-23.8-42.5-57.6-42.5-101.4c0-43.7,14.2-77.5,42.5-101.4c28.3-23.8,60.4-35.8,96.2-35.8c35.8,0,67.8,11.9,96.1,35.8
		C1162,1079.1,1176.2,1112.9,1176.2,1156.6z"/>
	<circle class="st6" cx="431.6" cy="531.2" r="26.1"/>
	
		<ellipse transform="matrix(0.9829 0.1842 -0.1842 0.9829 115.0792 -73.9023)" class="st6" cx="455.3" cy="582.4" rx="14.8" ry="14.7"/>
	<circle class="st6" cx="367.1" cy="399.5" r="103"/>
	<g>
		<circle class="st3" cx="327.6" cy="399.5" r="13"/>
		<circle class="st3" cx="367.1" cy="399.5" r="13"/>
		<circle class="st3" cx="406.6" cy="399.5" r="13"/>
	</g>
	<path class="st7" d="M293.3,1242.2l9.6,37.1c2.5,9.7,11.9,16.2,22.2,15.5c31.5-2.1,97.1-9.9,134.7-37.6l-10.7-53.5
		c-51.7-2.9-100.1,0-142,14.1C296.7,1221.4,290.7,1231.9,293.3,1242.2z"/>
	<path class="st3" d="M353.6,1271.7c-0.5,0-1-0.4-1.2-0.9l-12.9-46.3c-0.2-0.7,0.2-1.4,0.9-1.5c0.7-0.2,1.4,0.2,1.5,0.9l12.9,46.3
		c0.2,0.7-0.2,1.4-0.9,1.5C353.8,1271.7,353.7,1271.7,353.6,1271.7z"/>
	<path class="st3" d="M381.5,1265.5c-0.5,0-1-0.4-1.2-0.9l-12.9-46.3c-0.2-0.7,0.2-1.4,0.9-1.5c0.7-0.2,1.4,0.2,1.5,0.9l12.9,46.3
		c0.2,0.7-0.2,1.4-0.9,1.5C381.8,1265.5,381.6,1265.5,381.5,1265.5z"/>
	<polygon class="st8" points="414,1041.7 293.8,1077.4 383,1199.7 511.2,1209.9 688,1135.2 620.8,1034.1 	"/>
	<path class="st8" d="M562.2,1058.7c264-78.1,306.4,155.2-105.5,197.6c-14.5-16.4-31.5-44.8-38.3-68.5l217.5-100.5L562.2,1058.7z"/>
	<path class="st9" d="M573.4,1225.9c-12.3-4-24.2-11.8-24.2-11.8l-42.4,13.3l9.7,46.2l44.1,9C574,1258,574.8,1237.9,573.4,1225.9z"
		/>
	<path class="st10" d="M419.3,1189.5l-1.9-3.2c45.4-26.4,161.6-89.7,260.6-108.4l0.7,3.7C580.3,1100.1,464.5,1163.2,419.3,1189.5z"
		/>
	<path class="st8" d="M414,1041.7c-245.7-46.7-309.3,189.4,102.5,231.9c14.5-16.4,26-35.7,32.7-59.5
		c-63.3-42.3-134-82.6-211.5-120.9L414,1041.7z"/>
	<path class="st10" d="M548.2,1215.8c-11.7-7.4-23.9-15.3-36.8-23.6C446.7,1150.3,373.3,1103,311,1076l1.5-3.4
		c62.6,27.1,136.1,74.6,201,116.5c12.9,8.3,25.1,16.2,36.7,23.6L548.2,1215.8z"/>
	<path class="st10" d="M233.7,1158.8l-3.3-1.8c9.2-16.7,24-28,43.9-33.5l1,3.6C256.1,1132.5,242.5,1142.8,233.7,1158.8z"/>
	<path class="st10" d="M746.5,1144.6c-8.8-16-22.5-26.4-41.6-31.7l1-3.6c19.9,5.5,34.7,16.8,43.9,33.5L746.5,1144.6z"/>
	<path class="st10" d="M493.5,1271.6l-2.7-2.6c19.7-21.1,31.7-43.3,36.9-67.9l3.7,0.8C526,1227.2,513.6,1250,493.5,1271.6z"/>
	<path class="st7" d="M695.9,1212.2c-31.5-19.4-92.5,14.2-107.8,15.9c-4.5,0.5-9.6-0.5-14.7-2.1c1.4,11.9,0.6,32.1-12.8,56.6
		l7.5,1.5c0,0,51.8,19,106.7,7.9C725.4,1281.8,720.7,1227.5,695.9,1212.2z"/>
	<path class="st3" d="M653,1275.8c-0.1,0-0.3,0-0.4-0.1c-0.7-0.2-1-0.9-0.8-1.6c3.7-11.8,5.4-35.1-5.5-50.8
		c-0.4-0.6-0.3-1.3,0.3-1.7c0.6-0.4,1.3-0.3,1.7,0.3c11.3,16.4,9.7,40.7,5.8,53C654,1275.5,653.5,1275.8,653,1275.8z"/>
	<path class="st3" d="M628.3,1280.5c-0.1,0-0.3,0-0.4-0.1c-0.7-0.2-1-0.9-0.8-1.6c3.7-11.8,5.4-35.1-5.5-50.8
		c-0.4-0.6-0.3-1.3,0.3-1.7c0.6-0.4,1.3-0.3,1.7,0.3c11.3,16.4,9.7,40.7,5.8,53C629.3,1280.2,628.8,1280.5,628.3,1280.5z"/>
	<g>
		<path class="st9" d="M370.5,737.3c0,0,61.9-52.6,59.6-62.6c-1.6-7.1-19.2,3.3-19.2,3.3s24.6-29.2,23.3-32.7
			c-2.2-6.3-19.2,5.5-19.2,5.5s11.5-16.5,6-19.2c-5.5-2.7-17.5,7.5-17.5,7.5s7-9.2,3.7-11.6c-3.3-2.4-17.5,7.5-17.5,7.5
			s5.1-11.6-5.7-7.2c-10.8,4.4-86.6,74-86.6,74L370.5,737.3z"/>
		<g>
			<path class="st11" d="M395.8,674.9c-0.3,0-0.6-0.1-0.8-0.3c-10.6-9.7-15.3-12.1-27-15.7c-0.7-0.2-1-0.9-0.8-1.6
				c0.2-0.7,0.9-1,1.6-0.8c12.1,3.7,17,6.2,28,16.2c0.5,0.5,0.5,1.3,0.1,1.8C396.5,674.7,396.1,674.9,395.8,674.9z"/>
			<path class="st11" d="M377.2,703.4c-0.1,0-0.1,0-0.2,0c-0.7-0.1-1.2-0.7-1.1-1.4c1.2-8.7,4-14.1,8.4-16.6
				c3.8-2.1,8.7-1.9,14.6,0.6c0.6,0.3,0.9,1,0.7,1.6c-0.3,0.6-1,0.9-1.6,0.7c-5.2-2.2-9.3-2.5-12.4-0.8c-3.6,2-6,7-7.1,14.8
				C378.3,703,377.8,703.4,377.2,703.4z"/>
			<path class="st11" d="M374.2,650.8c-0.3,0-0.7-0.1-0.9-0.4c-0.5-0.5-0.5-1.3,0.1-1.8l15.5-14.6c0.5-0.5,1.3-0.5,1.8,0.1
				c0.5,0.5,0.5,1.3-0.1,1.8l-15.5,14.6C374.9,650.7,374.6,650.8,374.2,650.8z"/>
			<path class="st11" d="M388.6,655.8c-0.3,0-0.6-0.1-0.9-0.3c-0.5-0.5-0.5-1.3,0-1.8l14.9-15.5c0.5-0.5,1.3-0.5,1.8,0
				c0.5,0.5,0.5,1.3,0,1.8l-14.9,15.5C389.3,655.7,388.9,655.8,388.6,655.8z"/>
			<path class="st11" d="M403.3,664.6c-0.3,0-0.6-0.1-0.9-0.3c-0.5-0.5-0.5-1.3-0.1-1.8l11.7-12.6c0.5-0.5,1.3-0.5,1.8-0.1
				c0.5,0.5,0.5,1.3,0.1,1.8l-11.7,12.6C404,664.4,403.6,664.6,403.3,664.6z"/>
		</g>
	</g>
	<g>
		<path class="st12" d="M604.2,1089.2L378,1098l-25-206.2c0,0,75.7-71.8,104.9-98.3l49.2-2.5C659.7,860.3,634.7,946.9,604.2,1089.2z
			"/>
		<path class="st12" d="M507.1,790.9c0,0,174.6,14.9,229.7,134.6c53.9,117.1-167.5,158.7-167.5,158.7L507.1,790.9z"/>
		<path class="st12" d="M307.5,816.6l72.2-87.8l-67.5-40.9c-28.1,19.6-82.6,63.9-128.7,114.1c-10.2,11.1-18.1,24-22.1,38.3
			c-3.4,12.2-4,24.2-2.1,35.9v0c5,30.7,29.1,54.3,61.3,58.1c27.5,3.2,132.5-5,217.5-30l25-96.5C450.1,800.5,354.7,799.2,307.5,816.6
			z"/>
	</g>
	<g class="st13">
		<path class="st3" d="M652.8,838.4c0.4-0.1,0.8-0.2,1.1-0.3c-0.8-0.5-1.6-0.9-2.4-1.4c-12.8,2.9-26,6-39,7.5
			c-7.8,0.9-34,2.7-41.6-14.7c-3.8-8.7-0.9-18.3,3.4-25.1c-0.6-0.2-1.2-0.4-1.9-0.5c-4.4,7.2-7.2,17.2-3.2,26.3
			c8.2,18.6,35.4,16.8,43.5,15.9C626.2,844.5,639.7,841.4,652.8,838.4z"/>
		<path class="st3" d="M734.3,973.3c-8.3-3.2-17-6.6-26-5.7c-15.9,1.5-29.5,17.2-30.3,35c-0.6,12.1,4.1,24.9,12.9,36.1
			c0.5-0.3,1.1-0.7,1.6-1c-8.6-10.9-13.2-23.2-12.6-35c0.8-16.9,13.6-31.8,28.6-33.3c8.6-0.8,16.7,2.3,25.2,5.6
			c3,1.2,6.1,2.4,9.3,3.4c0.2-0.6,0.3-1.2,0.5-1.8C740.3,975.6,737.3,974.5,734.3,973.3z"/>
		<path class="st3" d="M293.5,913.7c-10.9-9-27.8-11.4-46.5-6.6c-16.6,4.3-30.8,12.8-40.6,24.1c0.6,0.2,1.3,0.4,1.9,0.6
			c9.5-10.7,23.2-18.7,39.2-22.9c18-4.7,34.4-2.4,44.8,6.2c5,4.1,8.5,9.4,11,15.2c0.6-0.1,1.3-0.1,1.9-0.2
			C302.6,923.9,298.9,918.1,293.5,913.7z"/>
		<path class="st3" d="M195,789.7c20.4-5.1,40.4-12.2,58.7-22.8c6.9-4,14.8-9.1,20.3-16.6c5.9-8,7.8-17.5,5.2-25.4
			c-1-3.1-2.8-5.8-5.1-8c-0.5,0.4-1,0.8-1.4,1.2c2.1,2,3.8,4.5,4.7,7.4c2.4,7.3,0.6,16.2-4.9,23.7c-5.3,7.2-13,12.2-19.7,16.1
			c-17.3,10-36.1,16.9-55.4,21.9C196.6,788,195.8,788.8,195,789.7z"/>
	</g>
	<g>
		<path class="st9" d="M523.1,745.1l0,3.2l-0.5,49.7l-0.1,5.4c-0.1,8.4-3.5,16.1-9.1,21.6c-5.5,5.5-13.2,9-21.6,9
			c-17.1,0.1-31-13.6-31.2-30.7l-0.6-61.5L523.1,745.1z"/>
		<path class="st14" d="M523,748.3l-0.5,49.7c-27.6-11.3-39-41.2-39-41.2L523,748.3z"/>
		<path class="st9" d="M534,661.5c9.9,11.9,38.8,79.2,9.5,102.2c-33,25.9-83.2-16.6-83.2-16.6l-6.7-78.4l43.6-11.5L534,661.5z"/>
		<path class="st14" d="M431.3,657.2c0,0-96.7,50.4-17.8,195.7c10.1,18.7,32.5,26.8,51.7,17.7h0c20.6-9.8,28.4-34.9,17.2-54.8
			c-12.9-22.9-25.3-52.4-20-74.3L431.3,657.2z"/>
		<circle class="st15" cx="440.5" cy="681" r="26.1"/>
		<path class="st14" d="M472.6,712.4c-2.8-16.3-4.5-27.5,11.9-35.9c0,0,58.1,10.6,69.2-11.4c11.1-21.9-5.8-56.5-41.2-32.5
			C422,615,409.8,699.8,437.3,728l27.1-4.2C469.9,723,473.6,717.9,472.6,712.4z"/>
		<g>
			<circle class="st14" cx="517.6" cy="712.5" r="3.9"/>
			<circle class="st14" cx="543.8" cy="699.6" r="3.9"/>
			<path class="st14" d="M541.1,724.4c-0.3,0-0.5-0.1-0.8-0.3c-0.4-0.4-0.5-1.1,0-1.5c1.5-1.6,3.2-3.9,2.5-5.6
				c-0.7-1.7-3.9-2.5-5.3-2.5c-3.1,0-4.6-5.5-4.8-6.6c-0.1-0.6,0.2-1.2,0.8-1.3c0.6-0.1,1.2,0.2,1.3,0.8c0.6,2.3,1.8,4.9,2.7,4.9
				c1.5,0,6,0.7,7.3,3.8c1,2.2,0,4.9-3,8C541.7,724.3,541.4,724.4,541.1,724.4z"/>
			<path class="st14" d="M541.3,739c-0.2,0-0.4-0.1-0.6-0.2c-7.3-4.9-14.6-0.8-14.7-0.8c-0.5,0.3-1.2,0.1-1.5-0.4
				c-0.3-0.5-0.1-1.2,0.4-1.5c0.3-0.2,8.6-4.8,17,0.8c0.5,0.3,0.6,1,0.3,1.5C542,738.9,541.6,739,541.3,739z"/>
			<path class="st14" d="M515.9,695.8c2.2,4.1-1.6,5-6.1,7.4c-4.5,2.4-9.1,3.3-10.1,1.3s1.7-5.5,6.2-7.9S514.2,692.6,515.9,695.8z"
				/>
			<path class="st14" d="M532.3,688.3c1,3.7,3.7,2.1,7.7,1c4-1,7.2-3.1,6.8-4.8c-0.5-1.8-4.1-2.3-8.1-1.3
				C534.7,684.3,531.5,685.4,532.3,688.3z"/>
		</g>
		<circle class="st16" cx="499.8" cy="730.5" r="11.4"/>
		
			<ellipse transform="matrix(0.6109 -0.7917 0.7917 0.6109 -400.748 645.6472)" class="st9" cx="456.5" cy="730.6" rx="15.4" ry="17.5"/>
		<path class="st14" d="M463.3,736.3c-0.6,0-1.1-0.5-1.1-1.1c0-3.2-1.6-6.2-4.2-8c-2.3-1.5-4.9-1.9-7.2-1c-0.6,0.2-1.2,0-1.4-0.6
			c-0.2-0.6,0-1.2,0.6-1.4c2.9-1.2,6.4-0.8,9.2,1.2c3.2,2.2,5.2,5.8,5.2,9.8C464.4,735.8,463.9,736.3,463.3,736.3z"/>
	</g>
	<g>
		
			<rect x="286.5" y="808.8" transform="matrix(0.7343 0.6788 -0.6788 0.7343 645.2386 27.3098)" class="st14" width="2.5" height="58.1"/>
		<path class="st14" d="M584.6,999.2l-0.7-2.4c28.7-8.8,56.6-19.2,81.9-50.8l2,1.6C642,979.7,613.7,990.3,584.6,999.2z"/>
	</g>
	<g>
		<path class="st17" d="M602.1,902.4H357.7c-8.8,0-15.9,7.7-15.9,17.2v174.5c0,9.5,7.1,17.2,15.9,17.2h244.4
			c8.8,0,15.9-7.7,15.9-17.2V919.6C618,910.1,610.9,902.4,602.1,902.4z"/>
	</g>
	<g>
		<path class="st18" d="M492.8,995.8c0.9,0,1.7,0.8,1.7,1.8v18.4c0,1-0.8,1.8-1.7,1.8H467c-0.9,0-1.7-0.8-1.7-1.8v-18.4
			c0-1,0.8-1.8,1.7-1.8H492.8 M492.8,990.8H467c-3.7,0-6.7,3.1-6.7,6.8v18.4c0,3.8,3,6.8,6.7,6.8h25.8c3.7,0,6.7-3.1,6.7-6.8v-18.4
			C499.5,993.9,496.5,990.8,492.8,990.8L492.8,990.8z"/>
	</g>
	<rect x="77" y="1291.7" class="st19" width="1473.7" height="5"/>
</g>
</svg>
