<?xml version="1.0" encoding="utf-8"?>
<!-- Generator: Adobe Illustrator 19.0.0, SVG Export Plug-In . SVG Version: 6.00 Build 0)  -->
<svg version="1.0" id="Слой_2" xmlns="http://www.w3.org/2000/svg" xmlns:xlink="http://www.w3.org/1999/xlink" x="0px" y="0px"
	 viewBox="0 0 2083.4 1900.5" style="enable-background:new 0 0 2083.4 1900.5;" xml:space="preserve">
<style type="text/css">
	.st0{fill:none;stroke:#EACFAC;stroke-width:15;stroke-miterlimit:10;}
	.st1{fill:none;stroke:#2C386B;stroke-width:15;stroke-miterlimit:10;}
	.st2{fill:none;stroke:#CFD6E5;stroke-width:15;stroke-miterlimit:10;}
	.st3{fill:#FBD5B7;}
	.st4{fill:#FBE9DB;}
	.st5{fill:#FFA07A;}
	.st6{fill:#E88861;}
	.st7{fill:#4C4C4C;}
	.st8{fill:#E0E0E0;}
	.st9{fill:none;stroke:#E0E0E0;stroke-miterlimit:10;}
	.st10{fill:#F93D3D;}
	.st11{fill:#FFFFFF;}
	.st12{fill:#71DB71;}
	.st13{fill:none;stroke:#54B8FC;stroke-width:15;stroke-miterlimit:10;}
	.st14{opacity:0.6;fill:#ABADB2;}
	.st15{opacity:0.5;fill:#C2D2F2;}
	.st16{opacity:0.35;fill:#E8B638;}
</style>
<rect x="163.8" y="514.6" transform="matrix(0.9974 7.167448e-002 -7.167448e-002 0.9974 43.1736 -15.8801)" class="st0" width="158.1" height="158.1"/>
<polygon class="st1" points="97.5,445.3 430.8,333.6 360.9,678.2 "/>
<polygon class="st2" points="1643.7,558.5 1552.7,219 1892.3,309.9 "/>
<g>
	<path class="st3" d="M1814.9,600l-51.1,114.1c-1.9,4.3,0,9.4,4.3,11.4l198.3,88.8c4.3,1.9,9.4,0,11.4-4.3l51.1-114.1
		c1.9-4.3,0-9.4-4.3-11.4l-198.3-88.8C1822,593.7,1816.9,595.7,1814.9,600z"/>
	<path class="st4" d="M1814.9,600l-2.8,6.3l61.3,105.4c5.8,10.5,17.8,16,29.6,13.5l124.4-25.7l1.6-3.6c1.9-4.3,0-9.4-4.3-11.4
		l-198.3-88.8C1822,593.7,1816.9,595.7,1814.9,600z"/>
</g>
<g>
	<path class="st5" d="M1402.9,650.1c0,0,38.6-13.5,94-36.4c16.2-6.7,33.9-14.2,52.4-22.4c82-36.2,148.6-63.2,115.6-147
		c-20.8-52.8-76.9-46.4-125.1-29.1c-28.3,10.2-53.9,24.2-68,32.2L1402.9,650.1z"/>
	<path class="st6" d="M1496.9,613.8c-1.5-99.9,29.1-171.4,42.9-198.5c-28.3,10.2-60.5,27.1-74.5,35.1l-62.4,199.8
		C1402.9,650.1,1441.5,636.6,1496.9,613.8z"/>
</g>
<g>
	<path class="st5" d="M0,1772.4l0,128.1h556.8l79.3-262.7c47.7-25.1,91.9-32.1,155.5-82c65.2-51.1,141.4-73.5,144.5-81.8
		c74.7-197.7-139.6-377.6-179.1-461.1c-1.4-2.9-2.7-5.8-3.9-8.7c-34-81.9-31.3-211.4-24.4-274.4c2.4-22.3,5.2-61.6,2.8-80.5
		c-16.8-131.9-129.8-223.8-198.9-160.2c-37.2,34.3,49.1,171.2-17.3,304.7c-70.5,141.7-140.2,294.3-162.7,509.4
		C300.6,1366.9,127.5,1602.1,0,1772.4z"/>
	<path class="st6" d="M541.5,675.7c76.8,14.3,57.6-103,51-148.3c-0.8,22.5-1,44.7-2,67.1C590,628.9,584.2,673.2,541.5,675.7z"/>
</g>
<path class="st6" d="M769,1572.4c0,0-198.5-120.4-169.5-232.5c95.4-91,57.6-251.8,55-328.8c-2.6-77,27.2-355.6,27.2-355.6
	L842,1519.9L769,1572.4z"/>
<path d="M814,1527.7l513.2,0.3c75.9,0,137.4-61.4,137.5-137.3l0.7-1177.3c0-75.9-61.4-137.4-137.3-137.5L815,75.6
	c-75.9,0-137.4,61.4-137.5,137.3l-0.7,1177.3C676.7,1466.1,738.2,1527.6,814,1527.7z"/>
<path class="st7" d="M805.4,1490.2h534.3c47.6,0,86.5-38.9,86.5-86.5V201.2c0-47.6-38.9-86.5-86.5-86.5H805.4
	c-47.6,0-86.5,38.9-86.5,86.5v1202.6C718.9,1451.3,757.8,1490.2,805.4,1490.2z"/>
<g>
	<g>
		<g>
			<path class="st4" d="M1715.9,1665.5c-0.9,0.1-1.9-0.1-2.9-0.4c-4.1-1.3-6.4-5.7-5.1-9.8c3.3-10.4,7.8-21.2,13.2-32
				c1.9-3.9,6.6-5.4,10.5-3.5c3.9,1.9,5.4,6.6,3.5,10.5c-5.1,10.2-9.2,20.2-12.3,29.8C1721.8,1663.3,1719,1665.3,1715.9,1665.5z
				 M1745.5,1605.7c-1.7,0.1-3.4-0.3-4.8-1.3c-3.6-2.4-4.5-7.3-2.1-10.8c6.4-9.6,13.5-18.8,20.9-27.4c2.8-3.3,7.8-3.6,11-0.8
				c3.3,2.8,3.6,7.8,0.8,11c-7,8.1-13.6,16.8-19.7,25.8C1750.1,1604.3,1747.8,1605.5,1745.5,1605.7z M2076.1,1548.2
				c-0.3,0-0.7,0-1,0c-10.9-0.7-22.3-1.8-33.9-3.3c-4.3-0.6-7.3-4.5-6.7-8.8c0.6-4.3,4.5-7.3,8.8-6.7c11.2,1.5,22.3,2.6,32.8,3.2
				c4.3,0.3,7.6,4,7.3,8.3C2083.1,1544.9,2080,1548,2076.1,1548.2z M1789.4,1555.4c-2.3,0.2-4.7-0.8-6.4-2.7
				c-2.8-3.3-2.5-8.2,0.8-11c9-7.8,18.4-14.8,28-20.6c3.7-2.2,8.5-1.1,10.7,2.6c2.2,3.7,1.1,8.5-2.6,10.7
				c-8.8,5.4-17.5,11.8-25.9,19C1792.7,1554.6,1791.1,1555.3,1789.4,1555.4z M2009.7,1539.5c-0.6,0-1.3,0-2-0.1
				c-10.9-2.1-22-4.5-33.1-7.2c-4.2-1-6.8-5.3-5.7-9.4c1-4.2,5.3-6.8,9.4-5.7c10.8,2.6,21.7,5,32.3,7.1c4.2,0.8,7,4.9,6.2,9.1
				C2016.2,1536.8,2013.2,1539.3,2009.7,1539.5z M1944.7,1523.6c-0.9,0.1-1.8,0-2.7-0.3c-4.1-1.2-8.1-2.5-12-3.7
				c-6.4-2.1-12.9-3.6-19.4-4.7c-4.3-0.7-7.1-4.7-6.5-9s4.7-7.2,9-6.5c7.2,1.2,14.5,2.9,21.6,5.2c3.8,1.2,7.7,2.4,11.7,3.6
				c4.1,1.2,6.5,5.6,5.2,9.7C1950.7,1521.3,1947.9,1523.4,1944.7,1523.6z M1846.5,1521.1c-3.4,0.2-6.7-1.8-7.9-5.2
				c-1.4-4.1,0.7-8.5,4.8-10c11.3-4,22.9-6.6,34.4-7.7c4.3-0.4,8.1,2.7,8.5,7c0.4,4.3-2.7,8.1-7,8.5c-10.3,1-20.6,3.3-30.7,6.8
				C1847.9,1521,1847.2,1521.1,1846.5,1521.1z"/>
		</g>
	</g>
	<g>
		<polygon class="st3" points="1700.9,1637.4 1722.5,1667.8 1563.4,1793 		"/>
		<polygon class="st3" points="1742.3,1704.7 1734.6,1741.8 1570.4,1787.2 		"/>
		<polygon class="st4" points="1563.4,1793 1838.2,1678 1738.6,1650.4 		"/>
		<polygon class="st4" points="1700.9,1637.4 1563.4,1793 1638,1615.7 		"/>
	</g>
</g>
<path d="M1222.4,176.9H919.8c-18.4,0-33.3-14.9-33.3-33.3v-35.3c0-4,3.3-7.3,7.3-7.3h354.6c4,0,7.3,3.3,7.3,7.3v35.3
	C1255.7,162,1240.8,176.9,1222.4,176.9z"/>
<g>
	<path class="st5" d="M1492.7,660.2c28.9-11.6,83.6-4.2,104.6,54.7c29.8,83.8-15.4,90.1-66.9,123.6c-51.5,33.5-108.1,48.9-146.8-5.1
		c-38.6-54.1-10.3-108.1,25.7-128.7C1445.4,684,1471.8,668.6,1492.7,660.2z"/>
	<path class="st6" d="M1424,723.9c40.8-16.9,67.7-20,91.1,22.6c23.3,39-7.7,65.6-37,88.1c38.6-17.5,70.9-49.2,45.8-92.8
		C1498.7,696.5,1463.9,696.1,1424,723.9z"/>
</g>
<g>
	<path class="st5" d="M1586.8,936.8c32.2,38.2,23.4,102.5-51.3,141.2c-74.7,38.6-141.6,48.9-167.4-18
		c-25.7-66.9,15.4-103,72.1-136.5C1496.9,890,1545.6,887.9,1586.8,936.8z"/>
	<path class="st6" d="M1401.6,993c23.9-12.8,53.1-33.5,80.8-24.5c54.2,42.1,28.3,106.8-35.1,119.6c71.8-1.8,101-80.6,43.3-125.6
		C1460.3,946.1,1424.3,974.1,1401.6,993z"/>
</g>
<g>
	<path class="st5" d="M1574.1,1211.8c13.3,43.6-13.2,94.6-82.7,107.4c-69.5,12.9-123.6,17.1-133.5-58.5c-7.7-58.9,61.2-83.4,99.6-91
		C1492.6,1162.8,1556.1,1152.6,1574.1,1211.8z"/>
	<path class="st6" d="M1400.6,1222c17.5-1.6,66.5-9.8,79.5,0.2c10.7,13,12.5,32.4,6,47.7c-11,24.4-42.5,36-68.1,33.7
		c27.5,8.5,63.5-2.9,76.7-29.8c9-18.7,6.3-43.1-8-58.4C1469.1,1201.2,1420.6,1215.3,1400.6,1222z"/>
</g>
<g>
	<rect x="1277.6" y="158.2" class="st8" width="6.7" height="7.7"/>
	<rect x="1288.2" y="152.2" class="st8" width="6.7" height="13.7"/>
	<rect x="1298.6" y="145" class="st8" width="6.7" height="20.8"/>
</g>
<g>
	<path class="st9" d="M1376.1,166.1h-48c-1.3,0-2.4-1.1-2.4-2.4v-15.6c0-1.3,1.1-2.4,2.4-2.4h48c1.3,0,2.4,1.1,2.4,2.4v15.6
		C1378.5,165,1377.5,166.1,1376.1,166.1z"/>
	<path class="st8" d="M1365.2,164.5h-36.5c-0.6,0-1.2-0.5-1.2-1.2v-14.9c0-0.6,0.5-1.2,1.2-1.2h36.5c0.6,0,1.2,0.5,1.2,1.2v14.9
		C1366.4,164,1365.8,164.5,1365.2,164.5z"/>
	<path class="st8" d="M1380.4,151.6h-1.5c-0.2,0-0.3,0.2-0.3,0.3v7.9c0,0.2,0.2,0.3,0.3,0.3h1.5c0.2,0,0.3-0.2,0.3-0.3v-7.9
		C1380.7,151.8,1380.6,151.6,1380.4,151.6z"/>
</g>
<circle class="st10" cx="919.6" cy="1149.4" r="81.2"/>
<path class="st11" d="M877.5,1164.9l1.1,0.5c2.5,1.2,6.5,1.1,8.9-0.3l8.9-5.1c2.4-1.4,4.4-4.8,4.4-7.5l0-5.1
	c11.7-6.7,26.1-6.7,37.8,0v5.1c0,2.8,2,6.2,4.4,7.5l8.9,5.1c2.4,1.4,6.4,1.5,8.9,0.2l1.1-0.5c2.5-1.2,4.5-4.5,4.5-7.3l0-7.6
	c0-1.3-1.5-3.7-1.5-3.7c-11.9-12.1-28.2-19-45.2-19c-17,0-33.2,6.8-45.1,18.9c-0.1,0.1-1.6,2.5-1.6,3.8v7.6
	C873,1160.4,875,1163.7,877.5,1164.9z"/>
<circle class="st12" cx="1208.1" cy="1149.4" r="81.2"/>
<path class="st11" d="M1245.4,1173.7l-0.4-1.1c-0.9-2.6-3.8-5.4-6.5-6.1l-9.9-2.7c-2.7-0.7-6.5,0.3-8.5,2.2l-3.6,3.6
	c-13-3.5-23.2-13.7-26.7-26.7l3.6-3.6c2-2,2.9-5.8,2.2-8.5l-2.7-9.9c-0.7-2.7-3.5-5.6-6.1-6.5l-1.1-0.4c-2.6-0.9-6.4,0-8.4,2
	l-5.4,5.4c-1,1-1.6,3.7-1.6,3.7c-0.2,17,6.5,33.4,18.5,45.4c12,12,28.3,18.6,45.2,18.5c0.1,0,2.9-0.6,3.8-1.6l5.4-5.4
	C1245.4,1180.1,1246.3,1176.3,1245.4,1173.7z"/>
<g>
	<path class="st11" d="M877.5,1270c0-6.5,5-11.4,11.8-11.4c6.7,0,11.7,4.8,11.7,11.4s-5,11.4-11.7,11.4
		C882.5,1281.4,877.5,1276.5,877.5,1270z M898.6,1270c0-5.3-4-9.3-9.4-9.3c-5.4,0-9.4,3.9-9.4,9.3s4,9.3,9.4,9.3
		C894.6,1279.3,898.6,1275.3,898.6,1270z"/>
	<path class="st11" d="M921.2,1257.4v23.7H919v-3.3c-1.4,2.3-3.7,3.5-6.5,3.5c-4.8,0-8.4-3.5-8.4-8.6c0-5.1,3.6-8.5,8.4-8.5
		c2.7,0,5,1.2,6.4,3.3v-10.1H921.2z M918.9,1272.8c0-3.9-2.7-6.6-6.2-6.6c-3.6,0-6.3,2.6-6.3,6.6c0,3.9,2.7,6.6,6.3,6.6
		C916.3,1279.3,918.9,1276.7,918.9,1272.8z"/>
	<path class="st11" d="M944.6,1272.8c0,5.1-3.6,8.6-8.4,8.6c-2.8,0-5.1-1.2-6.5-3.5v3.3h-2.2v-23.7h2.3v10.1
		c1.4-2.2,3.7-3.3,6.4-3.3C941,1264.2,944.6,1267.7,944.6,1272.8z M942.3,1272.8c0-3.9-2.7-6.6-6.3-6.6c-3.6,0-6.3,2.6-6.3,6.6
		c0,3.9,2.7,6.6,6.3,6.6C939.6,1279.3,942.3,1276.7,942.3,1272.8z"/>
	<path class="st11" d="M948.7,1259c0-0.9,0.7-1.6,1.7-1.6c0.9,0,1.7,0.7,1.7,1.6c0,0.9-0.7,1.7-1.7,1.7
		C949.4,1260.7,948.7,1259.9,948.7,1259z M949.2,1264.3h2.3v16.8h-2.3V1264.3z"/>
	<path class="st11" d="M951.8,1286.5l0.8-1.7c0.7,0.6,1.6,0.9,2.6,0.9c1.8,0,2.8-1.1,2.8-3.2v-18.1h2.3v18.1c0,3.1-1.7,5.1-4.9,5.1
		C954,1287.5,952.6,1287.2,951.8,1286.5z M957.5,1259c0-0.9,0.7-1.6,1.7-1.6c0.9,0,1.7,0.7,1.7,1.6c0,0.9-0.7,1.7-1.7,1.7
		C958.2,1260.7,957.5,1259.9,957.5,1259z"/>
</g>
<g>
	<path class="st11" d="M1168.3,1266.5c0,4.8-3.5,7.6-9.2,7.6h-6v7.1h-2.4v-22.4h8.4C1164.8,1258.8,1168.3,1261.7,1168.3,1266.5z
		 M1165.9,1266.5c0-3.6-2.4-5.6-6.8-5.6h-6v11.2h6C1163.5,1272,1165.9,1270,1165.9,1266.5z"/>
	<path class="st11" d="M1181,1264.2v2.2c-0.2,0-0.4,0-0.5,0c-3.5,0-5.7,2.2-5.7,6.2v8.6h-2.3v-16.8h2.2v3.3
		C1175.7,1265.4,1177.9,1264.2,1181,1264.2z"/>
	<path class="st11" d="M1184.5,1259c0-0.9,0.7-1.6,1.7-1.6c0.9,0,1.7,0.7,1.7,1.6c0,0.9-0.7,1.7-1.7,1.7
		C1185.3,1260.7,1184.5,1259.9,1184.5,1259z M1185.1,1264.3h2.3v16.8h-2.3V1264.3z"/>
	<path class="st11" d="M1209.2,1271.4v9.8h-2.3v-9.5c0-3.6-1.9-5.4-5.1-5.4c-3.6,0-5.9,2.2-5.9,6.1v8.8h-2.3v-23.7h2.3v9.9
		c1.2-2,3.5-3.1,6.3-3.1C1206.3,1264.2,1209.2,1266.6,1209.2,1271.4z"/>
	<path class="st11" d="M1229.2,1264.3l-7.5,16.8h-2.3l-7.5-16.8h2.4l6.3,14.3l6.4-14.3H1229.2z"/>
	<path class="st11" d="M1244.5,1270.7v10.4h-2.2v-2.6c-1,1.7-3,2.8-5.8,2.8c-3.8,0-6.1-2-6.1-4.9c0-2.6,1.7-4.8,6.5-4.8h5.3v-1
		c0-2.9-1.6-4.4-4.8-4.4c-2.2,0-4.2,0.8-5.6,2l-1-1.7c1.7-1.4,4.2-2.3,6.8-2.3C1242.1,1264.2,1244.5,1266.4,1244.5,1270.7z
		 M1242.3,1276.1v-2.8h-5.3c-3.3,0-4.3,1.3-4.3,3c0,2,1.6,3.2,4.3,3.2C1239.5,1279.5,1241.4,1278.3,1242.3,1276.1z"/>
	<path class="st11" d="M1259.6,1280.2c-0.9,0.8-2.2,1.2-3.6,1.2c-3.2,0-4.9-1.8-4.9-4.9v-10.2h-3v-1.9h3v-3.7h2.3v3.7h5.1v1.9h-5.1
		v10c0,2,1,3.1,2.9,3.1c0.9,0,1.9-0.3,2.5-0.9L1259.6,1280.2z"/>
	<path class="st11" d="M1263.2,1259c0-0.9,0.7-1.6,1.7-1.6c0.9,0,1.7,0.7,1.7,1.6c0,0.9-0.7,1.7-1.7,1.7
		C1263.9,1260.7,1263.2,1259.9,1263.2,1259z M1263.7,1264.3h2.3v16.8h-2.3V1264.3z"/>
</g>
<g>
	<path class="st11" d="M786,382.4l2.7-5.6c3.7,3.4,10.2,5.8,16.6,5.8c8.7,0,12.5-3.4,12.5-7.8c0-12.3-30.5-4.5-30.5-23.3
		c0-7.8,6-14.4,19.3-14.4c5.9,0,12,1.6,16.2,4.5l-2.4,5.8c-4.4-2.8-9.4-4.1-13.8-4.1c-8.6,0-12.2,3.6-12.2,8
		c0,12.3,30.5,4.6,30.5,23.1c0,7.7-6.2,14.3-19.5,14.3C797.6,388.7,790,386.1,786,382.4z"/>
	<path class="st11" d="M855.8,385.9c-2.1,1.8-5.3,2.7-8.4,2.7c-7.7,0-12.1-4.2-12.1-12v-21h-6.5V350h6.5v-8.4h6.9v8.4h10.9v5.7
		h-10.9v20.7c0,4.1,2.2,6.4,6,6.4c2,0,4-0.6,5.4-1.8L855.8,385.9z"/>
	<path class="st11" d="M899.7,350v38.2h-6.6v-5.8c-2.8,4-7.6,6.2-13,6.2c-9.9,0-16.4-5.4-16.4-16.6v-22h6.9v21.2
		c0,7.5,3.7,11.2,10.3,11.2c7.2,0,11.8-4.5,11.8-12.7V350H899.7z"/>
	<path class="st11" d="M948.9,334.7v53.4h-6.6v-6c-3.1,4.3-8,6.5-13.6,6.5c-11.2,0-19.3-7.8-19.3-19.5s8.1-19.4,19.3-19.4
		c5.4,0,10.2,2,13.3,6.1v-21H948.9z M942,369.1c0-8.1-5.5-13.4-12.8-13.4c-7.3,0-12.9,5.3-12.9,13.4s5.5,13.5,12.9,13.5
		C936.5,382.5,942,377.2,942,369.1z"/>
	<path class="st11" d="M996.3,371.4h-31c0.9,6.7,6.3,11.2,13.8,11.2c4.5,0,8.2-1.5,11-4.6l3.8,4.5c-3.5,4-8.7,6.2-15,6.2
		c-12.3,0-20.5-8.1-20.5-19.5c0-11.3,8.1-19.4,19.2-19.4c11,0,18.9,7.9,18.9,19.7C996.4,369.9,996.4,370.7,996.3,371.4z
		 M965.3,366.4h24.5c-0.7-6.4-5.5-10.9-12.2-10.9C971,355.5,966.1,359.9,965.3,366.4z"/>
	<path class="st11" d="M1042.2,366.2v22h-6.9V367c0-7.5-3.7-11.2-10.3-11.2c-7.3,0-12.1,4.4-12.1,12.7v19.7h-6.9V350h6.6v5.8
		c2.8-3.9,7.7-6.1,13.8-6.1C1035.7,349.6,1042.2,355,1042.2,366.2z"/>
	<path class="st11" d="M1076.5,385.9c-2.1,1.8-5.3,2.7-8.4,2.7c-7.7,0-12.1-4.2-12.1-12v-21h-6.5V350h6.5v-8.4h6.9v8.4h10.9v5.7
		H1063v20.7c0,4.1,2.2,6.4,6,6.4c2,0,4-0.6,5.4-1.8L1076.5,385.9z"/>
	<path class="st11" d="M1080,384.1l2.9-5.5c3.2,2.3,8.4,4,13.4,4c6.4,0,9.1-1.9,9.1-5.2c0-8.6-24.1-1.2-24.1-16.3
		c0-6.8,6.1-11.4,15.9-11.4c5,0,10.6,1.3,13.9,3.5l-3,5.5c-3.5-2.2-7.3-3-11-3c-6,0-9,2.2-9,5.3c0,9,24.2,1.7,24.2,16.5
		c0,6.9-6.3,11.3-16.5,11.3C1089.5,388.6,1083.2,386.6,1080,384.1z"/>
	<path class="st11" d="M1135.8,370.4l-7.9,7.3v10.4h-6.9v-53.4h6.9V369l20.8-19h8.4l-16.1,15.8l17.6,22.4h-8.5L1135.8,370.4z"/>
	<path class="st11" d="M1163.6,338.2c0-2.5,2-4.5,4.7-4.5s4.7,1.9,4.7,4.4c0,2.6-1.9,4.6-4.7,4.6
		C1165.6,342.6,1163.6,340.7,1163.6,338.2z M1164.8,350h6.9v38.2h-6.9V350z"/>
	<path class="st11" d="M1232.5,382.5v5.7h-32v-4.5l22.5-28H1201V350h31v4.5l-22.5,27.9H1232.5z"/>
	<path class="st11" d="M1281.3,369.1c0,11.7-8.1,19.5-19.3,19.5c-5.6,0-10.5-2.2-13.6-6.5v6h-6.6v-53.4h6.9v21
		c3.2-4.1,7.9-6.1,13.3-6.1C1273.1,349.6,1281.3,357.4,1281.3,369.1z M1274.3,369.1c0-8.1-5.5-13.4-12.9-13.4
		c-7.3,0-12.8,5.3-12.8,13.4s5.5,13.5,12.8,13.5C1268.8,382.5,1274.3,377.2,1274.3,369.1z"/>
	<path class="st11" d="M1287.3,369.1c0-11.4,8.4-19.4,19.9-19.4c11.4,0,19.8,8.1,19.8,19.4s-8.4,19.5-19.8,19.5
		C1295.7,388.6,1287.3,380.4,1287.3,369.1z M1320,369.1c0-8.1-5.5-13.4-12.8-13.4c-7.3,0-12.9,5.3-12.9,13.4s5.5,13.5,12.9,13.5
		C1314.5,382.5,1320,377.2,1320,369.1z"/>
	<path class="st11" d="M1357.1,349.6v6.7c-0.6-0.1-1.1-0.1-1.6-0.1c-7.4,0-12,4.5-12,12.9v19h-6.9V350h6.6v6.4
		C1345.6,351.9,1350.4,349.6,1357.1,349.6z"/>
	<path class="st11" d="M1046.1,435.4v9.8h-2.3v-9.5c0-3.6-1.8-5.4-4.8-5.4c-3.5,0-5.6,2.2-5.6,6.1v8.8h-2.3v-9.5
		c0-3.6-1.8-5.4-4.9-5.4c-3.4,0-5.6,2.2-5.6,6.1v8.8h-2.3v-16.8h2.2v3.1c1.2-2,3.4-3.2,6.2-3.2c2.8,0,5,1.2,6,3.6
		c1.2-2.2,3.6-3.6,6.7-3.6C1043.4,428.2,1046.1,430.6,1046.1,435.4z"/>
	<path class="st11" d="M1050.6,436.7c0-5,3.6-8.5,8.6-8.5s8.5,3.6,8.5,8.5s-3.6,8.6-8.5,8.6S1050.6,441.7,1050.6,436.7z
		 M1065.4,436.7c0-3.9-2.7-6.6-6.2-6.6c-3.6,0-6.3,2.6-6.3,6.6c0,3.9,2.7,6.6,6.3,6.6C1062.8,443.3,1065.4,440.7,1065.4,436.7z"/>
	<path class="st11" d="M1089.4,436.7c0,5.1-3.6,8.6-8.4,8.6c-2.8,0-5.1-1.2-6.5-3.5v3.3h-2.2v-23.7h2.3v10.1
		c1.4-2.2,3.7-3.3,6.4-3.3C1085.8,428.2,1089.4,431.7,1089.4,436.7z M1087.2,436.7c0-3.9-2.7-6.6-6.3-6.6c-3.6,0-6.3,2.6-6.3,6.6
		c0,3.9,2.7,6.6,6.3,6.6C1084.4,443.3,1087.2,440.7,1087.2,436.7z"/>
	<path class="st11" d="M1093.6,423c0-0.9,0.7-1.6,1.7-1.6c0.9,0,1.7,0.7,1.7,1.6c0,0.9-0.7,1.7-1.7,1.7
		C1094.3,424.6,1093.6,423.9,1093.6,423z M1094.1,428.3h2.3v16.8h-2.3V428.3z"/>
	<path class="st11" d="M1102.7,421.4h2.3v23.7h-2.3V421.4z"/>
	<path class="st11" d="M1125.9,437.4h-14.1c0.3,3.5,2.9,5.9,6.6,5.9c2,0,3.9-0.7,5.2-2.2l1.3,1.5c-1.5,1.8-3.8,2.8-6.5,2.8
		c-5.2,0-8.8-3.6-8.8-8.6s3.5-8.5,8.2-8.5s8.2,3.5,8.2,8.5C1126,436.9,1125.9,437.2,1125.9,437.4z M1111.9,435.7h11.9
		c-0.3-3.3-2.7-5.6-6-5.6C1114.6,430.1,1112.2,432.5,1111.9,435.7z"/>
</g>
<circle class="st13" cx="1861.3" cy="257.3" r="131.6"/>
<circle class="st14" cx="1237.5" cy="1704.3" r="90"/>
<circle class="st15" cx="1360.3" cy="1584.6" r="149.9"/>
<circle class="st16" cx="631" cy="155" r="155"/>
</svg>
