<?xml version="1.0" encoding="utf-8"?>
<!-- Generator: Adobe Illustrator 19.0.0, SVG Export Plug-In . SVG Version: 6.00 Build 0)  -->
<svg version="1.0" id="Layer_1" xmlns="http://www.w3.org/2000/svg" xmlns:xlink="http://www.w3.org/1999/xlink" x="0px" y="0px"
	 viewBox="0 0 689.6 526" style="enable-background:new 0 0 689.6 526;" xml:space="preserve">
<style type="text/css">
	.st0{fill:#DB8B27;}
	.st1{fill:#FAFCFE;}
	.st2{fill:#054974;}
	.st3{fill:#F79458;}
	.st4{fill:none;stroke:#051B29;stroke-width:1.7484;stroke-linecap:round;stroke-linejoin:round;stroke-miterlimit:10;}
	.st5{fill:none;stroke:#F4792B;stroke-width:1.6;stroke-linecap:round;stroke-linejoin:round;stroke-miterlimit:10;}
	.st6{fill:none;stroke:#00263C;stroke-width:1.7484;stroke-linecap:round;stroke-linejoin:round;stroke-miterlimit:10;}
	.st7{fill:none;stroke:#002336;stroke-width:1.7484;stroke-linecap:round;stroke-linejoin:round;stroke-miterlimit:10;}
	.st8{fill:#8C351F;}
	.st9{fill:#7C2717;}
	.st10{fill:#F5813A;}
	.st11{fill:#301626;}
	.st12{fill:#121212;}
	.st13{fill:none;stroke:#301626;stroke-width:0.9831;stroke-linecap:round;stroke-linejoin:round;stroke-miterlimit:10;}
	.st14{fill:#21140E;}
	.st15{fill:#FFFFFF;}
	.st16{fill:#ACCBCD;}
	.st17{fill:#F36B35;}
	.st18{fill:#F9A97B;}
	.st19{fill:#FAB58E;}
	.st20{fill:none;stroke:#301626;stroke-width:0.8729;stroke-linecap:round;stroke-linejoin:round;stroke-miterlimit:10;}
	.st21{fill:#BBD4DC;}
	.st22{fill:none;stroke:#054974;stroke-width:1.7484;stroke-linecap:round;stroke-linejoin:round;stroke-miterlimit:10;}
	.st23{fill:none;stroke:#F8A16E;stroke-width:1.6;stroke-linecap:round;stroke-linejoin:round;stroke-miterlimit:10;}
</style>
<g id="XMLID_144_">
	<path id="XMLID_64_" class="st0" d="M549.1,91.4h94.9c14.2,0,25.8-11.5,25.8-25.8V25.8c0-14.2-11.5-25.8-25.8-25.8h-94.9
		c-14.2,0-25.8,11.5-25.8,25.8v39.8C523.3,79.8,534.8,91.4,549.1,91.4z"/>
	<path id="XMLID_63_" class="st0" d="M585.9,82.3l-18.4,23.3c-2,2.5-6.1,0.5-5.2-2.6l6.5-24.3L585.9,82.3z"/>
</g>
<path id="XMLID_62_" class="st1" d="M195.5,494.9c0,0,50.1,10.1,91-9.9l13.6-171.9l-48.7-49.6l-48.2-10.2L176.7,350L195.5,494.9z"/>
<path id="XMLID_61_" class="st2" d="M203.3,253.3c0,0,7,171.6,5.1,256.5l-37.1-4.4c-19.7-2.3-34.3-19.3-33.7-39.1l3.8-132.1
	l4.2-57.1c0.4-4.9,3.5-9.3,8.1-11.1C163.5,262.1,181.9,255.7,203.3,253.3z"/>
<path id="XMLID_60_" class="st3" d="M76.3,441.8L63,465.1c0,0-26.1,1.6-50.1,13c-1.3,0.6-2,2-1.8,3.4l0,0c0.3,1.9,2.2,3.2,4.1,2.6
	l17.9-5.4c0,0-17.6,7.1-31.1,15c-1.8,1.1-2.5,3.3-1.7,5.2l0,0c0.9,1.9,3.2,2.8,5.1,2.1l28.9-11.2l-27,14.9c-2.1,1.2-2.9,3.8-1.8,6
	l0,0c1.1,2.2,3.7,3.1,5.9,2l26.2-12.6l-20.4,14.3c-2.7,1.9-3,5.7-0.6,8h0c1.7,1.7,4.4,2,6.5,0.6c8-5.3,28.2-17.7,41.4-17.3
	c0,0-3.2,5-8.7,10.3c-2.6,2.5-2.4,6.8,0.6,9l0,0c2,1.5,4.7,1.5,6.8,0.1l15.4-10.6c2.9-2,5.1-5,6-8.5l5.1-18.6l22.3-21.1L76.3,441.8z
	"/>
<path id="XMLID_59_" class="st2" d="M155.7,265.2c0,0-7.2-0.4-30.6,29.6c-24.1,30.9-66,169-66,169l42.1,32l71.5-155.6L155.7,265.2z"
	/>
<line id="XMLID_58_" class="st4" x1="139.9" y1="411.4" x2="164.8" y2="357.2"/>
<path id="XMLID_57_" class="st2" d="M287.9,267.7c0,0,36.9,11.5,50.8,147.7l-30,21.2L287.9,267.7z"/>
<g id="XMLID_132_">
	<g id="XMLID_134_">
		<g id="XMLID_135_">
			<path id="XMLID_56_" class="st3" d="M413.2,367.1c0,0-13.5-10.4-0.9-27.7l18.8-27.1c1.7-2.4,5.1-2.7,7.3-0.7l0,0
				c1.5,1.4,1.9,3.5,1.2,5.3l-5.8,16l35.6-24.1c2.6-1.9,6.3-1.1,7.8,1.8l0,0c1.2,2.2,0.6,5-1.4,6.6l-23,17.8l0.4,1.4l26.4-15
				c2.9-1.3,6.3,0.3,7.1,3.4l0,0c0.6,2.4-0.6,4.8-2.8,5.8l-25.4,16.3l0.4,1.8l24.8-10.6c6.1-2.9,8.1-0.1,8.7,2.2l0,0
				c0.6,2.1-4.1,5-6.1,5.7l-25.7,13l0.3,1.7l23.8-9.1c2.3-0.3,4.3,1.6,4.2,3.9l0,0c-0.1,1.7-1.4,3-3,3.3l-27.2,11.6
				c0,0-24.8,16.9-36.1,7.4L413.2,367.1z"/>
			<path id="XMLID_55_" class="st5" d="M433.7,332.9c0,0,7.8,14-1.7,26.5"/>
		</g>
	</g>
	<polygon id="XMLID_54_" class="st3" points="375.1,369.4 416,352.2 433.6,377 387.8,401.7 	"/>
</g>
<g id="XMLID_129_">
	<g id="XMLID_130_">
		<path id="XMLID_53_" class="st2" d="M293.6,394.4L397,352.6l20.7,44.8L327.5,457c-14.1,8.5-32.4,4.6-41.9-8.9h0
			C274.7,432.7,277,403.3,293.6,394.4z"/>
	</g>
</g>
<line id="XMLID_52_" class="st6" x1="333.2" y1="378.4" x2="320.6" y2="383.5"/>
<path id="XMLID_51_" class="st2" d="M251.5,263.6c0,0,12,14,16.8,74.5c4.9,60.5,6.5,164,6.5,164l0,0c21.1-4.3,36-23.2,35.4-44.7
	c-1.4-44.8-4.6-117.8-11.6-148.7l-6.6-33.5c-0.4-1.6-1.9-6.4-1.9-6.4s-5.3-4.8-38.2-12.4L251.5,263.6z"/>
<path id="XMLID_50_" class="st7" d="M310.1,461.5c0,0,0.3-85.9-10-148.4"/>
<g id="XMLID_104_">
	<path id="XMLID_49_" class="st8" d="M199.7,194c0,0-11.8,19,5.5,18.5c0,0,7.2-6,5.6-17.1L199.7,194z"/>
	<path id="XMLID_48_" class="st8" d="M302.5,141c-0.4-3.6-1.5-7.4-3.6-11.3c-24.9-46-79.1-9.3-79.1-9.3l9.5,32.3
		C251.9,138.9,278.8,133.3,302.5,141z"/>
	<path id="XMLID_47_" class="st9" d="M229.4,152.6l10.6,41.9c0,0,66.2-19,62.6-53.5C278.8,133.3,255.3,130.1,229.4,152.6z"/>
	<circle id="XMLID_46_" class="st10" cx="274" cy="186.1" r="13.6"/>
	<path id="XMLID_45_" class="st3" d="M249.3,218.5l2.5,40.3c-1,16.3-21,23.6-32.3,11.7l-16.2-17.2l4.8-70.4L249.3,218.5z"/>
	<path id="XMLID_44_" class="st11" d="M250.5,238.4c0,0-26.4-1.1-28.4-27.7l27.1,7.8L250.5,238.4z"/>
	<path id="XMLID_43_" class="st3" d="M277,131.1c0,0,8.7,55.1,1.9,72.4c-6.8,17.3-21.8,28-45.1,22.8c0,0-27.2-2.1-32.1-41.5
		C194.3,125.5,250.2,98.8,277,131.1z"/>
	<g id="XMLID_112_">
		<circle id="XMLID_42_" class="st12" cx="275.5" cy="175.9" r="3.1"/>
		<circle id="XMLID_41_" class="st12" cx="249.3" cy="175.4" r="3.1"/>
		<polyline id="XMLID_40_" class="st13" points="266.8,178.8 269.8,189.4 264.8,191.9 		"/>
		<path id="XMLID_39_" class="st14" d="M244.2,153.9c0,0,9.7-2.3,10.3,2.9c0,0,0.4,3.5-8.1,5.4c-8.4,1.8-11.9,1.7-13-1.5
			C232.3,157.3,239.6,154.5,244.2,153.9z"/>
		<path id="XMLID_38_" class="st14" d="M280.3,153.2c0,0-9-2.2-10,2.9c0,0-0.6,3.5,7.3,5.2c5.7,1.2,7.8,0.1,8.2-2.2
			C286.4,156.3,283.7,153.7,280.3,153.2z"/>
		<path id="XMLID_37_" class="st15" d="M249.8,196.5l18,1.3c0,0-0.2,7-9.4,6.4C249.3,203.6,249.8,196.5,249.8,196.5z"/>
	</g>
	<path id="XMLID_36_" class="st8" d="M215.4,181.3l2.6-20c0,0,15.9-5.1,19.7-35.1c0,0-6.7-13.8-27-7.5c-20.4,6.3-38,21-15.7,58
		L215.4,181.3z"/>
	<g id="XMLID_108_">
		<circle id="XMLID_35_" class="st3" cx="199.4" cy="185.4" r="16.5"/>
		<path id="XMLID_34_" class="st13" d="M192.2,180.3c0,0,12.2-3,14.9,10.4"/>
	</g>
	<g id="XMLID_105_">
		<path id="XMLID_33_" class="st8" d="M237.7,126.2c0,0,20.1-3.2,40.1,9.5l-4.2-17.8l-26.4-3.6l-25.2,9.5l6.2,0.6L237.7,126.2z"/>
		<path id="XMLID_32_" class="st8" d="M277.8,135.7c0,0,30.4,0.1,30.5,22.2c0,0.5,0.7,0.5,0.8,0.1c1.4-8.2-0.1-30.7-33.6-28.1
			L277.8,135.7z"/>
	</g>
</g>
<g id="XMLID_101_">
	<path id="XMLID_1_" class="st16" d="M146.4,135.8H51.6c-14.2,0-25.8-11.5-25.8-25.8V70.2c0-14.2,11.5-25.8,25.8-25.8h94.9
		c14.2,0,25.8,11.5,25.8,25.8V110C172.2,124.2,160.7,135.8,146.4,135.8z"/>
	<path id="XMLID_31_" class="st16" d="M118.9,126.7l18.4,23.3c2,2.5,6.1,0.5,5.2-2.6l-6.5-24.3L118.9,126.7z"/>
</g>
<g id="XMLID_29_">
	<path id="XMLID_91_" class="st1" d="M65.5,93.4c0-3.8,2.8-6.3,6.4-6.3s6.4,2.5,6.4,6.3c0,3.8-2.8,6.5-6.4,6.5S65.5,97.1,65.5,93.4z
		"/>
	<path id="XMLID_93_" class="st1" d="M92.6,93.4c0-3.8,2.8-6.3,6.4-6.3s6.4,2.5,6.4,6.3c0,3.8-2.8,6.5-6.4,6.5S92.6,97.1,92.6,93.4z
		"/>
	<path id="XMLID_95_" class="st1" d="M119.7,93.4c0-3.8,2.8-6.3,6.4-6.3s6.4,2.5,6.4,6.3c0,3.8-2.8,6.5-6.4,6.5
		S119.7,97.1,119.7,93.4z"/>
</g>
<g id="XMLID_82_">
	<path id="XMLID_84_" class="st1" d="M564.4,47.1c0-3.8,2.8-6.3,6.4-6.3c3.6,0,6.4,2.5,6.4,6.3c0,3.8-2.8,6.5-6.4,6.5
		C567.3,53.6,564.4,50.9,564.4,47.1z"/>
	<path id="XMLID_86_" class="st1" d="M591.6,47.1c0-3.8,2.8-6.3,6.4-6.3c3.6,0,6.4,2.5,6.4,6.3c0,3.8-2.8,6.5-6.4,6.5
		C594.4,53.6,591.6,50.9,591.6,47.1z"/>
	<path id="XMLID_89_" class="st1" d="M618.7,47.1c0-3.8,2.8-6.3,6.4-6.3c3.6,0,6.4,2.5,6.4,6.3c0,3.8-2.8,6.5-6.4,6.5
		C621.5,53.6,618.7,50.9,618.7,47.1z"/>
</g>
<g id="XMLID_81_">
	<path id="XMLID_28_" class="st17" d="M621.1,161.8c0,0,5.8,36,18.8,56.3c2.4,3.8,1.1,9-2.6,11.4c-14.7,9.5-55.9,27.4-108.5,6.9
		c-3.5-1.4-5.6-5-5.2-8.8c1.1-9.7,9.5-28.9,22-46L621.1,161.8z"/>
	<circle id="XMLID_27_" class="st18" cx="536.5" cy="191.7" r="12.2"/>
	<polygon id="XMLID_26_" class="st19" points="562.3,220 563.5,269.2 601.9,264.8 594.6,192.3 	"/>
	<path id="XMLID_25_" class="st11" d="M562.8,238.2c0,0,17.5-0.9,18.2-20.7l-18.5,9.8L562.8,238.2z"/>
	<path id="XMLID_24_" class="st19" d="M539.5,148.3c-3.1,2.6-5,6.2-5.8,10.2c-2.3,11.6-6.9,35.9-2.8,48.2
		c5.4,16.1,18.4,26.2,39.5,22.2c0,0,24.4-1.1,30.5-37C609.5,140.9,565.8,126,539.5,148.3z"/>
	<g id="XMLID_87_">
		<circle id="XMLID_23_" class="st11" cx="535.5" cy="184.8" r="2.8"/>
		<circle id="XMLID_22_" class="st11" cx="559" cy="185.3" r="2.8"/>
		<polyline id="XMLID_21_" class="st20" points="542.9,191.8 540.1,198.4 544.6,199.6 		"/>
		<path id="XMLID_20_" class="st17" d="M561.8,169.1c0,0-8.6-1.5-9.1,2.4c0,0-0.2,2.7,7.3,3.9c7.5,1.2,10.6,1,11.5-1.5
			C572.4,171.4,565.9,169.4,561.8,169.1z"/>
		<path id="XMLID_19_" class="st17" d="M532.3,169.2c0,0,7.5-1.6,8.6,2.2c0,0,0.7,2.6-5.9,3.9c-4.8,0.9-6.6,0.1-7.1-1.7
			C527.3,171.5,529.5,169.6,532.3,169.2z"/>
		<path id="XMLID_18_" class="st15" d="M542.6,204.7l15.5,0.3c0,0,0,6.2-7.9,6.2C542.3,211,542.6,204.7,542.6,204.7z"/>
	</g>
	<path id="XMLID_17_" class="st17" d="M591.7,188.1c0,0-12.8-11.3-10.2-33.3c0,0-21.7,3.8-47.4,1.9c0,0,5.7-34,54.7-25.8
		c50.9,8.5,32.1,67.3,13.2,84.5L591.7,188.1z"/>
	<g id="XMLID_83_">
		<circle id="XMLID_16_" class="st19" cx="602.1" cy="193.7" r="14.8"/>
		<path id="XMLID_15_" class="st20" d="M608.8,189.3c0,0-10.8-3.1-13.7,8.8"/>
	</g>
	<path id="XMLID_14_" class="st17" d="M570.2,129.8c0.1-0.1-42.5,0.7-47.9,34.6l67.4,1.5l4-22.5L570.2,129.8z"/>
</g>
<polygon id="XMLID_13_" class="st19" points="515.5,352.1 520.2,415.8 493.8,496.1 523,496.1 568.6,452.1 563.7,356.2 "/>
<path id="XMLID_12_" class="st21" d="M527,275.4c0,0-33.3,24-23.5,101.2H558L527,275.4z"/>
<path id="XMLID_11_" class="st11" d="M540.6,415l-18.3,80.6c68.4,19.3,131.9,0,131.9,0s-3.6-31-27.3-81.1L540.6,415z"/>
<path id="XMLID_10_" class="st21" d="M618.9,260.9L552,262c0,0-14.7,4.9-25,13.4l2.1,56.4l11.5,83.2l86.3-0.5l17-129.2L618.9,260.9z
	"/>
<path id="XMLID_9_" class="st19" d="M582.5,251.1c0,0,17.1,1.6,36.5,9.7c0,0-5.6,21.7-37.7,21.8c-5.4,0-10.8-0.8-15.7-2.8
	c-6.7-2.7-14.5-8-13.5-17.9L582.5,251.1z"/>
<line id="XMLID_8_" class="st22" x1="534" y1="375.2" x2="527.8" y2="329.7"/>
<path id="XMLID_7_" class="st19" d="M666,418c0.2-1.7-3.1-80.1-3.1-80.1h-37l-0.6,58.4L666,418z"/>
<g id="XMLID_72_">
	<path id="XMLID_6_" class="st21" d="M618.9,260.9c0,0,45.9,12.7,51.5,41.3c5.6,28.5,19.1,76.2,19.1,76.2l-70.6,0.2l5.3-95.9
		L618.9,260.9z"/>
</g>
<line id="XMLID_5_" class="st22" x1="621.5" y1="383.5" x2="615.5" y2="341.1"/>
<g id="XMLID_66_">
	<path id="XMLID_4_" class="st19" d="M567.8,338l-8.8,17.1l75.1,75.4c9.7,8,24.3,5,29.9-6.2l0,0c4.7-9.3,1.2-20.7-7.9-25.8
		l-10.5-7.2l-18.5-12.6L567.8,338z"/>
	<g id="XMLID_68_">
		<path id="XMLID_3_" class="st19" d="M573.5,342.3l0-11.3c0-5.9-1.4-11.7-4.1-17l-4.7-9.3c-1.1-2.2-4-2.9-5.9-1.4l0,0
			c-1.7,1.2-2.4,3.4-1.9,5.4l2.8,10.7L532.5,290c-1.3-1.4-4.3-1.1-5.5,0.3l0,0c-0.9,1.1-1.3,3.2-0.4,4.3l14.5,17.7l-19.9-17.5
			c-1.4-1.3-4-0.9-5.1,0.6l0,0c-0.9,1.3-0.8,3.6,0.4,4.7l23,20.2L518,307.4c-1.7-1.1-3.9-0.3-4.6,1.6l-0.1,0.4c-0.5,1.3,0,2.7,1,3.5
			l21,15.9l-14-8c-2-1.1-4.5,0.2-4.6,2.5l0,0c-0.1,1.1,0.4,2.1,1.3,2.8l45.3,32.5L573.5,342.3z"/>
	</g>
	<line id="XMLID_2_" class="st23" x1="628.5" y1="379.5" x2="649.9" y2="394.1"/>
</g>
</svg>
