<?xml version="1.0" encoding="utf-8"?>
<!-- Generator: Adobe Illustrator 19.0.0, SVG Export Plug-In . SVG Version: 6.00 Build 0)  -->
<svg version="1.0" id="Layer_1" xmlns="http://www.w3.org/2000/svg" xmlns:xlink="http://www.w3.org/1999/xlink" x="0px" y="0px"
	 viewBox="20.8 751.7 447.9 344.1" style="enable-background:new 20.8 751.7 447.9 344.1;" xml:space="preserve">
<style type="text/css">
	.st0{fill:#E0E0E0;}
	.st1{fill:#F5F5F5;}
	.st2{display:none;}
	.st3{display:inline;fill:#E0E0E0;}
	.st4{fill:#0C4776;}
	.st5{fill:#E8505B;}
	.st6{fill:#072B44;}
	.st7{fill:#263238;}
	.st8{opacity:0.5;}
	.st9{fill:#FAFAFA;}
	.st10{fill:#104766;}
	.st11{fill:#87A3AF;}
	.st12{fill:#3994D1;}
	.st13{fill:#FFBE9D;}
	.st14{fill:#F7DDA4;}
	.st15{opacity:0.3;}
	.st16{opacity:0.2;}
	.st17{opacity:0.6;}
	.st18{fill:#FFFFFF;}
	.st19{fill:#455A64;}
	.st20{fill:#EB996E;}
</style>
<g id="Background_Complete">
	<g id="XMLID_1_">
		<path id="XMLID_2_" class="st0" d="M204.3,1081c-3.9-9-11.2-16.5-20.2-20.7c-8.9-4.2-28.8-2.2-28.8-2.2L103,1058
			c1.1,4.6,4.5,16.4,7,20.4s6.3,7.3,10.8,8.6c5.6,1.6,11.4-0.1,17.2-0.4c10.1-0.7,20.1,2.6,29.8,5.4c9.8,2.8,20.1,5.2,30,2.8
			c2.8-0.7,5.7-1.9,7.1-4.5C206.5,1087.4,205.6,1083.9,204.3,1081z"/>
	</g>
	<g id="XMLID_65_">
		<g id="XMLID_66_">
			
				<rect id="XMLID_279_" x="211.2" y="809.4" transform="matrix(-0.9744 -0.225 0.225 -0.9744 283.9729 1687.3562)" class="st1" width="53.8" height="36.2"/>
		</g>
		<g id="XMLID_67_">
			<g id="XMLID_68_">
				<g id="XMLID_69_">
					<path id="XMLID_276_" class="st0" d="M268.5,816.4c0,0-0.2,0.1-0.6,0.4c-0.4,0.2-1,0.6-1.8,0.9c-1.6,0.8-3.8,2-6.5,3.4
						c-5.6,2.8-13.2,6.7-21.6,11l-0.2,0.1l-0.1-0.2c-0.1-0.1-0.2-0.2-0.3-0.4c-5.9-7.5-11.3-14.3-15.2-19.3
						c-1.9-2.5-3.5-4.5-4.6-5.9c-0.5-0.7-0.9-1.2-1.2-1.6c-0.3-0.4-0.4-0.6-0.4-0.6s0.2,0.2,0.5,0.5c0.3,0.4,0.8,0.9,1.3,1.6
						c1.1,1.4,2.7,3.4,4.7,5.8c3.9,5,9.3,11.7,15.3,19.2c0.1,0.1,0.2,0.3,0.3,0.4l-0.3-0.1c8.4-4.3,16.1-8.1,21.6-10.9
						c2.7-1.4,5-2.5,6.6-3.2c0.7-0.4,1.3-0.6,1.8-0.9C268.2,816.5,268.5,816.4,268.5,816.4z"/>
				</g>
			</g>
		</g>
		<g id="XMLID_70_">
			<g id="XMLID_71_">
				
					<ellipse id="XMLID_270_" transform="matrix(0.6001 0.7999 -0.7999 0.6001 752.5401 156.8893)" class="st0" cx="219.4" cy="831.1" rx="0.2" ry="14.3"/>
			</g>
		</g>
		<g id="XMLID_72_">
			<g id="XMLID_73_">
				
					<ellipse id="XMLID_264_" transform="matrix(-0.9061 0.423 -0.423 -0.9061 839.6282 1491.4829)" class="st0" cx="254.3" cy="838.9" rx="0.2" ry="14.2"/>
			</g>
		</g>
	</g>
	<g id="XMLID_74_">
		<g id="XMLID_75_">
			
				<rect id="XMLID_271_" x="388.2" y="758.8" transform="matrix(-0.9188 0.3948 -0.3948 -0.9188 1090.0002 1321.4148)" class="st1" width="41.7" height="28.1"/>
		</g>
		<g id="XMLID_76_">
			<g id="XMLID_77_">
				<g id="XMLID_78_">
					<path id="XMLID_269_" class="st0" d="M422.9,752c0,0-0.1,0.2-0.2,0.5c-0.2,0.4-0.4,0.8-0.7,1.4c-0.6,1.2-1.5,3-2.5,5.1
						c-2.2,4.3-5.1,10.2-8.4,16.8l-0.1,0.1h-0.1c-0.1,0-0.2-0.1-0.4-0.1c-7.1-2-13.6-3.8-18.3-5.1c-2.3-0.7-4.2-1.2-5.5-1.6
						c-0.6-0.2-1.1-0.3-1.5-0.4c-0.3-0.1-0.5-0.2-0.5-0.2s0.2,0,0.5,0.1c0.4,0.1,0.9,0.2,1.5,0.4c1.4,0.4,3.3,0.9,5.6,1.5
						c4.7,1.3,11.2,3,18.4,5c0.1,0,0.2,0.1,0.4,0.1l-0.2,0.1c3.3-6.5,6.3-12.4,8.5-16.7c1.1-2.1,2-3.8,2.6-5c0.3-0.6,0.5-1,0.7-1.4
						C422.7,752.1,422.8,752,422.9,752z"/>
				</g>
			</g>
		</g>
		<g id="XMLID_79_">
			<g id="XMLID_80_">
				
					<ellipse id="XMLID_265_" transform="matrix(0.957 0.2901 -0.2901 0.957 244.5015 -82.021)" class="st0" cx="398.9" cy="783.7" rx="0.2" ry="11.1"/>
			</g>
		</g>
		<g id="XMLID_81_">
			<g id="XMLID_82_">
				
					<ellipse id="XMLID_262_" transform="matrix(-0.4805 0.877 -0.877 -0.4805 1305.6893 771.6543)" class="st0" cx="424.3" cy="772.5" rx="0.2" ry="11"/>
			</g>
		</g>
	</g>
	<g id="XMLID_56_">
		<g id="XMLID_57_">
			
				<rect id="XMLID_288_" x="26.5" y="947.7" transform="matrix(-0.9749 0.2228 -0.2228 -0.9749 360.4186 1916.2461)" class="st1" width="91.2" height="61.5"/>
		</g>
		<g id="XMLID_58_">
			<g id="XMLID_59_">
				<g id="XMLID_60_">
					<path id="XMLID_284_" class="st0" d="M110.2,938.9c0,0-0.2,0.4-0.6,1c-0.5,0.7-1.2,1.6-2,2.7c-1.8,2.4-4.3,5.8-7.4,10
						c-6.4,8.4-15.1,20-24.8,32.8l-0.2,0.3l-0.3-0.1c-0.2-0.1-0.5-0.2-0.7-0.4c-14.6-7.1-27.8-13.5-37.5-18.2
						c-4.7-2.3-8.6-4.2-11.3-5.6c-1.3-0.6-2.3-1.2-3.1-1.6c-0.7-0.4-1.1-0.6-1-0.6c0,0,0.4,0.1,1.1,0.4c0.8,0.4,1.8,0.8,3.1,1.4
						c2.8,1.3,6.7,3.1,11.4,5.4c9.7,4.6,22.9,11,37.6,18c0.3,0.1,0.5,0.2,0.7,0.4l-0.5,0.1c9.7-12.7,18.5-24.2,25-32.7
						c3.2-4.1,5.8-7.4,7.6-9.8c0.9-1.1,1.6-2,2.1-2.6C109.9,939.2,110.1,938.9,110.2,938.9z"/>
				</g>
			</g>
		</g>
		<g id="XMLID_61_">
			<g id="XMLID_62_">
				
					<ellipse id="XMLID_275_" transform="matrix(0.889 0.4578 -0.4578 0.889 461.8291 89.5913)" class="st0" cx="46.1" cy="997.6" rx="0.4" ry="24.3"/>
			</g>
		</g>
		<g id="XMLID_63_">
			<g id="XMLID_64_">
				
					<ellipse id="XMLID_261_" transform="matrix(-0.6307 0.776 -0.776 -0.6307 934.9105 1522.4985)" class="st0" cx="105.2" cy="983.7" rx="0.4" ry="24"/>
			</g>
		</g>
	</g>
</g>
<g id="Background_Simple" class="st2">
	<path id="XMLID_83_" class="st3" d="M117.7,1140.9h312.8c20.3-11.7,38.8-26.5,55-44.7c50.7-57.3,69.4-154.1,43.3-225.9l-2.4-5.2
		c-19.3-41.6-59.7-70.3-105.9-73.7c-6.5-0.5-13-0.5-19.5,0.1c-43.3,3.6-83.9,30.1-104,68c-11.8,22.3-17.7,48.9-37,65.4
		c-25.1,21.4-62.7,17.5-95.6,12.5c-32.9-5.1-70.6-8.9-95.6,12.7c-15.7,13.5-22.7,34.6-24.1,55C41.1,1058.5,72.7,1110.7,117.7,1140.9
		z"/>
</g>
<g id="Plant">
</g>
<g id="Device">
	<g id="XMLID_333_">
		<g id="XMLID_334_">
			<polygon class="st4" points="231.3,990 373.1,988.7 377.3,1085.1 230.4,1084 			"/>
		</g>
	</g>
	<g id="XMLID_335_">
		<g id="XMLID_336_">
			<g id="XMLID_337_">
				<path class="st5" d="M231.3,990l67-54.5c2.8-2.3,6.9-2.3,9.7,0l65.1,53.1"/>
			</g>
		</g>
	</g>
	<g id="XMLID_339_">
		<g id="XMLID_340_">
			<path class="st6" d="M231.3,990l67-54.5c2.8-2.3,6.9-2.3,9.7,0l65.1,53.1"/>
		</g>
	</g>
	<g id="XMLID_341_">
		<g id="XMLID_342_">
			<g id="XMLID_343_">
				<g id="XMLID_344_">
					<path class="st7" d="M230.4,1084c-0.2-0.2,11.2-12.6,25.3-27.7c14.2-15.2,25.8-27.3,25.9-27.1c0.2,0.2-11.1,12.6-25.3,27.7
						C242.2,1072,230.6,1084.2,230.4,1084z"/>
				</g>
			</g>
		</g>
	</g>
	<g id="XMLID_346_">
		<g id="XMLID_347_">
			<g id="XMLID_348_">
				<path class="st7" d="M377.3,1085.1c-0.2,0.2-11.3-12-24.8-27.1s-24.3-27.5-24.1-27.7c0.2-0.2,11.3,12,24.8,27.1
					C366.7,1072.5,377.5,1084.9,377.3,1085.1z"/>
			</g>
		</g>
	</g>
	<g id="XMLID_349_" class="st8">
		<g id="XMLID_350_">
			<g id="XMLID_351_">
				<polyline points="373.1,988.7 302,1045.7 231.3,990 				"/>
			</g>
		</g>
	</g>
	<g id="XMLID_352_">
		<g id="XMLID_353_">
			<g>
				<g id="XMLID_355_">
					<polygon id="XMLID_356_" class="st9" points="238.5,995.2 238.2,950.9 362.3,949.2 363.8,995.8 302,1045 					"/>
				</g>
				<g id="XMLID_357_">
					<g id="XMLID_358_">
						<path id="XMLID_359_" class="st7" d="M238.5,995.2c0,0,0.4,0.3,1.2,0.9c0.8,0.6,1.9,1.5,3.4,2.6c3,2.3,7.3,5.7,12.9,10
							c11.1,8.6,27,21,46.3,36.1H302c17.8-14.2,38.9-31,61.8-49.2l-0.1,0.2c-0.3-8.9-0.6-18.2-0.9-27.7c-0.2-6.4-0.4-12.7-0.6-18.9
							l0.3,0.3c-50,0.7-94.2,1.2-124.2,1.6l0.2-0.2c0.1,13.9,0.1,25,0.1,32.6c0,3.8,0,6.7,0,8.7c0,1,0,1.7,0,2.2
							C238.5,995,238.5,995.2,238.5,995.2s0-0.2,0-0.7s0-1.3,0-2.2c0-2-0.1-4.9-0.1-8.7c-0.1-7.6-0.2-18.7-0.3-32.6v-0.2h0.2
							c30-0.4,74.1-1.1,124.2-1.8h0.3v0.3c0.2,6.2,0.4,12.5,0.6,18.9c0.3,9.5,0.6,18.8,0.9,27.7v0.1H364c-22.9,18.2-44,35-61.8,49.1
							l-0.1,0.1l-0.1-0.1c-19.3-15.1-35.1-27.6-46.2-36.3c-5.5-4.3-9.8-7.7-12.8-10.1c-1.5-1.2-2.6-2-3.3-2.6
							C238.8,995.6,238.5,995.2,238.5,995.2z"/>
					</g>
				</g>
			</g>
		</g>
	</g>
	<g id="XMLID_354_">
		<g id="XMLID_360_">
			<path id="XMLID_361_" class="st7" d="M342.8,971.6c0,0.1-19,0.4-42.4,0.6s-42.4,0.2-42.4,0.1c0-0.1,19-0.4,42.4-0.6
				S342.8,971.4,342.8,971.6z"/>
		</g>
	</g>
	<g id="XMLID_363_">
		<path id="XMLID_364_" class="st7" d="M342.8,984.1c0,0.1-19,0.4-42.4,0.6s-42.4,0.2-42.4,0.1c0-0.1,19-0.4,42.4-0.6
			S342.8,983.9,342.8,984.1z"/>
	</g>
	<g id="XMLID_366_">
		<path id="XMLID_367_" class="st7" d="M342.8,998.5c0,0.1-19,0.4-42.4,0.6s-42.4,0.2-42.4,0.1c0-0.1,19-0.4,42.4-0.6
			S342.8,998.3,342.8,998.5z"/>
	</g>
	<g id="XMLID_369_">
		<path id="XMLID_370_" class="st7" d="M342.8,1012.9c0,0.1-18.1,0.4-40.5,0.6s-40.5,0.2-40.5,0.1c0-0.1,18.1-0.4,40.5-0.6
			C324.7,1012.8,342.8,1012.8,342.8,1012.9z"/>
	</g>
	<g id="XMLID_372_">
		<path id="XMLID_373_" class="st7" d="M327,1025.6c0,0-0.2,0-0.5,0.1c-0.4,0-0.9,0-1.4,0.1c-1.3,0-3.1,0.1-5.2,0.1
			c-4.5,0.1-10.6,0.2-17.3,0.3c-6.8,0.1-12.9,0.2-17.3,0.2c-2.2,0-3.9,0-5.2,0c-0.6,0-1,0-1.4,0c-0.3,0-0.5,0-0.5,0s0.2,0,0.5-0.1
			c0.4,0,0.9,0,1.4-0.1c1.3,0,3.1-0.1,5.2-0.1c4.5-0.1,10.6-0.2,17.3-0.3c6.8-0.1,12.9-0.2,17.3-0.2c2.2,0,3.9,0,5.2,0
			c0.6,0,1,0,1.4,0C326.8,1025.6,327,1025.6,327,1025.6z"/>
	</g>
	<g id="XMLID_375_">
		<ellipse id="XMLID_376_" class="st7" cx="302" cy="1037.8" rx="9" ry="0.3"/>
	</g>
</g>
<g id="Floor">
</g>
<g id="Envelope_3">
	<g>
		<g id="XMLID_379_">
			<g id="XMLID_380_">
				
					<ellipse id="XMLID_381_" transform="matrix(-0.9952 -9.830827e-002 9.830827e-002 -0.9952 560.353 1927.7902)" class="st7" cx="327.7" cy="950.1" rx="0.3" ry="1.3"/>
			</g>
		</g>
		<g id="XMLID_382_">
			<g id="XMLID_383_">
				
					<ellipse id="XMLID_384_" transform="matrix(-0.9886 -0.1508 0.1508 -0.9886 511.7035 1921.8534)" class="st7" cx="328.7" cy="941.5" rx="0.3" ry="2.5"/>
			</g>
		</g>
		<g id="XMLID_385_">
			<g id="XMLID_386_">
				<path id="XMLID_387_" class="st7" d="M331.1,929.5c0.1,0,0,1.1-0.3,2.5c-0.3,1.3-0.6,2.4-0.8,2.3c-0.1,0,0-1.1,0.3-2.5
					C330.6,930.5,330.9,929.4,331.1,929.5z"/>
			</g>
		</g>
		<g id="XMLID_388_">
			<g id="XMLID_389_">
				<path id="XMLID_390_" class="st7" d="M333.7,920c0.1,0-0.1,1.1-0.5,2.4s-0.8,2.3-1,2.3c-0.1,0,0.1-1.1,0.5-2.4
					C333.2,921,333.6,919.9,333.7,920z"/>
			</g>
		</g>
		<g id="XMLID_391_">
			<g id="XMLID_392_">
				<path id="XMLID_393_" class="st7" d="M337.1,910.8c0.1,0.1-0.2,1.1-0.7,2.4s-1,2.2-1.2,2.2c-0.1,0,0.2-1.1,0.7-2.4
					C336.5,911.7,337,910.7,337.1,910.8z"/>
			</g>
		</g>
		<g id="XMLID_394_">
			<g id="XMLID_395_">
				<path id="XMLID_396_" class="st7" d="M341.4,901.9c0.1,0.1-0.3,1.1-0.9,2.3s-1.2,2.1-1.4,2.1c-0.1-0.1,0.3-1.1,0.9-2.3
					C340.7,902.8,341.3,901.9,341.4,901.9z"/>
			</g>
		</g>
		<g id="XMLID_397_">
			<g id="XMLID_398_">
				<path id="XMLID_399_" class="st7" d="M346.5,893.6c0.1,0.1-0.4,1.1-1.2,2.2c-0.7,1.1-1.4,2-1.5,1.9c-0.1-0.1,0.4-1.1,1.1-2.2
					C345.7,894.3,346.4,893.5,346.5,893.6z"/>
			</g>
		</g>
		<g id="XMLID_400_">
			<g id="XMLID_401_">
				<path id="XMLID_402_" class="st7" d="M352.6,885.8c0.1,0.1-0.5,1-1.4,2.1c-0.9,1-1.7,1.8-1.8,1.7c-0.1-0.1,0.5-1,1.4-2.1
					C351.7,886.5,352.5,885.7,352.6,885.8z"/>
			</g>
		</g>
		<g id="XMLID_403_">
			<g id="XMLID_404_">
				<path id="XMLID_405_" class="st7" d="M359.5,878.8c0.1,0.1-0.6,0.9-1.6,1.9c-1,0.9-1.9,1.6-2,1.5c-0.1-0.1,0.6-0.9,1.6-1.9
					C358.6,879.4,359.4,878.7,359.5,878.8z"/>
			</g>
		</g>
		<g id="XMLID_406_">
			<g id="XMLID_407_">
				<path id="XMLID_408_" class="st7" d="M367.3,872.8c0.1,0.1-0.7,0.9-1.8,1.7c-1.1,0.8-2,1.4-2.1,1.2c-0.1-0.1,0.7-0.9,1.8-1.7
					C366.2,873.2,367.2,872.7,367.3,872.8z"/>
			</g>
		</g>
		<g id="XMLID_409_">
			<g id="XMLID_410_">
				<path id="XMLID_411_" class="st7" d="M375.7,867.8c0.1,0.1-0.8,0.8-2,1.4c-1.2,0.6-2.2,1.1-2.3,0.9c-0.1-0.1,0.8-0.8,2-1.4
					C374.7,868.1,375.7,867.7,375.7,867.8z"/>
			</g>
		</g>
		<g id="XMLID_412_">
			<g id="XMLID_413_">
				<path id="XMLID_414_" class="st7" d="M384.8,864.1c0,0.1-1,0.6-2.2,1.1c-1.3,0.5-2.3,0.7-2.4,0.6c-0.1-0.1,0.9-0.6,2.2-1.1
					S384.8,864,384.8,864.1z"/>
			</g>
		</g>
		<g id="XMLID_415_">
			<g id="XMLID_416_">
				<path id="XMLID_417_" class="st7" d="M394.4,861.9c0,0.1-1,0.4-2.4,0.7c-1.3,0.3-2.4,0.4-2.5,0.3c0-0.1,1-0.5,2.4-0.8
					S394.4,861.7,394.4,861.9z"/>
			</g>
		</g>
		<g id="XMLID_418_">
			<g id="XMLID_419_">
				<path id="XMLID_420_" class="st7" d="M404.2,861.3c0,0.1-1.1,0.3-2.5,0.3s-2.5-0.1-2.5-0.2s1.1-0.3,2.5-0.3
					S404.2,861.2,404.2,861.3z"/>
			</g>
		</g>
		<g id="XMLID_421_">
			<g id="XMLID_422_">
				<path id="XMLID_423_" class="st7" d="M414,862.5c0,0.1-1.1,0.1-2.5-0.1c-1.3-0.2-2.4-0.5-2.4-0.6c0-0.1,1.1-0.1,2.5,0.1
					C412.9,862.1,414,862.3,414,862.5z"/>
			</g>
		</g>
		<g id="XMLID_424_">
			<g id="XMLID_425_">
				<path id="XMLID_426_" class="st7" d="M423.4,865.3c-0.1,0.1-1.1-0.1-2.4-0.6c-1.3-0.4-2.3-0.9-2.2-1.1c0-0.1,1.1,0.1,2.4,0.6
					C422.4,864.7,423.4,865.2,423.4,865.3z"/>
			</g>
		</g>
		<g id="XMLID_427_">
			<g id="XMLID_428_">
				<path id="XMLID_429_" class="st7" d="M432.1,869.8c-0.1,0.1-1.1-0.3-2.3-1c-1.2-0.7-2.1-1.3-2-1.4s1.1,0.3,2.3,1
					C431.3,869,432.2,869.6,432.1,869.8z"/>
			</g>
		</g>
		<g id="XMLID_430_">
			<g id="XMLID_431_">
				<path id="XMLID_432_" class="st7" d="M439.8,875.8c-0.1,0.1-1-0.5-2-1.4c-1-0.9-1.8-1.7-1.7-1.8c0.1-0.1,1,0.5,2,1.4
					C439.2,874.9,439.9,875.7,439.8,875.8z"/>
			</g>
		</g>
		<g id="XMLID_433_">
			<g id="XMLID_434_">
				<path id="XMLID_435_" class="st7" d="M444.7,881.4c-0.1,0.1-0.6-0.3-1-0.8s-0.7-1.1-0.6-1.1c0.1-0.1,0.5,0.3,1,0.8
					C444.6,880.8,444.8,881.4,444.7,881.4z"/>
			</g>
		</g>
	</g>
	
		<rect id="XMLID_278_" x="397.8" y="841.6" transform="matrix(-0.9942 0.108 -0.108 -0.9942 954.8964 1677.5692)" class="st10" width="68.4" height="46.1"/>
	<path id="XMLID_536_" class="st7" d="M400.5,891.3L400.5,891.3l-5-45.9l0,0l68-7.4l0,0l5,45.8l0,0L400.5,891.3z M395.6,845.5
		l5,45.8l67.9-7.4l-5-45.8L395.6,845.5z"/>
	<g id="XMLID_539_">
		<g id="XMLID_540_">
			<g id="XMLID_541_">
				<path id="XMLID_273_" class="st7" d="M463.8,838.6c0,0-0.2,0.2-0.6,0.7c-0.4,0.5-1,1.1-1.7,1.9c-1.6,1.6-3.7,4-6.4,6.8
					c-5.5,5.7-13,13.6-21.3,22.3l-0.2,0.2l-0.2-0.1c-0.2-0.1-0.3-0.2-0.5-0.3c-10.3-6.5-19.5-12.5-26.3-16.8c-3.3-2.1-6-3.9-7.9-5.2
					c-0.9-0.6-1.6-1.1-2.1-1.4s-0.7-0.5-0.7-0.5s0.3,0.1,0.8,0.4c0.6,0.3,1.3,0.8,2.2,1.3c2,1.2,4.7,2.9,8,5
					c6.8,4.3,16.1,10.2,26.4,16.7c0.2,0.1,0.4,0.2,0.5,0.3h-0.4c8.4-8.6,15.9-16.4,21.4-22.1c2.7-2.8,4.9-5,6.5-6.6
					c0.7-0.7,1.3-1.3,1.8-1.8C463.6,838.8,463.8,838.6,463.8,838.6z"/>
			</g>
		</g>
	</g>
	<g id="XMLID_542_">
		<g id="XMLID_543_">
			
				<ellipse id="XMLID_267_" transform="matrix(0.8298 0.5581 -0.5581 0.8298 559.2277 -80.1297)" class="st7" cx="411" cy="876.7" rx="0.3" ry="18.2"/>
		</g>
	</g>
	<g id="XMLID_544_">
		<g id="XMLID_545_">
			
				<ellipse id="XMLID_263_" transform="matrix(-0.7166 0.6975 -0.6975 -0.7166 1390.9385 1177.9138)" class="st7" cx="456.2" cy="871.5" rx="0.3" ry="18"/>
		</g>
	</g>
</g>
<g id="Envelope_2">
	<g>
		<g id="XMLID_546_">
			<g id="XMLID_547_">
				
					<ellipse id="XMLID_548_" transform="matrix(-0.986 0.1669 -0.1669 -0.986 760.9598 1803.1581)" class="st7" cx="304.7" cy="933.6" rx="0.3" ry="1.3"/>
			</g>
		</g>
		<g id="XMLID_549_">
			<g id="XMLID_550_">
				
					<ellipse id="XMLID_551_" transform="matrix(-0.9873 0.1591 -0.1591 -0.9873 749.7856 1789.954)" class="st7" cx="303.2" cy="925" rx="0.3" ry="2.5"/>
			</g>
		</g>
		<g id="XMLID_552_">
			<g id="XMLID_553_">
				
					<ellipse id="XMLID_554_" transform="matrix(-0.9904 0.1384 -0.1384 -0.9904 727.3953 1779.8665)" class="st7" cx="301.8" cy="915.2" rx="0.3" ry="2.5"/>
			</g>
		</g>
		<g id="XMLID_555_">
			<g id="XMLID_556_">
				
					<ellipse id="XMLID_557_" transform="matrix(-0.9945 0.1044 -0.1044 -0.9945 693.9713 1774.5643)" class="st7" cx="300.5" cy="905.4" rx="0.3" ry="2.5"/>
			</g>
		</g>
		<g id="XMLID_558_">
			<g id="XMLID_559_">
				
					<ellipse id="XMLID_560_" transform="matrix(-0.9984 5.662036e-002 -5.662036e-002 -0.9984 649.784 1772.7123)" class="st7" cx="299.8" cy="895.6" rx="0.3" ry="2.5"/>
			</g>
		</g>
		<g id="XMLID_561_">
			<g id="XMLID_562_">
				<path id="XMLID_563_" class="st7" d="M299.5,883.2c0.1,0,0.3,1.1,0.2,2.5c0,1.4-0.1,2.5-0.3,2.5c-0.1,0-0.3-1.1-0.2-2.5
					C299.3,884.3,299.4,883.2,299.5,883.2z"/>
			</g>
		</g>
		<g id="XMLID_564_">
			<g id="XMLID_565_">
				<path id="XMLID_566_" class="st7" d="M300.1,873.4c0.1,0,0.2,1.1,0.1,2.5c-0.1,1.4-0.3,2.4-0.5,2.4c-0.1,0-0.2-1.1-0.1-2.5
					C299.8,874.5,300,873.4,300.1,873.4z"/>
			</g>
		</g>
		<g id="XMLID_567_">
			<g id="XMLID_568_">
				<path id="XMLID_569_" class="st7" d="M301.6,863.6c0.1,0,0.1,1.1-0.2,2.5c-0.2,1.3-0.5,2.4-0.7,2.4c-0.1,0-0.1-1.1,0.2-2.5
					C301.2,864.6,301.5,863.6,301.6,863.6z"/>
			</g>
		</g>
		<g id="XMLID_570_">
			<g id="XMLID_571_">
				<path id="XMLID_572_" class="st7" d="M304.2,854c0.1,0-0.1,1.1-0.5,2.4s-0.8,2.3-1,2.3c-0.1,0,0.1-1.1,0.5-2.4
					C303.6,855,304,854,304.2,854z"/>
			</g>
		</g>
		<g id="XMLID_573_">
			<g id="XMLID_574_">
				<path id="XMLID_575_" class="st7" d="M307.9,844.9c0.1,0.1-0.2,1.1-0.8,2.4c-0.5,1.2-1.1,2.2-1.2,2.2c-0.1-0.1,0.2-1.1,0.8-2.4
					C307.2,845.8,307.7,844.8,307.9,844.9z"/>
			</g>
		</g>
		<g id="XMLID_576_">
			<g id="XMLID_577_">
				<path id="XMLID_578_" class="st7" d="M312.7,836.3c0.1,0.1-0.4,1.1-1.1,2.3s-1.4,2.1-1.5,2s0.3-1.1,1.1-2.3
					C311.9,837.1,312.6,836.2,312.7,836.3z"/>
			</g>
		</g>
		<g id="XMLID_579_">
			<g id="XMLID_580_">
				<path id="XMLID_581_" class="st7" d="M318.6,828.4c0.1,0.1-0.5,1-1.3,2.1c-0.9,1.1-1.6,1.8-1.8,1.8c-0.1-0.1,0.5-1,1.3-2.1
					C317.7,829,318.5,828.3,318.6,828.4z"/>
			</g>
		</g>
		<g id="XMLID_582_">
			<g id="XMLID_583_">
				<path id="XMLID_584_" class="st7" d="M325.6,821.4c0.1,0.1-0.6,0.9-1.6,1.9c-1,0.9-1.9,1.6-2,1.5c-0.1-0.1,0.6-0.9,1.6-1.9
					C324.6,822,325.5,821.3,325.6,821.4z"/>
			</g>
		</g>
		<g id="XMLID_585_">
			<g id="XMLID_586_">
				<path id="XMLID_587_" class="st7" d="M333.7,815.7c0.1,0.1-0.8,0.8-1.9,1.5s-2.1,1.2-2.2,1.1c-0.1-0.1,0.8-0.8,1.9-1.5
					C332.6,816.1,333.6,815.6,333.7,815.7z"/>
			</g>
		</g>
		<g id="XMLID_588_">
			<g id="XMLID_589_">
				<path id="XMLID_590_" class="st7" d="M342.7,811.7c0,0.1-0.9,0.6-2.2,1.1c-1.3,0.5-2.3,0.8-2.4,0.7c-0.1-0.1,0.9-0.6,2.2-1.1
					C341.6,811.8,342.7,811.5,342.7,811.7z"/>
			</g>
		</g>
		<g id="XMLID_591_">
			<g id="XMLID_592_">
				<path id="XMLID_593_" class="st7" d="M349.9,809.9c0,0.1-0.5,0.4-1.2,0.5s-1.2,0.1-1.3,0c0-0.1,0.5-0.4,1.2-0.5
					C349.3,809.7,349.9,809.8,349.9,809.9z"/>
			</g>
		</g>
	</g>
	
		<rect x="285.2" y="784.1" transform="matrix(-0.9327 -0.3607 0.3607 -0.9327 331.123 1680.1061)" class="st11" width="74.3" height="50.1"/>
	<path id="XMLID_595_" class="st7" d="M348,845.9L348,845.9l-69.4-26.8l0,0l18.1-46.8l0,0l69.4,26.8l0,0L348,845.9z M278.7,819.1
		l69.3,26.8l18-46.7l-69.3-26.8L278.7,819.1z"/>
	<g id="XMLID_598_">
		<g id="XMLID_599_">
			<path class="st7" d="M366.1,799.8c0,0-0.3,0.1-0.9,0.4c-0.7,0.2-1.5,0.6-2.6,0.9c-2.3,0.8-5.6,2-9.6,3.4
				c-8.2,2.8-19.3,6.6-31.7,10.9l-0.3,0.1l-0.1-0.2c-0.1-0.2-0.2-0.4-0.3-0.6c-6.6-11.4-12.6-21.8-17-29.4c-2.1-3.7-3.9-6.8-5.1-8.9
				c-0.6-1-1-1.8-1.4-2.4c-0.3-0.6-0.5-0.9-0.4-0.9c0,0,0.2,0.3,0.5,0.8c0.4,0.6,0.9,1.4,1.5,2.4c1.3,2.1,3.1,5.2,5.3,8.8
				c4.4,7.5,10.5,17.9,17.2,29.3c0.1,0.2,0.2,0.4,0.3,0.6l-0.4-0.1c12.4-4.2,23.6-7.9,31.7-10.7c4-1.3,7.3-2.4,9.6-3.2
				c1.1-0.3,2-0.6,2.6-0.8C365.8,799.9,366.1,799.8,366.1,799.8z"/>
		</g>
	</g>
	<g id="XMLID_600_">
		
			<ellipse transform="matrix(0.4808 0.8768 -0.8768 0.4808 864.1237 161.0818)" class="st7" cx="296" cy="810.2" rx="0.3" ry="19.8"/>
	</g>
	<g id="XMLID_601_">
		
			<ellipse transform="matrix(-0.9569 0.2905 -0.2905 -0.9569 910.3375 1520.4615)" class="st7" cx="342.3" cy="827.8" rx="0.3" ry="19.6"/>
	</g>
</g>
<g id="Envelope_1">
	<g id="XMLID_602_">
		<g id="XMLID_603_">
			
				<ellipse id="XMLID_604_" transform="matrix(-0.9967 -8.067384e-002 8.067384e-002 -0.9967 473.2881 1908.3212)" class="st7" cx="275.2" cy="944.6" rx="0.3" ry="1.3"/>
		</g>
	</g>
	<g id="XMLID_605_">
		<g id="XMLID_606_">
			<path id="XMLID_607_" class="st7" d="M275.6,933.1c0.1,0,0.3,1.1,0.3,2.5c0,1.4-0.1,2.5-0.3,2.5c-0.1,0-0.3-1.1-0.3-2.5
				C275.3,934.3,275.5,933.1,275.6,933.1z"/>
		</g>
	</g>
	<g id="XMLID_608_">
		<g id="XMLID_609_">
			<path id="XMLID_610_" class="st7" d="M274.9,923c0.1,0,0.4,1.1,0.5,2.5c0.1,1.4,0.1,2.5,0,2.6c-0.1,0-0.4-1.1-0.5-2.5
				C274.8,924.1,274.8,923,274.9,923z"/>
		</g>
	</g>
	<g id="XMLID_611_">
		<g id="XMLID_612_">
			<path id="XMLID_613_" class="st7" d="M273.2,912.9c0.1,0,0.5,1.1,0.7,2.4c0.3,1.4,0.4,2.5,0.2,2.5c-0.1,0-0.5-1.1-0.7-2.4
				S273.1,913,273.2,912.9z"/>
		</g>
	</g>
	<g id="XMLID_614_">
		<g id="XMLID_615_">
			<path id="XMLID_616_" class="st7" d="M270.5,903.2c0.1,0,0.6,1,1,2.4c0.4,1.3,0.7,2.5,0.5,2.5c-0.1,0-0.6-1-1-2.4
				C270.5,904.3,270.3,903.2,270.5,903.2z"/>
		</g>
	</g>
	<g id="XMLID_617_">
		<g id="XMLID_618_">
			<path id="XMLID_619_" class="st7" d="M266.6,893.8c0.1-0.1,0.7,0.9,1.3,2.2c0.6,1.3,0.9,2.4,0.8,2.4c-0.1,0.1-0.7-0.9-1.3-2.2
				C266.8,894.9,266.4,893.8,266.6,893.8z"/>
		</g>
	</g>
	<g id="XMLID_620_">
		<g id="XMLID_621_">
			<path id="XMLID_622_" class="st7" d="M261.5,884.9c0.1-0.1,0.8,0.8,1.6,2c0.7,1.2,1.2,2.3,1.1,2.3c-0.1,0.1-0.8-0.8-1.5-2.1
				C261.9,886,261.4,885,261.5,884.9z"/>
		</g>
	</g>
	<g id="XMLID_623_">
		<g id="XMLID_624_">
			<path id="XMLID_625_" class="st7" d="M255.3,876.9c0.1-0.1,0.9,0.7,1.8,1.8c0.9,1.1,1.5,2,1.4,2.1c-0.1,0.1-0.9-0.7-1.8-1.8
				C255.8,877.9,255.2,877,255.3,876.9z"/>
		</g>
	</g>
	<g id="XMLID_626_">
		<g id="XMLID_627_">
			<path id="XMLID_628_" class="st7" d="M248,869.8c0.1-0.1,1,0.6,2.1,1.5c1,0.9,1.8,1.8,1.7,1.9c-0.1,0.1-1-0.6-2.1-1.5
				C248.7,870.8,247.9,869.9,248,869.8z"/>
		</g>
	</g>
	<g id="XMLID_629_">
		<g id="XMLID_630_">
			<path id="XMLID_631_" class="st7" d="M239.7,863.9c0.1-0.1,1.1,0.4,2.3,1.2c1.2,0.8,2.1,1.5,2,1.6c-0.1,0.1-1.1-0.4-2.3-1.2
				C240.5,864.7,239.7,864,239.7,863.9z"/>
		</g>
	</g>
	<g id="XMLID_632_">
		<g id="XMLID_633_">
			<path id="XMLID_634_" class="st7" d="M230.7,859.3c0.1-0.1,1.1,0.2,2.4,0.8c1.3,0.6,2.3,1.2,2.2,1.3c-0.1,0.1-1.1-0.2-2.4-0.8
				C231.6,860,230.6,859.4,230.7,859.3z"/>
		</g>
	</g>
	<g id="XMLID_635_">
		<g id="XMLID_636_">
			<path id="XMLID_637_" class="st7" d="M221,856.2c0-0.1,1.2,0,2.5,0.4c1.4,0.4,2.4,0.8,2.4,0.9c0,0.1-1.2,0-2.5-0.4
				C222,856.7,220.9,856.3,221,856.2z"/>
		</g>
	</g>
	<g id="XMLID_638_">
		<g id="XMLID_639_">
			<path id="XMLID_640_" class="st7" d="M210.9,854.9c0-0.1,1.2-0.2,2.6-0.1c1.4,0.1,2.5,0.4,2.5,0.5c0,0.1-1.2,0.1-2.6,0
				C212,855.2,210.9,855,210.9,854.9z"/>
		</g>
	</g>
	<g id="XMLID_641_">
		<g id="XMLID_642_">
			<path id="XMLID_643_" class="st7" d="M200.8,855.6c0-0.1,1.1-0.4,2.5-0.6c1.4-0.2,2.5-0.2,2.6,0c0,0.1-1.1,0.4-2.5,0.6
				C201.9,855.7,200.8,855.7,200.8,855.6z"/>
		</g>
	</g>
	<g id="XMLID_260_">
		<g id="XMLID_659_">
			<g id="XMLID_660_">
				<path id="XMLID_661_" class="st7" d="M193.4,857.9c0-0.1,0.5-0.4,1.1-0.7c0.6-0.2,1.2-0.3,1.3-0.2c0.1,0.1-0.4,0.4-1.1,0.7
					C194,857.9,193.5,858,193.4,857.9z"/>
			</g>
		</g>
		<g id="XMLID_662_">
			<g id="XMLID_663_">
				<path id="XMLID_664_" class="st7" d="M183.5,858.9c0-0.1,1.1-0.2,2.5-0.2s2.5,0,2.5,0.1c0,0.1-1.1,0.4-2.5,0.4
					S183.5,859,183.5,858.9z"/>
			</g>
		</g>
		<g id="XMLID_665_">
			<g id="XMLID_666_">
				<path id="XMLID_667_" class="st7" d="M173.8,856.4c0.1-0.1,1.1,0.2,2.4,0.6c1.3,0.4,2.4,0.8,2.3,1c0,0.1-1.2,0-2.5-0.5
					C174.7,857.1,173.8,856.6,173.8,856.4z"/>
			</g>
		</g>
		<g id="XMLID_668_">
			<g id="XMLID_669_">
				<path id="XMLID_670_" class="st7" d="M165.1,851.5c0.1-0.1,1.1,0.5,2.2,1.2c1.2,0.8,2.1,1.4,2,1.5c-0.1,0.1-1.1-0.3-2.3-1.1
					C165.9,852.4,165,851.6,165.1,851.5z"/>
			</g>
		</g>
		<g id="XMLID_671_">
			<g id="XMLID_672_">
				<path id="XMLID_673_" class="st7" d="M157.7,844.8c0.1-0.1,1,0.6,2,1.6s1.7,1.8,1.6,1.9c-0.1,0.1-1-0.6-2-1.6
					C158.3,845.8,157.6,844.9,157.7,844.8z"/>
			</g>
		</g>
		<g id="XMLID_674_">
			<g id="XMLID_675_">
				<path id="XMLID_676_" class="st7" d="M151.5,836.9c0.1-0.1,0.9,0.8,1.7,1.9c0.8,1.1,1.3,2.1,1.2,2.2c-0.1,0.1-0.9-0.8-1.7-1.9
					C152,838,151.4,837,151.5,836.9z"/>
			</g>
		</g>
		<g id="XMLID_677_">
			<g id="XMLID_678_">
				<path id="XMLID_679_" class="st7" d="M146.7,828.1c0.1-0.1,0.7,0.9,1.4,2.1c0.6,1.2,1,2.3,0.9,2.4c-0.1,0.1-0.7-0.9-1.4-2.1
					C147,829.2,146.6,828.2,146.7,828.1z"/>
			</g>
		</g>
		<g id="XMLID_680_">
			<g id="XMLID_681_">
				<path id="XMLID_682_" class="st7" d="M142.9,818.9c0.1,0,0.6,1,1.1,2.2c0.5,1.3,0.8,2.4,0.6,2.4c-0.1,0.1-0.6-1-1.1-2.2
					C143.1,820,142.8,818.9,142.9,818.9z"/>
			</g>
		</g>
		<g id="XMLID_683_">
			<g id="XMLID_684_">
				
					<ellipse id="XMLID_685_" transform="matrix(-0.957 0.29 -0.29 -0.957 510.4521 1547.7272)" class="st7" cx="140.5" cy="811.7" rx="0.3" ry="2.5"/>
			</g>
		</g>
		<g id="XMLID_686_">
			<g id="XMLID_687_">
				
					<ellipse id="XMLID_688_" transform="matrix(-0.9662 0.2579 -0.2579 -0.9662 478.8907 1543.635)" class="st7" cx="138.2" cy="803.2" rx="0.3" ry="1.2"/>
			</g>
		</g>
	</g>
	
		<rect id="XMLID_286_" x="99.7" y="765.9" transform="matrix(-0.9989 4.708242e-002 -4.708242e-002 -0.9989 319.83 1580.3713)" class="st12" width="83.2" height="56.1"/>
	<path id="XMLID_690_" class="st7" d="M101.1,823.9L101.1,823.9l-2.6-56.1l0,0l83.2-3.9l0,0l2.6,56.1l0,0L101.1,823.9z M98.5,767.9
		l2.6,56l83.1-3.9l-2.6-56L98.5,767.9z"/>
	<g id="XMLID_693_">
		<g id="XMLID_694_">
			<g id="XMLID_695_">
				<path id="XMLID_281_" class="st7" d="M181.9,764.6c0,0-0.2,0.3-0.7,0.8c-0.6,0.5-1.3,1.2-2.2,2.1c-2,1.9-4.8,4.5-8.3,7.8
					c-7.1,6.6-16.8,15.5-27.5,25.5L143,801l-0.3-0.2c-0.2-0.1-0.4-0.3-0.6-0.4c-12-8.7-22.8-16.6-30.7-22.4c-3.9-2.9-7-5.2-9.3-6.9
					c-1-0.8-1.9-1.4-2.5-1.9c-0.6-0.4-0.9-0.7-0.8-0.7c0,0,0.3,0.2,0.9,0.6c0.6,0.4,1.5,1,2.6,1.8c2.3,1.6,5.5,3.9,9.4,6.7
					c8,5.7,18.8,13.6,30.9,22.2c0.2,0.2,0.4,0.3,0.6,0.4h-0.5c10.8-9.9,20.6-18.8,27.7-25.3c3.5-3.2,6.4-5.7,8.4-7.6
					c1-0.8,1.7-1.5,2.3-2C181.6,764.8,181.9,764.6,181.9,764.6z"/>
			</g>
		</g>
	</g>
	<g id="XMLID_696_">
		<g id="XMLID_697_">
			
				<ellipse id="XMLID_274_" transform="matrix(0.7942 0.6077 -0.6077 0.7942 514.01 96.299)" class="st7" cx="114.8" cy="807" rx="0.4" ry="22.1"/>
		</g>
	</g>
	<g id="XMLID_698_">
		<g id="XMLID_699_">
			
				<ellipse id="XMLID_266_" transform="matrix(-0.7579 0.6524 -0.6524 -0.7579 823.765 1302.3842)" class="st7" cx="170.2" cy="804.1" rx="0.4" ry="21.9"/>
		</g>
	</g>
</g>
<g id="Character">
	<g id="XMLID_1397_">
		<path id="XMLID_1398_" class="st13" d="M161.6,963.2c0.1-0.9-0.4-1.7-1.3-1.9l-1.7,0.1l-6-2.1c-1.1-0.3-2.2,0.5-2.3,1.6
			c0,1.7-0.7,6.4-2.1,4.9l-0.1-0.1c-2-2.2-4.3-3.3-5.1-3.1c-0.9,0.1-1.1,1.2-0.4,1.8c0.1,0.1,0.2,0.2,0.4,0.2c0.1,0,0.1,0.1,0.2,0.1
			c0.7,0.5,1.6,1.3,2.3,2c0.6,0.7,1.1,1.4,1.5,2.3c0.4,0.9,0.7,1.7,1,2.4l0.1,5.5l-2.4,25.7c0,0-15.8-16.6-15.5-16.8l0.9,25.9
			l9.6,7.9c4.1,3.4,9.9,3.7,14.3,0.8c3.5-2.3,5.5-6.2,5.5-10.3l-0.6-33.3l0.4-4.4L161.6,963.2z"/>
	</g>
	<g id="XMLID_1395_">
		<path id="XMLID_1396_" class="st13" d="M72.6,999.8l-17.3,39.7l-13.7,28.6l-10.2,3.4c0,0-8.1,2.3-8.1,4c0,1.7,2.1,1.3,2.1,1.3
			c0.4,2.5,3.8,1.1,6.3,0c2.4-1.1,7.8-1.3,7.8-1.3c-1.5,1.1-1,2.9-0.2,3.5c0.9,0.6,2.3-0.1,3.4-1.2c1-1.1,3.6-1.6,6.5-2.6
			s3.4-4.9,3.4-4.9l34.7-58.5L72.6,999.8z"/>
	</g>
	<g id="XMLID_1393_">
		<path id="XMLID_1394_" class="st14" d="M130.2,1014.3l4.4,5.8l9.5-21c0,0-9.2-11.2-12.5-15.9c-3.3-4.7-5.8-5.5-5.8-5.5
			s-6.1-1.8-9.1-1.7l-15.1,0.9l-15.3,6.7c-3.8,1.6-7,4.3-9.2,7.8l-14.4,23.1l20.4,8.7l6.8,39.1c1.3,5.9,2.5,11.4,7.9,14.1l37.8-36.4
			l-4.4-7L130.2,1014.3z"/>
	</g>
	<g id="XMLID_1390_">
		<g id="XMLID_1391_">
			
				<ellipse id="XMLID_1392_" transform="matrix(-0.8298 -0.558 0.558 -0.8298 -404.1166 1906.9105)" class="st7" cx="88.7" cy="1015.1" rx="0.2" ry="9.6"/>
		</g>
	</g>
	<g id="XMLID_1387_">
		<g id="XMLID_1388_">
			<path id="XMLID_1389_" class="st7" d="M125.8,1044.2c0,0-0.3,0.2-1,0.6s-1.6,0.9-2.8,1.5c-2.4,1.2-5.7,2.9-9.4,4.7
				c-3.7,1.8-7.1,3.3-9.6,4.3c-1.2,0.5-2.2,0.9-2.9,1.2c-0.7,0.3-1.1,0.4-1.1,0.4s0.4-0.2,1-0.5c0.7-0.3,1.7-0.8,2.9-1.3
				c2.4-1.1,5.8-2.7,9.5-4.4c3.7-1.7,7.1-3.4,9.5-4.5c1.2-0.6,2.1-1,2.9-1.4C125.4,1044.4,125.8,1044.2,125.8,1044.2z"/>
		</g>
	</g>
	<g id="XMLID_1384_">
		<g id="XMLID_1385_">
			<path id="XMLID_1386_" class="st7" d="M92.8,998.6c0,0-0.5-0.6-1.3-1.7c-0.8-1-1.9-2.5-3.4-3.8s-3.1-2.2-4.3-2.6
				c-1.2-0.4-2.1-0.4-2.1-0.4s0.2-0.1,0.6,0c0.4,0,0.9,0.1,1.6,0.2c1.3,0.3,3,1.2,4.5,2.5c1.5,1.4,2.6,2.9,3.3,4
				C92.5,997.9,92.9,998.6,92.8,998.6z"/>
		</g>
	</g>
	<g id="XMLID_1381_">
		<g id="XMLID_1382_">
			<path id="XMLID_1383_" class="st7" d="M124,1017.7c0,0,0,0.1,0,0.4s0,0.7,0,1.2c-0.1,1-0.2,2.5-0.6,4.3c-0.7,3.6-2.6,8.5-6.2,13
				c-3.6,4.4-8,7.3-11.3,8.8c-1.7,0.8-3.1,1.3-4.1,1.5c-0.5,0.2-0.9,0.2-1.2,0.3c-0.3,0.1-0.4,0.1-0.4,0.1s0.5-0.2,1.5-0.5
				c1-0.3,2.4-0.8,4-1.6c3.3-1.6,7.6-4.4,11.1-8.8s5.4-9.2,6.2-12.8c0.4-1.8,0.6-3.3,0.7-4.3C123.9,1018.2,123.9,1017.7,124,1017.7z
				"/>
		</g>
	</g>
	<g id="XMLID_1379_" class="st15">
		<path id="XMLID_1380_" d="M85.6,1038.2c-0.1-0.4,4.8-25.8,4.8-25.8l-7.4,11.1"/>
	</g>
	<g id="XMLID_1376_">
		<g id="XMLID_1377_">
			<path id="XMLID_1378_" class="st7" d="M129.3,989.8c0,0,0,0.2,0.1,0.4c0,0.3,0,0.7,0.1,1.3c0.1,1.1,0.1,2.7,0.2,4.6
				c0.2,4,0.5,9.3,0.7,15.3c0.3,6,0.5,11.4,0.6,15.3c0.1,2,0.1,3.5,0.1,4.6c0,0.5,0,0.9,0,1.3c0,0.3,0,0.4,0,0.4s0-0.2-0.1-0.4
				c0-0.3,0-0.7-0.1-1.3c-0.1-1.1-0.1-2.7-0.2-4.6c-0.2-4-0.5-9.3-0.7-15.3c-0.3-6-0.5-11.4-0.6-15.3c-0.1-2-0.1-3.5-0.1-4.6
				c0-0.5,0-0.9,0-1.3C129.2,990,129.2,989.8,129.3,989.8z"/>
		</g>
	</g>
	<g id="XMLID_1373_" class="st16">
		<g id="XMLID_1374_">
			<path id="XMLID_1375_" d="M99.1,1056.9c-1.2-1-0.9-3.1,0.1-4.2c1.1-1.2,2.7-1.7,4.2-2.1c7.2-2.3,14.4-5.6,19.2-11.5
				c0.7-0.8,1.3-1.7,2.1-2.3c0.9-0.6,2-0.9,2.9-0.4c1.5,0.8,1.5,2.9,0.9,4.4c-0.7,1.9-2.2,3.4-4,4.3"/>
		</g>
	</g>
	<g id="XMLID_1371_" class="st16">
		<polygon id="XMLID_1372_" points="129.4,994.4 133.6,1018.7 130.3,1014.4 		"/>
	</g>
	<g id="XMLID_1237_">
		<g id="XMLID_1325_">
			<g id="XMLID_1326_">
				<g id="XMLID_1366_">
					<g id="XMLID_1367_">
						<g id="XMLID_1368_">
							<path id="XMLID_1369_" class="st5" d="M169.4,1058.4l-7.1,24.4l30.3,9c0.7-2.9-13.2-13.4-13.2-13.4l5.2-15.4L169.4,1058.4z"
								/>
						</g>
					</g>
				</g>
				<g id="XMLID_1361_" class="st17">
					<g id="XMLID_1362_">
						<g id="XMLID_1363_">
							<g id="XMLID_1364_">
								<path id="XMLID_1365_" class="st18" d="M170.3,1074.2c-0.6,0-1.2,0.5-1.3,1.2c0,0.6,0.5,1.2,1.1,1.3c0.6,0,1.4-0.6,1.3-1.2
									c0-0.6-0.7-1.3-1.3-1.2"/>
							</g>
						</g>
					</g>
				</g>
				<g id="XMLID_1357_" class="st17">
					<g id="XMLID_1358_">
						<g id="XMLID_1359_">
							<path id="XMLID_1360_" class="st18" d="M162.3,1082.7l0.8-2.4l28.7,9.5c0,0,1.2,1,0.7,1.9L162.3,1082.7z"/>
						</g>
					</g>
				</g>
				<g id="XMLID_1352_">
					<g id="XMLID_1353_">
						<g id="XMLID_1354_">
							<g id="XMLID_1355_">
								<path id="XMLID_1356_" class="st7" d="M179.8,1078.3c0,0.1-0.8,0-1.7,0.3c-0.9,0.2-1.4,0.8-1.6,0.7
									c-0.1-0.1,0.4-0.9,1.4-1.2C179,1077.7,179.9,1078.2,179.8,1078.3z"/>
							</g>
						</g>
					</g>
				</g>
				<g id="XMLID_1347_">
					<g id="XMLID_1348_">
						<g id="XMLID_1349_">
							<g id="XMLID_1350_">
								<path id="XMLID_1351_" class="st7" d="M182.6,1080.6c0,0.2-0.7,0.2-1.4,0.7s-1,1.1-1.2,1c-0.1,0,0-0.9,0.9-1.5
									C181.7,1080.2,182.6,1080.4,182.6,1080.6z"/>
							</g>
						</g>
					</g>
				</g>
				<g id="XMLID_1342_">
					<g id="XMLID_1343_">
						<g id="XMLID_1344_">
							<g id="XMLID_1345_">
								<path id="XMLID_1346_" class="st7" d="M183.3,1084.9c-0.1,0-0.1-0.8,0.5-1.5c0.6-0.7,1.4-0.8,1.4-0.7c0,0.1-0.5,0.4-1,1
									C183.6,1084.3,183.4,1084.9,183.3,1084.9z"/>
							</g>
						</g>
					</g>
				</g>
				<g id="XMLID_1337_">
					<g id="XMLID_1338_">
						<g id="XMLID_1339_">
							<g id="XMLID_1340_">
								<path id="XMLID_1341_" class="st7" d="M180.6,1074.7c-0.1,0.1-0.7-0.3-1.6-0.5c-0.8-0.2-1.6-0.1-1.6-0.3
									c-0.1-0.1,0.7-0.5,1.7-0.3C180.2,1073.9,180.7,1074.6,180.6,1074.7z"/>
							</g>
						</g>
					</g>
				</g>
				<g id="XMLID_1332_">
					<g id="XMLID_1333_">
						<g id="XMLID_1334_">
							<g id="XMLID_1335_">
								<path id="XMLID_1336_" class="st7" d="M180.9,1070.9c0,0.1-0.6,0-1.5-0.5c-0.4-0.2-0.9-0.5-1.4-1c-0.2-0.2-0.5-0.5-0.7-0.7
									c-0.1-0.1-0.3-0.3-0.4-0.5c-0.1-0.2-0.1-0.6,0.2-0.8c0.2-0.2,0.5-0.2,0.7-0.1c0.2,0.1,0.4,0.2,0.5,0.2
									c0.3,0.2,0.6,0.4,0.8,0.6c0.5,0.4,0.9,0.9,1.1,1.3C180.8,1070.3,180.9,1070.9,180.9,1070.9c-0.2,0.1-0.4-0.4-0.9-1.2
									c-0.3-0.4-0.6-0.8-1.1-1.2c-0.2-0.2-0.5-0.4-0.8-0.5c-0.3-0.2-0.6-0.3-0.7-0.1c0,0-0.1,0.1,0,0.2c0,0.1,0.1,0.2,0.3,0.4
									c0.2,0.3,0.4,0.5,0.7,0.7c0.4,0.4,0.9,0.7,1.3,1C180.4,1070.6,181,1070.8,180.9,1070.9z"/>
							</g>
						</g>
					</g>
				</g>
				<g id="XMLID_1327_">
					<g id="XMLID_1328_">
						<g id="XMLID_1329_">
							<g id="XMLID_1330_">
								<path id="XMLID_1331_" class="st7" d="M180.7,1071c-0.1,0-0.2-0.6,0-1.6c0.1-0.5,0.3-1,0.7-1.6c0.2-0.3,0.4-0.5,0.7-0.8
									c0.3-0.2,0.6-0.6,1.2-0.5c0.3,0.1,0.5,0.4,0.5,0.6c0,0.2,0,0.4,0,0.6c0,0.4-0.2,0.7-0.3,1c-0.3,0.6-0.7,1.1-1.1,1.4
									c-0.8,0.6-1.5,0.6-1.5,0.5c0-0.1,0.6-0.2,1.2-0.8c0.3-0.3,0.7-0.7,0.9-1.3c0.1-0.3,0.2-0.6,0.2-0.9c0-0.3,0-0.6-0.1-0.6
									s-0.5,0.1-0.7,0.3s-0.4,0.5-0.6,0.7c-0.4,0.5-0.6,1-0.7,1.4C180.8,1070.4,180.8,1071,180.7,1071z"/>
							</g>
						</g>
					</g>
				</g>
			</g>
		</g>
		<g id="XMLID_1323_">
			<path id="XMLID_1324_" class="st7" d="M200.4,1022.1c0.8,5.6-1.2,12-3.2,17.2l-13.2,31.3l-14.7-2.3c0,0-3.1,3.4-7,4.7
				c-1.8,0.6-7.5,1.7-12.3-1.7l0,0c0,0-6.7,9.3-17.3,12.2c-10.6,2.8-26.5,4.4-34.3-8l36.8-35.5c0.8,0.2,31.7-20.7,48.5-25.5
				C183.8,1014.6,199,1011.8,200.4,1022.1z"/>
		</g>
		<g id="XMLID_1320_">
			<g id="XMLID_1321_">
				<path id="XMLID_1322_" class="st19" d="M168.2,1068.2c0,0,0.1,0,0.2-0.1c0.2-0.1,0.4-0.2,0.6-0.3c0.5-0.3,1.3-0.7,2.3-1.2
					s2.2-1.2,3.5-2.2c1.3-0.9,2.7-2.1,4-3.7c1.3-1.6,2.2-3.6,2.6-6c0.4-2.3,0.3-4.9-0.3-7.5c-0.6-2.6-1.8-5.3-4.1-7.1
					c-2.3-1.8-5.2-2.7-8.3-3c-1.5-0.1-3.1-0.1-4.5,0c-1.5,0.2-2.9,0.4-4.4,0.8c-2.8,0.7-5.5,1.7-7.9,2.7c-4.9,2.1-9.2,4.5-12.9,6.1
					c-3.7,1.6-6.9,2.6-9.1,3c-0.6,0.1-1.1,0.2-1.5,0.3s-0.8,0.1-1.1,0.1s-0.5,0-0.7,0.1c-0.2,0-0.2,0-0.2,0s0.1,0,0.2,0
					c0.2,0,0.4-0.1,0.7-0.1s0.7-0.1,1.1-0.2c0.4-0.1,0.9-0.2,1.5-0.3c2.2-0.5,5.3-1.5,9-3.2c3.7-1.6,8-4,12.9-6.1
					c2.5-1.1,5.1-2.1,8-2.8c1.4-0.3,2.9-0.6,4.4-0.8c1.5-0.1,3.1-0.2,4.6,0c3.1,0.2,6.2,1.2,8.5,3c1.2,0.9,2.1,2.1,2.8,3.4
					c0.7,1.3,1.1,2.6,1.4,3.9c0.6,2.6,0.7,5.3,0.3,7.6c-0.4,2.4-1.4,4.5-2.7,6.1c-1.3,1.6-2.7,2.8-4.1,3.7c-1.3,0.9-2.6,1.6-3.6,2.1
					s-1.8,0.9-2.3,1.2c-0.3,0.1-0.5,0.2-0.6,0.3C168.3,1068.2,168.2,1068.2,168.2,1068.2z"/>
			</g>
		</g>
		<g id="XMLID_1317_">
			<g id="XMLID_1318_">
				
					<ellipse id="XMLID_1319_" transform="matrix(-0.8348 -0.5506 0.5506 -0.8348 -248.6098 1989.6948)" class="st19" cx="174.2" cy="1032.1" rx="0.2" ry="5.9"/>
			</g>
		</g>
		<g id="XMLID_1314_">
			<g id="XMLID_1315_">
				<path id="XMLID_1316_" class="st19" d="M166.8,1065.7c0,0.1-1,0.3-2.7,0.7c-1.6,0.4-3.9,1-6.4,1.9c-2.4,0.9-4.6,1.8-6.1,2.5
					c-1.5,0.7-2.5,1.2-2.5,1.1c0,0,0.2-0.2,0.6-0.4c0.4-0.2,1-0.6,1.8-1c1.5-0.8,3.7-1.7,6.1-2.6c2.5-0.9,4.8-1.4,6.4-1.8
					c0.8-0.2,1.5-0.3,2-0.4C166.5,1065.7,166.8,1065.7,166.8,1065.7z"/>
			</g>
		</g>
		<g id="XMLID_1311_">
			<g id="XMLID_1312_">
				<path id="XMLID_1313_" class="st19" d="M183.7,1068.5c-0.1,0-0.2-0.7-0.9-1.6c-0.6-0.9-1.8-2-3.3-2.6c-1.6-0.5-3.2-0.3-4.2,0.1
					s-1.6,0.8-1.6,0.8s0.1-0.2,0.4-0.3c0.3-0.2,0.6-0.5,1.2-0.7c1-0.5,2.7-0.8,4.4-0.2s2.9,1.8,3.5,2.8c0.3,0.5,0.5,0.9,0.6,1.2
					C183.7,1068.3,183.7,1068.5,183.7,1068.5z"/>
			</g>
		</g>
		<g id="XMLID_1308_">
			<g id="XMLID_1309_">
				<path id="XMLID_1310_" class="st19" d="M120.2,1056.9c0,0,0.1,0.2,0.2,0.7c0.1,0.5,0.2,1.1,0.2,2c0,1.7-0.4,4.1-1.7,6.3
					c-1.4,2.2-3.4,3.6-5,4.1c-0.8,0.3-1.5,0.4-2,0.4s-0.7,0-0.7,0c0-0.1,1,0,2.6-0.6c1.5-0.6,3.5-1.9,4.8-4c1.3-2.1,1.7-4.4,1.8-6.1
					C120.3,1057.9,120.1,1056.9,120.2,1056.9z"/>
			</g>
		</g>
		<g id="XMLID_1238_">
			<g id="XMLID_1305_">
				<g id="XMLID_1306_">
					<path id="XMLID_1307_" class="st19" d="M103.6,1073.7c-0.1,0.1-0.5-0.3-0.8-0.8c-0.4-0.5-0.6-1-0.5-1c0.1-0.1,0.4,0.3,0.8,0.8
						C103.4,1073.2,103.7,1073.6,103.6,1073.7z"/>
				</g>
			</g>
			<g id="XMLID_1302_">
				<g id="XMLID_1303_">
					<path id="XMLID_1304_" class="st19" d="M106.7,1077c-0.1,0.1-0.5-0.2-0.9-0.6c-0.5-0.4-0.8-0.8-0.7-0.9s0.5,0.2,0.9,0.6
						C106.5,1076.5,106.8,1076.9,106.7,1077z"/>
				</g>
			</g>
			<g id="XMLID_1299_">
				<g id="XMLID_1300_">
					<path id="XMLID_1301_" class="st19" d="M110.3,1079.6c-0.1,0.1-0.5-0.1-1.1-0.4c-0.5-0.3-0.9-0.7-0.8-0.8
						c0.1-0.1,0.5,0.1,1.1,0.4C110,1079.2,110.4,1079.5,110.3,1079.6z"/>
				</g>
			</g>
			<g id="XMLID_1296_">
				<g id="XMLID_1297_">
					<path id="XMLID_1298_" class="st19" d="M114.5,1081.4c0,0.1-0.5,0-1.1-0.2c-0.6-0.2-1-0.5-1-0.6s0.5,0,1.1,0.2
						C114.1,1081,114.5,1081.3,114.5,1081.4z"/>
				</g>
			</g>
			<g id="XMLID_1293_">
				<g id="XMLID_1294_">
					<path id="XMLID_1295_" class="st19" d="M118.9,1082.1c0,0.1-0.5,0.1-1.1,0.1c-0.6-0.1-1.1-0.2-1.1-0.3s0.5-0.1,1.1-0.1
						C118.4,1081.9,118.9,1082,118.9,1082.1z"/>
				</g>
			</g>
			<g id="XMLID_1290_">
				<g id="XMLID_1291_">
					<path id="XMLID_1292_" class="st19" d="M123.4,1081.8c0,0.1-0.5,0.2-1.1,0.3c-0.3,0-0.6,0-0.8,0l0,0c-0.2,0-0.3,0-0.3-0.1
						c0,0,0.1-0.1,0.3-0.2l0,0c0.2-0.1,0.5-0.1,0.8-0.1C122.9,1081.7,123.4,1081.7,123.4,1081.8z"/>
				</g>
			</g>
			<g id="XMLID_1287_">
				<g id="XMLID_1288_">
					<path id="XMLID_1289_" class="st19" d="M127.8,1081c0,0.1-0.4,0.3-1.1,0.4c-0.6,0.1-1.1,0.2-1.1,0c0-0.1,0.5-0.3,1.1-0.4
						C127.3,1081,127.8,1080.9,127.8,1081z"/>
				</g>
			</g>
			<g id="XMLID_1284_">
				<g id="XMLID_1285_">
					<path id="XMLID_1286_" class="st19" d="M132.1,1079.7c0,0.1-0.4,0.3-1,0.5c-0.6,0.2-1.1,0.3-1.1,0.2s0.4-0.3,1-0.5
						C131.6,1079.7,132.1,1079.6,132.1,1079.7z"/>
				</g>
			</g>
			<g id="XMLID_1281_">
				<g id="XMLID_1282_">
					<path id="XMLID_1283_" class="st19" d="M136.3,1078c0,0.1-0.4,0.4-0.9,0.6c-0.6,0.3-1.1,0.4-1.1,0.3s0.4-0.4,0.9-0.6
						C135.7,1078,136.2,1077.9,136.3,1078z"/>
				</g>
			</g>
			<g id="XMLID_1278_">
				<g id="XMLID_1279_">
					<path id="XMLID_1280_" class="st19" d="M140.2,1075.8c0.1,0.1-0.3,0.4-0.9,0.7c-0.5,0.3-1,0.5-1.1,0.4s0.3-0.4,0.9-0.7
						C139.7,1075.9,140.2,1075.7,140.2,1075.8z"/>
				</g>
			</g>
			<g id="XMLID_1275_">
				<g id="XMLID_1276_">
					
						<ellipse id="XMLID_1277_" transform="matrix(-0.5828 -0.8126 0.8126 -0.5828 -646.3863 1816.02)" class="st19" cx="143" cy="1073.9" rx="0.2" ry="1.1"/>
				</g>
			</g>
			<g id="XMLID_1272_">
				<g id="XMLID_1273_">
					
						<ellipse id="XMLID_1274_" transform="matrix(-0.6545 -0.7561 0.7561 -0.6545 -567.321 1882.9203)" class="st19" cx="146.6" cy="1071.1" rx="0.2" ry="1.1"/>
				</g>
			</g>
			<g id="XMLID_1269_">
				<g id="XMLID_1270_">
					<path id="XMLID_1271_" class="st19" d="M150.7,1067.3c0.1,0.1-0.2,0.5-0.7,0.9c-0.5,0.4-0.9,0.7-1,0.6
						c-0.1-0.1,0.2-0.5,0.7-0.9S150.6,1067.2,150.7,1067.3z"/>
				</g>
			</g>
			<g id="XMLID_1266_">
				<g id="XMLID_1267_">
					<path id="XMLID_1268_" class="st19" d="M154.3,1064.5c0.1,0.1-0.3,0.5-0.8,0.8c-0.5,0.4-1,0.6-1,0.5c-0.1-0.1,0.3-0.5,0.8-0.8
						C153.7,1064.7,154.2,1064.5,154.3,1064.5z"/>
				</g>
			</g>
			<g id="XMLID_1263_">
				<g id="XMLID_1264_">
					<path id="XMLID_1265_" class="st19" d="M158.2,1062.4c0,0.1-0.4,0.4-0.9,0.7c-0.6,0.3-1,0.4-1.1,0.3s0.4-0.4,0.9-0.7
						C157.7,1062.4,158.2,1062.3,158.2,1062.4z"/>
				</g>
			</g>
			<g id="XMLID_1260_">
				<g id="XMLID_1261_">
					<path id="XMLID_1262_" class="st19" d="M162.5,1061c0,0.1-0.4,0.3-1,0.5c-0.6,0.1-1.1,0.2-1.1,0.1c0-0.1,0.4-0.3,1-0.5
						C162,1061,162.5,1060.9,162.5,1061z"/>
				</g>
			</g>
			<g id="XMLID_1257_">
				<g id="XMLID_1258_">
					<path id="XMLID_1259_" class="st19" d="M167,1060.8c0,0.1-0.5,0.1-1.1,0.1s-1.1-0.1-1.1-0.2c0-0.1,0.5-0.2,1.1-0.2
						C166.5,1060.6,167,1060.7,167,1060.8z"/>
				</g>
			</g>
			<g id="XMLID_1254_">
				<g id="XMLID_1255_">
					<path id="XMLID_1256_" class="st19" d="M171.3,1061.9c0,0.1-0.5,0-1.1-0.2c-0.6-0.2-1-0.4-1-0.5c0-0.1,0.5-0.1,1.1,0.1
						C171,1061.5,171.4,1061.8,171.3,1061.9z"/>
				</g>
			</g>
			<g id="XMLID_1251_">
				<g id="XMLID_1252_">
					<path id="XMLID_1253_" class="st19" d="M170.4,1065.2c-0.1-0.1,0.3-0.5,0.7-0.9s0.7-0.8,0.8-0.8c0.1,0.1-0.1,0.6-0.5,1
						C170.9,1065,170.5,1065.3,170.4,1065.2z"/>
				</g>
			</g>
			<g id="XMLID_1248_">
				<g id="XMLID_1249_">
					<path id="XMLID_1250_" class="st19" d="M166.4,1067.3c0-0.1,0.4-0.4,1-0.6c0.6-0.2,1.1-0.3,1.1-0.2s-0.4,0.4-1,0.6
						C166.9,1067.3,166.4,1067.4,166.4,1067.3z"/>
				</g>
			</g>
			<g id="XMLID_1245_">
				<g id="XMLID_1246_">
					
						<ellipse id="XMLID_1247_" transform="matrix(0.3182 0.948 -0.948 0.3182 1124.0186 573.6724)" class="st19" cx="163.2" cy="1068.3" rx="0.2" ry="1.1"/>
				</g>
			</g>
			<g id="XMLID_1242_">
				<g id="XMLID_1243_">
					
						<ellipse id="XMLID_1244_" transform="matrix(0.3664 0.9304 -0.9304 0.3664 1096.1993 529.9764)" class="st19" cx="158.9" cy="1069.9" rx="0.2" ry="1.1"/>
				</g>
			</g>
			<g id="XMLID_1239_">
				<g id="XMLID_1240_">
					
						<ellipse id="XMLID_1241_" transform="matrix(0.3959 0.9183 -0.9183 0.3959 1077.483 505.2289)" class="st19" cx="154.7" cy="1071.6" rx="0.2" ry="1.1"/>
				</g>
			</g>
		</g>
	</g>
	<g id="XMLID_1167_">
		<g id="XMLID_1178_">
			<g id="XMLID_1179_">
				<g id="XMLID_1198_">
					<g id="XMLID_1199_">
						<g id="XMLID_1224_">
							<g id="XMLID_1234_">
								<g id="XMLID_1235_">
									<path id="XMLID_1236_" class="st19" d="M145.4,943.2c0,0,4.9-1.5,11.4-8.8s9.2-16.5,10-16.5c0.9,0,4.5-2,12.8,13
										s5.8,18.8,4.3,18.9c-1.4,0.1-11.3-1.9-17.3-0.8c-6,1.1-13.5,4.9-13.5,4.9L145.4,943.2z"/>
								</g>
							</g>
							<g id="XMLID_1231_">
								<g id="XMLID_1232_">
									<path id="XMLID_1233_" class="st7" d="M135.4,952.4l1.9,3.1l0.9,1.4c1.2,1.9,3.7,2.6,5.7,1.5l10.4-4.5l-7.3-13.8l-10.3,6.5
										C134.7,947.9,134.1,950.5,135.4,952.4z"/>
								</g>
							</g>
							<g id="XMLID_1228_">
								<g id="XMLID_1229_">
									<path id="XMLID_1230_" class="st7" d="M141.9,957.2l3.9,6.4l1.7-0.6l11.8,8.2l2.7-6.3c0,0-6.8-2.3-8.2-4.6s0-2.9,0-2.9
										l-3.4-3.3L141.9,957.2z"/>
								</g>
							</g>
							<g id="XMLID_1225_">
								<g id="XMLID_1226_">
									
										<ellipse id="XMLID_1227_" transform="matrix(-0.4781 -0.8783 0.8783 -0.4781 -559.5603 1533.4729)" class="st7" cx="175.8" cy="933" rx="16.8" ry="3.7"/>
								</g>
							</g>
						</g>
						<g id="XMLID_1221_">
							<g id="XMLID_1222_">
								<polygon id="XMLID_1223_" class="st19" points="134.8,957.2 137.6,956.1 135.6,952.8 133.5,954.3 								"/>
							</g>
						</g>
						<g id="XMLID_1218_">
							<g id="XMLID_1219_">
								<polygon id="XMLID_1220_" class="st19" points="151.6,955.3 144.1,960.8 143,959 								"/>
							</g>
						</g>
						<g id="XMLID_1215_">
							<g id="XMLID_1216_">
								<polygon id="XMLID_1217_" class="st19" points="135.6,952.8 137.6,956.1 137.1,956.3 135.3,953 								"/>
							</g>
						</g>
						<g id="XMLID_1212_">
							<g id="XMLID_1213_">
								
									<ellipse id="XMLID_1214_" transform="matrix(0.4783 0.8782 -0.8782 0.4783 909.2107 372.9879)" class="st19" cx="140.7" cy="951.7" rx="0.2" ry="3.5"/>
							</g>
						</g>
						<g id="XMLID_1209_">
							<g id="XMLID_1210_">
								
									<ellipse id="XMLID_1211_" transform="matrix(0.5071 0.8619 -0.8619 0.5071 887.2944 348.0504)" class="st19" cx="139.3" cy="949.8" rx="0.2" ry="3.2"/>
							</g>
						</g>
						<g id="XMLID_1206_">
							<g id="XMLID_1207_">
								<path id="XMLID_1208_" class="st19" d="M138.9,955.5c0,0,0.4-0.1,0.9-0.3c0.3-0.1,0.6-0.2,0.9-0.4c0.3-0.2,0.7-0.4,1.1-0.6
									c1.5-0.9,2.7-1.7,2.6-1.7c-0.1-0.1-1.3,0.6-2.8,1.4c-0.4,0.2-0.7,0.4-1.1,0.6c-0.3,0.2-0.6,0.3-0.9,0.5
									C139.2,955.2,138.9,955.4,138.9,955.5z"/>
							</g>
						</g>
						<g id="XMLID_1203_">
							<g id="XMLID_1204_">
								<path id="XMLID_1205_" class="st19" d="M171.2,929.9c0,0,4.1-3,7,2.7c2.8,5.7-1.7,7-1.7,7
									C174.3,936.8,172.6,933.6,171.2,929.9z"/>
							</g>
						</g>
						<g id="XMLID_1200_">
							<g id="XMLID_1201_">
								<path id="XMLID_1202_" class="st7" d="M166,923.3c0,0,0.1,0.4,0.3,1.1s0.5,1.7,0.8,3c0.2,0.6,0.5,1.3,0.8,2
									c0.1,0.4,0.3,0.7,0.4,1.1c0.1,0.2,0.1,0.4,0.2,0.6c0.1,0.2,0.2,0.4,0.3,0.6c0.4,0.8,0.8,1.6,1.2,2.5
									c0.1,0.2,0.2,0.4,0.3,0.6s0.2,0.4,0.4,0.6c0.2,0.4,0.5,0.8,0.7,1.3c0.3,0.4,0.5,0.9,0.7,1.3c0.1,0.2,0.2,0.4,0.4,0.6
									c0.1,0.2,0.3,0.4,0.4,0.6c0.5,0.8,1.1,1.5,1.6,2.2c0.1,0.2,0.2,0.4,0.4,0.5c0.1,0.2,0.3,0.3,0.4,0.5
									c0.3,0.3,0.5,0.6,0.8,0.9c0.5,0.6,1,1.1,1.4,1.6c0.9,0.9,1.7,1.7,2.2,2.2s0.8,0.8,0.8,0.8s-0.2-0.3-0.7-0.9
									c-0.5-0.6-1.2-1.3-2.1-2.3c-0.4-0.5-0.9-1.1-1.3-1.7c-0.2-0.3-0.5-0.6-0.7-0.9c-0.1-0.2-0.3-0.3-0.4-0.5
									c-0.1-0.2-0.2-0.3-0.4-0.5c-0.5-0.7-1-1.5-1.5-2.2c-0.1-0.2-0.3-0.4-0.4-0.6c-0.1-0.2-0.2-0.4-0.4-0.6
									c-0.2-0.4-0.5-0.8-0.7-1.3c-0.3-0.4-0.5-0.9-0.7-1.3c-0.1-0.2-0.3-0.4-0.4-0.6c-0.1-0.2-0.2-0.4-0.3-0.6
									c-0.4-0.8-0.8-1.7-1.2-2.4c-0.1-0.2-0.2-0.4-0.3-0.6s-0.2-0.4-0.2-0.6c-0.2-0.4-0.3-0.7-0.4-1.1c-0.3-0.7-0.5-1.4-0.8-2
									c-0.4-1.2-0.7-2.2-0.9-2.9C166.2,923.6,166.1,923.2,166,923.3z"/>
							</g>
						</g>
					</g>
				</g>
				<g id="XMLID_1180_">
					<g id="XMLID_1196_">
						<path id="XMLID_1197_" class="st13" d="M154.9,957.4c0.7,0.2,1,0.9,0.9,1.5c-0.3,1.3-0.9,3.3-1.3,4.5
							c-0.1,0.4-0.3,0.8-0.6,1.1c-0.3,0.3-0.7,0.5-1.1,0.4c-0.4-0.1-0.7-0.5-0.8-1c-0.1-0.4,0-0.9,0.1-1.3c0.3-1.2,0.7-3,1.2-4.4
							C153.5,957.6,154.2,957.2,154.9,957.4L154.9,957.4z"/>
					</g>
					<g id="XMLID_1194_">
						<path id="XMLID_1195_" class="st13" d="M156.9,959.5c0.7,0.2,1,0.9,0.9,1.5c-0.3,1.3-0.9,3.3-1.3,4.5
							c-0.1,0.4-0.3,0.8-0.6,1.1s-0.7,0.5-1.1,0.4c-0.4-0.1-0.7-0.5-0.8-1c-0.1-0.4,0-0.9,0.1-1.3c0.3-1.2,0.7-3,1.2-4.4
							C155.5,959.7,156.2,959.3,156.9,959.5L156.9,959.5z"/>
					</g>
					<g id="XMLID_1192_">
						<path id="XMLID_1193_" class="st13" d="M158.9,960.8c0.6,0.2,0.9,0.8,0.8,1.3c-0.3,1.1-0.7,2.8-1.1,3.9
							c-0.1,0.3-0.2,0.7-0.5,1c-0.2,0.3-0.6,0.5-1,0.4c-0.4-0.1-0.6-0.5-0.7-0.8c-0.1-0.4,0-0.8,0.1-1.1c0.2-1,0.6-2.6,1-3.8
							C157.7,960.9,158.3,960.6,158.9,960.8L158.9,960.8z"/>
					</g>
					<g id="XMLID_1190_">
						<path id="XMLID_1191_" class="st13" d="M161.1,961c0.6,0.2,0.9,0.8,0.8,1.3c-0.3,1.1-0.7,2.9-1.1,3.9c-0.1,0.3-0.2,0.7-0.5,1
							c-0.2,0.3-0.6,0.5-1,0.4c-0.4-0.1-0.6-0.5-0.7-0.8c-0.1-0.4,0-0.8,0.1-1.1c0.2-1,0.7-2.6,1-3.9
							C159.9,961.2,160.5,960.8,161.1,961L161.1,961z"/>
					</g>
					<g id="XMLID_1187_">
						<g id="XMLID_1188_">
							
								<ellipse id="XMLID_1189_" transform="matrix(0.9536 0.3011 -0.3011 0.9536 296.929 -1.9725)" class="st20" cx="154.9" cy="962.3" rx="0.2" ry="2.5"/>
						</g>
					</g>
					<g id="XMLID_1184_">
						<g id="XMLID_1185_">
							<path id="XMLID_1186_" class="st20" d="M158.4,966.3c-0.1,0,0.2-1.1,0.6-2.4c0.4-1.3,0.7-2.4,0.8-2.3c0.1,0,0,1.1-0.4,2.4
								C159,965.4,158.5,966.4,158.4,966.3z"/>
						</g>
					</g>
					<g id="XMLID_1181_">
						<g id="XMLID_1182_">
							<path id="XMLID_1183_" class="st20" d="M156.3,966.1c-0.1,0,0.2-1.1,0.6-2.4c0.4-1.3,0.7-2.4,0.8-2.3c0.1,0,0,1.1-0.4,2.4
								C156.9,965.1,156.4,966.1,156.3,966.1z"/>
						</g>
					</g>
				</g>
			</g>
		</g>
		<g id="XMLID_1168_">
			<g id="XMLID_1175_">
				<g id="XMLID_1176_">
					
						<ellipse id="XMLID_1177_" transform="matrix(-0.7951 -0.6064 0.6064 -0.7951 -216.5766 1750.316)" class="st7" cx="187.4" cy="911.7" rx="0.2" ry="11.6"/>
				</g>
			</g>
			<g id="XMLID_1172_">
				<g id="XMLID_1173_">
					
						<ellipse id="XMLID_1174_" transform="matrix(-0.421 -0.9071 0.9071 -0.421 -551.2309 1490.5089)" class="st7" cx="200.1" cy="921.2" rx="0.2" ry="16"/>
				</g>
			</g>
			<g id="XMLID_1169_">
				<g id="XMLID_1170_">
					
						<ellipse id="XMLID_1171_" transform="matrix(9.600219e-002 -0.9954 0.9954 9.600219e-002 -751.9921 1048.5952)" class="st7" cx="201.3" cy="938.3" rx="0.2" ry="10.3"/>
				</g>
			</g>
		</g>
	</g>
	<g id="XMLID_377_">
		<g id="XMLID_466_">
			<g id="XMLID_467_">
				<g id="XMLID_1154_">
					<g id="XMLID_1155_">
						<g id="XMLID_1156_">
							<g id="XMLID_1157_">
								<g id="XMLID_1158_">
									<g id="XMLID_1159_">
										<g id="XMLID_1160_">
											<g id="XMLID_1161_">
												<g id="XMLID_1162_">
													<g id="XMLID_1163_">
														<g id="XMLID_1164_">
															<g id="XMLID_1165_">
																<path id="XMLID_1166_" class="st13" d="M93.2,953.2l5.1,29c0.9,5,5.6,8.4,10.7,7.7l0,0c5.3-0.7,9-5.6,8.1-10.9
																	l-0.8-5c0,0,7.1-1.9,6.4-9.1c-0.4-3.5-1.7-10.5-3-16.9c-1.4-7.1-8.3-11.9-15.6-10.7l0,0
																	C96.6,938.7,91.6,945.8,93.2,953.2z"/>
															</g>
														</g>
													</g>
												</g>
											</g>
										</g>
									</g>
								</g>
							</g>
						</g>
					</g>
				</g>
				<g id="XMLID_468_">
					<g id="XMLID_1138_">
						<g id="XMLID_1139_">
							<g id="XMLID_1140_">
								<g id="XMLID_1141_">
									<g id="XMLID_1142_">
										<g id="XMLID_1143_">
											<g id="XMLID_1144_">
												<g id="XMLID_1145_">
													<g id="XMLID_1146_">
														<g id="XMLID_1147_">
															<g id="XMLID_1148_">
																<g id="XMLID_1149_">
																	<g id="XMLID_1150_">
																		<g id="XMLID_1151_">
																			<g id="XMLID_1152_">
																				<path id="XMLID_1153_" class="st20" d="M116.3,974.1c0,0-4.5,0.9-9.8-1.6c0,0,2.8,4.9,10,3.4L116.3,974.1z"/>
																			</g>
																		</g>
																	</g>
																</g>
															</g>
														</g>
													</g>
												</g>
											</g>
										</g>
									</g>
								</g>
							</g>
						</g>
					</g>
					<g id="XMLID_469_">
						<g id="XMLID_470_">
							<g id="XMLID_497_">
								<g id="XMLID_498_">
									<g id="XMLID_499_">
										<g id="XMLID_1110_">
											<g id="XMLID_1125_">
												<g id="XMLID_1126_">
													<g id="XMLID_1127_">
														<g id="XMLID_1128_">
															<g id="XMLID_1129_">
																<g id="XMLID_1130_">
																	<g id="XMLID_1131_">
																		<g id="XMLID_1132_">
																			<g id="XMLID_1133_">
																				<g id="XMLID_1134_">
																					<g id="XMLID_1135_">
																						<g id="XMLID_1136_">
																							<path id="XMLID_1137_" class="st7" d="M118.2,952.9c0.1,0.5-0.3,1-0.9,1.1c-0.6,0.1-1.1-0.3-1.2-0.8
																								c-0.1-0.5,0.3-1,0.9-1.1C117.6,952,118.1,952.4,118.2,952.9z"/>
																						</g>
																					</g>
																				</g>
																			</g>
																		</g>
																	</g>
																</g>
															</g>
														</g>
													</g>
												</g>
											</g>
											<g id="XMLID_1111_">
												<g id="XMLID_1112_">
													<g id="XMLID_1113_">
														<g id="XMLID_1114_">
															<g id="XMLID_1115_">
																<g id="XMLID_1116_">
																	<g id="XMLID_1117_">
																		<g id="XMLID_1118_">
																			<g id="XMLID_1119_">
																				<g id="XMLID_1120_">
																					<g id="XMLID_1121_">
																						<g id="XMLID_1122_">
																							<g id="XMLID_1123_">
																								<path id="XMLID_1124_" class="st7" d="M118.4,951.2c-0.1,0.1-1-0.3-2.1-0.2c-1.1,0.1-1.9,0.8-2,0.7
																									c-0.1-0.1,0-0.3,0.4-0.6c0.3-0.3,0.9-0.6,1.6-0.7c0.7-0.1,1.3,0.1,1.7,0.3
																									C118.3,950.9,118.5,951.1,118.4,951.2z"/>
																							</g>
																						</g>
																					</g>
																				</g>
																			</g>
																		</g>
																	</g>
																</g>
															</g>
														</g>
													</g>
												</g>
											</g>
										</g>
										<g id="XMLID_528_">
											<g id="XMLID_650_">
												<g id="XMLID_651_">
													<g id="XMLID_652_">
														<g id="XMLID_653_">
															<g id="XMLID_654_">
																<g id="XMLID_655_">
																	<g id="XMLID_656_">
																		<g id="XMLID_657_">
																			<g id="XMLID_658_">
																				<g id="XMLID_689_">
																					<g id="XMLID_1107_">
																						<g id="XMLID_1108_">
																							<path id="XMLID_1109_" class="st7" d="M107.7,954.2c0.1,0.5-0.3,1-0.9,1.1c-0.6,0.1-1.1-0.3-1.2-0.8
																								c-0.1-0.5,0.3-1,0.9-1.1C107.1,953.3,107.6,953.6,107.7,954.2z"/>
																						</g>
																					</g>
																				</g>
																			</g>
																		</g>
																	</g>
																</g>
															</g>
														</g>
													</g>
												</g>
											</g>
											<g id="XMLID_529_">
												<g id="XMLID_530_">
													<g id="XMLID_531_">
														<g id="XMLID_532_">
															<g id="XMLID_533_">
																<g id="XMLID_534_">
																	<g id="XMLID_535_">
																		<g id="XMLID_594_">
																			<g id="XMLID_644_">
																				<g id="XMLID_645_">
																					<g id="XMLID_646_">
																						<g id="XMLID_647_">
																							<g id="XMLID_648_">
																								<path id="XMLID_649_" class="st7" d="M107.6,952.6c-0.1,0.1-1-0.3-2.1-0.2c-1.1,0.1-1.9,0.8-2,0.7
																									c-0.1-0.1,0-0.3,0.4-0.6c0.3-0.3,0.9-0.6,1.6-0.7c0.7-0.1,1.3,0.1,1.7,0.3
																									C107.5,952.3,107.7,952.6,107.6,952.6z"/>
																							</g>
																						</g>
																					</g>
																				</g>
																			</g>
																		</g>
																	</g>
																</g>
															</g>
														</g>
													</g>
												</g>
											</g>
										</g>
										<g id="XMLID_514_">
											<g id="XMLID_515_">
												<g id="XMLID_516_">
													<g id="XMLID_517_">
														<g id="XMLID_518_">
															<g id="XMLID_519_">
																<g id="XMLID_520_">
																	<g id="XMLID_521_">
																		<g id="XMLID_522_">
																			<g id="XMLID_523_">
																				<g id="XMLID_524_">
																					<g id="XMLID_525_">
																						<g id="XMLID_526_">
																							<path id="XMLID_527_" class="st7" d="M112.6,961c0-0.1,0.7-0.3,1.8-0.5c0.3-0.1,0.5-0.1,0.6-0.3
																								c0-0.2-0.1-0.5-0.3-0.8c-0.3-0.6-0.7-1.3-1.1-2c-1.5-2.9-2.7-5.3-2.5-5.4c0.1-0.1,1.5,2.3,3,5.2
																								c0.4,0.7,0.7,1.4,1.1,2.1c0.1,0.3,0.4,0.6,0.3,1.1c-0.1,0.2-0.2,0.4-0.4,0.5c-0.2,0.1-0.3,0.1-0.5,0.1
																								C113.3,961,112.6,961,112.6,961z"/>
																						</g>
																					</g>
																				</g>
																			</g>
																		</g>
																	</g>
																</g>
															</g>
														</g>
													</g>
												</g>
											</g>
										</g>
										<g id="XMLID_500_">
											<g id="XMLID_501_">
												<g id="XMLID_502_">
													<g id="XMLID_503_">
														<g id="XMLID_504_">
															<g id="XMLID_505_">
																<g id="XMLID_506_">
																	<g id="XMLID_507_">
																		<g id="XMLID_508_">
																			<g id="XMLID_509_">
																				<g id="XMLID_510_">
																					<g id="XMLID_511_">
																						<g id="XMLID_512_">
																							<path id="XMLID_513_" class="st7" d="M109.4,962.1c0.2,0,0.3,1.2,1.5,1.9c1.1,0.7,2.4,0.5,2.4,0.6
																								c0,0.1-0.3,0.3-0.8,0.3c-0.5,0.1-1.3,0-2-0.4c-0.7-0.4-1-1.1-1.1-1.6C109.2,962.4,109.3,962.1,109.4,962.1z"
																								/>
																						</g>
																					</g>
																				</g>
																			</g>
																		</g>
																	</g>
																</g>
															</g>
														</g>
													</g>
												</g>
											</g>
										</g>
									</g>
								</g>
							</g>
							<g id="XMLID_484_">
								<g id="XMLID_485_">
									<g id="XMLID_486_">
										<g id="XMLID_487_">
											<g id="XMLID_488_">
												<g id="XMLID_489_">
													<g id="XMLID_490_">
														<g id="XMLID_491_">
															<g id="XMLID_492_">
																<g id="XMLID_493_">
																	<g id="XMLID_494_">
																		<g id="XMLID_495_">
																			<path id="XMLID_496_" class="st7" d="M107.4,948.9c-0.1,0.3-1.2,0.3-2.5,0.6c-1.3,0.3-2.3,0.8-2.5,0.5
																				c-0.1-0.1,0.1-0.4,0.5-0.8c0.4-0.3,1-0.7,1.8-0.9c0.8-0.2,1.5-0.1,2,0C107.2,948.6,107.4,948.8,107.4,948.9z"/>
																		</g>
																	</g>
																</g>
															</g>
														</g>
													</g>
												</g>
											</g>
										</g>
									</g>
								</g>
							</g>
							<g id="XMLID_471_">
								<g id="XMLID_472_">
									<g id="XMLID_473_">
										<g id="XMLID_474_">
											<g id="XMLID_475_">
												<g id="XMLID_476_">
													<g id="XMLID_477_">
														<g id="XMLID_478_">
															<g id="XMLID_479_">
																<g id="XMLID_480_">
																	<g id="XMLID_481_">
																		<g id="XMLID_482_">
																			<path id="XMLID_483_" class="st7" d="M117.8,948.7c-0.2,0.3-1,0.1-1.9,0.2s-1.7,0.4-1.9,0.1
																				c-0.1-0.1,0-0.4,0.3-0.7c0.3-0.3,0.9-0.5,1.5-0.6c0.6-0.1,1.2,0.1,1.6,0.3C117.7,948.3,117.9,948.6,117.8,948.7z
																				"/>
																		</g>
																	</g>
																</g>
															</g>
														</g>
													</g>
												</g>
											</g>
										</g>
									</g>
								</g>
							</g>
						</g>
					</g>
				</g>
			</g>
		</g>
		<g id="XMLID_464_">
			<path id="XMLID_465_" class="st7" d="M119.8,935.8c-1-0.7-2.5-0.7-3.3,0.2c0.7-0.9,0.3-2.3-0.6-3c-0.9-0.7-2.2-0.8-3.3-0.5
				c-1.1,0.3-2.1,0.9-3.1,1.5c0.1-0.4-0.1-0.9-0.5-1.2c-0.4-0.3-0.8-0.4-1.3-0.4c-1.9-0.2-3.8,0.4-5.4,1.2c-1.7,0.9-3.6,2.2-5,3.4
				l0,0c-1.5,1.2-3,2.8-4.6,4.9c0,0,0,0-0.1,0.1c-1.1,0.9-2,3.8-1.8,5.2c0.6,5.2,2.3,8.1,3.3,13c0.1,0.3,0.1,0.7,0.4,0.9
				c0.6,0.6,1.7,0.1,2.2-0.6c1.4-1.6,1.8-3.7,1.9-5.8c0.1-2.1-0.2-4.1-0.2-6.2v-0.1c0-0.5,0.1-1,0.2-1.6c0.1-0.3,1-3.3,3.8-3.8
				c3-0.5,9,2.4,11.9,2c3-0.5,3.1-2.5,3.1-2.5l1.7,3.5c0,0,0.7-2.1,0.3-4.4c0.7-0.7,1.3-1.6,1.5-2.6
				C121.1,937.9,120.7,936.6,119.8,935.8z"/>
		</g>
		<g id="XMLID_436_">
			<g id="XMLID_451_">
				<g id="XMLID_452_">
					<g id="XMLID_453_">
						<g id="XMLID_454_">
							<g id="XMLID_455_">
								<g id="XMLID_456_">
									<g id="XMLID_457_">
										<g id="XMLID_458_">
											<g id="XMLID_459_">
												<g id="XMLID_460_">
													<g id="XMLID_461_">
														<g id="XMLID_462_">
															<path id="XMLID_463_" class="st13" d="M96,956.3c-0.1,0-5.2-0.9-4.4,4c0.7,4.9,5.5,3.1,5.5,3
																C97.1,963.1,96,956.3,96,956.3z"/>
														</g>
													</g>
												</g>
											</g>
										</g>
									</g>
								</g>
							</g>
						</g>
					</g>
				</g>
			</g>
			<g id="XMLID_437_">
				<g id="XMLID_438_">
					<g id="XMLID_439_">
						<g id="XMLID_440_">
							<g id="XMLID_441_">
								<g id="XMLID_442_">
									<g id="XMLID_443_">
										<g id="XMLID_444_">
											<g id="XMLID_445_">
												<g id="XMLID_446_">
													<g id="XMLID_447_">
														<g id="XMLID_448_">
															<g id="XMLID_449_">
																<path id="XMLID_450_" class="st20" d="M95.3,961.6c0,0-0.1,0.1-0.2,0.2c-0.1,0.1-0.4,0.2-0.6,0.1
																	c-0.6-0.1-1.1-0.9-1.3-1.7c-0.1-0.4,0-0.9,0.1-1.3c0.1-0.4,0.3-0.7,0.6-0.7c0.3-0.1,0.5,0,0.5,0.2
																	c0.1,0.1,0.1,0.2,0.1,0.2s0.1-0.1,0-0.3c0-0.1-0.1-0.2-0.2-0.3c-0.1-0.1-0.3-0.1-0.5-0.1c-0.4,0.1-0.7,0.5-0.8,0.9
																	c-0.1,0.4-0.2,0.9-0.1,1.4c0.2,1,0.8,1.8,1.6,1.9c0.4,0,0.6-0.1,0.8-0.2C95.3,961.7,95.3,961.6,95.3,961.6z"/>
															</g>
														</g>
													</g>
												</g>
											</g>
										</g>
									</g>
								</g>
							</g>
						</g>
					</g>
				</g>
			</g>
		</g>
	</g>
	<g id="XMLID_368_">
		<g id="XMLID_371_">
			<path id="XMLID_374_" class="st9" d="M84.9,991.6c0,0,0.1-0.1,0.4-0.1c0.3,0,0.7,0.2,1.1,0.6c0.4,0.4,0.7,1.1,0.6,1.8
				c0,0.8-0.3,1.6-0.6,2.5c-0.3,0.9-0.4,2,0.2,2.9c0.5,0.9,1.6,1.6,2.1,2.9c0.4,1.3,0.1,2.9-1.1,3.8c-0.6,0.5-1.3,0.7-2,0.8
				c-0.8,0-1.5-0.2-2.2-0.4s-1.4-0.3-2-0.1s-1.1,0.7-1.5,1.2s-0.8,1.1-1.3,1.6s-1.2,0.8-1.9,0.7c-1.4-0.1-2.4-1-3-2
				s-0.7-2.1-0.8-3.1s0-1.8,0-2.6c0-0.8-0.1-1.4-0.2-1.9c-0.2-1-0.5-1.6-0.5-1.6s0.1,0.1,0.2,0.4c0.1,0.3,0.3,0.6,0.4,1.2
				c0.1,0.5,0.2,1.2,0.2,1.9c0,0.8,0,1.6,0.1,2.6c0.1,0.9,0.2,2,0.8,2.9c0.5,0.9,1.5,1.7,2.7,1.8c0.6,0,1.2-0.2,1.6-0.6
				c0.5-0.4,0.8-1,1.2-1.6c0.4-0.6,0.9-1.2,1.7-1.4c0.8-0.2,1.5-0.1,2.2,0.1s1.4,0.4,2.1,0.3c0.7,0,1.3-0.3,1.8-0.7
				c1-0.8,1.4-2.2,1-3.4c-0.4-1.1-1.4-1.9-2-2.9c-0.3-0.5-0.4-1.1-0.4-1.6s0.1-1,0.3-1.5c0.3-0.9,0.6-1.7,0.6-2.5
				c0.1-0.7-0.2-1.4-0.5-1.7c-0.3-0.4-0.7-0.5-1-0.6C85,991.5,84.9,991.6,84.9,991.6z"/>
		</g>
	</g>
	<g id="XMLID_345_">
		<g id="XMLID_362_">
			<path id="XMLID_365_" class="st9" d="M87,1044.1c0,0,0,0.2,0.2,0.5c0.2,0.3,0.6,0.6,1.2,0.8c0.6,0.2,1.4,0.1,2.1-0.5
				c0.7-0.6,1.2-1.5,1.4-2.6c0.2-1.1,0.2-2.4,0.4-3.8c0.1-0.7,0.3-1.4,0.7-2.1c0.4-0.7,1-1.3,1.7-1.5c0.8-0.3,1.6-0.3,2.4-0.2
				c0.8,0.1,1.6,0.3,2.4,0.4c0.8,0.1,1.6,0.1,2.5-0.1c0.8-0.2,1.6-0.6,2.2-1.2c0.6-0.6,1.1-1.3,1.3-2.1c0.2-0.8,0.2-1.6,0-2.4
				c-0.5-1.5-1.8-2.7-3.3-2.9c-1.5-0.2-2.9,0.6-4.3,0.6c-0.7,0-1.4-0.2-2-0.4c-0.6-0.3-1.1-0.7-1.6-1c-0.9-0.7-1.8-1.3-2.6-1.6
				c-0.9-0.3-1.7-0.2-2.2,0.1c-0.6,0.3-0.9,0.7-1,1c-0.1,0.3-0.1,0.5-0.1,0.5s0-0.2,0-0.5c0.1-0.3,0.4-0.8,1-1.2
				c0.3-0.2,0.6-0.3,1-0.4c0.4-0.1,0.9,0,1.3,0.1c0.9,0.3,1.8,0.9,2.7,1.6c0.9,0.7,2,1.4,3.4,1.3c0.7,0,1.3-0.2,2-0.4
				s1.5-0.3,2.3-0.2c1.6,0.2,3.1,1.5,3.6,3.1c0.3,0.8,0.3,1.8,0.1,2.6c-0.3,0.9-0.8,1.7-1.5,2.3s-1.5,1.1-2.4,1.3
				c-0.9,0.3-1.8,0.2-2.6,0.1c-0.8-0.1-1.6-0.3-2.4-0.4c-0.8-0.1-1.6-0.1-2.2,0.2c-0.7,0.3-1.2,0.8-1.6,1.4
				c-0.4,0.6-0.6,1.3-0.7,1.9c-0.2,1.3-0.2,2.6-0.5,3.8c-0.3,1.2-0.8,2.2-1.6,2.7c-0.8,0.6-1.7,0.6-2.3,0.4c-0.6-0.2-1-0.6-1.2-0.9
				C86.9,1044.3,87,1044.1,87,1044.1z"/>
		</g>
	</g>
	<g id="XMLID_331_">
		<g id="XMLID_332_">
			<path id="XMLID_338_" class="st9" d="M112.5,998.6c0,0,0.1-0.3,0.5-0.7s1.1-0.9,2.2-1.1c1.1-0.2,2.6,0.2,3.6,1.4
				c0.5,0.6,0.8,1.4,0.9,2.3c0.1,0.9,0.1,1.8,0.6,2.6c0.2,0.4,0.6,0.7,1.1,0.8c0.5,0.2,1,0.2,1.5,0.2s1.1,0,1.6,0.1
				c0.6,0.1,1.2,0.2,1.6,0.6c0.2,0.2,0.4,0.5,0.6,0.7c0.1,0.3,0.2,0.6,0.1,0.9c-0.1,0.6-0.4,1.2-0.8,1.7c-0.4,0.5-0.9,0.9-1.5,1.2
				c-0.6,0.3-1.2,0.5-1.7,0.8c-0.6,0.3-1.1,0.6-1.6,1c-0.5,0.4-0.8,1-0.9,1.6c-0.3,1.3,0,2.6-0.1,4.1c-0.1,0.7-0.2,1.4-0.6,2.1
				c-0.3,0.7-1,1.2-1.8,1.3c-0.8,0.1-1.6-0.2-2.2-0.7c-0.6-0.5-1.1-1.1-1.4-1.7c-0.4-0.6-0.7-1.3-1.2-1.8c-0.4-0.6-1-1-1.6-1.2
				s-1.3-0.1-2,0.1c-0.6,0.2-1.2,0.6-1.8,1c-0.6,0.4-1.2,0.7-1.9,1c-0.7,0.2-1.4,0.4-2.1,0.3c-1.4,0-2.7-0.5-3.8-1.3
				s-1.8-1.9-2.1-3.2c-0.2-1.2,0-2.6,0.9-3.4c0.4-0.4,1-0.7,1.5-0.8s1.1-0.2,1.6-0.3c1-0.1,2-0.3,2.8-0.9c0.7-0.6,1.1-1.4,1.5-2.2
				c0.3-0.8,0.5-1.6,0.8-2.3c0.3-0.7,0.6-1.4,1-1.9s0.9-0.9,1.3-1.3c0.9-0.7,1.7-1.1,2.2-1.1C112.2,998.3,112.5,998.6,112.5,998.6
				s-0.3-0.2-0.8-0.2c-0.6,0.1-1.3,0.5-2.2,1.1c-0.4,0.3-0.9,0.7-1.3,1.3c-0.4,0.5-0.7,1.2-1,1.9s-0.5,1.5-0.8,2.3s-0.8,1.7-1.5,2.3
				c-0.8,0.7-1.9,0.9-2.9,1c-1,0.2-2.2,0.3-3,1s-1,2-0.8,3.1c0.2,1.1,0.9,2.2,1.9,3c1,0.7,2.2,1.2,3.6,1.2c0.6,0,1.3-0.1,1.9-0.3
				c0.6-0.2,1.2-0.6,1.8-0.9c0.6-0.4,1.2-0.7,1.9-1s1.5-0.4,2.2-0.1c0.7,0.2,1.3,0.8,1.8,1.4c0.5,0.6,0.8,1.3,1.2,1.9
				c0.4,0.6,0.8,1.2,1.3,1.6c0.5,0.4,1.2,0.7,1.8,0.6c0.7-0.1,1.2-0.6,1.5-1.1c0.3-0.6,0.5-1.3,0.5-1.9c0.1-1.3-0.2-2.8,0.1-4.1
				c0.2-0.7,0.5-1.3,1.1-1.8c0.5-0.5,1.1-0.8,1.7-1c0.6-0.3,1.2-0.5,1.7-0.8s1-0.6,1.4-1.1c0.4-0.4,0.7-1,0.7-1.5
				c0-0.3,0-0.5-0.1-0.8c-0.1-0.2-0.3-0.5-0.5-0.6c-0.4-0.3-0.9-0.5-1.5-0.5c-0.5-0.1-1.1-0.1-1.6-0.1s-1.1-0.1-1.6-0.3
				s-1-0.5-1.2-0.9c-0.5-0.9-0.5-1.9-0.6-2.7c-0.1-0.9-0.4-1.6-0.8-2.2c-0.9-1.2-2.4-1.6-3.4-1.4c-1.1,0.2-1.8,0.7-2.2,1
				C112.6,998.4,112.5,998.6,112.5,998.6z"/>
		</g>
	</g>
	<g id="XMLID_328_">
		<g id="XMLID_329_">
			<path id="XMLID_330_" class="st9" d="M99.8,985.9c0,0-0.5,0.5-1.6,0.8c-0.5,0.1-1.2,0.1-1.9,0c-0.7-0.1-1.5-0.5-2.1-1.2
				c-0.5-0.7-0.7-1.5-0.7-2.2c-0.1-0.7,0-1.4,0.1-1.9c0.2-1.1,0.8-1.6,0.8-1.5c0.1,0-0.4,0.6-0.5,1.6c-0.1,0.5-0.1,1.1,0,1.8
				s0.3,1.4,0.7,2c0.4,0.6,1.2,0.9,1.8,1.1c0.7,0.1,1.3,0.1,1.8,0.1C99.3,986.3,99.8,985.9,99.8,985.9z"/>
		</g>
	</g>
	<g id="XMLID_325_">
		<g id="XMLID_326_">
			<path id="XMLID_327_" class="st9" d="M132.2,984c0,0,0,0.1-0.1,0.2c0,0.1-0.1,0.3-0.3,0.5c-0.3,0.4-0.9,1-1.9,1.2
				c-0.5,0.1-1,0.2-1.6,0c-0.6-0.1-1.1-0.5-1.6-0.9c-0.5-0.4-1-0.8-1.6-1s-1.2,0.1-1.6,0.6c-0.4,0.5-0.6,1.2-0.9,1.8
				c-0.3,0.6-0.8,1.2-1.3,1.5c-1.1,0.7-2.4,0.7-3.3,0.4c-0.9-0.4-1.5-1-1.7-1.4c-0.3-0.5-0.3-0.8-0.3-0.8s0.1,0.3,0.4,0.7
				c0.3,0.4,0.8,1,1.7,1.3c0.8,0.3,2,0.3,3-0.4c0.5-0.3,0.9-0.8,1.2-1.4c0.3-0.6,0.5-1.3,1-1.9c0.2-0.3,0.5-0.6,0.9-0.7
				c0.4-0.1,0.8-0.1,1.1,0c0.7,0.2,1.2,0.7,1.7,1.1c0.5,0.4,0.9,0.7,1.5,0.8c0.5,0.1,1,0.1,1.4,0c0.9-0.2,1.5-0.7,1.8-1.1
				C132,984.3,132.1,984,132.2,984z"/>
		</g>
	</g>
	<g id="XMLID_322_">
		<g id="XMLID_323_">
			<path id="XMLID_324_" class="st9" d="M137.5,1013.5c0,0-0.3-0.2-0.8-0.5c-0.5-0.4-1.2-1-2-1.8c-0.4-0.4-0.8-0.9-1.2-1.5
				c-0.4-0.6-0.7-1.3-0.7-2.1c-0.1-0.8,0-1.6,0.4-2.4c0.2-0.4,0.5-0.7,0.8-1s0.7-0.5,1.1-0.7c0.4-0.2,0.7-0.4,1-0.7
				c0.3-0.3,0.5-0.6,0.6-1c0.2-0.7,0.2-1.5,0.1-2.3c-0.1-0.7-0.2-1.5-0.2-2.2c0.1-0.7,0.2-1.4,0.7-1.8c0.9-0.8,1.9-1,2.5-1
				c0.7,0,1,0.4,0.9,0.3c0,0-0.3-0.2-0.9-0.2c-0.6,0-1.5,0.3-2.3,1.1c-0.4,0.4-0.5,1-0.6,1.6c0,0.6,0.1,1.4,0.2,2.1
				c0.1,0.8,0.2,1.6-0.1,2.4c-0.1,0.4-0.3,0.8-0.7,1.2c-0.3,0.3-0.7,0.6-1.1,0.8c-0.8,0.4-1.5,0.9-1.8,1.6c-0.4,0.7-0.4,1.5-0.4,2.2
				c0.1,1.5,1,2.6,1.8,3.4C136.4,1012.6,137.6,1013.5,137.5,1013.5z"/>
		</g>
	</g>
	<g id="XMLID_319_">
		<g id="XMLID_320_">
			<path id="XMLID_321_" class="st9" d="M121.8,1028.4c0,0,0.1,0,0.4,0c0.2,0,0.6,0,1,0.1c0.9,0.1,2.1,0.3,3.6,1
				c1.4,0.7,2.9,2.2,3.4,4.3c0.2,1,0.1,2.2-0.5,3.3c-0.6,1-1.6,1.8-2.8,2.1c-0.6,0.1-1.3,0.1-1.8-0.1c-0.6-0.1-1.1-0.2-1.6,0
				c-0.5,0.2-0.9,0.5-1.2,0.9s-0.6,0.9-0.8,1.3c-0.5,0.9-1.1,1.8-2,2.2s-1.8,0.5-2.6,0.3c-0.8-0.2-1.4-0.7-1.8-1.2
				c-0.4-0.5-0.6-1-0.7-1.5c-0.1-0.4-0.1-0.8-0.1-1c0-0.2,0.1-0.3,0.1-0.3s-0.1,0.5,0.1,1.3c0.1,0.4,0.3,0.9,0.7,1.4s1,0.9,1.7,1
				c0.7,0.2,1.6,0.1,2.4-0.3c0.8-0.4,1.3-1.2,1.8-2.1s1.1-1.9,2.2-2.4c0.6-0.2,1.2-0.1,1.8,0s1.1,0.2,1.7,0.1c1.1-0.2,2-1,2.6-1.9
				c0.6-0.9,0.6-2,0.4-3c-0.4-2-1.8-3.4-3.1-4.1c-1.3-0.7-2.6-1-3.4-1.1C122.3,1028.5,121.8,1028.4,121.8,1028.4z"/>
		</g>
	</g>
	<g id="XMLID_316_">
		<g id="XMLID_317_">
			<path id="XMLID_318_" class="st9" d="M107.7,1053.2c-0.1,0-0.1-0.7-0.7-1.5c-0.3-0.4-0.8-0.8-1.4-1.1c-0.6-0.3-1.4-0.4-2.1-0.2
				c-0.7,0.2-1.4,0.7-1.7,1.3c-0.4,0.6-0.6,1.2-0.6,1.7c-0.1,1.1,0.2,1.7,0.2,1.7s-0.1-0.1-0.2-0.4c-0.1-0.3-0.2-0.7-0.2-1.3
				s0.2-1.2,0.6-1.9c0.4-0.6,1.1-1.2,1.9-1.5c0.9-0.2,1.7-0.1,2.4,0.3c0.7,0.3,1.2,0.8,1.5,1.3s0.4,0.9,0.5,1.2
				C107.8,1053.1,107.8,1053.2,107.7,1053.2z"/>
		</g>
	</g>
	<g id="XMLID_313_">
		<g id="XMLID_314_">
			<path id="XMLID_315_" class="st9" d="M110.2,1064.2c0,0-0.1-0.4-0.3-0.9c-0.3-0.6-0.8-1.4-1.8-1.8c-1-0.5-2.4-0.5-3.7,0.3
				c-0.6,0.4-1,1-1.5,1.7c-0.2,0.3-0.5,0.7-0.9,1c-0.3,0.3-0.8,0.5-1.3,0.5c-1,0-1.7-0.7-2.3-1.4c-0.5-0.6-1-1.3-1.6-1.7
				s-1.3-0.4-1.9-0.3c-0.6,0.1-1.2,0.4-1.6,0.7c-0.9,0.7-1.4,1.5-1.7,2s-0.5,0.9-0.5,0.8c0,0,0.1-0.3,0.4-0.9
				c0.3-0.6,0.8-1.4,1.7-2.1c0.5-0.4,1.1-0.7,1.8-0.8s1.5-0.1,2.2,0.4c0.7,0.4,1.2,1.1,1.7,1.7c0.5,0.6,1.2,1.2,2,1.2
				s1.4-0.6,1.9-1.3c0.5-0.7,0.9-1.4,1.6-1.8c1.3-0.9,3-0.8,4-0.2c1.1,0.6,1.6,1.4,1.8,2c0.1,0.3,0.2,0.6,0.2,0.7
				C110.2,1064.1,110.2,1064.2,110.2,1064.2z"/>
		</g>
	</g>
	<g id="XMLID_310_">
		<g id="XMLID_311_">
			<path id="XMLID_312_" class="st9" d="M115.9,1036.9c0,0.1-0.7-0.6-2.2-1c-0.7-0.2-1.6-0.3-2.5-0.1c-0.9,0.1-2,0.5-2.9,1.1
				s-1.5,1.6-1.8,2.4c-0.3,0.9-0.4,1.8-0.3,2.5c0.2,1.5,0.9,2.2,0.8,2.2c0,0-0.2-0.1-0.4-0.5c-0.2-0.3-0.5-0.9-0.6-1.7
				c-0.1-0.7-0.1-1.7,0.2-2.7s1-1.9,1.9-2.6c0.9-0.7,2-1,3-1.2c1-0.1,1.9,0,2.6,0.2c0.7,0.2,1.3,0.5,1.6,0.8
				C115.8,1036.7,115.9,1036.9,115.9,1036.9z"/>
		</g>
	</g>
</g>
</svg>
