<?xml version="1.0" encoding="utf-8"?>
<!-- Generator: Adobe Illustrator 19.0.0, SVG Export Plug-In . SVG Version: 6.00 Build 0)  -->
<svg version="1.1" xmlns="http://www.w3.org/2000/svg" xmlns:xlink="http://www.w3.org/1999/xlink" x="0px" y="0px"
	 viewBox="0 0 35.4 35.4" style="enable-background:new 0 0 35.4 35.4;" xml:space="preserve">
<style type="text/css">
	.st0{fill:#FFFFFF;}
	.st1{fill-rule:evenodd;clip-rule:evenodd;fill:#FFFFFF;}
	.st2{fill-rule:evenodd;clip-rule:evenodd;}
	.st3{fill:#D53692;}
	.st4{fill:#006EF5;}
	.st5{fill:#FCBB45;}
	.st6{fill:#8F39CE;}
	.st7{fill:#00D95F;}
	.st8{fill:#FF0000;}
	.st9{fill:#33CCFF;}
	.st10{fill:url(#SVGID_1_);}
	.st11{fill:#337FFF;}
	.st12{fill-rule:evenodd;clip-rule:evenodd;fill:#EE1D52;}
	.st13{fill-rule:evenodd;clip-rule:evenodd;fill:#69C9D0;}
	.st14{fill:url(#SVGID_2_);}
	.st15{fill:url(#SVGID_3_);}
	.st16{fill:url(#SVGID_4_);}
	.st17{fill-rule:evenodd;clip-rule:evenodd;fill:#FF0000;}
	.st18{fill-rule:evenodd;clip-rule:evenodd;fill:#00D95F;}
	.st19{fill:none;stroke:#999999;stroke-miterlimit:10;}
	.st20{fill:none;stroke:#999999;stroke-width:0.5;stroke-miterlimit:10;stroke-dasharray:12;}
</style>
<g id="BACKGROUND">
</g>
<g id="ELEMENTS">
	<g>
		<path d="M167.4,17.4c2.8-1.8,4.7-5,4.7-8.5c0-5.6-4.6-10.2-10.2-10.2c-5.6,0-10.2,4.6-10.2,10.2c0,3.6,1.9,6.7,4.7,8.5
			c-5.8,2.2-9.9,7.8-9.9,14.3c0,2.8,2.2,5,5,5h20.7c2.8,0,5-2.2,5-5C177.2,25.2,173.1,19.6,167.4,17.4z M154.4,8.8
			c0-4.2,3.4-7.5,7.5-7.5c4.2,0,7.5,3.4,7.5,7.5c0,4.2-3.4,7.5-7.5,7.5C157.7,16.4,154.4,13,154.4,8.8z M172.2,34.1h-20.7
			c-1.3,0-2.4-1.1-2.4-2.4c0-7,5.7-12.7,12.7-12.7c7,0,12.7,5.7,12.7,12.7C174.6,33,173.5,34.1,172.2,34.1z"/>
		<g>
			<path d="M169.6,53.1h-15.5c-3.1,0-5.7,2.5-5.7,5.7v27c0,3.1,2.5,5.7,5.7,5.7h15.5c3.1,0,5.7-2.6,5.7-5.7v-27
				C175.3,55.6,172.8,53.1,169.6,53.1z M154.1,55.7h15.5c1.7,0,3.1,1.4,3.1,3.1v21.7h-21.6V58.8C151.1,57.1,152.5,55.7,154.1,55.7z
				 M169.6,88.9h-15.5c-1.7,0-3.1-1.4-3.1-3.1V83h21.6v2.8C172.7,87.5,171.3,88.9,169.6,88.9z"/>
			<circle cx="161.5" cy="58.4" r="1"/>
			<circle cx="161.5" cy="85.7" r="1"/>
		</g>
		<path d="M180.6,126l-14-16.1c-1.2-1.3-2.9-2.1-4.6-2.1c-1.8,0-3.5,0.8-4.6,2.1l-14,16.1c-0.3,0.4-0.4,0.9-0.2,1.4
			c0.2,0.5,0.7,0.8,1.2,0.8h2.4v16.4c0,0.7,0.6,1.3,1.3,1.3h28c0.7,0,1.3-0.6,1.3-1.3v-16.4h2.4c0.5,0,1-0.3,1.2-0.8
			C181,127,180.9,126.4,180.6,126z M159.2,111.6c0.7-0.8,1.6-1.2,2.7-1.2c1,0,2,0.4,2.7,1.2l12.2,13.9h-29.6L159.2,111.6z
			 M174.6,143.3h-25.3v-15.1h25.3V143.3z"/>
		<path d="M175.4,166.5h-27c-3,0-5.5,2.5-5.5,5.5v18.9c0,3,2.5,5.5,5.5,5.5h27c3,0,5.5-2.5,5.5-5.5V172
			C180.9,169,178.4,166.5,175.4,166.5z M175.4,169.1c0.2,0,0.4,0,0.7,0.1l-11.4,12.9c-0.7,0.8-1.7,1.2-2.8,1.2
			c-1.1,0-2.1-0.5-2.8-1.2l-11.4-12.9c0.2,0,0.4-0.1,0.7-0.1H175.4z M178.3,190.9c0,1.6-1.3,2.9-2.9,2.9h-27c-1.6,0-2.9-1.3-2.9-2.9
			V172c0-0.4,0.1-0.8,0.2-1.1l11.4,13c1.2,1.4,2.9,2.1,4.7,2.1c1.8,0,3.5-0.8,4.7-2.1l11.4-13c0.1,0.3,0.2,0.7,0.2,1.1V190.9z"/>
		<path d="M176,235.8l-25-18.2c-0.9-0.6-2-0.7-3-0.2c-1,0.5-1.5,1.5-1.5,2.5l0,31c0,1.2,0.6,2.3,1.6,2.9c0.5,0.3,1.2,0.5,1.8,0.5
			c0.5,0,1.1-0.1,1.5-0.4c0.1-0.1,0.3-0.2,0.4-0.3l8.5-9.2l5.1,10c0.2,0.5,0.7,0.7,1.2,0.7c0.2,0,0.4,0,0.6-0.1
			c0.6-0.3,0.9-1.1,0.6-1.8l-5.1-10.1l12.5-1.3c0.2,0,0.3-0.1,0.5-0.1c1.1-0.5,1.8-1.6,1.8-2.8C177.4,237.6,176.9,236.5,176,235.8z
			 M174.5,239.1l-13.9,1.5c-0.3,0-0.6,0.2-0.8,0.4l-9.7,10.5c-0.3,0.1-0.5,0-0.6-0.1c-0.1-0.1-0.4-0.3-0.4-0.7l0-31
			c0,0,0-0.1,0.1-0.2c0,0,0.1,0,0.1,0c0.1,0,0.1,0,0.1,0l25,18.2c0.3,0.2,0.3,0.6,0.3,0.7C174.7,238.7,174.7,238.9,174.5,239.1z"/>
		<g>
			<g>
				<path d="M161.9,309.5L161.9,309.5c-0.4,0-0.7-0.2-1-0.4c-0.6-0.6-13.7-14.8-13.7-22.6c0-8.1,6.6-14.7,14.7-14.7
					c8.1,0,14.7,6.6,14.7,14.7c0,7.8-13.1,22-13.7,22.6C162.6,309.3,162.3,309.5,161.9,309.5z M161.9,274.4c-6.6,0-12,5.4-12,12
					c0,5.2,8,15.2,12,19.8c4.1-4.6,12-14.6,12-19.8C173.9,279.8,168.5,274.4,161.9,274.4z"/>
			</g>
			<g>
				<path d="M161.9,292.4c-3.6,0-6.6-3-6.6-6.6c0-3.6,3-6.6,6.6-6.6c3.6,0,6.6,3,6.6,6.6C168.5,289.4,165.5,292.4,161.9,292.4z
					 M161.9,281.8c-2.2,0-4,1.8-4,4c0,2.2,1.8,4,4,4c2.2,0,4-1.8,4-4C165.9,283.6,164.1,281.8,161.9,281.8z"/>
			</g>
		</g>
		<path d="M161.9,326.2c-10.5,0-19,8.5-19,19c0,10.5,8.5,19,19,19c10.5,0,19-8.5,19-19C180.9,334.7,172.4,326.2,161.9,326.2z
			 M178.2,343.9h-7.1c-0.2-5.9-1.6-11-3.7-14.1C173.3,331.9,177.7,337.3,178.2,343.9z M161.9,361.6c-3,0-6.3-6.1-6.5-15.1h13.1
			C168.1,355.4,164.9,361.6,161.9,361.6z M155.3,343.9c0.3-8.9,3.6-15.1,6.5-15.1c3,0,6.3,6.1,6.5,15.1H155.3z M156.4,329.8
			c-2.1,3.2-3.5,8.2-3.7,14.1h-7.1C146.1,337.3,150.5,331.9,156.4,329.8z M145.6,346.5h7.1c0.2,5.9,1.6,11,3.7,14.1
			C150.5,358.5,146.1,353,145.6,346.5z M167.4,360.6c2.1-3.2,3.5-8.2,3.7-14.1h7.1C177.7,353,173.3,358.5,167.4,360.6z"/>
	</g>
	<g>
		<g>
			<g>
				<circle cx="226" cy="7.6" r="7.6"/>
			</g>
			<g>
				<path d="M226,17.7L226,17.7c-7.7,0-14,6.3-14,14l0,0c0,2,1.6,3.7,3.7,3.7h20.7c2,0,3.7-1.6,3.7-3.7l0,0
					C240,24,233.7,17.7,226,17.7z"/>
			</g>
		</g>
		<g>
			<path d="M238.1,80.4V58.8c0-2.4-2-4.4-4.4-4.4h-15.5c-2.4,0-4.4,2-4.4,4.4v21.7H238.1z M226,57.1c0.7,0,1.3,0.6,1.3,1.3
				c0,0.7-0.6,1.3-1.3,1.3c-0.7,0-1.3-0.6-1.3-1.3C224.7,57.7,225.3,57.1,226,57.1z"/>
			<path d="M213.9,83v2.8c0,2.4,2,4.4,4.4,4.4h15.5c2.4,0,4.4-2,4.4-4.4V83H213.9z M226,87.7c-0.7,0-1.3-0.6-1.3-1.3
				c0-0.7,0.6-1.3,1.3-1.3c0.7,0,1.3,0.6,1.3,1.3C227.3,87.1,226.7,87.7,226,87.7z"/>
		</g>
		<g>
			<g>
				<path d="M222.4,110.8l-12.5,14.4c-0.6,0.7-0.1,1.7,0.8,1.7h3.7H240h1.4c0.9,0,1.4-1.1,0.8-1.7l-12.5-14.4
					C227.7,108.6,224.3,108.6,222.4,110.8z"/>
			</g>
			<g>
				<path d="M240,129.5v14c0,0.6-0.5,1-1,1h-25.9c-0.6,0-1-0.5-1-1v-14H240z"/>
			</g>
		</g>
		<g>
			<path d="M210.9,168.2l12.3,13.9c0.7,0.8,1.7,1.2,2.8,1.2c1.1,0,2.1-0.5,2.8-1.2l12.1-13.7c0.1-0.1,0.2-0.2,0.3-0.3
				c-0.5-0.2-1.1-0.4-1.7-0.4h-27C211.9,167.8,211.4,167.9,210.9,168.2C210.9,168.2,210.9,168.2,210.9,168.2z"/>
			<path d="M243,169.8c-0.1,0.1-0.1,0.3-0.2,0.4l-12.1,13.7c-1.2,1.4-2.9,2.1-4.7,2.1c-1.8,0-3.5-0.8-4.7-2.1L209,169.9
				c0,0,0-0.1-0.1-0.1c-0.4,0.6-0.6,1.4-0.6,2.2v18.9c0,2.3,1.9,4.2,4.2,4.2h27c2.3,0,4.2-1.9,4.2-4.2V172
				C243.7,171.2,243.5,170.4,243,169.8z"/>
		</g>
		<path d="M239.3,236.2l-25-18.2c-1-0.7-2.4,0-2.4,1.2l0,31c0,1.6,1.6,2.6,3,1.9l8.8-9.6l5.7,11.3c0.2,0.5,0.7,0.7,1.2,0.7
			c0.2,0,0.4,0,0.6-0.1c0.6-0.3,0.9-1.1,0.6-1.8l-5.8-11.4l13-1.4C240.4,239,240.5,237.1,239.3,236.2z"/>
		<g>
			<path d="M226,282c-2.2,0-4,1.8-4,4c0,2.2,1.8,4,4,4c2.2,0,4-1.8,4-4C230,283.8,228.2,282,226,282z"/>
			<path d="M226,273.3c-7.4,0-13.4,6-13.4,13.4c0,6.3,9.7,17.7,12.6,20.9c0.4,0.5,1.1,0.5,1.6,0c2.9-3.2,12.6-14.6,12.6-20.9
				C239.3,279.3,233.4,273.3,226,273.3z M226,292.6c-3.6,0-6.6-3-6.6-6.6c0-3.6,3-6.6,6.6-6.6c3.6,0,6.6,3,6.6,6.6
				C232.6,289.7,229.6,292.6,226,292.6z"/>
		</g>
		<g>
			<path d="M219.4,346.5c0.3,8.9,3.6,15.1,6.5,15.1c3,0,6.3-6.1,6.5-15.1H219.4z"/>
			<path d="M226,328.8c-3,0-6.3,6.1-6.5,15.1h13.1C232.3,334.9,229,328.8,226,328.8z"/>
			<path d="M235.2,343.9h8.5c-0.6-7.8-6.2-14.2-13.6-15.9C233,330.8,235,336.6,235.2,343.9z"/>
			<path d="M235.2,346.5c-0.2,7.2-2.2,13.1-5.2,15.9c7.4-1.7,13.1-8.1,13.6-15.9H235.2z"/>
			<path d="M216.8,346.5h-8.5c0.6,7.8,6.2,14.2,13.6,15.9C219,359.6,217,353.7,216.8,346.5z"/>
			<path d="M216.8,343.9c0.2-7.2,2.2-13.1,5.2-15.9c-7.4,1.7-13.1,8.1-13.6,15.9H216.8z"/>
		</g>
	</g>
	<g>
		<g>
			<circle cx="290.1" cy="17.7" r="17.7"/>
			<g>
				<g>
					<circle class="st0" cx="290.1" cy="9.4" r="5"/>
				</g>
				<g>
					<path class="st0" d="M290.1,16.1L290.1,16.1c-5.2,0-9.3,4.2-9.3,9.3l0,0c0,1.4,1.1,2.5,2.5,2.5H297c1.4,0,2.5-1.1,2.5-2.5l0,0
						C299.4,20.3,295.3,16.1,290.1,16.1z"/>
				</g>
			</g>
		</g>
		<g>
			<circle cx="290.1" cy="72.3" r="17.7"/>
			<g>
				<path class="st0" d="M298.1,77.6V63.4c0-1.6-1.3-2.9-2.9-2.9H285c-1.6,0-2.9,1.3-2.9,2.9v14.3H298.1z M290.1,62.3
					c0.5,0,0.9,0.4,0.9,0.9c0,0.5-0.4,0.9-0.9,0.9c-0.5,0-0.9-0.4-0.9-0.9C289.2,62.7,289.6,62.3,290.1,62.3z"/>
				<path class="st0" d="M282.1,79.4v1.8c0,1.6,1.3,2.9,2.9,2.9h10.2c1.6,0,2.9-1.3,2.9-2.9v-1.8H282.1z M290.1,82.5
					c-0.5,0-0.9-0.4-0.9-0.9c0-0.5,0.4-0.9,0.9-0.9c0.5,0,0.9,0.4,0.9,0.9C291,82.1,290.6,82.5,290.1,82.5z"/>
			</g>
		</g>
		<g>
			<circle cx="290.1" cy="126.9" r="17.7"/>
			<g>
				<g>
					<path class="st0" d="M287.7,114.6l-8.3,9.6c-0.4,0.5-0.1,1.2,0.5,1.2h2.4h17.1h0.9c0.6,0,0.9-0.7,0.5-1.2l-8.3-9.6
						C291.2,113.1,289,113.1,287.7,114.6z"/>
				</g>
				<g>
					<path class="st0" d="M299.4,127.1v9.3c0,0.4-0.3,0.7-0.7,0.7h-17.2c-0.4,0-0.7-0.3-0.7-0.7v-9.3H299.4z"/>
				</g>
			</g>
		</g>
		<g>
			<circle cx="290.1" cy="181.4" r="17.7"/>
			<g>
				<path class="st0" d="M280.1,172.6l8.2,9.3c0.5,0.5,1.1,0.8,1.8,0.8c0.7,0,1.4-0.3,1.8-0.8l8.1-9.1c0.1-0.1,0.1-0.1,0.2-0.2
					c-0.3-0.1-0.7-0.2-1.1-0.2h-18C280.7,172.4,280.3,172.4,280.1,172.6C280,172.6,280,172.6,280.1,172.6z"/>
				<path class="st0" d="M301.5,173.7c0,0.1-0.1,0.2-0.2,0.3l-8.1,9.1c-0.8,0.9-1.9,1.4-3.2,1.4c-1.2,0-2.4-0.5-3.2-1.4l-8.2-9.3
					c0,0,0,0,0-0.1c-0.3,0.4-0.4,0.9-0.4,1.4v12.6c0,1.5,1.2,2.8,2.8,2.8h18c1.5,0,2.8-1.2,2.8-2.8v-12.6
					C301.9,174.6,301.7,174.1,301.5,173.7z"/>
			</g>
		</g>
		<g>
			<circle cx="290.1" cy="236" r="17.7"/>
			<path class="st0" d="M300.6,236.1l-15.7-11.5c-0.6-0.5-1.5,0-1.5,0.8l0,19.5c0,1,1,1.6,1.9,1.2l5.5-6l3.6,7.1
				c0.1,0.3,0.4,0.5,0.7,0.5c0.1,0,0.3,0,0.4-0.1c0.4-0.2,0.6-0.7,0.4-1.1l-3.6-7.1l8.2-0.9C301.2,237.9,301.3,236.7,300.6,236.1z"
				/>
		</g>
		<g>
			<circle cx="290.1" cy="290.6" r="17.7"/>
			<g>
				<path class="st0" d="M290.1,278.8c-5,0-9.1,4.1-9.1,9.1c0,4.3,6.6,12.1,8.6,14.3c0.3,0.3,0.8,0.3,1.1,0c2-2.2,8.6-10,8.6-14.3
					C299.2,282.9,295.1,278.8,290.1,278.8z M290.1,292c-2.5,0-4.5-2-4.5-4.5c0-2.5,2-4.5,4.5-4.5c2.5,0,4.5,2,4.5,4.5
					C294.6,290,292.6,292,290.1,292z"/>
			</g>
		</g>
		<g>
			<circle cx="290.1" cy="345.2" r="17.7"/>
			<g>
				<path class="st0" d="M285.7,346.1c0.2,6,2.4,10.1,4.4,10.1c2,0,4.2-4.1,4.4-10.1H285.7z"/>
				<path class="st0" d="M290.1,334.2c-2,0-4.2,4.1-4.4,10.1h8.8C294.3,338.3,292.1,334.2,290.1,334.2z"/>
				<path class="st0" d="M296.2,344.3h5.7c-0.4-5.2-4.1-9.5-9.1-10.7C294.8,335.5,296.1,339.5,296.2,344.3z"/>
				<path class="st0" d="M296.2,346.1c-0.1,4.8-1.5,8.8-3.5,10.7c5-1.2,8.7-5.4,9.1-10.7H296.2z"/>
				<path class="st0" d="M284,346.1h-5.7c0.4,5.2,4.1,9.5,9.1,10.7C285.4,354.8,284.1,350.9,284,346.1z"/>
				<path class="st0" d="M284,344.3c0.1-4.8,1.5-8.8,3.5-10.7c-5,1.2-8.7,5.4-9.1,10.7H284z"/>
			</g>
		</g>
	</g>
	<g>
		<g>
			<circle cx="466.4" cy="126.9" r="17.7"/>
			<path class="st0" d="M476.2,120.8c-0.6,0.3-1.3,0.4-2,0.6c0.3-0.1,0.8-0.6,1-0.9c0.3-0.4,0.5-0.7,0.6-1.2c0,0,0-0.1,0-0.1
				c0,0-0.1,0-0.1,0c-0.7,0.4-1.5,0.7-2.3,0.9c-0.1,0-0.1,0-0.2,0c-0.1-0.1-0.1-0.1-0.2-0.2c-0.3-0.3-0.7-0.5-1.1-0.7
				c-0.5-0.2-1.1-0.3-1.7-0.3c-0.6,0-1.1,0.2-1.6,0.5c-0.5,0.3-1,0.6-1.3,1.1c-0.4,0.5-0.6,1-0.8,1.6c-0.1,0.6-0.1,1.1,0,1.7
				c0,0.1,0,0.1-0.1,0.1c-3.2-0.5-5.8-1.6-7.9-4c-0.1-0.1-0.1-0.1-0.2,0c-0.9,1.4-0.5,3.7,0.7,4.8c0.2,0.1,0.3,0.3,0.5,0.4
				c-0.1,0-0.8-0.1-1.5-0.4c-0.1-0.1-0.1,0-0.1,0.1c0,0.2,0,0.3,0,0.5c0.2,1.4,1.2,2.7,2.5,3.2c0.2,0.1,0.3,0.1,0.5,0.2
				c-0.3,0.1-0.6,0.1-1.5,0c-0.1,0-0.2,0-0.1,0.1c0.7,1.8,2.1,2.3,3.2,2.6c0.1,0,0.3,0,0.4,0.1c0,0,0,0,0,0
				c-0.4,0.5-1.6,0.9-2.2,1.1c-1,0.4-2.2,0.5-3.3,0.4c-0.2,0-0.2,0-0.3,0c0,0,0,0.1,0.1,0.1c0.2,0.1,0.5,0.3,0.7,0.4
				c0.7,0.4,1.4,0.7,2.2,0.9c3.9,1.1,8.4,0.3,11.3-2.6c2.3-2.3,3.1-5.5,3.1-8.7c0-0.1,0.1-0.2,0.2-0.3c0.6-0.5,1.1-1,1.5-1.6
				C476.3,121,476.3,120.9,476.2,120.8C476.3,120.8,476.3,120.8,476.2,120.8C476.3,120.7,476.3,120.8,476.2,120.8z"/>
		</g>
		<g>
			<circle cx="466.4" cy="72.3" r="17.7"/>
			<g>
				<g>
					<circle class="st0" cx="471.9" cy="66.8" r="1.2"/>
					<path class="st0" d="M466.5,67.1c-2.8,0-5.1,2.3-5.1,5.1c0,2.8,2.3,5.1,5.1,5.1c2.8,0,5.1-2.3,5.1-5.1
						C471.6,69.4,469.3,67.1,466.5,67.1z M466.5,75.5c-1.8,0-3.3-1.5-3.3-3.3c0-1.8,1.5-3.3,3.3-3.3c1.8,0,3.3,1.5,3.3,3.3
						C469.8,74.1,468.3,75.5,466.5,75.5z"/>
					<path class="st0" d="M470.5,82.6h-8.3c-3.4,0-6.2-2.8-6.2-6.2v-8.3c0-3.4,2.8-6.2,6.2-6.2h8.3c3.4,0,6.2,2.8,6.2,6.2v8.3
						C476.8,79.8,474,82.6,470.5,82.6z M462.3,63.8c-2.4,0-4.3,1.9-4.3,4.3v8.3c0,2.4,1.9,4.3,4.3,4.3h8.3c2.4,0,4.3-1.9,4.3-4.3
						v-8.3c0-2.4-1.9-4.3-4.3-4.3H462.3z"/>
				</g>
			</g>
		</g>
		<g>
			<g>
				<path d="M484.1,17.7c0-9.8-7.9-17.7-17.7-17.7c-9.8,0-17.7,7.9-17.7,17.7c0,8.8,6.5,16.1,14.9,17.5V22.8h-4.5v-5.1h4.5v-3.9
					c0-4.4,2.6-6.9,6.7-6.9c1.9,0,4,0.3,4,0.3v4.4h-2.2c-2.2,0-2.9,1.4-2.9,2.8v3.3h4.9l-0.8,5.1h-4.1v12.4
					C477.6,33.8,484.1,26.5,484.1,17.7z"/>
				<path class="st0" d="M473.3,22.8l0.8-5.1h-4.9v-3.3c0-1.4,0.7-2.8,2.9-2.8h2.2V7.3c0,0-2-0.3-4-0.3c-4,0-6.7,2.4-6.7,6.9v3.9
					h-4.5v5.1h4.5v12.4c0.9,0.1,1.8,0.2,2.8,0.2c0.9,0,1.9-0.1,2.8-0.2V22.8H473.3z"/>
			</g>
		</g>
		<g>
			<circle cx="466.4" cy="236" r="17.7"/>
			<path class="st0" d="M475.6,234c-0.2,0-0.4,0-0.5,0c-2,0-3.9-1-4.9-2.7v9.1c0,3.7-3,6.7-6.7,6.7c-3.7,0-6.7-3-6.7-6.7
				s3-6.7,6.7-6.7l0,0c0.1,0,0.3,0,0.4,0v3.3c-0.1,0-0.3,0-0.4,0c-1.9,0-3.4,1.5-3.4,3.4c0,1.9,1.5,3.4,3.4,3.4
				c1.9,0,3.6-1.5,3.6-3.4l0-15.5h3.2c0.3,2.8,2.6,5.1,5.4,5.3L475.6,234"/>
		</g>
		<g>
			<path d="M466.4,163.7c-9.8,0-17.7,7.9-17.7,17.7c0,7.2,4.3,13.4,10.5,16.1c0-0.5,0-1,0-1.5c0.1-1.7,0.3-2.3,2.5-11.6
				c0-0.1,0-0.3-0.1-0.4c-0.5-1.4-0.6-2.9-0.2-4.4c1-3.2,4.6-3.4,5.2-0.8c0.4,1.6-0.6,3.7-1.4,6.9c-0.7,2.6,2.4,4.4,5,2.5
				c2.4-1.7,3.3-5.9,3.2-8.9c-0.3-5.9-6.8-7.2-10.9-5.3c-4.7,2.2-5.8,8-3.7,10.7c0.3,0.3,0.5,0.5,0.4,0.9c-0.1,0.5-0.3,1.1-0.4,1.6
				c-0.1,0.4-0.4,0.5-0.8,0.4c-0.8-0.3-1.4-0.8-2-1.5c-1.8-2.2-2.3-6.7,0.1-10.4c2.6-4.2,7.6-5.8,12.1-5.3c5.4,0.6,8.8,4.3,9.4,8.4
				c0.3,1.9,0.1,6.6-2.6,9.9c-3.1,3.8-8,4-10.3,1.7c-0.2-0.2-0.3-0.4-0.5-0.6c0,0.1,0,0.2-0.1,0.2c-1.1,4.3-1.2,5.3-2.4,7.3
				c-0.2,0.3-0.4,0.6-0.6,0.9c1.7,0.5,3.4,0.8,5.3,0.8c9.8,0,17.7-7.9,17.7-17.7C484.1,171.7,476.2,163.7,466.4,163.7z"/>
			<path class="st0" d="M464.1,190.2c0-0.1,0-0.1,0.1-0.2c0.2,0.2,0.3,0.4,0.5,0.6c2.3,2.3,7.3,2.1,10.3-1.7c2.7-3.3,2.9-8,2.6-9.9
				c-0.6-4.2-4-7.8-9.4-8.4c-4.5-0.5-9.4,1.2-12.1,5.3c-2.4,3.7-1.9,8.2-0.1,10.4c0.5,0.7,1.2,1.2,2,1.5c0.4,0.2,0.7,0,0.8-0.4
				c0.1-0.5,0.3-1.1,0.4-1.6c0.1-0.3-0.1-0.6-0.4-0.9c-2.1-2.7-1.1-8.5,3.7-10.7c4.1-1.9,10.6-0.6,10.9,5.3c0.2,3-0.8,7.1-3.2,8.9
				c-2.6,1.9-5.7,0-5-2.5c0.8-3.1,1.8-5.3,1.4-6.9c-0.6-2.6-4.2-2.4-5.2,0.8c-0.5,1.5-0.4,2.9,0.2,4.4c0,0.1,0.1,0.2,0.1,0.4
				c-2.2,9.3-2.4,9.9-2.5,11.6c0,0.5,0,1,0,1.5c0.6,0.3,1.3,0.5,2,0.8c0.2-0.3,0.4-0.6,0.6-0.9C462.8,195.4,463,194.5,464.1,190.2z"
				/>
		</g>
		<g>
			<circle cx="466.4" cy="290.6" r="17.7"/>
			<path class="st0" d="M456.8,300.6l1.5-5.5c-0.8-1.5-1.3-3.2-1.3-4.9c0-5.6,4.6-10.2,10.2-10.2c5.6,0,10.2,4.6,10.2,10.2
				c0,5.6-4.6,10.2-10.2,10.2c-1.7,0-3.3-0.4-4.8-1.2L456.8,300.6z M462.7,297.1l0.3,0.2c1.3,0.8,2.7,1.2,4.2,1.2
				c4.5,0,8.2-3.7,8.2-8.2c0-4.5-3.7-8.2-8.2-8.2c-4.5,0-8.2,3.7-8.2,8.2c0,1.5,0.4,3,1.2,4.3l0.2,0.4l-0.8,3.1L462.7,297.1z"/>
			<path class="st1" d="M471,291.6c-0.4-0.3-1-0.5-1.5-0.3c-0.4,0.2-0.6,0.7-0.9,1c-0.1,0.2-0.3,0.2-0.5,0.1
				c-1.4-0.6-2.5-1.5-3.3-2.8c-0.1-0.2-0.1-0.4,0.1-0.6c0.2-0.3,0.5-0.6,0.6-1c0.1-0.4-0.1-0.8-0.3-1.1c-0.2-0.4-0.4-1-0.8-1.3
				c-0.4-0.2-0.9-0.1-1.3,0.2c-0.6,0.5-0.9,1.3-0.9,2c0,0.2,0,0.4,0.1,0.6c0.1,0.5,0.4,1,0.6,1.4c0.2,0.3,0.4,0.7,0.6,1
				c0.8,1,1.7,1.9,2.8,2.6c0.5,0.3,1.1,0.6,1.7,0.8c0.7,0.2,1.3,0.5,2,0.3c0.8-0.1,1.5-0.6,1.8-1.4c0.1-0.2,0.1-0.5,0.1-0.7
				C472,292.1,471.4,291.8,471,291.6z"/>
		</g>
		<g>
			<circle cx="466.4" cy="345.2" r="17.7"/>
			<path class="st0" d="M475.9,342.7c0-2.3-1.9-4.2-4.2-4.2h-10.9c-2.3,0-4.2,1.9-4.2,4.2v5.1c0,2.3,1.9,4.2,4.2,4.2h10.9
				c2.3,0,4.2-1.9,4.2-4.2V342.7z M469.5,345.6l-4.9,2.4c-0.2,0.1-0.8,0-0.8-0.3v-4.9c0-0.2,0.7-0.4,0.8-0.2l4.7,2.5
				C469.5,345.2,469.7,345.5,469.5,345.6z"/>
		</g>
	</g>
	<g>
		<g>
			<g>
				<circle cx="411.7" cy="62.9" r="2.1"/>
				<path d="M402.4,63.5c-4.8,0-8.7,3.9-8.7,8.7c0,4.8,3.9,8.7,8.7,8.7c4.8,0,8.7-3.9,8.7-8.7C411.2,67.4,407.3,63.5,402.4,63.5z
					 M402.4,77.8c-3.1,0-5.6-2.5-5.6-5.6c0-3.1,2.5-5.6,5.6-5.6c3.1,0,5.6,2.5,5.6,5.6C408,75.3,405.5,77.8,402.4,77.8z"/>
				<path d="M409.4,89.9h-14.1c-5.9,0-10.6-4.8-10.6-10.6V65.1c0-5.9,4.8-10.6,10.6-10.6h14.1c5.9,0,10.6,4.8,10.6,10.6v14.1
					C420,85.1,415.2,89.9,409.4,89.9z M395.2,57.8c-4,0-7.3,3.3-7.3,7.3v14.1c0,4,3.3,7.3,7.3,7.3h14.1c4,0,7.3-3.3,7.3-7.3V65.1
					c0-4-3.3-7.3-7.3-7.3H395.2z"/>
			</g>
		</g>
		<path d="M410.5,19.8l1-6.4h-6.1V9.3c0-1.8,0.9-3.5,3.6-3.5h2.8V0.4c0,0-2.5-0.4-5-0.4c-5.1,0-8.4,3.1-8.4,8.6v4.9h-5.6v6.4h5.6
			v15.5h6.9V19.8H410.5z"/>
		<path d="M423.6,113.4c-1.4,0.6-2.9,1-4.3,1.2c0.7-0.1,1.7-1.4,2.1-1.9c0.6-0.8,1.1-1.7,1.4-2.6c0-0.1,0.1-0.2,0-0.2
			c-0.1,0-0.2,0-0.2,0c-1.6,0.9-3.3,1.5-5.2,2c-0.1,0-0.3,0-0.4-0.1c-0.2-0.2-0.3-0.3-0.5-0.5c-0.8-0.6-1.6-1.2-2.5-1.5
			c-1.2-0.5-2.5-0.7-3.8-0.6c-1.3,0.1-2.5,0.4-3.6,1c-1.1,0.6-2.1,1.4-2.9,2.4c-0.8,1-1.4,2.2-1.7,3.5c-0.3,1.2-0.3,2.5-0.1,3.7
			c0,0.2,0,0.2-0.2,0.2c-7.1-1.1-12.9-3.6-17.7-9c-0.2-0.2-0.3-0.2-0.5,0c-2.1,3.1-1.1,8.1,1.5,10.6c0.3,0.3,0.7,0.7,1.1,1
			c-0.1,0-1.9-0.2-3.4-1c-0.2-0.1-0.3-0.1-0.3,0.2c0,0.3,0,0.6,0.1,1c0.4,3.2,2.6,6.1,5.6,7.2c0.4,0.2,0.8,0.3,1.1,0.3
			c-0.7,0.2-1.4,0.3-3.4,0.1c-0.2,0-0.3,0.1-0.2,0.3c1.5,4,4.7,5.2,7,5.9c0.3,0.1,0.6,0.1,1,0.1c0,0,0,0-0.1,0.1
			c-0.8,1.2-3.5,2.1-4.8,2.5c-2.3,0.8-4.9,1.2-7.3,0.9c-0.4-0.1-0.5-0.1-0.6,0c-0.1,0.1,0,0.2,0.1,0.3c0.5,0.3,1,0.6,1.5,0.9
			c1.6,0.8,3.2,1.5,4.9,2c8.8,2.4,18.7,0.6,25.2-5.9c5.2-5.1,7-12.2,7-19.3c0-0.3,0.3-0.4,0.5-0.6c1.3-1,2.4-2.2,3.4-3.6
			c0.2-0.3,0.2-0.6,0.2-0.7c0,0,0,0,0,0C423.8,113.2,423.8,113.3,423.6,113.4z"/>
		<path d="M417.7,232.6c-0.3,0-0.6,0-0.9,0c-3.2,0-6.3-1.6-8.1-4.4v14.8c0,6.1-4.9,11-11,11c-6.1,0-11-4.9-11-11c0-6.1,4.9-11,11-11
			l0,0c0.2,0,0.5,0,0.7,0v5.4c-0.2,0-0.4-0.1-0.7-0.1c-3.1,0-5.6,2.5-5.6,5.6c0,3.1,2.5,5.6,5.6,5.6c3.1,0,5.8-2.4,5.8-5.5l0.1-25.2
			h5.2c0.5,4.6,4.2,8.3,8.9,8.6L417.7,232.6"/>
		<path class="st2" d="M400.1,186.8c0,0.1-0.1,0.2-0.1,0.3c-1.3,5.1-1.4,6.2-2.8,8.6c-0.6,1.1-1.4,2.2-2.1,3.2
			c-0.1,0.1-0.2,0.3-0.4,0.2c-0.2,0-0.2-0.2-0.2-0.4c-0.2-1.5-0.3-3.1-0.3-4.7c0.1-2,0.3-2.7,2.9-13.8c0-0.2,0-0.3-0.1-0.5
			c-0.6-1.7-0.8-3.4-0.2-5.2c1.2-3.8,5.5-4.1,6.2-0.9c0.5,1.9-0.8,4.4-1.7,8.1c-0.8,3.1,2.8,5.2,5.9,3c2.8-2.1,3.9-7,3.7-10.5
			c-0.4-7-8.1-8.5-12.9-6.2c-5.6,2.6-6.8,9.5-4.3,12.6c0.3,0.4,0.6,0.6,0.5,1.1c-0.2,0.6-0.3,1.3-0.5,1.9c-0.1,0.5-0.5,0.6-1,0.4
			c-0.9-0.4-1.7-1-2.3-1.7c-2.1-2.6-2.7-7.9,0.1-12.3c3.1-4.9,9-6.9,14.3-6.3c6.3,0.7,10.4,5.1,11.1,10c0.3,2.2,0.1,7.8-3.1,11.7
			c-3.6,4.5-9.5,4.8-12.2,2C400.4,187.3,400.3,187,400.1,186.8z"/>
		<g>
			<path d="M384.7,308.3l2.5-9.5c-1.4-2.6-2.2-5.5-2.2-8.4c0-9.6,7.8-17.5,17.5-17.5c9.6,0,17.5,7.8,17.5,17.5
				c0,9.6-7.8,17.5-17.5,17.5c-2.9,0-5.7-0.7-8.3-2.1L384.7,308.3z M394.6,302.2l0.6,0.4c2.2,1.3,4.7,2,7.2,2
				c7.8,0,14.2-6.4,14.2-14.2c0-7.8-6.4-14.2-14.2-14.2c-7.8,0-14.2,6.4-14.2,14.2c0,2.6,0.7,5.1,2.1,7.3l0.4,0.6l-1.4,5.3
				L394.6,302.2z"/>
			<path class="st2" d="M409,292.8c-0.7-0.4-1.7-0.9-2.5-0.6c-0.6,0.3-1.1,1.3-1.5,1.8c-0.2,0.3-0.5,0.3-0.8,0.2
				c-2.4-1-4.3-2.6-5.7-4.8c-0.2-0.3-0.2-0.6,0.1-0.9c0.4-0.5,0.9-1,1-1.7c0.1-0.6-0.2-1.4-0.5-2c-0.3-0.7-0.7-1.8-1.5-2.2
				c-0.7-0.4-1.6-0.2-2.2,0.3c-1,0.8-1.5,2.2-1.5,3.5c0,0.4,0.1,0.7,0.1,1.1c0.2,0.9,0.6,1.7,1.1,2.4c0.3,0.6,0.7,1.1,1.1,1.7
				c1.3,1.8,2.9,3.3,4.8,4.5c0.9,0.6,2,1.1,3,1.4c1.2,0.4,2.2,0.8,3.5,0.6c1.3-0.3,2.6-1.1,3.2-2.4c0.2-0.4,0.2-0.8,0.1-1.2
				C410.8,293.7,409.6,293.2,409,292.8z"/>
		</g>
		<path d="M420.3,340.5c0-4.4-3.5-7.9-7.9-7.9h-20.2c-4.4,0-7.9,3.5-7.9,7.9v9.4c0,4.4,3.5,7.9,7.9,7.9h20.2c4.4,0,7.9-3.5,7.9-7.9
			V340.5z M408.4,345.9l-9,4.5c-0.4,0.2-1.6-0.1-1.6-0.5v-9.2c0-0.4,1.2-0.7,1.6-0.5l8.7,4.7C408.4,345.2,408.8,345.7,408.4,345.9z"
			/>
	</g>
	<g>
		<path class="st3" d="M-281.4,17.4c2.8-1.8,4.7-5,4.7-8.5c0-5.6-4.6-10.2-10.2-10.2c-5.6,0-10.2,4.6-10.2,10.2
			c0,3.6,1.9,6.7,4.7,8.5c-5.8,2.2-9.9,7.8-9.9,14.3c0,2.8,2.2,5,5,5h20.7c2.8,0,5-2.2,5-5C-271.5,25.2-275.6,19.6-281.4,17.4z
			 M-294.4,8.8c0-4.2,3.4-7.5,7.5-7.5c4.2,0,7.5,3.4,7.5,7.5c0,4.2-3.4,7.5-7.5,7.5C-291,16.4-294.4,13-294.4,8.8z M-276.5,34.1
			h-20.7c-1.3,0-2.4-1.1-2.4-2.4c0-7,5.7-12.7,12.7-12.7c7,0,12.7,5.7,12.7,12.7C-274.1,33-275.2,34.1-276.5,34.1z"/>
		<g>
			<path class="st4" d="M-279.1,53.1h-15.5c-3.1,0-5.7,2.5-5.7,5.7v27c0,3.1,2.6,5.7,5.7,5.7h15.5c3.1,0,5.7-2.6,5.7-5.7v-27
				C-273.4,55.6-275.9,53.1-279.1,53.1z M-294.6,55.7h15.5c1.7,0,3.1,1.4,3.1,3.1v21.7h-21.6V58.8
				C-297.6,57.1-296.3,55.7-294.6,55.7z M-279.1,88.9h-15.5c-1.7,0-3.1-1.4-3.1-3.1V83h21.6v2.8C-276,87.5-277.4,88.9-279.1,88.9z"
				/>
			<circle class="st4" cx="-287.2" cy="58.4" r="1"/>
			<circle class="st4" cx="-287.2" cy="85.7" r="1"/>
		</g>
		<path class="st5" d="M-268.1,126l-14-16.1c-1.2-1.3-2.9-2.1-4.6-2.1c-1.8,0-3.5,0.8-4.6,2.1l-14,16.1c-0.3,0.4-0.4,0.9-0.2,1.4
			c0.2,0.5,0.7,0.8,1.2,0.8h2.4v16.4c0,0.7,0.6,1.3,1.3,1.3h28c0.7,0,1.3-0.6,1.3-1.3v-16.4h2.4c0.5,0,1-0.3,1.2-0.8
			C-267.7,127-267.8,126.4-268.1,126z M-289.5,111.6c0.7-0.8,1.6-1.2,2.7-1.2c1,0,2,0.4,2.7,1.2l12.2,13.9h-29.6L-289.5,111.6z
			 M-274.2,143.3h-25.3v-15.1h25.3V143.3z"/>
		<path class="st6" d="M-273.3,166.5h-27c-3,0-5.5,2.5-5.5,5.5v18.9c0,3,2.5,5.5,5.5,5.5h27c3,0,5.5-2.5,5.5-5.5V172
			C-267.8,169-270.3,166.5-273.3,166.5z M-273.3,169.1c0.2,0,0.4,0,0.7,0.1l-11.4,12.9c-0.7,0.8-1.7,1.2-2.8,1.2
			c-1.1,0-2.1-0.5-2.8-1.2l-11.4-12.9c0.2,0,0.4-0.1,0.7-0.1H-273.3z M-270.4,190.9c0,1.6-1.3,2.9-2.9,2.9h-27
			c-1.6,0-2.9-1.3-2.9-2.9V172c0-0.4,0.1-0.8,0.2-1.1l11.4,13c1.2,1.4,2.9,2.1,4.7,2.1c1.8,0,3.5-0.8,4.7-2.1l11.4-13
			c0.1,0.3,0.2,0.7,0.2,1.1V190.9z"/>
		<path class="st7" d="M-272.8,235.8l-25-18.2c-0.9-0.6-2-0.7-3-0.2c-1,0.5-1.5,1.5-1.5,2.5l0,31c0,1.2,0.6,2.3,1.6,2.9
			c0.5,0.3,1.2,0.5,1.8,0.5c0.5,0,1.1-0.1,1.5-0.4c0.1-0.1,0.3-0.2,0.4-0.3l8.5-9.2l5.1,10c0.2,0.5,0.7,0.7,1.2,0.7
			c0.2,0,0.4,0,0.6-0.1c0.6-0.3,0.9-1.1,0.6-1.8l-5.1-10.1l12.5-1.3c0.2,0,0.3-0.1,0.5-0.1c1.1-0.5,1.8-1.6,1.8-2.8
			C-271.3,237.6-271.8,236.5-272.8,235.8z M-274.2,239.1l-13.9,1.5c-0.3,0-0.6,0.2-0.8,0.4l-9.7,10.5c-0.3,0.1-0.5,0-0.6-0.1
			c-0.1-0.1-0.4-0.3-0.4-0.7l0-31c0,0,0-0.1,0.1-0.2c0,0,0.1,0,0.1,0c0.1,0,0.1,0,0.1,0l25,18.2c0.3,0.2,0.3,0.6,0.3,0.7
			C-274,238.7-274,238.9-274.2,239.1z"/>
		<g>
			<g>
				<path class="st8" d="M-286.8,309.5L-286.8,309.5c-0.4,0-0.7-0.2-1-0.4c-0.6-0.6-13.7-14.8-13.7-22.6c0-8.1,6.6-14.7,14.7-14.7
					c8.1,0,14.7,6.6,14.7,14.7c0,7.8-13.1,22-13.7,22.6C-286.1,309.3-286.5,309.5-286.8,309.5z M-286.8,274.4c-6.6,0-12,5.4-12,12
					c0,5.2,8,15.2,12,19.8c4.1-4.6,12-14.6,12-19.8C-274.8,279.8-280.2,274.4-286.8,274.4z"/>
			</g>
			<g>
				<path class="st8" d="M-286.8,292.4c-3.6,0-6.6-3-6.6-6.6c0-3.6,3-6.6,6.6-6.6c3.6,0,6.6,3,6.6,6.6
					C-280.2,289.4-283.2,292.4-286.8,292.4z M-286.8,281.8c-2.2,0-4,1.8-4,4c0,2.2,1.8,4,4,4c2.2,0,4-1.8,4-4
					C-282.8,283.6-284.6,281.8-286.8,281.8z"/>
			</g>
		</g>
		<path class="st9" d="M-286.8,326.2c-10.5,0-19,8.5-19,19c0,10.5,8.5,19,19,19c10.5,0,19-8.5,19-19
			C-267.8,334.7-276.3,326.2-286.8,326.2z M-270.5,343.9h-7.1c-0.2-5.9-1.6-11-3.7-14.1C-275.4,331.9-271,337.3-270.5,343.9z
			 M-286.8,361.6c-3,0-6.3-6.1-6.5-15.1h13.1C-280.6,355.4-283.9,361.6-286.8,361.6z M-293.4,343.9c0.3-8.9,3.6-15.1,6.5-15.1
			c3,0,6.3,6.1,6.5,15.1H-293.4z M-292.3,329.8c-2.1,3.2-3.5,8.2-3.7,14.1h-7.1C-302.6,337.3-298.3,331.9-292.3,329.8z
			 M-303.1,346.5h7.1c0.2,5.9,1.6,11,3.7,14.1C-298.3,358.5-302.6,353-303.1,346.5z M-281.3,360.6c2.1-3.2,3.5-8.2,3.7-14.1h7.1
			C-271,353-275.4,358.5-281.3,360.6z"/>
	</g>
	<g>
		<g>
			<g>
				<circle class="st3" cx="-222.7" cy="7.6" r="7.6"/>
			</g>
			<g>
				<path class="st3" d="M-222.7,17.7L-222.7,17.7c-7.7,0-14,6.3-14,14l0,0c0,2,1.6,3.7,3.7,3.7h20.7c2,0,3.7-1.6,3.7-3.7l0,0
					C-208.7,24-215,17.7-222.7,17.7z"/>
			</g>
		</g>
		<g>
			<path class="st4" d="M-210.6,80.4V58.8c0-2.4-2-4.4-4.4-4.4h-15.5c-2.4,0-4.4,2-4.4,4.4v21.7H-210.6z M-222.7,57.1
				c0.7,0,1.3,0.6,1.3,1.3c0,0.7-0.6,1.3-1.3,1.3c-0.7,0-1.3-0.6-1.3-1.3C-224,57.7-223.4,57.1-222.7,57.1z"/>
			<path class="st4" d="M-234.8,83v2.8c0,2.4,2,4.4,4.4,4.4h15.5c2.4,0,4.4-2,4.4-4.4V83H-234.8z M-222.7,87.7
				c-0.7,0-1.3-0.6-1.3-1.3c0-0.7,0.6-1.3,1.3-1.3c0.7,0,1.3,0.6,1.3,1.3C-221.4,87.1-222,87.7-222.7,87.7z"/>
		</g>
		<g>
			<g>
				<path class="st5" d="M-226.4,110.8l-12.5,14.4c-0.6,0.7-0.1,1.7,0.8,1.7h3.7h25.7h1.4c0.9,0,1.4-1.1,0.8-1.7l-12.5-14.4
					C-221,108.6-224.4,108.6-226.4,110.8z"/>
			</g>
			<g>
				<path class="st5" d="M-208.7,129.5v14c0,0.6-0.5,1-1,1h-25.9c-0.6,0-1-0.5-1-1v-14H-208.7z"/>
			</g>
		</g>
		<g>
			<path class="st6" d="M-237.8,168.2l12.3,13.9c0.7,0.8,1.7,1.2,2.8,1.2c1.1,0,2.1-0.5,2.8-1.2l12.1-13.7c0.1-0.1,0.2-0.2,0.3-0.3
				c-0.5-0.2-1.1-0.4-1.7-0.4h-27C-236.8,167.8-237.3,167.9-237.8,168.2C-237.8,168.2-237.8,168.2-237.8,168.2z"/>
			<path class="st6" d="M-205.7,169.8c-0.1,0.1-0.1,0.3-0.2,0.4l-12.1,13.7c-1.2,1.4-2.9,2.1-4.7,2.1c-1.8,0-3.5-0.8-4.7-2.1
				l-12.3-13.9c0,0,0-0.1-0.1-0.1c-0.4,0.6-0.6,1.4-0.6,2.2v18.9c0,2.3,1.9,4.2,4.2,4.2h27c2.3,0,4.2-1.9,4.2-4.2V172
				C-205,171.2-205.3,170.4-205.7,169.8z"/>
		</g>
		<path class="st7" d="M-209.4,236.2l-25-18.2c-1-0.7-2.4,0-2.4,1.2l0,31c0,1.6,1.6,2.6,3,1.9l8.8-9.6l5.7,11.3
			c0.2,0.5,0.7,0.7,1.2,0.7c0.2,0,0.4,0,0.6-0.1c0.6-0.3,0.9-1.1,0.6-1.8l-5.8-11.4l13-1.4C-208.3,239-208.2,237.1-209.4,236.2z"/>
		<g>
			<path class="st8" d="M-222.7,282c-2.2,0-4,1.8-4,4c0,2.2,1.8,4,4,4c2.2,0,4-1.8,4-4C-218.7,283.8-220.5,282-222.7,282z"/>
			<path class="st8" d="M-222.7,273.3c-7.4,0-13.4,6-13.4,13.4c0,6.3,9.7,17.7,12.6,20.9c0.4,0.5,1.1,0.5,1.6,0
				c2.9-3.2,12.6-14.6,12.6-20.9C-209.4,279.3-215.3,273.3-222.7,273.3z M-222.7,292.6c-3.6,0-6.6-3-6.6-6.6c0-3.6,3-6.6,6.6-6.6
				c3.6,0,6.6,3,6.6,6.6C-216.1,289.7-219.1,292.6-222.7,292.6z"/>
		</g>
		<g>
			<path class="st9" d="M-229.3,346.5c0.3,8.9,3.6,15.1,6.5,15.1c3,0,6.3-6.1,6.5-15.1H-229.3z"/>
			<path class="st9" d="M-222.7,328.8c-3,0-6.3,6.1-6.5,15.1h13.1C-216.5,334.9-219.8,328.8-222.7,328.8z"/>
			<path class="st9" d="M-213.5,343.9h8.5c-0.6-7.8-6.2-14.2-13.6-15.9C-215.8,330.8-213.8,336.6-213.5,343.9z"/>
			<path class="st9" d="M-213.5,346.5c-0.2,7.2-2.2,13.1-5.2,15.9c7.4-1.7,13.1-8.1,13.6-15.9H-213.5z"/>
			<path class="st9" d="M-231.9,346.5h-8.5c0.6,7.8,6.2,14.2,13.6,15.9C-229.7,359.6-231.7,353.7-231.9,346.5z"/>
			<path class="st9" d="M-231.9,343.9c0.2-7.2,2.2-13.1,5.2-15.9c-7.4,1.7-13.1,8.1-13.6,15.9H-231.9z"/>
		</g>
	</g>
	<g>
		<g>
			<circle class="st3" cx="-158.6" cy="17.7" r="17.7"/>
			<g>
				<g>
					<circle class="st0" cx="-158.6" cy="9.4" r="5"/>
				</g>
				<g>
					<path class="st0" d="M-158.6,16.1L-158.6,16.1c-5.2,0-9.3,4.2-9.3,9.3l0,0c0,1.4,1.1,2.5,2.5,2.5h13.8c1.4,0,2.5-1.1,2.5-2.5
						l0,0C-149.3,20.3-153.5,16.1-158.6,16.1z"/>
				</g>
			</g>
		</g>
		<g>
			<circle class="st4" cx="-158.6" cy="72.3" r="17.7"/>
			<g>
				<path class="st0" d="M-150.6,77.6V63.4c0-1.6-1.3-2.9-2.9-2.9h-10.2c-1.6,0-2.9,1.3-2.9,2.9v14.3H-150.6z M-158.6,62.3
					c0.5,0,0.9,0.4,0.9,0.9c0,0.5-0.4,0.9-0.9,0.9c-0.5,0-0.9-0.4-0.9-0.9C-159.5,62.7-159.1,62.3-158.6,62.3z"/>
				<path class="st0" d="M-166.6,79.4v1.8c0,1.6,1.3,2.9,2.9,2.9h10.2c1.6,0,2.9-1.3,2.9-2.9v-1.8H-166.6z M-158.6,82.5
					c-0.5,0-0.9-0.4-0.9-0.9c0-0.5,0.4-0.9,0.9-0.9c0.5,0,0.9,0.4,0.9,0.9C-157.8,82.1-158.1,82.5-158.6,82.5z"/>
			</g>
		</g>
		<g>
			<circle class="st5" cx="-158.6" cy="126.9" r="17.7"/>
			<g>
				<g>
					<path class="st0" d="M-161,114.6l-8.3,9.6c-0.4,0.5-0.1,1.2,0.5,1.2h2.4h17.1h0.9c0.6,0,0.9-0.7,0.5-1.2l-8.3-9.6
						C-157.5,113.1-159.8,113.1-161,114.6z"/>
				</g>
				<g>
					<path class="st0" d="M-149.3,127.1v9.3c0,0.4-0.3,0.7-0.7,0.7h-17.2c-0.4,0-0.7-0.3-0.7-0.7v-9.3H-149.3z"/>
				</g>
			</g>
		</g>
		<g>
			<circle class="st6" cx="-158.6" cy="181.4" r="17.7"/>
			<g>
				<path class="st0" d="M-168.7,172.6l8.2,9.3c0.5,0.5,1.1,0.8,1.8,0.8c0.7,0,1.4-0.3,1.8-0.8l8.1-9.1c0.1-0.1,0.1-0.1,0.2-0.2
					c-0.3-0.1-0.7-0.2-1.1-0.2h-18C-168,172.4-168.4,172.4-168.7,172.6C-168.7,172.6-168.7,172.6-168.7,172.6z"/>
				<path class="st0" d="M-147.2,173.7c0,0.1-0.1,0.2-0.2,0.3l-8.1,9.1c-0.8,0.9-1.9,1.4-3.2,1.4c-1.2,0-2.4-0.5-3.2-1.4l-8.2-9.3
					c0,0,0,0,0-0.1c-0.3,0.4-0.4,0.9-0.4,1.4v12.6c0,1.5,1.2,2.8,2.8,2.8h18c1.5,0,2.8-1.2,2.8-2.8v-12.6
					C-146.8,174.6-147,174.1-147.2,173.7z"/>
			</g>
		</g>
		<g>
			<circle class="st7" cx="-158.6" cy="236" r="17.7"/>
			<path class="st0" d="M-148.2,236.1l-15.7-11.5c-0.6-0.5-1.5,0-1.5,0.8l0,19.5c0,1,1,1.6,1.9,1.2l5.5-6l3.6,7.1
				c0.1,0.3,0.4,0.5,0.7,0.5c0.1,0,0.3,0,0.4-0.1c0.4-0.2,0.6-0.7,0.4-1.1l-3.6-7.1l8.2-0.9C-147.5,237.9-147.4,236.7-148.2,236.1z"
				/>
		</g>
		<g>
			<circle class="st8" cx="-158.6" cy="290.6" r="17.7"/>
			<g>
				<path class="st0" d="M-158.6,278.8c-5,0-9.1,4.1-9.1,9.1c0,4.3,6.6,12.1,8.6,14.3c0.3,0.3,0.8,0.3,1.1,0c2-2.2,8.6-10,8.6-14.3
					C-149.5,282.9-153.6,278.8-158.6,278.8z M-158.6,292c-2.5,0-4.5-2-4.5-4.5c0-2.5,2-4.5,4.5-4.5c2.5,0,4.5,2,4.5,4.5
					C-154.1,290-156.1,292-158.6,292z"/>
			</g>
		</g>
		<g>
			<circle class="st9" cx="-158.6" cy="345.2" r="17.7"/>
			<g>
				<path class="st0" d="M-163,346.1c0.2,6,2.4,10.1,4.4,10.1c2,0,4.2-4.1,4.4-10.1H-163z"/>
				<path class="st0" d="M-158.6,334.2c-2,0-4.2,4.1-4.4,10.1h8.8C-154.4,338.3-156.6,334.2-158.6,334.2z"/>
				<path class="st0" d="M-152.5,344.3h5.7c-0.4-5.2-4.1-9.5-9.1-10.7C-154,335.5-152.6,339.5-152.5,344.3z"/>
				<path class="st0" d="M-152.5,346.1c-0.1,4.8-1.5,8.8-3.5,10.7c5-1.2,8.7-5.4,9.1-10.7H-152.5z"/>
				<path class="st0" d="M-164.8,346.1h-5.7c0.4,5.2,4.1,9.5,9.1,10.7C-163.3,354.8-164.6,350.9-164.8,346.1z"/>
				<path class="st0" d="M-164.8,344.3c0.1-4.8,1.5-8.8,3.5-10.7c-5,1.2-8.7,5.4-9.1,10.7H-164.8z"/>
			</g>
		</g>
	</g>
	<g>
		<circle class="st9" cx="17.7" cy="126.9" r="17.7"/>
		<path class="st0" d="M27.5,120.8c-0.6,0.3-1.3,0.4-2,0.6c0.3-0.1,0.8-0.6,1-0.9c0.3-0.4,0.5-0.7,0.6-1.2c0,0,0-0.1,0-0.1
			c0,0-0.1,0-0.1,0c-0.7,0.4-1.5,0.7-2.3,0.9c-0.1,0-0.1,0-0.2,0c-0.1-0.1-0.1-0.1-0.2-0.2c-0.3-0.3-0.7-0.5-1.1-0.7
			c-0.5-0.2-1.1-0.3-1.7-0.3c-0.6,0-1.1,0.2-1.6,0.5c-0.5,0.3-1,0.6-1.3,1.1c-0.4,0.5-0.6,1-0.8,1.6c-0.1,0.6-0.1,1.1,0,1.7
			c0,0.1,0,0.1-0.1,0.1c-3.2-0.5-5.8-1.6-7.9-4c-0.1-0.1-0.1-0.1-0.2,0c-0.9,1.4-0.5,3.7,0.7,4.8c0.2,0.1,0.3,0.3,0.5,0.4
			c-0.1,0-0.8-0.1-1.5-0.4c-0.1-0.1-0.1,0-0.1,0.1c0,0.2,0,0.3,0,0.5c0.2,1.4,1.2,2.7,2.5,3.2c0.2,0.1,0.3,0.1,0.5,0.2
			c-0.3,0.1-0.6,0.1-1.5,0c-0.1,0-0.2,0-0.1,0.1c0.7,1.8,2.1,2.3,3.2,2.6c0.1,0,0.3,0,0.4,0.1c0,0,0,0,0,0c-0.4,0.5-1.6,0.9-2.2,1.1
			c-1,0.4-2.2,0.5-3.3,0.4c-0.2,0-0.2,0-0.3,0c0,0,0,0.1,0.1,0.1c0.2,0.1,0.5,0.3,0.7,0.4c0.7,0.4,1.4,0.7,2.2,0.9
			c3.9,1.1,8.4,0.3,11.3-2.6c2.3-2.3,3.1-5.5,3.1-8.7c0-0.1,0.1-0.2,0.2-0.3c0.6-0.5,1.1-1,1.5-1.6C27.5,121,27.5,120.9,27.5,120.8
			C27.5,120.8,27.5,120.8,27.5,120.8C27.5,120.7,27.5,120.8,27.5,120.8z"/>
	</g>
	<g>
		<linearGradient id="SVGID_1_" gradientUnits="userSpaceOnUse" x1="1.1196" y1="58.2766" x2="36.4942" y2="88.1539">
			<stop  offset="1.104800e-003" style="stop-color:#FBE18A"/>
			<stop  offset="0.2094" style="stop-color:#FCBB45"/>
			<stop  offset="0.3765" style="stop-color:#F75274"/>
			<stop  offset="0.5238" style="stop-color:#D53692"/>
			<stop  offset="0.7394" style="stop-color:#8F39CE"/>
			<stop  offset="1" style="stop-color:#5B4FE9"/>
		</linearGradient>
		<circle class="st10" cx="17.7" cy="72.3" r="17.7"/>
		<g>
			<g>
				<circle class="st0" cx="23.2" cy="66.8" r="1.2"/>
				<path class="st0" d="M17.8,67.1c-2.8,0-5.1,2.3-5.1,5.1c0,2.8,2.3,5.1,5.1,5.1s5.1-2.3,5.1-5.1C22.9,69.4,20.6,67.1,17.8,67.1z
					 M17.8,75.5c-1.8,0-3.3-1.5-3.3-3.3c0-1.8,1.5-3.3,3.3-3.3c1.8,0,3.3,1.5,3.3,3.3C21,74.1,19.6,75.5,17.8,75.5z"/>
				<path class="st0" d="M21.8,82.6h-8.3c-3.4,0-6.2-2.8-6.2-6.2v-8.3c0-3.4,2.8-6.2,6.2-6.2h8.3c3.4,0,6.2,2.8,6.2,6.2v8.3
					C28.1,79.8,25.3,82.6,21.8,82.6z M13.5,63.8c-2.4,0-4.3,1.9-4.3,4.3v8.3c0,2.4,1.9,4.3,4.3,4.3h8.3c2.4,0,4.3-1.9,4.3-4.3v-8.3
					c0-2.4-1.9-4.3-4.3-4.3H13.5z"/>
			</g>
		</g>
	</g>
	<g>
		<g>
			<path class="st11" d="M35.4,17.7C35.4,7.9,27.5,0,17.7,0S0,7.9,0,17.7c0,8.8,6.5,16.1,14.9,17.5V22.8h-4.5v-5.1h4.5v-3.9
				c0-4.4,2.6-6.9,6.7-6.9c1.9,0,4,0.3,4,0.3v4.4h-2.2c-2.2,0-2.9,1.4-2.9,2.8v3.3h4.9l-0.8,5.1h-4.1v12.4
				C28.9,33.8,35.4,26.5,35.4,17.7z"/>
			<path class="st0" d="M24.6,22.8l0.8-5.1h-4.9v-3.3c0-1.4,0.7-2.8,2.9-2.8h2.2V7.3c0,0-2-0.3-4-0.3c-4,0-6.7,2.4-6.7,6.9v3.9h-4.5
				v5.1h4.5v12.4c0.9,0.1,1.8,0.2,2.8,0.2s1.9-0.1,2.8-0.2V22.8H24.6z"/>
		</g>
	</g>
	<g>
		<circle cx="17.7" cy="236" r="17.7"/>
		<g>
			<path class="st12" d="M22.3,233c1.4,1,3.2,1.6,5.1,1.6V231c-0.4,0-0.7,0-1.1-0.1v2.9c-1.9,0-3.7-0.6-5.1-1.6v7.4
				c0,3.7-3,6.7-6.7,6.7c-1.4,0-2.7-0.4-3.8-1.1c1.2,1.3,2.9,2,4.8,2c3.7,0,6.7-3,6.7-6.7L22.3,233L22.3,233z M23.7,229.3
				c-0.7-0.8-1.2-1.8-1.3-3v-0.5h-1C21.6,227.3,22.4,228.5,23.7,229.3L23.7,229.3z M13.1,242.3c-0.4-0.5-0.6-1.2-0.6-1.9
				c0-1.7,1.4-3.1,3.1-3.1c0.3,0,0.6,0,0.9,0.1v-3.7c-0.4,0-0.7-0.1-1.1-0.1v2.9c-0.3-0.1-0.6-0.1-0.9-0.1c-1.7,0-3.1,1.4-3.1,3.1
				C11.4,240.7,12.1,241.8,13.1,242.3z"/>
			<path class="st1" d="M21.3,232.1c1.4,1,3.2,1.6,5.1,1.6v-2.9c-1.1-0.2-2-0.8-2.7-1.5c-1.2-0.8-2.1-2-2.3-3.4h-2.7v14.6
				c0,1.7-1.4,3.1-3.1,3.1c-1,0-1.9-0.5-2.5-1.2c-1-0.5-1.7-1.6-1.7-2.8c0-1.7,1.4-3.1,3.1-3.1c0.3,0,0.6,0.1,0.9,0.1v-2.9
				c-3.7,0.1-6.6,3.1-6.6,6.7c0,1.8,0.7,3.5,1.9,4.7c1.1,0.7,2.4,1.1,3.8,1.1c3.7,0,6.7-3,6.7-6.7V232.1z"/>
			<path class="st13" d="M26.4,230.8v-0.8c-1,0-1.9-0.3-2.7-0.8C24.4,230.1,25.3,230.6,26.4,230.8z M21.3,225.8c0-0.1,0-0.3-0.1-0.4
				V225h-3.7v14.6c0,1.7-1.4,3.1-3.1,3.1c-0.5,0-1-0.1-1.4-0.3c0.6,0.7,1.5,1.2,2.5,1.2c1.7,0,3.1-1.4,3.1-3.1v-14.6H21.3z
				 M15.4,233.7v-0.8c-0.3,0-0.6-0.1-0.9-0.1c-3.7,0-6.7,3-6.7,6.7c0,2.3,1.2,4.4,3,5.6c-1.2-1.2-1.9-2.9-1.9-4.7
				C8.8,236.7,11.8,233.8,15.4,233.7L15.4,233.7z"/>
		</g>
	</g>
	<g>
		<path class="st8" d="M17.7,163.7c-9.8,0-17.7,7.9-17.7,17.7c0,7.2,4.3,13.4,10.5,16.1c0-0.5,0-1,0-1.5c0.1-1.7,0.3-2.3,2.5-11.6
			c0-0.1,0-0.3-0.1-0.4c-0.5-1.4-0.6-2.9-0.2-4.4c1-3.2,4.6-3.4,5.2-0.8c0.4,1.6-0.6,3.7-1.4,6.9c-0.7,2.6,2.4,4.4,5,2.5
			c2.4-1.7,3.3-5.9,3.2-8.9c-0.3-5.9-6.8-7.2-10.9-5.3c-4.7,2.2-5.8,8-3.7,10.7c0.3,0.3,0.5,0.5,0.4,0.9c-0.1,0.5-0.3,1.1-0.4,1.6
			c-0.1,0.4-0.4,0.5-0.8,0.4c-0.8-0.3-1.4-0.8-2-1.5c-1.8-2.2-2.3-6.7,0.1-10.4c2.6-4.2,7.6-5.8,12.1-5.3c5.4,0.6,8.8,4.3,9.4,8.4
			c0.3,1.9,0.1,6.6-2.6,9.9c-3.1,3.8-8,4-10.3,1.7c-0.2-0.2-0.3-0.4-0.5-0.6c0,0.1,0,0.2-0.1,0.2c-1.1,4.3-1.2,5.3-2.4,7.3
			c-0.2,0.3-0.4,0.6-0.6,0.9c1.7,0.5,3.4,0.8,5.3,0.8c9.8,0,17.7-7.9,17.7-17.7C35.4,171.7,27.5,163.7,17.7,163.7z"/>
		<path class="st0" d="M15.3,190.2c0-0.1,0-0.1,0.1-0.2c0.2,0.2,0.3,0.4,0.5,0.6c2.3,2.3,7.3,2.1,10.3-1.7c2.7-3.3,2.9-8,2.6-9.9
			c-0.6-4.2-4-7.8-9.4-8.4c-4.5-0.5-9.4,1.2-12.1,5.3c-2.4,3.7-1.9,8.2-0.1,10.4c0.5,0.7,1.2,1.2,2,1.5c0.4,0.2,0.7,0,0.8-0.4
			c0.1-0.5,0.3-1.1,0.4-1.6c0.1-0.3-0.1-0.6-0.4-0.9c-2.1-2.7-1.1-8.5,3.7-10.7c4.1-1.9,10.6-0.6,10.9,5.3c0.2,3-0.8,7.1-3.2,8.9
			c-2.6,1.9-5.7,0-5-2.5c0.8-3.1,1.8-5.3,1.4-6.9c-0.6-2.6-4.2-2.4-5.2,0.8c-0.5,1.5-0.4,2.9,0.2,4.4c0,0.1,0.1,0.2,0.1,0.4
			c-2.2,9.3-2.4,9.9-2.5,11.6c0,0.5,0,1,0,1.5c0.6,0.3,1.3,0.5,2,0.8c0.2-0.3,0.4-0.6,0.6-0.9C14.1,195.4,14.2,194.5,15.3,190.2z"/>
	</g>
	<g>
		<circle class="st7" cx="17.7" cy="290.6" r="17.7"/>
		<path class="st0" d="M8.1,300.6l1.5-5.5c-0.8-1.5-1.3-3.2-1.3-4.9c0-5.6,4.6-10.2,10.2-10.2c5.6,0,10.2,4.6,10.2,10.2
			c0,5.6-4.6,10.2-10.2,10.2c-1.7,0-3.3-0.4-4.8-1.2L8.1,300.6z M13.9,297.1l0.3,0.2c1.3,0.8,2.7,1.2,4.2,1.2c4.5,0,8.2-3.7,8.2-8.2
			c0-4.5-3.7-8.2-8.2-8.2c-4.5,0-8.2,3.7-8.2,8.2c0,1.5,0.4,3,1.2,4.3l0.2,0.4l-0.8,3.1L13.9,297.1z"/>
		<path class="st1" d="M22.3,291.6c-0.4-0.3-1-0.5-1.5-0.3c-0.4,0.2-0.6,0.7-0.9,1c-0.1,0.2-0.3,0.2-0.5,0.1
			c-1.4-0.6-2.5-1.5-3.3-2.8c-0.1-0.2-0.1-0.4,0.1-0.6c0.2-0.3,0.5-0.6,0.6-1c0.1-0.4-0.1-0.8-0.3-1.1c-0.2-0.4-0.4-1-0.8-1.3
			c-0.4-0.2-0.9-0.1-1.3,0.2c-0.6,0.5-0.9,1.3-0.9,2c0,0.2,0,0.4,0.1,0.6c0.1,0.5,0.4,1,0.6,1.4c0.2,0.3,0.4,0.7,0.6,1
			c0.8,1,1.7,1.9,2.8,2.6c0.5,0.3,1.1,0.6,1.7,0.8c0.7,0.2,1.3,0.5,2,0.3c0.8-0.1,1.5-0.6,1.8-1.4c0.1-0.2,0.1-0.5,0.1-0.7
			C23.3,292.1,22.7,291.8,22.3,291.6z"/>
	</g>
	<g>
		<circle class="st8" cx="17.7" cy="345.2" r="17.7"/>
		<path class="st0" d="M27.2,342.7c0-2.3-1.9-4.2-4.2-4.2H12.1c-2.3,0-4.2,1.9-4.2,4.2v5.1c0,2.3,1.9,4.2,4.2,4.2h10.9
			c2.3,0,4.2-1.9,4.2-4.2V342.7z M20.8,345.6l-4.9,2.4c-0.2,0.1-0.8,0-0.8-0.3v-4.9c0-0.2,0.7-0.4,0.8-0.2l4.7,2.5
			C20.8,345.2,21,345.5,20.8,345.6z"/>
	</g>
	<g>
		<g>
			<g>
				<linearGradient id="SVGID_2_" gradientUnits="userSpaceOnUse" x1="-53.2529" y1="47.3983" x2="-21.1648" y2="78.112">
					<stop  offset="1.104800e-003" style="stop-color:#FBE18A"/>
					<stop  offset="0.2094" style="stop-color:#FCBB45"/>
					<stop  offset="0.3765" style="stop-color:#F75274"/>
					<stop  offset="0.5238" style="stop-color:#D53692"/>
					<stop  offset="0.7394" style="stop-color:#8F39CE"/>
					<stop  offset="1" style="stop-color:#5B4FE9"/>
				</linearGradient>
				<circle class="st14" cx="-37" cy="62.9" r="2.1"/>
				<linearGradient id="SVGID_3_" gradientUnits="userSpaceOnUse" x1="-62.3071" y1="56.8577" x2="-30.219" y2="87.5714">
					<stop  offset="1.104800e-003" style="stop-color:#FBE18A"/>
					<stop  offset="0.2094" style="stop-color:#FCBB45"/>
					<stop  offset="0.3765" style="stop-color:#F75274"/>
					<stop  offset="0.5238" style="stop-color:#D53692"/>
					<stop  offset="0.7394" style="stop-color:#8F39CE"/>
					<stop  offset="1" style="stop-color:#5B4FE9"/>
				</linearGradient>
				<path class="st15" d="M-46.3,63.5c-4.8,0-8.7,3.9-8.7,8.7c0,4.8,3.9,8.7,8.7,8.7c4.8,0,8.7-3.9,8.7-8.7
					C-37.6,67.4-41.5,63.5-46.3,63.5z M-46.3,77.8c-3.1,0-5.6-2.5-5.6-5.6c0-3.1,2.5-5.6,5.6-5.6c3.1,0,5.6,2.5,5.6,5.6
					C-40.7,75.3-43.2,77.8-46.3,77.8z"/>
				<linearGradient id="SVGID_4_" gradientUnits="userSpaceOnUse" x1="-62.3766" y1="56.9304" x2="-30.2887" y2="87.6438">
					<stop  offset="1.104800e-003" style="stop-color:#FBE18A"/>
					<stop  offset="0.2094" style="stop-color:#FCBB45"/>
					<stop  offset="0.3765" style="stop-color:#F75274"/>
					<stop  offset="0.5238" style="stop-color:#D53692"/>
					<stop  offset="0.7394" style="stop-color:#8F39CE"/>
					<stop  offset="1" style="stop-color:#5B4FE9"/>
				</linearGradient>
				<path class="st16" d="M-39.3,89.9h-14.1c-5.9,0-10.6-4.8-10.6-10.6V65.1c0-5.9,4.8-10.6,10.6-10.6h14.1
					c5.9,0,10.6,4.8,10.6,10.6v14.1C-28.7,85.1-33.5,89.9-39.3,89.9z M-53.5,57.8c-4,0-7.3,3.3-7.3,7.3v14.1c0,4,3.3,7.3,7.3,7.3
					h14.1c4,0,7.3-3.3,7.3-7.3V65.1c0-4-3.3-7.3-7.3-7.3H-53.5z"/>
			</g>
		</g>
		<path class="st11" d="M-38.2,19.8l1-6.4h-6.1V9.3c0-1.8,0.9-3.5,3.6-3.5h2.8V0.4c0,0-2.5-0.4-5-0.4c-5.1,0-8.4,3.1-8.4,8.6v4.9
			h-5.6v6.4h5.6v15.5h6.9V19.8H-38.2z"/>
		<path class="st9" d="M-25.1,113.4c-1.4,0.6-2.9,1-4.3,1.2c0.7-0.1,1.7-1.4,2.1-1.9c0.6-0.8,1.1-1.7,1.4-2.6c0-0.1,0.1-0.2,0-0.2
			c-0.1,0-0.2,0-0.2,0c-1.6,0.9-3.3,1.5-5.2,2c-0.1,0-0.3,0-0.4-0.1c-0.1-0.2-0.3-0.3-0.5-0.5c-0.8-0.6-1.6-1.2-2.5-1.5
			c-1.2-0.5-2.5-0.7-3.8-0.6c-1.3,0.1-2.5,0.4-3.6,1c-1.1,0.6-2.1,1.4-2.9,2.4c-0.8,1-1.4,2.2-1.8,3.5c-0.3,1.2-0.3,2.5-0.1,3.7
			c0,0.2,0,0.2-0.2,0.2c-7.1-1.1-12.9-3.6-17.7-9c-0.2-0.2-0.3-0.2-0.5,0c-2.1,3.1-1.1,8.1,1.5,10.6c0.3,0.3,0.7,0.7,1.1,1
			c-0.1,0-1.9-0.2-3.4-1c-0.2-0.1-0.3-0.1-0.3,0.2c0,0.3,0,0.6,0.1,1c0.4,3.2,2.6,6.1,5.6,7.2c0.4,0.2,0.8,0.3,1.1,0.3
			c-0.7,0.2-1.4,0.3-3.4,0.1c-0.2,0-0.3,0.1-0.2,0.3c1.5,4,4.7,5.2,7,5.9c0.3,0.1,0.6,0.1,1,0.1c0,0,0,0-0.1,0.1
			c-0.8,1.2-3.5,2.1-4.8,2.5c-2.3,0.8-4.9,1.2-7.3,0.9c-0.4-0.1-0.5-0.1-0.6,0c-0.1,0.1,0,0.2,0.1,0.3c0.5,0.3,1,0.6,1.5,0.9
			c1.6,0.8,3.2,1.5,4.9,2c8.8,2.4,18.7,0.6,25.2-5.9c5.2-5.1,7-12.2,7-19.3c0-0.3,0.3-0.4,0.5-0.6c1.3-1,2.4-2.2,3.4-3.6
			c0.2-0.3,0.2-0.6,0.2-0.7c0,0,0,0,0,0C-24.9,113.2-24.9,113.3-25.1,113.4z"/>
		<path class="st17" d="M-48.7,186.8c0,0.1-0.1,0.2-0.1,0.3c-1.3,5.1-1.4,6.2-2.8,8.6c-0.6,1.1-1.4,2.2-2.1,3.2
			c-0.1,0.1-0.2,0.3-0.4,0.2c-0.2,0-0.2-0.2-0.2-0.4c-0.2-1.5-0.3-3.1-0.3-4.7c0.1-2,0.3-2.7,2.9-13.8c0-0.2,0-0.3-0.1-0.5
			c-0.6-1.7-0.8-3.4-0.2-5.2c1.2-3.8,5.5-4.1,6.2-0.9c0.5,1.9-0.8,4.4-1.7,8.1c-0.8,3.1,2.8,5.2,5.9,3c2.8-2.1,3.9-7,3.7-10.5
			c-0.4-7-8.1-8.5-12.9-6.2c-5.6,2.6-6.8,9.5-4.3,12.6c0.3,0.4,0.6,0.6,0.5,1.1c-0.2,0.6-0.3,1.3-0.5,1.9c-0.1,0.5-0.5,0.6-1,0.4
			c-0.9-0.4-1.7-1-2.3-1.7c-2.1-2.6-2.7-7.9,0.1-12.3c3.1-4.9,9-6.9,14.3-6.3c6.3,0.7,10.4,5.1,11.1,10c0.3,2.2,0.1,7.8-3.1,11.7
			c-3.6,4.5-9.5,4.8-12.2,2C-48.3,187.3-48.4,187-48.7,186.8z"/>
		<g>
			<path class="st7" d="M-64.1,308.3l2.5-9.5c-1.4-2.6-2.2-5.5-2.2-8.4c0-9.6,7.8-17.5,17.5-17.5c9.6,0,17.5,7.8,17.5,17.5
				c0,9.6-7.8,17.5-17.5,17.5c-2.9,0-5.7-0.7-8.3-2.1L-64.1,308.3z M-54.1,302.2l0.6,0.4c2.2,1.3,4.7,2,7.2,2
				c7.8,0,14.2-6.4,14.2-14.2c0-7.8-6.4-14.2-14.2-14.2c-7.8,0-14.2,6.4-14.2,14.2c0,2.6,0.7,5.1,2.1,7.3l0.4,0.6l-1.4,5.3
				L-54.1,302.2z"/>
			<path class="st18" d="M-39.7,292.8c-0.7-0.4-1.7-0.9-2.5-0.6c-0.7,0.3-1.1,1.3-1.5,1.8c-0.2,0.3-0.5,0.3-0.8,0.2
				c-2.4-1-4.3-2.6-5.7-4.8c-0.2-0.3-0.2-0.6,0.1-0.9c0.4-0.5,0.9-1,1-1.7c0.1-0.6-0.2-1.4-0.5-2c-0.3-0.7-0.7-1.8-1.5-2.2
				c-0.7-0.4-1.6-0.2-2.2,0.3c-1,0.8-1.5,2.2-1.5,3.5c0,0.4,0.1,0.7,0.1,1.1c0.2,0.9,0.6,1.7,1.1,2.4c0.3,0.6,0.7,1.1,1.1,1.7
				c1.3,1.8,2.9,3.3,4.8,4.5c0.9,0.6,2,1.1,3,1.4c1.2,0.4,2.2,0.8,3.5,0.6c1.3-0.3,2.6-1.1,3.2-2.4c0.2-0.4,0.2-0.8,0.1-1.2
				C-37.9,293.7-39.1,293.2-39.7,292.8z"/>
		</g>
		<path class="st8" d="M-28.4,340.5c0-4.4-3.5-7.9-7.9-7.9h-20.2c-4.4,0-7.9,3.5-7.9,7.9v9.4c0,4.4,3.5,7.9,7.9,7.9h20.2
			c4.4,0,7.9-3.5,7.9-7.9V340.5z M-40.3,345.9l-9,4.5c-0.4,0.2-1.6-0.1-1.6-0.5v-9.2c0-0.4,1.2-0.7,1.6-0.5l8.7,4.7
			C-40.3,345.2-39.9,345.7-40.3,345.9z"/>
		<g>
			<path class="st12" d="M-38.5,230.9c2.4,1.7,5.3,2.7,8.5,2.7v-6.1c-0.6,0-1.2-0.1-1.8-0.2v4.8c-3.2,0-6.1-1-8.5-2.7v12.4
				c0,6.2-5,11.2-11.2,11.2c-2.3,0-4.5-0.7-6.2-1.9c2,2.1,4.9,3.4,8,3.4c6.2,0,11.2-5,11.2-11.2L-38.5,230.9L-38.5,230.9z
				 M-36.3,224.7c-1.2-1.3-2-3-2.2-4.9V219h-1.7C-39.8,221.4-38.4,223.5-36.3,224.7L-36.3,224.7z M-53.9,246.3c-0.7-0.9-1-2-1-3.1
				c0-2.8,2.3-5.1,5.1-5.1c0.5,0,1.1,0.1,1.6,0.2v-6.2c-0.6-0.1-1.2-0.1-1.8-0.1v4.8c-0.5-0.2-1-0.2-1.6-0.2c-2.8,0-5.1,2.3-5.1,5.1
				C-56.7,243.7-55.5,245.5-53.9,246.3z"/>
			<path class="st2" d="M-40.3,229.4c2.4,1.7,5.3,2.7,8.5,2.7v-4.8c-1.8-0.4-3.3-1.3-4.5-2.6c-2-1.3-3.4-3.3-3.9-5.7h-4.4v24.2
				c0,2.8-2.3,5.1-5.1,5.1c-1.7,0-3.1-0.8-4.1-2c-1.7-0.8-2.8-2.6-2.8-4.6c0-2.8,2.3-5.1,5.1-5.1c0.5,0,1.1,0.1,1.6,0.2V232
				c-6.1,0.1-11,5.1-11,11.2c0,3.1,1.2,5.8,3.2,7.8c1.8,1.2,3.9,1.9,6.2,1.9c6.2,0,11.2-5,11.2-11.2V229.4z"/>
			<path class="st13" d="M-31.9,227.3V226c-1.6,0-3.1-0.4-4.5-1.3C-35.2,226.1-33.6,227-31.9,227.3z M-40.2,219
				c0-0.2-0.1-0.5-0.1-0.7v-0.8h-6.1v24.2c0,2.8-2.3,5.1-5.1,5.1c-0.8,0-1.6-0.2-2.3-0.5c0.9,1.2,2.4,2,4.1,2c2.8,0,5.1-2.3,5.1-5.1
				V219H-40.2z M-50,232v-1.4c-0.5-0.1-1-0.1-1.5-0.1c-6.2,0-11.2,5-11.2,11.2c0,3.9,2,7.3,5,9.3c-2-2-3.2-4.8-3.2-7.8
				C-61,237.1-56.1,232.2-50,232L-50,232z"/>
		</g>
	</g>
	<line class="st19" x1="88.7" y1="-1.3" x2="88.7" y2="362.9"/>
	<line class="st20" x1="-102.8" y1="-1.3" x2="-102.8" y2="364.2"/>
	<line class="st20" x1="345.9" y1="-1.3" x2="345.9" y2="364.2"/>
</g>
<g id="TEXT">
	<text transform="matrix(1 0 0 1 -182.7478 -38.7306)"><tspan x="0" y="0" style="font-family:'Montserrat-Bold'; font-size:12px; letter-spacing:4;">Icons</tspan><tspan x="64.2" y="0" style="fill:#808080; font-family:'Montserrat-Bold'; font-size:12px; letter-spacing:4;"> &amp; </tspan><tspan x="94.1" y="0" style="font-family:'Montserrat-Bold'; font-size:12px; letter-spacing:4;">Social Media Logos</tspan><tspan x="321.2" y="0" style="fill:#808080; font-family:'Montserrat-Bold'; font-size:12px; letter-spacing:4;"> for </tspan><tspan x="378.7" y="0" style="font-family:'Montserrat-Bold'; font-size:12px; letter-spacing:4;">business card</tspan></text>
</g>
</svg>
