<?xml version="1.0" encoding="utf-8"?>
<!-- Generator: Adobe Illustrator 19.0.0, SVG Export Plug-In . SVG Version: 6.00 Build 0)  -->
<svg version="1.1" xmlns="http://www.w3.org/2000/svg" xmlns:xlink="http://www.w3.org/1999/xlink" x="0px" y="0px"
	 viewBox="0 0 19 35.4" style="enable-background:new 0 0 19 35.4;" xml:space="preserve">
<style type="text/css">
	*{fill:#fff !important;}
	.st0{fill:#FFFFFF;}
	.st1{fill-rule:evenodd;clip-rule:evenodd;fill:#FFFFFF;}
	.st2{fill-rule:evenodd;clip-rule:evenodd;}
	.st3{fill:#D53692;}
	.st4{fill:#006EF5;}
	.st5{fill:#FCBB45;}
	.st6{fill:#8F39CE;}
	.st7{fill:#00D95F;}
	.st8{fill:#FF0000;}
	.st9{fill:#33CCFF;}
	.st10{fill:url(#SVGID_1_);}
	.st11{fill:#337FFF;}
	.st12{fill-rule:evenodd;clip-rule:evenodd;fill:#EE1D52;}
	.st13{fill-rule:evenodd;clip-rule:evenodd;fill:#69C9D0;}
	.st14{fill:url(#SVGID_2_);}
	.st15{fill:url(#SVGID_3_);}
	.st16{fill:url(#SVGID_4_);}
	.st17{fill-rule:evenodd;clip-rule:evenodd;fill:#FF0000;}
	.st18{fill-rule:evenodd;clip-rule:evenodd;fill:#00D95F;}
	.st19{fill:none;stroke:#999999;stroke-miterlimit:10;}
	.st20{fill:none;stroke:#999999;stroke-width:0.5;stroke-miterlimit:10;stroke-dasharray:12;}
</style>
<g id="BACKGROUND">
</g>
<g id="ELEMENTS">
	<g>
		<path d="M223.2,17.5c2.8-1.8,4.7-5,4.7-8.5c0-5.6-4.6-10.2-10.2-10.2s-10.2,4.6-10.2,10.2c0,3.6,1.9,6.7,4.7,8.5
			c-5.8,2.2-9.9,7.8-9.9,14.3c0,2.8,2.2,5,5,5h20.7c2.8,0,5-2.2,5-5C233.1,25.3,229,19.7,223.2,17.5z M210.2,8.9
			c0-4.2,3.4-7.5,7.5-7.5s7.5,3.4,7.5,7.5c0,4.2-3.4,7.5-7.5,7.5S210.2,13.1,210.2,8.9z M228.1,34.1h-20.7c-1.3,0-2.4-1.1-2.4-2.4
			c0-7,5.7-12.7,12.7-12.7c7,0,12.7,5.7,12.7,12.7C230.5,33.1,229.4,34.1,228.1,34.1z"/>
		<g>
			<path d="M225.5,53.1H210c-3.1,0-5.7,2.5-5.7,5.7v27c0,3.1,2.5,5.7,5.7,5.7h15.5c3.1,0,5.7-2.6,5.7-5.7v-27
				C231.2,55.7,228.7,53.1,225.5,53.1z M210,55.8h15.5c1.7,0,3.1,1.4,3.1,3.1v21.7H207V58.8C207,57.1,208.3,55.8,210,55.8z
				 M225.5,88.9H210c-1.7,0-3.1-1.4-3.1-3.1v-2.8h21.6v2.8C228.6,87.6,227.2,88.9,225.5,88.9z"/>
			<circle cx="217.4" cy="58.5" r="1"/>
			<circle cx="217.4" cy="85.8" r="1"/>
		</g>
		<path d="M236.5,126.1l-14-16.1c-1.2-1.3-2.9-2.1-4.6-2.1c-1.8,0-3.5,0.8-4.6,2.1l-14,16.1c-0.3,0.4-0.4,0.9-0.2,1.4
			c0.2,0.5,0.7,0.8,1.2,0.8h2.4v16.4c0,0.7,0.6,1.3,1.3,1.3h28c0.7,0,1.3-0.6,1.3-1.3v-16.4h2.4c0.5,0,1-0.3,1.2-0.8
			C236.9,127,236.8,126.5,236.5,126.1z M215.1,111.7c0.7-0.8,1.6-1.2,2.7-1.2c1,0,2,0.4,2.7,1.2l12.2,13.9H203L215.1,111.7z
			 M230.4,143.3h-25.3v-15.1h25.3V143.3z"/>
		<path d="M231.3,166.6h-27c-3,0-5.5,2.5-5.5,5.5V191c0,3,2.5,5.5,5.5,5.5h27c3,0,5.5-2.5,5.5-5.5v-18.9
			C236.8,169,234.3,166.6,231.3,166.6z M231.3,169.2c0.2,0,0.4,0,0.7,0.1l-11.4,12.9c-0.7,0.8-1.7,1.2-2.8,1.2
			c-1.1,0-2.1-0.5-2.8-1.2l-11.4-12.9c0.2,0,0.4-0.1,0.7-0.1H231.3z M234.2,191c0,1.6-1.3,2.9-2.9,2.9h-27c-1.6,0-2.9-1.3-2.9-2.9
			v-18.9c0-0.4,0.1-0.8,0.2-1.1l11.4,13c1.2,1.4,2.9,2.1,4.7,2.1c1.8,0,3.5-0.8,4.7-2.1l11.4-13c0.1,0.3,0.2,0.7,0.2,1.1V191z"/>
		<path d="M231.8,235.9l-25-18.2c-0.9-0.6-2-0.7-3-0.2c-1,0.5-1.5,1.5-1.5,2.5l0,31c0,1.2,0.6,2.3,1.6,2.9c0.5,0.3,1.2,0.5,1.8,0.5
			c0.5,0,1.1-0.1,1.5-0.4c0.1-0.1,0.3-0.2,0.4-0.3l8.5-9.2l5.1,10c0.2,0.5,0.7,0.7,1.2,0.7c0.2,0,0.4,0,0.6-0.1
			c0.6-0.3,0.9-1.1,0.6-1.8l-5.1-10.1l12.5-1.3c0.2,0,0.3-0.1,0.5-0.1c1.1-0.5,1.8-1.6,1.8-2.8C233.3,237.7,232.8,236.6,231.8,235.9
			z M230.4,239.2l-13.9,1.5c-0.3,0-0.6,0.2-0.8,0.4l-9.7,10.5c-0.3,0.1-0.5,0-0.6-0.1c-0.1-0.1-0.4-0.3-0.4-0.7l0-31
			c0,0,0-0.1,0.1-0.2c0,0,0.1,0,0.1,0c0.1,0,0.1,0,0.1,0l25,18.2c0.3,0.2,0.3,0.6,0.3,0.7C230.6,238.8,230.6,239,230.4,239.2z"/>
		<g>
			<g>
				<path d="M217.8,309.5L217.8,309.5c-0.4,0-0.7-0.2-1-0.4c-0.6-0.6-13.7-14.8-13.7-22.6c0-8.1,6.6-14.7,14.7-14.7
					c8.1,0,14.7,6.6,14.7,14.7c0,7.8-13.1,22-13.7,22.6C218.5,309.4,218.1,309.5,217.8,309.5z M217.8,274.4c-6.6,0-12,5.4-12,12
					c0,5.2,8,15.2,12,19.8c4.1-4.6,12-14.6,12-19.8C229.8,279.8,224.4,274.4,217.8,274.4z"/>
			</g>
			<g>
				<path d="M217.8,292.4c-3.6,0-6.6-3-6.6-6.6c0-3.6,3-6.6,6.6-6.6c3.6,0,6.6,3,6.6,6.6C224.4,289.5,221.4,292.4,217.8,292.4z
					 M217.8,281.9c-2.2,0-4,1.8-4,4c0,2.2,1.8,4,4,4c2.2,0,4-1.8,4-4C221.8,283.6,220,281.9,217.8,281.9z"/>
			</g>
		</g>
		<path d="M217.8,326.3c-10.5,0-19,8.5-19,19c0,10.5,8.5,19,19,19c10.5,0,19-8.5,19-19C236.8,334.8,228.3,326.3,217.8,326.3z
			 M234.1,343.9H227c-0.2-5.9-1.6-11-3.7-14.1C229.2,332,233.6,337.4,234.1,343.9z M217.8,361.6c-3,0-6.3-6.1-6.5-15.1h13.1
			C224,355.5,220.7,361.6,217.8,361.6z M211.2,343.9c0.3-8.9,3.6-15.1,6.5-15.1c3,0,6.3,6.1,6.5,15.1H211.2z M212.3,329.8
			c-2.1,3.2-3.5,8.2-3.7,14.1h-7.1C202,337.4,206.3,332,212.3,329.8z M201.5,346.6h7.1c0.2,5.9,1.6,11,3.7,14.1
			C206.3,358.6,202,353.1,201.5,346.6z M223.3,360.7c2.1-3.2,3.5-8.2,3.7-14.1h7.1C233.6,353.1,229.2,358.6,223.3,360.7z"/>
	</g>
	<g>
		<g>
			<g>
				<circle cx="281.9" cy="7.6" r="7.6"/>
			</g>
			<g>
				<path d="M281.9,17.8L281.9,17.8c-7.7,0-14,6.3-14,14l0,0c0,2,1.6,3.7,3.7,3.7h20.7c2,0,3.7-1.6,3.7-3.7l0,0
					C295.9,24,289.6,17.8,281.9,17.8z"/>
			</g>
		</g>
		<g>
			<path d="M294,80.5V58.8c0-2.4-2-4.4-4.4-4.4h-15.5c-2.4,0-4.4,2-4.4,4.4v21.7H294z M281.9,57.2c0.7,0,1.3,0.6,1.3,1.3
				c0,0.7-0.6,1.3-1.3,1.3c-0.7,0-1.3-0.6-1.3-1.3C280.6,57.8,281.2,57.2,281.9,57.2z"/>
			<path d="M269.8,83.1v2.8c0,2.4,2,4.4,4.4,4.4h15.5c2.4,0,4.4-2,4.4-4.4v-2.8H269.8z M281.9,87.8c-0.7,0-1.3-0.6-1.3-1.3
				c0-0.7,0.6-1.3,1.3-1.3c0.7,0,1.3,0.6,1.3,1.3C283.2,87.2,282.6,87.8,281.9,87.8z"/>
		</g>
		<g>
			<g>
				<path d="M278.2,110.9l-12.5,14.4c-0.6,0.7-0.1,1.7,0.8,1.7h3.7h25.7h1.4c0.9,0,1.4-1.1,0.8-1.7l-12.5-14.4
					C283.6,108.7,280.2,108.7,278.2,110.9z"/>
			</g>
			<g>
				<path d="M295.9,129.6v14c0,0.6-0.5,1-1,1H269c-0.6,0-1-0.5-1-1v-14H295.9z"/>
			</g>
		</g>
		<g>
			<path d="M266.8,168.3l12.3,13.9c0.7,0.8,1.7,1.2,2.8,1.2c1.1,0,2.1-0.5,2.8-1.2l12.1-13.7c0.1-0.1,0.2-0.2,0.3-0.3
				c-0.5-0.2-1.1-0.4-1.7-0.4h-27C267.8,167.9,267.3,168,266.8,168.3C266.8,168.2,266.8,168.3,266.8,168.3z"/>
			<path d="M298.9,169.9c-0.1,0.1-0.1,0.3-0.2,0.4L286.6,184c-1.2,1.4-2.9,2.1-4.7,2.1c-1.8,0-3.5-0.8-4.7-2.1L264.9,170
				c0,0,0-0.1-0.1-0.1c-0.4,0.6-0.6,1.4-0.6,2.2V191c0,2.3,1.9,4.2,4.2,4.2h27c2.3,0,4.2-1.9,4.2-4.2v-18.9
				C299.6,171.3,299.3,170.5,298.9,169.9z"/>
		</g>
		<path d="M295.2,236.3l-25-18.2c-1-0.7-2.4,0-2.4,1.2l0,31c0,1.6,1.6,2.6,3,1.9l8.8-9.6l5.7,11.3c0.2,0.5,0.7,0.7,1.2,0.7
			c0.2,0,0.4,0,0.6-0.1c0.6-0.3,0.9-1.1,0.6-1.8l-5.8-11.4l13-1.4C296.3,239.1,296.4,237.2,295.2,236.3z"/>
		<g>
			<path d="M281.9,282.1c-2.2,0-4,1.8-4,4c0,2.2,1.8,4,4,4c2.2,0,4-1.8,4-4C285.9,283.9,284.1,282.1,281.9,282.1z"/>
			<path d="M281.9,273.4c-7.4,0-13.4,6-13.4,13.4c0,6.3,9.7,17.7,12.6,20.9c0.4,0.5,1.1,0.5,1.6,0c2.9-3.2,12.6-14.6,12.6-20.9
				C295.2,279.4,289.3,273.4,281.9,273.4z M281.9,292.7c-3.6,0-6.6-3-6.6-6.6c0-3.6,3-6.6,6.6-6.6c3.6,0,6.6,3,6.6,6.6
				C288.5,289.7,285.5,292.7,281.9,292.7z"/>
		</g>
		<g>
			<path d="M275.3,346.6c0.3,8.9,3.6,15.1,6.5,15.1c3,0,6.3-6.1,6.5-15.1H275.3z"/>
			<path d="M281.9,328.9c-3,0-6.3,6.1-6.5,15.1h13.1C288.1,335,284.9,328.9,281.9,328.9z"/>
			<path d="M291.1,343.9h8.5c-0.6-7.8-6.2-14.2-13.6-15.9C288.8,330.8,290.8,336.7,291.1,343.9z"/>
			<path d="M291.1,346.6c-0.2,7.2-2.2,13.1-5.2,15.9c7.4-1.7,13.1-8.1,13.6-15.9H291.1z"/>
			<path d="M272.7,346.6h-8.5c0.6,7.8,6.2,14.2,13.6,15.9C274.9,359.7,272.9,353.8,272.7,346.6z"/>
			<path d="M272.7,343.9c0.2-7.2,2.2-13.1,5.2-15.9c-7.4,1.7-13.1,8.1-13.6,15.9H272.7z"/>
		</g>
	</g>
	<g>
		<g>
			<circle cx="346" cy="17.8" r="17.7"/>
			<g>
				<g>
					<circle class="st0" cx="346" cy="9.4" r="5"/>
				</g>
				<g>
					<path class="st0" d="M346,16.2L346,16.2c-5.2,0-9.3,4.2-9.3,9.3l0,0c0,1.4,1.1,2.5,2.5,2.5h13.8c1.4,0,2.5-1.1,2.5-2.5l0,0
						C355.3,20.4,351.1,16.2,346,16.2z"/>
				</g>
			</g>
		</g>
		<g>
			<circle cx="346" cy="72.3" r="17.7"/>
			<g>
				<path class="st0" d="M354,77.7V63.4c0-1.6-1.3-2.9-2.9-2.9h-10.2c-1.6,0-2.9,1.3-2.9,2.9v14.3H354z M346,62.3
					c0.5,0,0.9,0.4,0.9,0.9s-0.4,0.9-0.9,0.9c-0.5,0-0.9-0.4-0.9-0.9S345.5,62.3,346,62.3z"/>
				<path class="st0" d="M338,79.4v1.8c0,1.6,1.3,2.9,2.9,2.9h10.2c1.6,0,2.9-1.3,2.9-2.9v-1.8H338z M346,82.5
					c-0.5,0-0.9-0.4-0.9-0.9s0.4-0.9,0.9-0.9c0.5,0,0.9,0.4,0.9,0.9S346.5,82.5,346,82.5z"/>
			</g>
		</g>
		<g>
			<circle cx="346" cy="126.9" r="17.7"/>
			<g>
				<g>
					<path class="st0" d="M343.6,114.7l-8.3,9.6c-0.4,0.5-0.1,1.2,0.5,1.2h2.4h17.1h0.9c0.6,0,0.9-0.7,0.5-1.2l-8.3-9.6
						C347.1,113.2,344.8,113.2,343.6,114.7z"/>
				</g>
				<g>
					<path class="st0" d="M355.3,127.1v9.3c0,0.4-0.3,0.7-0.7,0.7h-17.2c-0.4,0-0.7-0.3-0.7-0.7v-9.3H355.3z"/>
				</g>
			</g>
		</g>
		<g>
			<circle cx="346" cy="181.5" r="17.7"/>
			<g>
				<path class="st0" d="M335.9,172.7l8.2,9.3c0.5,0.5,1.1,0.8,1.8,0.8c0.7,0,1.4-0.3,1.8-0.8l8.1-9.1c0.1-0.1,0.1-0.1,0.2-0.2
					c-0.3-0.1-0.7-0.2-1.1-0.2h-18C336.6,172.4,336.2,172.5,335.9,172.7C335.9,172.7,335.9,172.7,335.9,172.7z"/>
				<path class="st0" d="M357.4,173.7c0,0.1-0.1,0.2-0.2,0.3l-8.1,9.1c-0.8,0.9-1.9,1.4-3.2,1.4c-1.2,0-2.4-0.5-3.2-1.4l-8.2-9.3
					c0,0,0,0,0-0.1c-0.3,0.4-0.4,0.9-0.4,1.4v12.6c0,1.5,1.2,2.8,2.8,2.8h18c1.5,0,2.8-1.2,2.8-2.8v-12.6
					C357.8,174.7,357.6,174.2,357.4,173.7z"/>
			</g>
		</g>
		<g>
			<circle cx="346" cy="236.1" r="17.7"/>
			<path class="st0" d="M356.4,236.2l-15.7-11.5c-0.6-0.5-1.5,0-1.5,0.8l0,19.5c0,1,1,1.6,1.9,1.2l5.5-6l3.6,7.1
				c0.1,0.3,0.4,0.5,0.7,0.5c0.1,0,0.3,0,0.4-0.1c0.4-0.2,0.6-0.7,0.4-1.1l-3.6-7.1l8.2-0.9C357.1,238,357.2,236.8,356.4,236.2z"/>
		</g>
		<g>
			<circle cx="346" cy="290.7" r="17.7"/>
			<g>
				<path class="st0" d="M346,278.9c-5,0-9.1,4.1-9.1,9.1c0,4.3,6.6,12.1,8.6,14.3c0.3,0.3,0.8,0.3,1.1,0c2-2.2,8.6-10,8.6-14.3
					C355.1,283,351,278.9,346,278.9z M346,292.1c-2.5,0-4.5-2-4.5-4.5c0-2.5,2-4.5,4.5-4.5c2.5,0,4.5,2,4.5,4.5
					C350.5,290,348.5,292.1,346,292.1z"/>
			</g>
		</g>
		<g>
			<circle cx="346" cy="345.3" r="17.7"/>
			<g>
				<path class="st0" d="M341.6,346.1c0.2,6,2.4,10.1,4.4,10.1c2,0,4.2-4.1,4.4-10.1H341.6z"/>
				<path class="st0" d="M346,334.3c-2,0-4.2,4.1-4.4,10.1h8.8C350.2,338.4,348,334.3,346,334.3z"/>
				<path class="st0" d="M352.1,344.4h5.7c-0.4-5.2-4.1-9.5-9.1-10.7C350.6,335.6,352,339.5,352.1,344.4z"/>
				<path class="st0" d="M352.1,346.1c-0.1,4.8-1.5,8.8-3.5,10.7c5-1.2,8.7-5.4,9.1-10.7H352.1z"/>
				<path class="st0" d="M339.8,346.1h-5.7c0.4,5.2,4.1,9.5,9.1,10.7C341.3,354.9,340,351,339.8,346.1z"/>
				<path class="st0" d="M339.8,344.4c0.1-4.8,1.5-8.8,3.5-10.7c-5,1.2-8.7,5.4-9.1,10.7H339.8z"/>
			</g>
		</g>
	</g>
	<g>
		<g>
			<circle cx="522.3" cy="126.9" r="17.7"/>
			<path class="st0" d="M532.1,120.9c-0.6,0.3-1.3,0.4-2,0.6c0.3-0.1,0.8-0.6,1-0.9c0.3-0.4,0.5-0.7,0.6-1.2c0,0,0-0.1,0-0.1
				c0,0-0.1,0-0.1,0c-0.7,0.4-1.5,0.7-2.3,0.9c-0.1,0-0.1,0-0.2,0c-0.1-0.1-0.1-0.1-0.2-0.2c-0.3-0.3-0.7-0.5-1.1-0.7
				c-0.5-0.2-1.1-0.3-1.7-0.3c-0.6,0-1.1,0.2-1.6,0.5c-0.5,0.3-1,0.6-1.3,1.1c-0.4,0.5-0.6,1-0.8,1.6c-0.1,0.6-0.1,1.1,0,1.7
				c0,0.1,0,0.1-0.1,0.1c-3.2-0.5-5.8-1.6-7.9-4c-0.1-0.1-0.1-0.1-0.2,0c-0.9,1.4-0.5,3.7,0.7,4.8c0.2,0.1,0.3,0.3,0.5,0.4
				c-0.1,0-0.8-0.1-1.5-0.4c-0.1-0.1-0.1,0-0.1,0.1c0,0.2,0,0.3,0,0.5c0.2,1.4,1.2,2.7,2.5,3.2c0.2,0.1,0.3,0.1,0.5,0.2
				c-0.3,0.1-0.6,0.1-1.5,0c-0.1,0-0.2,0-0.1,0.1c0.7,1.8,2.1,2.3,3.2,2.6c0.1,0,0.3,0,0.4,0.1c0,0,0,0,0,0
				c-0.4,0.5-1.6,0.9-2.2,1.1c-1,0.4-2.2,0.5-3.3,0.4c-0.2,0-0.2,0-0.3,0c0,0,0,0.1,0.1,0.1c0.2,0.1,0.5,0.3,0.7,0.4
				c0.7,0.4,1.4,0.7,2.2,0.9c3.9,1.1,8.4,0.3,11.3-2.6c2.3-2.3,3.1-5.5,3.1-8.7c0-0.1,0.1-0.2,0.2-0.3c0.6-0.5,1.1-1,1.5-1.6
				C532.1,121.1,532.1,120.9,532.1,120.9C532.1,120.9,532.1,120.9,532.1,120.9C532.1,120.8,532.1,120.8,532.1,120.9z"/>
		</g>
		<g>
			<circle cx="522.3" cy="72.3" r="17.7"/>
			<g>
				<g>
					<circle class="st0" cx="527.8" cy="66.9" r="1.2"/>
					<path class="st0" d="M522.4,67.2c-2.8,0-5.1,2.3-5.1,5.1c0,2.8,2.3,5.1,5.1,5.1c2.8,0,5.1-2.3,5.1-5.1
						C527.5,69.5,525.2,67.2,522.4,67.2z M522.4,75.6c-1.8,0-3.3-1.5-3.3-3.3c0-1.8,1.5-3.3,3.3-3.3c1.8,0,3.3,1.5,3.3,3.3
						C525.7,74.1,524.2,75.6,522.4,75.6z"/>
					<path class="st0" d="M526.4,82.7h-8.3c-3.4,0-6.2-2.8-6.2-6.2v-8.3c0-3.4,2.8-6.2,6.2-6.2h8.3c3.4,0,6.2,2.8,6.2,6.2v8.3
						C532.7,79.9,529.9,82.7,526.4,82.7z M518.2,63.9c-2.4,0-4.3,1.9-4.3,4.3v8.3c0,2.4,1.9,4.3,4.3,4.3h8.3c2.4,0,4.3-1.9,4.3-4.3
						v-8.3c0-2.4-1.9-4.3-4.3-4.3H518.2z"/>
				</g>
			</g>
		</g>
		<g>
			<g>
				<path d="M540,17.8c0-9.8-7.9-17.7-17.7-17.7c-9.8,0-17.7,7.9-17.7,17.7c0,8.8,6.5,16.1,14.9,17.5V22.9H515v-5.1h4.5v-3.9
					c0-4.4,2.6-6.9,6.7-6.9c1.9,0,4,0.3,4,0.3v4.4h-2.2c-2.2,0-2.9,1.4-2.9,2.8v3.3h4.9l-0.8,5.1h-4.1v12.4
					C533.5,33.9,540,26.6,540,17.8z"/>
				<path class="st0" d="M529.2,22.9l0.8-5.1h-4.9v-3.3c0-1.4,0.7-2.8,2.9-2.8h2.2V7.3c0,0-2-0.3-4-0.3c-4,0-6.7,2.4-6.7,6.9v3.9
					H515v5.1h4.5v12.4c0.9,0.1,1.8,0.2,2.8,0.2c0.9,0,1.9-0.1,2.8-0.2V22.9H529.2z"/>
			</g>
		</g>
		<g>
			<circle cx="522.3" cy="236.1" r="17.7"/>
			<path class="st0" d="M531.5,234.1c-0.2,0-0.4,0-0.5,0c-2,0-3.9-1-4.9-2.7v9.1c0,3.7-3,6.7-6.7,6.7c-3.7,0-6.7-3-6.7-6.7
				s3-6.7,6.7-6.7l0,0c0.1,0,0.3,0,0.4,0v3.3c-0.1,0-0.3,0-0.4,0c-1.9,0-3.4,1.5-3.4,3.4c0,1.9,1.5,3.4,3.4,3.4
				c1.9,0,3.6-1.5,3.6-3.4l0-15.5h3.2c0.3,2.8,2.6,5.1,5.4,5.3L531.5,234.1"/>
		</g>
		<g>
			<path d="M522.3,163.8c-9.8,0-17.7,7.9-17.7,17.7c0,7.2,4.3,13.4,10.5,16.1c0-0.5,0-1,0-1.5c0.1-1.7,0.3-2.3,2.5-11.6
				c0-0.1,0-0.3-0.1-0.4c-0.5-1.4-0.6-2.9-0.2-4.4c1-3.2,4.6-3.4,5.2-0.8c0.4,1.6-0.6,3.7-1.4,6.9c-0.7,2.6,2.4,4.4,5,2.5
				c2.4-1.7,3.3-5.9,3.2-8.9c-0.3-5.9-6.8-7.2-10.9-5.3c-4.7,2.2-5.8,8-3.7,10.7c0.3,0.3,0.5,0.5,0.4,0.9c-0.1,0.5-0.3,1.1-0.4,1.6
				c-0.1,0.4-0.4,0.5-0.8,0.4c-0.8-0.3-1.4-0.8-2-1.5c-1.8-2.2-2.3-6.7,0.1-10.4c2.6-4.2,7.6-5.8,12.1-5.3c5.4,0.6,8.8,4.3,9.4,8.4
				c0.3,1.9,0.1,6.6-2.6,9.9c-3.1,3.8-8,4-10.3,1.7c-0.2-0.2-0.3-0.4-0.5-0.6c0,0.1,0,0.2-0.1,0.2c-1.1,4.3-1.2,5.3-2.4,7.3
				c-0.2,0.3-0.4,0.6-0.6,0.9c1.7,0.5,3.4,0.8,5.3,0.8c9.8,0,17.7-7.9,17.7-17.7C540,171.7,532.1,163.8,522.3,163.8z"/>
			<path class="st0" d="M519.9,190.2c0-0.1,0-0.1,0.1-0.2c0.2,0.2,0.3,0.4,0.5,0.6c2.3,2.3,7.3,2.1,10.3-1.7c2.7-3.3,2.9-8,2.6-9.9
				c-0.6-4.2-4-7.8-9.4-8.4c-4.5-0.5-9.4,1.2-12.1,5.3c-2.4,3.7-1.9,8.2-0.1,10.4c0.5,0.7,1.2,1.2,2,1.5c0.4,0.2,0.7,0,0.8-0.4
				c0.1-0.5,0.3-1.1,0.4-1.6c0.1-0.3-0.1-0.6-0.4-0.9c-2.1-2.7-1.1-8.5,3.7-10.7c4.1-1.9,10.6-0.6,10.9,5.3c0.2,3-0.8,7.1-3.2,8.9
				c-2.6,1.9-5.7,0-5-2.5c0.8-3.1,1.8-5.3,1.4-6.9c-0.6-2.6-4.2-2.4-5.2,0.8c-0.5,1.5-0.4,2.9,0.2,4.4c0,0.1,0.1,0.2,0.1,0.4
				c-2.2,9.3-2.4,9.9-2.5,11.6c0,0.5,0,1,0,1.5c0.6,0.3,1.3,0.5,2,0.8c0.2-0.3,0.4-0.6,0.6-0.9C518.7,195.5,518.8,194.6,519.9,190.2
				z"/>
		</g>
		<g>
			<circle cx="522.3" cy="290.7" r="17.7"/>
			<path class="st0" d="M512.7,300.7l1.5-5.5c-0.8-1.5-1.3-3.2-1.3-4.9c0-5.6,4.6-10.2,10.2-10.2c5.6,0,10.2,4.6,10.2,10.2
				c0,5.6-4.6,10.2-10.2,10.2c-1.7,0-3.3-0.4-4.8-1.2L512.7,300.7z M518.5,297.1l0.3,0.2c1.3,0.8,2.7,1.2,4.2,1.2
				c4.5,0,8.2-3.7,8.2-8.2c0-4.5-3.7-8.2-8.2-8.2c-4.5,0-8.2,3.7-8.2,8.2c0,1.5,0.4,3,1.2,4.3l0.2,0.4l-0.8,3.1L518.5,297.1z"/>
			<path class="st1" d="M526.9,291.7c-0.4-0.3-1-0.5-1.5-0.3c-0.4,0.2-0.6,0.7-0.9,1c-0.1,0.2-0.3,0.2-0.5,0.1
				c-1.4-0.6-2.5-1.5-3.3-2.8c-0.1-0.2-0.1-0.4,0.1-0.6c0.2-0.3,0.5-0.6,0.6-1c0.1-0.4-0.1-0.8-0.3-1.1c-0.2-0.4-0.4-1-0.8-1.3
				c-0.4-0.2-0.9-0.1-1.3,0.2c-0.6,0.5-0.9,1.3-0.9,2c0,0.2,0,0.4,0.1,0.6c0.1,0.5,0.4,1,0.6,1.4c0.2,0.3,0.4,0.7,0.6,1
				c0.8,1,1.7,1.9,2.8,2.6c0.5,0.3,1.1,0.6,1.7,0.8c0.7,0.2,1.3,0.5,2,0.3c0.8-0.1,1.5-0.6,1.8-1.4c0.1-0.2,0.1-0.5,0.1-0.7
				C527.9,292.2,527.3,291.9,526.9,291.7z"/>
		</g>
		<g>
			<circle cx="522.3" cy="345.3" r="17.7"/>
			<path class="st0" d="M531.8,342.7c0-2.3-1.9-4.2-4.2-4.2h-10.9c-2.3,0-4.2,1.9-4.2,4.2v5.1c0,2.3,1.9,4.2,4.2,4.2h10.9
				c2.3,0,4.2-1.9,4.2-4.2V342.7z M525.4,345.6l-4.9,2.4c-0.2,0.1-0.8,0-0.8-0.3v-4.9c0-0.2,0.7-0.4,0.8-0.2l4.7,2.5
				C525.4,345.2,525.6,345.5,525.4,345.6z"/>
		</g>
	</g>
	<g>
		<g>
			<g>
				<circle cx="467.6" cy="63" r="2.1"/>
				<path d="M458.3,63.6c-4.8,0-8.7,3.9-8.7,8.7c0,4.8,3.9,8.7,8.7,8.7c4.8,0,8.7-3.9,8.7-8.7C467,67.5,463.1,63.6,458.3,63.6z
					 M458.3,77.9c-3.1,0-5.6-2.5-5.6-5.6c0-3.1,2.5-5.6,5.6-5.6c3.1,0,5.6,2.5,5.6,5.6C463.9,75.4,461.4,77.9,458.3,77.9z"/>
				<path d="M465.3,90h-14.1c-5.9,0-10.6-4.8-10.6-10.6V65.2c0-5.9,4.8-10.6,10.6-10.6h14.1c5.9,0,10.6,4.8,10.6,10.6v14.1
					C475.9,85.2,471.1,90,465.3,90z M451.1,57.9c-4,0-7.3,3.3-7.3,7.3v14.1c0,4,3.3,7.3,7.3,7.3h14.1c4,0,7.3-3.3,7.3-7.3V65.2
					c0-4-3.3-7.3-7.3-7.3H451.1z"/>
			</g>
		</g>
		<path d="M466.4,19.9l1-6.4h-6.1V9.3c0-1.8,0.9-3.5,3.6-3.5h2.8V0.4c0,0-2.5-0.4-5-0.4c-5.1,0-8.4,3.1-8.4,8.6v4.9h-5.6v6.4h5.6
			v15.5h6.9V19.9H466.4z"/>
		<path d="M479.5,113.4c-1.4,0.6-2.9,1-4.3,1.2c0.7-0.1,1.7-1.4,2.1-1.9c0.6-0.8,1.1-1.7,1.4-2.6c0-0.1,0.1-0.2,0-0.2
			c-0.1,0-0.2,0-0.2,0c-1.6,0.9-3.3,1.5-5.2,2c-0.1,0-0.3,0-0.4-0.1c-0.1-0.2-0.3-0.3-0.5-0.5c-0.8-0.6-1.6-1.2-2.5-1.5
			c-1.2-0.5-2.5-0.7-3.8-0.6c-1.3,0.1-2.5,0.4-3.6,1c-1.1,0.6-2.1,1.4-2.9,2.4c-0.8,1-1.4,2.2-1.7,3.5c-0.3,1.2-0.3,2.5-0.1,3.7
			c0,0.2,0,0.2-0.2,0.2c-7.1-1.1-12.9-3.6-17.7-9c-0.2-0.2-0.3-0.2-0.5,0c-2.1,3.1-1.1,8.1,1.5,10.6c0.3,0.3,0.7,0.7,1.1,1
			c-0.1,0-1.9-0.2-3.4-1c-0.2-0.1-0.3-0.1-0.3,0.2c0,0.3,0,0.6,0.1,1c0.4,3.2,2.6,6.1,5.6,7.2c0.4,0.2,0.8,0.3,1.1,0.3
			c-0.7,0.2-1.4,0.3-3.4,0.1c-0.2,0-0.3,0.1-0.2,0.3c1.5,4,4.7,5.2,7,5.9c0.3,0.1,0.6,0.1,1,0.1c0,0,0,0-0.1,0.1
			c-0.8,1.2-3.5,2.1-4.8,2.5c-2.3,0.8-4.9,1.2-7.3,0.9c-0.4-0.1-0.5-0.1-0.6,0c-0.1,0.1,0,0.2,0.1,0.3c0.5,0.3,1,0.6,1.5,0.9
			c1.6,0.8,3.2,1.5,4.9,2c8.8,2.4,18.7,0.6,25.2-5.9c5.2-5.1,7-12.2,7-19.3c0-0.3,0.3-0.4,0.5-0.6c1.3-1,2.4-2.2,3.4-3.6
			c0.2-0.3,0.2-0.6,0.2-0.7c0,0,0,0,0,0C479.7,113.3,479.7,113.3,479.5,113.4z"/>
		<path d="M473.6,232.6c-0.3,0-0.6,0-0.9,0c-3.2,0-6.3-1.6-8.1-4.4v14.8c0,6.1-4.9,11-11,11c-6.1,0-11-4.9-11-11c0-6.1,4.9-11,11-11
			l0,0c0.2,0,0.5,0,0.7,0v5.4c-0.2,0-0.4-0.1-0.7-0.1c-3.1,0-5.6,2.5-5.6,5.6c0,3.1,2.5,5.6,5.6,5.6c3.1,0,5.8-2.4,5.8-5.5l0.1-25.2
			h5.2c0.5,4.6,4.2,8.3,8.9,8.6L473.6,232.6"/>
		<path class="st2" d="M455.9,186.9c0,0.1-0.1,0.2-0.1,0.3c-1.3,5.1-1.4,6.2-2.8,8.6c-0.6,1.1-1.4,2.2-2.1,3.2
			c-0.1,0.1-0.2,0.3-0.4,0.2c-0.2,0-0.2-0.2-0.2-0.4c-0.2-1.5-0.3-3.1-0.3-4.7c0.1-2,0.3-2.7,2.9-13.8c0-0.2,0-0.3-0.1-0.5
			c-0.6-1.7-0.8-3.4-0.2-5.2c1.2-3.8,5.5-4.1,6.2-0.9c0.5,1.9-0.8,4.4-1.7,8.1c-0.8,3.1,2.8,5.2,5.9,3c2.8-2.1,3.9-7,3.7-10.5
			c-0.4-7-8.1-8.5-12.9-6.2c-5.6,2.6-6.8,9.5-4.3,12.6c0.3,0.4,0.6,0.6,0.5,1.1c-0.2,0.6-0.3,1.3-0.5,1.9c-0.1,0.5-0.5,0.6-1,0.4
			c-0.9-0.4-1.7-1-2.3-1.7c-2.1-2.6-2.7-7.9,0.1-12.3c3.1-4.9,9-6.9,14.3-6.3c6.3,0.7,10.4,5.1,11.1,10c0.3,2.2,0.1,7.8-3.1,11.7
			c-3.6,4.5-9.5,4.8-12.2,2C456.3,187.4,456.2,187.1,455.9,186.9z"/>
		<g>
			<path d="M440.5,308.4l2.5-9.5c-1.4-2.6-2.2-5.5-2.2-8.4c0-9.6,7.8-17.5,17.5-17.5c9.6,0,17.5,7.8,17.5,17.5
				c0,9.6-7.8,17.5-17.5,17.5c-2.9,0-5.7-0.7-8.3-2.1L440.5,308.4z M450.5,302.3l0.6,0.4c2.2,1.3,4.7,2,7.2,2
				c7.8,0,14.2-6.4,14.2-14.2c0-7.8-6.4-14.2-14.2-14.2c-7.8,0-14.2,6.4-14.2,14.2c0,2.6,0.7,5.1,2.1,7.3l0.4,0.6l-1.4,5.3
				L450.5,302.3z"/>
			<path class="st2" d="M464.9,292.9c-0.7-0.4-1.7-0.9-2.5-0.6c-0.6,0.3-1.1,1.3-1.5,1.8c-0.2,0.3-0.5,0.3-0.8,0.2
				c-2.4-1-4.3-2.6-5.7-4.8c-0.2-0.3-0.2-0.6,0.1-0.9c0.4-0.5,0.9-1,1-1.7c0.1-0.6-0.2-1.4-0.5-2c-0.3-0.7-0.7-1.8-1.5-2.2
				c-0.7-0.4-1.6-0.2-2.2,0.3c-1,0.8-1.5,2.2-1.5,3.5c0,0.4,0.1,0.7,0.1,1.1c0.2,0.9,0.6,1.7,1.1,2.4c0.3,0.6,0.7,1.1,1.1,1.7
				c1.3,1.8,2.9,3.3,4.8,4.5c0.9,0.6,2,1.1,3,1.4c1.2,0.4,2.2,0.8,3.5,0.6c1.3-0.3,2.6-1.1,3.2-2.4c0.2-0.4,0.2-0.8,0.1-1.2
				C466.7,293.8,465.5,293.3,464.9,292.9z"/>
		</g>
		<path d="M476.2,340.6c0-4.4-3.5-7.9-7.9-7.9h-20.2c-4.4,0-7.9,3.5-7.9,7.9v9.4c0,4.4,3.5,7.9,7.9,7.9h20.2c4.4,0,7.9-3.5,7.9-7.9
			V340.6z M464.3,346l-9,4.5c-0.4,0.2-1.6-0.1-1.6-0.5v-9.2c0-0.4,1.2-0.7,1.6-0.5l8.7,4.7C464.3,345.2,464.7,345.8,464.3,346z"/>
	</g>
	<g>
		<path class="st3" d="M-225.5,17.5c2.8-1.8,4.7-5,4.7-8.5c0-5.6-4.6-10.2-10.2-10.2s-10.2,4.6-10.2,10.2c0,3.6,1.9,6.7,4.7,8.5
			c-5.8,2.2-9.9,7.8-9.9,14.3c0,2.8,2.2,5,5,5h20.7c2.8,0,5-2.2,5-5C-215.6,25.3-219.7,19.7-225.5,17.5z M-238.5,8.9
			c0-4.2,3.4-7.5,7.5-7.5c4.2,0,7.5,3.4,7.5,7.5c0,4.2-3.4,7.5-7.5,7.5C-235.1,16.5-238.5,13.1-238.5,8.9z M-220.6,34.1h-20.7
			c-1.3,0-2.4-1.1-2.4-2.4c0-7,5.7-12.7,12.7-12.7c7,0,12.7,5.7,12.7,12.7C-218.2,33.1-219.3,34.1-220.6,34.1z"/>
		<g>
			<path class="st4" d="M-223.2,53.1h-15.5c-3.1,0-5.7,2.5-5.7,5.7v27c0,3.1,2.6,5.7,5.7,5.7h15.5c3.1,0,5.7-2.6,5.7-5.7v-27
				C-217.5,55.7-220,53.1-223.2,53.1z M-238.7,55.8h15.5c1.7,0,3.1,1.4,3.1,3.1v21.7h-21.6V58.8C-241.7,57.1-240.4,55.8-238.7,55.8z
				 M-223.2,88.9h-15.5c-1.7,0-3.1-1.4-3.1-3.1v-2.8h21.6v2.8C-220.1,87.6-221.5,88.9-223.2,88.9z"/>
			<circle class="st4" cx="-231.3" cy="58.5" r="1"/>
			<circle class="st4" cx="-231.3" cy="85.8" r="1"/>
		</g>
		<path class="st5" d="M-212.3,126.1l-14-16.1c-1.2-1.3-2.9-2.1-4.6-2.1c-1.8,0-3.5,0.8-4.6,2.1l-14,16.1c-0.3,0.4-0.4,0.9-0.2,1.4
			c0.2,0.5,0.7,0.8,1.2,0.8h2.4v16.4c0,0.7,0.6,1.3,1.3,1.3h28c0.7,0,1.3-0.6,1.3-1.3v-16.4h2.4c0.5,0,1-0.3,1.2-0.8
			C-211.8,127-211.9,126.5-212.3,126.1z M-233.6,111.7c0.7-0.8,1.6-1.2,2.7-1.2c1,0,2,0.4,2.7,1.2l12.2,13.9h-29.6L-233.6,111.7z
			 M-218.3,143.3h-25.3v-15.1h25.3V143.3z"/>
		<path class="st6" d="M-217.4,166.6h-27c-3,0-5.5,2.5-5.5,5.5V191c0,3,2.5,5.5,5.5,5.5h27c3,0,5.5-2.5,5.5-5.5v-18.9
			C-211.9,169-214.4,166.6-217.4,166.6z M-217.4,169.2c0.2,0,0.4,0,0.7,0.1l-11.4,12.9c-0.7,0.8-1.7,1.2-2.8,1.2
			c-1.1,0-2.1-0.5-2.8-1.2l-11.4-12.9c0.2,0,0.4-0.1,0.7-0.1H-217.4z M-214.6,191c0,1.6-1.3,2.9-2.9,2.9h-27c-1.6,0-2.9-1.3-2.9-2.9
			v-18.9c0-0.4,0.1-0.8,0.2-1.1l11.4,13c1.2,1.4,2.9,2.1,4.7,2.1c1.8,0,3.5-0.8,4.7-2.1l11.4-13c0.1,0.3,0.2,0.7,0.2,1.1V191z"/>
		<path class="st7" d="M-216.9,235.9l-25-18.2c-0.9-0.6-2-0.7-3-0.2c-1,0.5-1.5,1.5-1.5,2.5l0,31c0,1.2,0.6,2.3,1.6,2.9
			c0.5,0.3,1.2,0.5,1.8,0.5c0.5,0,1.1-0.1,1.5-0.4c0.1-0.1,0.3-0.2,0.4-0.3l8.5-9.2l5.1,10c0.2,0.5,0.7,0.7,1.2,0.7
			c0.2,0,0.4,0,0.6-0.1c0.6-0.3,0.9-1.1,0.6-1.8l-5.1-10.1l12.5-1.3c0.2,0,0.3-0.1,0.5-0.1c1.1-0.5,1.8-1.6,1.8-2.8
			C-215.4,237.7-215.9,236.6-216.9,235.9z M-218.4,239.2l-13.9,1.5c-0.3,0-0.6,0.2-0.8,0.4l-9.7,10.5c-0.3,0.1-0.5,0-0.6-0.1
			c-0.1-0.1-0.4-0.3-0.4-0.7l0-31c0,0,0-0.1,0.1-0.2c0,0,0.1,0,0.1,0c0.1,0,0.1,0,0.1,0l25,18.2c0.3,0.2,0.3,0.6,0.3,0.7
			C-218.1,238.8-218.2,239-218.4,239.2z"/>
		<g>
			<g>
				<path class="st8" d="M-230.9,309.5L-230.9,309.5c-0.4,0-0.7-0.2-1-0.4c-0.6-0.6-13.7-14.8-13.7-22.6c0-8.1,6.6-14.7,14.7-14.7
					c8.1,0,14.7,6.6,14.7,14.7c0,7.8-13.1,22-13.7,22.6C-230.2,309.4-230.6,309.5-230.9,309.5z M-230.9,274.4c-6.6,0-12,5.4-12,12
					c0,5.2,8,15.2,12,19.8c4.1-4.6,12-14.6,12-19.8C-218.9,279.8-224.3,274.4-230.9,274.4z"/>
			</g>
			<g>
				<path class="st8" d="M-230.9,292.4c-3.6,0-6.6-3-6.6-6.6c0-3.6,3-6.6,6.6-6.6c3.6,0,6.6,3,6.6,6.6
					C-224.3,289.5-227.3,292.4-230.9,292.4z M-230.9,281.9c-2.2,0-4,1.8-4,4c0,2.2,1.8,4,4,4c2.2,0,4-1.8,4-4
					C-227,283.6-228.7,281.9-230.9,281.9z"/>
			</g>
		</g>
		<path class="st9" d="M-230.9,326.3c-10.5,0-19,8.5-19,19c0,10.5,8.5,19,19,19c10.5,0,19-8.5,19-19
			C-211.9,334.8-220.5,326.3-230.9,326.3z M-214.6,343.9h-7.1c-0.2-5.9-1.6-11-3.7-14.1C-219.5,332-215.1,337.4-214.6,343.9z
			 M-230.9,361.6c-3,0-6.3-6.1-6.5-15.1h13.1C-224.7,355.5-228,361.6-230.9,361.6z M-237.5,343.9c0.3-8.9,3.6-15.1,6.5-15.1
			c3,0,6.3,6.1,6.5,15.1H-237.5z M-236.4,329.8c-2.1,3.2-3.5,8.2-3.7,14.1h-7.1C-246.7,337.4-242.4,332-236.4,329.8z M-247.3,346.6
			h7.1c0.2,5.9,1.6,11,3.7,14.1C-242.4,358.6-246.7,353.1-247.3,346.6z M-225.4,360.7c2.1-3.2,3.5-8.2,3.7-14.1h7.1
			C-215.1,353.1-219.5,358.6-225.4,360.7z"/>
	</g>
	<g>
		<g>
			<g>
				<circle class="st3" cx="-166.8" cy="7.6" r="7.6"/>
			</g>
			<g>
				<path class="st3" d="M-166.8,17.8L-166.8,17.8c-7.7,0-14,6.3-14,14l0,0c0,2,1.6,3.7,3.7,3.7h20.7c2,0,3.7-1.6,3.7-3.7l0,0
					C-152.8,24-159.1,17.8-166.8,17.8z"/>
			</g>
		</g>
		<g>
			<path class="st4" d="M-154.7,80.5V58.8c0-2.4-2-4.4-4.4-4.4h-15.5c-2.4,0-4.4,2-4.4,4.4v21.7H-154.7z M-166.8,57.2
				c0.7,0,1.3,0.6,1.3,1.3c0,0.7-0.6,1.3-1.3,1.3c-0.7,0-1.3-0.6-1.3-1.3C-168.1,57.8-167.6,57.2-166.8,57.2z"/>
			<path class="st4" d="M-179,83.1v2.8c0,2.4,2,4.4,4.4,4.4h15.5c2.4,0,4.4-2,4.4-4.4v-2.8H-179z M-166.8,87.8
				c-0.7,0-1.3-0.6-1.3-1.3c0-0.7,0.6-1.3,1.3-1.3c0.7,0,1.3,0.6,1.3,1.3C-165.5,87.2-166.1,87.8-166.8,87.8z"/>
		</g>
		<g>
			<g>
				<path class="st5" d="M-170.5,110.9l-12.5,14.4c-0.6,0.7-0.1,1.7,0.8,1.7h3.7h25.7h1.4c0.9,0,1.4-1.1,0.8-1.7l-12.5-14.4
					C-165.1,108.7-168.5,108.7-170.5,110.9z"/>
			</g>
			<g>
				<path class="st5" d="M-152.9,129.6v14c0,0.6-0.5,1-1,1h-25.9c-0.6,0-1-0.5-1-1v-14H-152.9z"/>
			</g>
		</g>
		<g>
			<path class="st6" d="M-181.9,168.3l12.3,13.9c0.7,0.8,1.7,1.2,2.8,1.2c1.1,0,2.1-0.5,2.8-1.2l12.1-13.7c0.1-0.1,0.2-0.2,0.3-0.3
				c-0.5-0.2-1.1-0.4-1.7-0.4h-27C-180.9,167.9-181.5,168-181.9,168.3C-181.9,168.2-181.9,168.3-181.9,168.3z"/>
			<path class="st6" d="M-149.8,169.9c-0.1,0.1-0.1,0.3-0.2,0.4l-12.1,13.7c-1.2,1.4-2.9,2.1-4.7,2.1c-1.8,0-3.5-0.8-4.7-2.1
				l-12.3-13.9c0,0,0-0.1-0.1-0.1c-0.4,0.6-0.6,1.4-0.6,2.2V191c0,2.3,1.9,4.2,4.2,4.2h27c2.3,0,4.2-1.9,4.2-4.2v-18.9
				C-149.1,171.3-149.4,170.5-149.8,169.9z"/>
		</g>
		<path class="st7" d="M-153.5,236.3l-25-18.2c-1-0.7-2.4,0-2.4,1.2l0,31c0,1.6,1.6,2.6,3,1.9l8.8-9.6l5.7,11.3
			c0.2,0.5,0.7,0.7,1.2,0.7c0.2,0,0.4,0,0.6-0.1c0.6-0.3,0.9-1.1,0.6-1.8l-5.8-11.4l13-1.4C-152.4,239.1-152.3,237.2-153.5,236.3z"
			/>
		<g>
			<path class="st8" d="M-166.8,282.1c-2.2,0-4,1.8-4,4c0,2.2,1.8,4,4,4c2.2,0,4-1.8,4-4C-162.9,283.9-164.6,282.1-166.8,282.1z"/>
			<path class="st8" d="M-166.8,273.4c-7.4,0-13.4,6-13.4,13.4c0,6.3,9.7,17.7,12.6,20.9c0.4,0.5,1.1,0.5,1.6,0
				c2.9-3.2,12.6-14.6,12.6-20.9C-153.5,279.4-159.5,273.4-166.8,273.4z M-166.8,292.7c-3.6,0-6.6-3-6.6-6.6c0-3.6,3-6.6,6.6-6.6
				c3.6,0,6.6,3,6.6,6.6C-160.2,289.7-163.2,292.7-166.8,292.7z"/>
		</g>
		<g>
			<path class="st9" d="M-173.4,346.6c0.3,8.9,3.6,15.1,6.5,15.1c3,0,6.3-6.1,6.5-15.1H-173.4z"/>
			<path class="st9" d="M-166.8,328.9c-3,0-6.3,6.1-6.5,15.1h13.1C-160.6,335-163.9,328.9-166.8,328.9z"/>
			<path class="st9" d="M-157.7,343.9h8.5c-0.6-7.8-6.2-14.2-13.6-15.9C-159.9,330.8-157.9,336.7-157.7,343.9z"/>
			<path class="st9" d="M-157.7,346.6c-0.2,7.2-2.2,13.1-5.2,15.9c7.4-1.7,13.1-8.1,13.6-15.9H-157.7z"/>
			<path class="st9" d="M-176,346.6h-8.5c0.6,7.8,6.2,14.2,13.6,15.9C-173.8,359.7-175.8,353.8-176,346.6z"/>
			<path class="st9" d="M-176,343.9c0.2-7.2,2.2-13.1,5.2-15.9c-7.4,1.7-13.1,8.1-13.6,15.9H-176z"/>
		</g>
	</g>
	<g>
		<g>
			<circle class="st3" cx="-102.7" cy="17.8" r="17.7"/>
			<g>
				<g>
					<circle class="st0" cx="-102.7" cy="9.4" r="5"/>
				</g>
				<g>
					<path class="st0" d="M-102.7,16.2L-102.7,16.2c-5.2,0-9.3,4.2-9.3,9.3l0,0c0,1.4,1.1,2.5,2.5,2.5h13.8c1.4,0,2.5-1.1,2.5-2.5
						l0,0C-93.4,20.4-97.6,16.2-102.7,16.2z"/>
				</g>
			</g>
		</g>
		<g>
			<circle class="st4" cx="-102.7" cy="72.3" r="17.7"/>
			<g>
				<path class="st0" d="M-94.7,77.7V63.4c0-1.6-1.3-2.9-2.9-2.9h-10.2c-1.6,0-2.9,1.3-2.9,2.9v14.3H-94.7z M-102.7,62.3
					c0.5,0,0.9,0.4,0.9,0.9s-0.4,0.9-0.9,0.9c-0.5,0-0.9-0.4-0.9-0.9S-103.2,62.3-102.7,62.3z"/>
				<path class="st0" d="M-110.7,79.4v1.8c0,1.6,1.3,2.9,2.9,2.9h10.2c1.6,0,2.9-1.3,2.9-2.9v-1.8H-110.7z M-102.7,82.5
					c-0.5,0-0.9-0.4-0.9-0.9s0.4-0.9,0.9-0.9c0.5,0,0.9,0.4,0.9,0.9S-102.3,82.5-102.7,82.5z"/>
			</g>
		</g>
		<g>
			<circle class="st5" cx="-102.7" cy="126.9" r="17.7"/>
			<g>
				<g>
					<path class="st0" d="M-105.2,114.7l-8.3,9.6c-0.4,0.5-0.1,1.2,0.5,1.2h2.4h17.1h0.9c0.6,0,0.9-0.7,0.5-1.2l-8.3-9.6
						C-101.6,113.2-103.9,113.2-105.2,114.7z"/>
				</g>
				<g>
					<path class="st0" d="M-93.4,127.1v9.3c0,0.4-0.3,0.7-0.7,0.7h-17.2c-0.4,0-0.7-0.3-0.7-0.7v-9.3H-93.4z"/>
				</g>
			</g>
		</g>
		<g>
			<circle class="st6" cx="-102.7" cy="181.5" r="17.7"/>
			<g>
				<path class="st0" d="M-112.8,172.7l8.2,9.3c0.5,0.5,1.1,0.8,1.8,0.8c0.7,0,1.4-0.3,1.8-0.8l8.1-9.1c0.1-0.1,0.1-0.1,0.2-0.2
					c-0.3-0.1-0.7-0.2-1.1-0.2h-18C-112.1,172.4-112.5,172.5-112.8,172.7C-112.8,172.7-112.8,172.7-112.8,172.7z"/>
				<path class="st0" d="M-91.4,173.7c0,0.1-0.1,0.2-0.2,0.3l-8.1,9.1c-0.8,0.9-1.9,1.4-3.2,1.4c-1.2,0-2.4-0.5-3.2-1.4l-8.2-9.3
					c0,0,0,0,0-0.1c-0.3,0.4-0.4,0.9-0.4,1.4v12.6c0,1.5,1.2,2.8,2.8,2.8h18c1.5,0,2.8-1.2,2.8-2.8v-12.6
					C-90.9,174.7-91.1,174.2-91.4,173.7z"/>
			</g>
		</g>
		<g>
			<circle class="st7" cx="-102.7" cy="236.1" r="17.7"/>
			<path class="st0" d="M-92.3,236.2l-15.7-11.5c-0.6-0.5-1.5,0-1.5,0.8l0,19.5c0,1,1,1.6,1.9,1.2l5.5-6l3.6,7.1
				c0.1,0.3,0.4,0.5,0.7,0.5c0.1,0,0.3,0,0.4-0.1c0.4-0.2,0.6-0.7,0.4-1.1l-3.6-7.1l8.2-0.9C-91.6,238-91.5,236.8-92.3,236.2z"/>
		</g>
		<g>
			<circle class="st8" cx="-102.7" cy="290.7" r="17.7"/>
			<g>
				<path class="st0" d="M-102.7,278.9c-5,0-9.1,4.1-9.1,9.1c0,4.3,6.6,12.1,8.6,14.3c0.3,0.3,0.8,0.3,1.1,0c2-2.2,8.6-10,8.6-14.3
					C-93.6,283-97.7,278.9-102.7,278.9z M-102.7,292.1c-2.5,0-4.5-2-4.5-4.5c0-2.5,2-4.5,4.5-4.5c2.5,0,4.5,2,4.5,4.5
					C-98.2,290-100.2,292.1-102.7,292.1z"/>
			</g>
		</g>
		<g>
			<circle class="st9" cx="-102.7" cy="345.3" r="17.7"/>
			<g>
				<path class="st0" d="M-107.1,346.1c0.2,6,2.4,10.1,4.4,10.1c2,0,4.2-4.1,4.4-10.1H-107.1z"/>
				<path class="st0" d="M-102.7,334.3c-2,0-4.2,4.1-4.4,10.1h8.8C-98.5,338.4-100.7,334.3-102.7,334.3z"/>
				<path class="st0" d="M-96.6,344.4h5.7c-0.4-5.2-4.1-9.5-9.1-10.7C-98.1,335.6-96.7,339.5-96.6,344.4z"/>
				<path class="st0" d="M-96.6,346.1c-0.1,4.8-1.5,8.8-3.5,10.7c5-1.2,8.7-5.4,9.1-10.7H-96.6z"/>
				<path class="st0" d="M-108.9,346.1h-5.7c0.4,5.2,4.1,9.5,9.1,10.7C-107.4,354.9-108.7,351-108.9,346.1z"/>
				<path class="st0" d="M-108.9,344.4c0.1-4.8,1.5-8.8,3.5-10.7c-5,1.2-8.7,5.4-9.1,10.7H-108.9z"/>
			</g>
		</g>
	</g>
	<g>
		<g>
			<circle class="st9" cx="73.6" cy="126.9" r="17.7"/>
			<path class="st0" d="M83.4,120.9c-0.6,0.3-1.3,0.4-2,0.6c0.3-0.1,0.8-0.6,1-0.9c0.3-0.4,0.5-0.7,0.6-1.2c0,0,0-0.1,0-0.1
				c0,0-0.1,0-0.1,0c-0.7,0.4-1.5,0.7-2.3,0.9c-0.1,0-0.1,0-0.2,0c-0.1-0.1-0.1-0.1-0.2-0.2c-0.3-0.3-0.7-0.5-1.1-0.7
				c-0.5-0.2-1.1-0.3-1.7-0.3c-0.6,0-1.1,0.2-1.6,0.5c-0.5,0.3-1,0.6-1.3,1.1c-0.4,0.5-0.6,1-0.8,1.6c-0.1,0.6-0.1,1.1,0,1.7
				c0,0.1,0,0.1-0.1,0.1c-3.2-0.5-5.8-1.6-7.9-4c-0.1-0.1-0.1-0.1-0.2,0c-0.9,1.4-0.5,3.7,0.7,4.8c0.2,0.1,0.3,0.3,0.5,0.4
				c-0.1,0-0.8-0.1-1.5-0.4c-0.1-0.1-0.1,0-0.1,0.1c0,0.2,0,0.3,0,0.5c0.2,1.4,1.2,2.7,2.5,3.2c0.2,0.1,0.3,0.1,0.5,0.2
				c-0.3,0.1-0.6,0.1-1.5,0c-0.1,0-0.2,0-0.1,0.1c0.7,1.8,2.1,2.3,3.2,2.6c0.1,0,0.3,0,0.4,0.1c0,0,0,0,0,0
				c-0.4,0.5-1.6,0.9-2.2,1.1c-1,0.4-2.2,0.5-3.3,0.4c-0.2,0-0.2,0-0.3,0c0,0,0,0.1,0.1,0.1c0.2,0.1,0.5,0.3,0.7,0.4
				c0.7,0.4,1.4,0.7,2.2,0.9c3.9,1.1,8.4,0.3,11.3-2.6c2.3-2.3,3.1-5.5,3.1-8.7c0-0.1,0.1-0.2,0.2-0.3c0.6-0.5,1.1-1,1.5-1.6
				C83.4,121.1,83.4,120.9,83.4,120.9C83.4,120.9,83.4,120.9,83.4,120.9C83.4,120.8,83.4,120.8,83.4,120.9z"/>
		</g>
		<g>
			<linearGradient id="SVGID_1_" gradientUnits="userSpaceOnUse" x1="57.0062" y1="58.35" x2="92.3808" y2="88.2273">
				<stop  offset="1.104800e-003" style="stop-color:#FBE18A"/>
				<stop  offset="0.2094" style="stop-color:#FCBB45"/>
				<stop  offset="0.3765" style="stop-color:#F75274"/>
				<stop  offset="0.5238" style="stop-color:#D53692"/>
				<stop  offset="0.7394" style="stop-color:#8F39CE"/>
				<stop  offset="1" style="stop-color:#5B4FE9"/>
			</linearGradient>
			<circle class="st10" cx="73.6" cy="72.3" r="17.7"/>
			<g>
				<g>
					<circle class="st0" cx="79.1" cy="66.9" r="1.2"/>
					<path class="st0" d="M73.7,67.2c-2.8,0-5.1,2.3-5.1,5.1c0,2.8,2.3,5.1,5.1,5.1s5.1-2.3,5.1-5.1C78.8,69.5,76.5,67.2,73.7,67.2z
						 M73.7,75.6c-1.8,0-3.3-1.5-3.3-3.3c0-1.8,1.5-3.3,3.3-3.3s3.3,1.5,3.3,3.3C76.9,74.1,75.5,75.6,73.7,75.6z"/>
					<path class="st0" d="M77.7,82.7h-8.3c-3.4,0-6.2-2.8-6.2-6.2v-8.3c0-3.4,2.8-6.2,6.2-6.2h8.3c3.4,0,6.2,2.8,6.2,6.2v8.3
						C83.9,79.9,81.2,82.7,77.7,82.7z M69.4,63.9c-2.4,0-4.3,1.9-4.3,4.3v8.3c0,2.4,1.9,4.3,4.3,4.3h8.3c2.4,0,4.3-1.9,4.3-4.3v-8.3
						c0-2.4-1.9-4.3-4.3-4.3H69.4z"/>
				</g>
			</g>
		</g>
		<g>
			<g>
				<path class="st11" d="M91.3,17.8c0-9.8-7.9-17.7-17.7-17.7S55.9,8,55.9,17.8c0,8.8,6.5,16.1,14.9,17.5V22.9h-4.5v-5.1h4.5v-3.9
					c0-4.4,2.6-6.9,6.7-6.9c1.9,0,4,0.3,4,0.3v4.4h-2.2c-2.2,0-2.9,1.4-2.9,2.8v3.3h4.9l-0.8,5.1h-4.1v12.4
					C84.8,33.9,91.3,26.6,91.3,17.8z"/>
				<path class="st0" d="M80.5,22.9l0.8-5.1h-4.9v-3.3c0-1.4,0.7-2.8,2.9-2.8h2.2V7.3c0,0-2-0.3-4-0.3c-4,0-6.7,2.4-6.7,6.9v3.9
					h-4.5v5.1h4.5v12.4c0.9,0.1,1.8,0.2,2.8,0.2s1.9-0.1,2.8-0.2V22.9H80.5z"/>
			</g>
		</g>
		<g>
			<circle cx="73.6" cy="236.1" r="17.7"/>
			<g>
				<path class="st12" d="M78.2,233c1.4,1,3.2,1.6,5.1,1.6V231c-0.4,0-0.7,0-1.1-0.1v2.9c-1.9,0-3.7-0.6-5.1-1.6v7.4
					c0,3.7-3,6.7-6.7,6.7c-1.4,0-2.7-0.4-3.8-1.1c1.2,1.3,2.9,2,4.8,2c3.7,0,6.7-3,6.7-6.7L78.2,233L78.2,233z M79.5,229.4
					c-0.7-0.8-1.2-1.8-1.3-3v-0.5h-1C77.5,227.4,78.3,228.6,79.5,229.4L79.5,229.4z M69,242.4c-0.4-0.5-0.6-1.2-0.6-1.9
					c0-1.7,1.4-3.1,3.1-3.1c0.3,0,0.6,0,0.9,0.1v-3.7c-0.4,0-0.7-0.1-1.1-0.1v2.9c-0.3-0.1-0.6-0.1-0.9-0.1c-1.7,0-3.1,1.4-3.1,3.1
					C67.3,240.8,68,241.8,69,242.4z"/>
				<path class="st1" d="M77.2,232.2c1.4,1,3.2,1.6,5.1,1.6v-2.9c-1.1-0.2-2-0.8-2.7-1.5c-1.2-0.8-2.1-2-2.3-3.4h-2.7v14.6
					c0,1.7-1.4,3.1-3.1,3.1c-1,0-1.9-0.5-2.5-1.2c-1-0.5-1.7-1.6-1.7-2.8c0-1.7,1.4-3.1,3.1-3.1c0.3,0,0.6,0.1,0.9,0.1v-2.9
					c-3.7,0.1-6.6,3.1-6.6,6.7c0,1.8,0.7,3.5,1.9,4.7c1.1,0.7,2.4,1.1,3.8,1.1c3.7,0,6.7-3,6.7-6.7V232.2z"/>
				<path class="st13" d="M82.2,230.9v-0.8c-1,0-1.9-0.3-2.7-0.8C80.3,230.2,81.2,230.7,82.2,230.9z M77.2,225.9
					c0-0.1,0-0.3-0.1-0.4V225h-3.7v14.6c0,1.7-1.4,3.1-3.1,3.1c-0.5,0-1-0.1-1.4-0.3c0.6,0.7,1.5,1.2,2.5,1.2c1.7,0,3.1-1.4,3.1-3.1
					v-14.6H77.2z M71.3,233.8v-0.8c-0.3,0-0.6-0.1-0.9-0.1c-3.7,0-6.7,3-6.7,6.7c0,2.3,1.2,4.4,3,5.6c-1.2-1.2-1.9-2.9-1.9-4.7
					C64.7,236.8,67.7,233.8,71.3,233.8L71.3,233.8z"/>
			</g>
		</g>
		<g>
			<path class="st8" d="M73.6,163.8c-9.8,0-17.7,7.9-17.7,17.7c0,7.2,4.3,13.4,10.5,16.1c0-0.5,0-1,0-1.5c0.1-1.7,0.3-2.3,2.5-11.6
				c0-0.1,0-0.3-0.1-0.4c-0.5-1.4-0.6-2.9-0.2-4.4c1-3.2,4.6-3.4,5.2-0.8c0.4,1.6-0.6,3.7-1.4,6.9c-0.7,2.6,2.4,4.4,5,2.5
				c2.4-1.7,3.3-5.9,3.2-8.9c-0.3-5.9-6.8-7.2-10.9-5.3c-4.7,2.2-5.8,8-3.7,10.7c0.3,0.3,0.5,0.5,0.4,0.9c-0.1,0.5-0.3,1.1-0.4,1.6
				c-0.1,0.4-0.4,0.5-0.8,0.4c-0.8-0.3-1.4-0.8-2-1.5c-1.8-2.2-2.3-6.7,0.1-10.4c2.6-4.2,7.6-5.8,12.1-5.3c5.4,0.6,8.8,4.3,9.4,8.4
				c0.3,1.9,0.1,6.6-2.6,9.9c-3.1,3.8-8,4-10.3,1.7c-0.2-0.2-0.3-0.4-0.5-0.6c0,0.1,0,0.2-0.1,0.2c-1.1,4.3-1.2,5.3-2.4,7.3
				c-0.2,0.3-0.4,0.6-0.6,0.9c1.7,0.5,3.4,0.8,5.3,0.8c9.8,0,17.7-7.9,17.7-17.7C91.3,171.7,83.3,163.8,73.6,163.8z"/>
			<path class="st0" d="M71.2,190.2c0-0.1,0-0.1,0.1-0.2c0.2,0.2,0.3,0.4,0.5,0.6c2.3,2.3,7.3,2.1,10.3-1.7c2.7-3.3,2.9-8,2.6-9.9
				c-0.6-4.2-4-7.8-9.4-8.4c-4.5-0.5-9.4,1.2-12.1,5.3c-2.4,3.7-1.9,8.2-0.1,10.4c0.5,0.7,1.2,1.2,2,1.5c0.4,0.2,0.7,0,0.8-0.4
				c0.1-0.5,0.3-1.1,0.4-1.6c0.1-0.3-0.1-0.6-0.4-0.9c-2.1-2.7-1.1-8.5,3.7-10.7c4.1-1.9,10.6-0.6,10.9,5.3c0.2,3-0.8,7.1-3.2,8.9
				c-2.6,1.9-5.7,0-5-2.5c0.8-3.1,1.8-5.3,1.4-6.9c-0.6-2.6-4.2-2.4-5.2,0.8c-0.5,1.5-0.4,2.9,0.2,4.4c0,0.1,0.1,0.2,0.1,0.4
				c-2.2,9.3-2.4,9.9-2.5,11.6c0,0.5,0,1,0,1.5c0.6,0.3,1.3,0.5,2,0.8c0.2-0.3,0.4-0.6,0.6-0.9C70,195.5,70.1,194.6,71.2,190.2z"/>
		</g>
		<g>
			<circle class="st7" cx="73.6" cy="290.7" r="17.7"/>
			<path class="st0" d="M64,300.7l1.5-5.5c-0.8-1.5-1.3-3.2-1.3-4.9c0-5.6,4.6-10.2,10.2-10.2c5.6,0,10.2,4.6,10.2,10.2
				c0,5.6-4.6,10.2-10.2,10.2c-1.7,0-3.3-0.4-4.8-1.2L64,300.7z M69.8,297.1l0.3,0.2c1.3,0.8,2.7,1.2,4.2,1.2c4.5,0,8.2-3.7,8.2-8.2
				c0-4.5-3.7-8.2-8.2-8.2c-4.5,0-8.2,3.7-8.2,8.2c0,1.5,0.4,3,1.2,4.3l0.2,0.4l-0.8,3.1L69.8,297.1z"/>
			<path class="st1" d="M78.2,291.7c-0.4-0.3-1-0.5-1.5-0.3c-0.4,0.2-0.6,0.7-0.9,1c-0.1,0.2-0.3,0.2-0.5,0.1
				c-1.4-0.6-2.5-1.5-3.3-2.8c-0.1-0.2-0.1-0.4,0.1-0.6c0.2-0.3,0.5-0.6,0.6-1c0.1-0.4-0.1-0.8-0.3-1.1c-0.2-0.4-0.4-1-0.8-1.3
				c-0.4-0.2-0.9-0.1-1.3,0.2c-0.6,0.5-0.9,1.3-0.9,2c0,0.2,0,0.4,0.1,0.6c0.1,0.5,0.4,1,0.6,1.4c0.2,0.3,0.4,0.7,0.6,1
				c0.8,1,1.7,1.9,2.8,2.6c0.5,0.3,1.1,0.6,1.7,0.8c0.7,0.2,1.3,0.5,2,0.3c0.8-0.1,1.5-0.6,1.8-1.4c0.1-0.2,0.1-0.5,0.1-0.7
				C79.2,292.2,78.6,291.9,78.2,291.7z"/>
		</g>
		<g>
			<circle class="st8" cx="73.6" cy="345.3" r="17.7"/>
			<path class="st0" d="M83,342.7c0-2.3-1.9-4.2-4.2-4.2H67.9c-2.3,0-4.2,1.9-4.2,4.2v5.1c0,2.3,1.9,4.2,4.2,4.2h10.9
				c2.3,0,4.2-1.9,4.2-4.2V342.7z M76.7,345.6l-4.9,2.4c-0.2,0.1-0.8,0-0.8-0.3v-4.9c0-0.2,0.7-0.4,0.8-0.2l4.7,2.5
				C76.7,345.2,76.9,345.5,76.7,345.6z"/>
		</g>
	</g>
	<g>
		<g>
			<linearGradient id="SVGID_2_" gradientUnits="userSpaceOnUse" x1="2.6337" y1="47.4717" x2="34.7218" y2="78.1854">
				<stop  offset="1.104800e-003" style="stop-color:#FBE18A"/>
				<stop  offset="0.2094" style="stop-color:#FCBB45"/>
				<stop  offset="0.3765" style="stop-color:#F75274"/>
				<stop  offset="0.5238" style="stop-color:#D53692"/>
				<stop  offset="0.7394" style="stop-color:#8F39CE"/>
				<stop  offset="1" style="stop-color:#5B4FE9"/>
			</linearGradient>
			<circle class="st14" cx="18.8" cy="63" r="2.1"/>
			<linearGradient id="SVGID_3_" gradientUnits="userSpaceOnUse" x1="-6.4205" y1="56.9311" x2="25.6676" y2="87.6448">
				<stop  offset="1.104800e-003" style="stop-color:#FBE18A"/>
				<stop  offset="0.2094" style="stop-color:#FCBB45"/>
				<stop  offset="0.3765" style="stop-color:#F75274"/>
				<stop  offset="0.5238" style="stop-color:#D53692"/>
				<stop  offset="0.7394" style="stop-color:#8F39CE"/>
				<stop  offset="1" style="stop-color:#5B4FE9"/>
			</linearGradient>
			<path class="st15" d="M9.6,63.6c-4.8,0-8.7,3.9-8.7,8.7c0,4.8,3.9,8.7,8.7,8.7c4.8,0,8.7-3.9,8.7-8.7
				C18.3,67.5,14.4,63.6,9.6,63.6z M9.6,77.9c-3.1,0-5.6-2.5-5.6-5.6c0-3.1,2.5-5.6,5.6-5.6c3.1,0,5.6,2.5,5.6,5.6
				C15.2,75.4,12.7,77.9,9.6,77.9z"/>
			<linearGradient id="SVGID_4_" gradientUnits="userSpaceOnUse" x1="-6.49" y1="57.0038" x2="25.5979" y2="87.7172">
				<stop  offset="1.104800e-003" style="stop-color:#FBE18A"/>
				<stop  offset="0.2094" style="stop-color:#FCBB45"/>
				<stop  offset="0.3765" style="stop-color:#F75274"/>
				<stop  offset="0.5238" style="stop-color:#D53692"/>
				<stop  offset="0.7394" style="stop-color:#8F39CE"/>
				<stop  offset="1" style="stop-color:#5B4FE9"/>
			</linearGradient>
			<path class="st16" d="M16.5,90H2.4c-5.9,0-10.6-4.8-10.6-10.6V65.2c0-5.9,4.8-10.6,10.6-10.6h14.1c5.9,0,10.6,4.8,10.6,10.6v14.1
				C27.2,85.2,22.4,90,16.5,90z M2.4,57.9c-4,0-7.3,3.3-7.3,7.3v14.1c0,4,3.3,7.3,7.3,7.3h14.1c4,0,7.3-3.3,7.3-7.3V65.2
				c0-4-3.3-7.3-7.3-7.3H2.4z"/>
		</g>
	</g>
	<path class="st11" d="M17.7,19.9l1-6.4h-6.1V9.3c0-1.8,0.9-3.5,3.6-3.5H19V0.4c0,0-2.5-0.4-5-0.4C8.9,0,5.6,3.1,5.6,8.6v4.9H0v6.4
		h5.6v15.5h6.9V19.9H17.7z"/>
	<path class="st9" d="M30.8,113.4c-1.4,0.6-2.9,1-4.3,1.2c0.7-0.1,1.7-1.4,2.1-1.9c0.6-0.8,1.1-1.7,1.4-2.6c0-0.1,0.1-0.2,0-0.2
		c-0.1,0-0.2,0-0.2,0c-1.6,0.9-3.3,1.5-5.2,2c-0.1,0-0.3,0-0.4-0.1c-0.1-0.2-0.3-0.3-0.5-0.5c-0.8-0.6-1.6-1.2-2.5-1.5
		c-1.2-0.5-2.5-0.7-3.8-0.6c-1.3,0.1-2.5,0.4-3.6,1c-1.1,0.6-2.1,1.4-2.9,2.4c-0.8,1-1.4,2.2-1.8,3.5c-0.3,1.2-0.3,2.5-0.1,3.7
		c0,0.2,0,0.2-0.2,0.2C1.8,119-4,116.5-8.8,111c-0.2-0.2-0.3-0.2-0.5,0c-2.1,3.1-1.1,8.1,1.5,10.6c0.3,0.3,0.7,0.7,1.1,1
		c-0.1,0-1.9-0.2-3.4-1c-0.2-0.1-0.3-0.1-0.3,0.2c0,0.3,0,0.6,0.1,1c0.4,3.2,2.6,6.1,5.6,7.2c0.4,0.2,0.8,0.3,1.1,0.3
		c-0.7,0.2-1.4,0.3-3.4,0.1c-0.2,0-0.3,0.1-0.2,0.3c1.5,4,4.7,5.2,7,5.9c0.3,0.1,0.6,0.1,1,0.1c0,0,0,0-0.1,0.1
		c-0.8,1.2-3.5,2.1-4.8,2.5c-2.3,0.8-4.9,1.2-7.3,0.9c-0.4-0.1-0.5-0.1-0.6,0c-0.1,0.1,0,0.2,0.1,0.3c0.5,0.3,1,0.6,1.5,0.9
		c1.6,0.8,3.2,1.5,4.9,2c8.8,2.4,18.7,0.6,25.2-5.9c5.2-5.1,7-12.2,7-19.3c0-0.3,0.3-0.4,0.5-0.6c1.3-1,2.4-2.2,3.4-3.6
		c0.2-0.3,0.2-0.6,0.2-0.7c0,0,0,0,0,0C31,113.3,31,113.3,30.8,113.4z"/>
	<path class="st17" d="M7.2,186.9c0,0.1-0.1,0.2-0.1,0.3c-1.3,5.1-1.4,6.2-2.8,8.6c-0.6,1.1-1.4,2.2-2.1,3.2
		c-0.1,0.1-0.2,0.3-0.4,0.2c-0.2,0-0.2-0.2-0.2-0.4c-0.2-1.5-0.3-3.1-0.3-4.7c0.1-2,0.3-2.7,2.9-13.8c0-0.2,0-0.3-0.1-0.5
		c-0.6-1.7-0.8-3.4-0.2-5.2c1.2-3.8,5.5-4.1,6.2-0.9c0.5,1.9-0.8,4.4-1.7,8.1c-0.8,3.1,2.8,5.2,5.9,3c2.8-2.1,3.9-7,3.7-10.5
		c-0.4-7-8.1-8.5-12.9-6.2c-5.6,2.6-6.8,9.5-4.3,12.6c0.3,0.4,0.6,0.6,0.5,1.1c-0.2,0.6-0.3,1.3-0.5,1.9c-0.1,0.5-0.5,0.6-1,0.4
		c-0.9-0.4-1.7-1-2.3-1.7c-2.1-2.6-2.7-7.9,0.1-12.3c3.1-4.9,9-6.9,14.3-6.3c6.3,0.7,10.4,5.1,11.1,10c0.3,2.2,0.1,7.8-3.1,11.7
		c-3.6,4.5-9.5,4.8-12.2,2C7.6,187.4,7.4,187.1,7.2,186.9z"/>
	<g>
		<path class="st7" d="M-8.2,308.4l2.5-9.5c-1.4-2.6-2.2-5.5-2.2-8.4c0-9.6,7.8-17.5,17.5-17.5c9.6,0,17.5,7.8,17.5,17.5
			c0,9.6-7.8,17.5-17.5,17.5c-2.9,0-5.7-0.7-8.3-2.1L-8.2,308.4z M1.8,302.3l0.6,0.4c2.2,1.3,4.7,2,7.2,2c7.8,0,14.2-6.4,14.2-14.2
			c0-7.8-6.4-14.2-14.2-14.2c-7.8,0-14.2,6.4-14.2,14.2c0,2.6,0.7,5.1,2.1,7.3l0.4,0.6l-1.4,5.3L1.8,302.3z"/>
		<path class="st18" d="M16.1,292.9c-0.7-0.4-1.7-0.9-2.5-0.6c-0.7,0.3-1.1,1.3-1.5,1.8c-0.2,0.3-0.5,0.3-0.8,0.2
			c-2.4-1-4.3-2.6-5.7-4.8c-0.2-0.3-0.2-0.6,0.1-0.9c0.4-0.5,0.9-1,1-1.7c0.1-0.6-0.2-1.4-0.5-2c-0.3-0.7-0.7-1.8-1.5-2.2
			c-0.7-0.4-1.6-0.2-2.2,0.3c-1,0.8-1.5,2.2-1.5,3.5c0,0.4,0.1,0.7,0.1,1.1c0.2,0.9,0.6,1.7,1.1,2.4c0.3,0.6,0.7,1.1,1.1,1.7
			c1.3,1.8,2.9,3.3,4.8,4.5c0.9,0.6,2,1.1,3,1.4c1.2,0.4,2.2,0.8,3.5,0.6c1.3-0.3,2.6-1.1,3.2-2.4c0.2-0.4,0.2-0.8,0.1-1.2
			C17.9,293.8,16.8,293.3,16.1,292.9z"/>
	</g>
	<path class="st8" d="M27.5,340.6c0-4.4-3.5-7.9-7.9-7.9H-0.6c-4.4,0-7.9,3.5-7.9,7.9v9.4c0,4.4,3.5,7.9,7.9,7.9h20.2
		c4.4,0,7.9-3.5,7.9-7.9V340.6z M15.6,346l-9,4.5C6.2,350.6,5,350.4,5,350v-9.2c0-0.4,1.2-0.7,1.6-0.5l8.7,4.7
		C15.6,345.2,16,345.8,15.6,346z"/>
	<g>
		<path class="st12" d="M17.3,230.9c2.4,1.7,5.3,2.7,8.5,2.7v-6.1c-0.6,0-1.2-0.1-1.8-0.2v4.8c-3.2,0-6.1-1-8.5-2.7v12.4
			c0,6.2-5,11.2-11.2,11.2c-2.3,0-4.5-0.7-6.2-1.9c2,2.1,4.9,3.4,8,3.4c6.2,0,11.2-5,11.2-11.2L17.3,230.9L17.3,230.9z M19.5,224.8
			c-1.2-1.3-2-3-2.2-4.9v-0.8h-1.7C16.1,221.5,17.5,223.6,19.5,224.8L19.5,224.8z M2,246.4c-0.7-0.9-1-2-1-3.1
			c0-2.8,2.3-5.1,5.1-5.1c0.5,0,1.1,0.1,1.6,0.2v-6.2c-0.6-0.1-1.2-0.1-1.8-0.1v4.8c-0.5-0.2-1-0.2-1.6-0.2c-2.8,0-5.1,2.3-5.1,5.1
			C-0.8,243.8,0.4,245.6,2,246.4z"/>
		<path class="st2" d="M15.6,229.5c2.4,1.7,5.3,2.7,8.5,2.7v-4.8c-1.8-0.4-3.3-1.3-4.5-2.6c-2-1.3-3.4-3.3-3.9-5.7h-4.4v24.2
			c0,2.8-2.3,5.1-5.1,5.1c-1.7,0-3.1-0.8-4.1-2c-1.7-0.8-2.8-2.6-2.8-4.6c0-2.8,2.3-5.1,5.1-5.1c0.5,0,1.1,0.1,1.6,0.2v-4.8
			c-6.1,0.1-11,5.1-11,11.2c0,3.1,1.2,5.8,3.2,7.8c1.8,1.2,3.9,1.9,6.2,1.9c6.2,0,11.2-5,11.2-11.2V229.5z"/>
		<path class="st13" d="M24,227.4v-1.3c-1.6,0-3.1-0.4-4.5-1.3C20.7,226.1,22.3,227,24,227.4z M15.7,219.1c0-0.2-0.1-0.5-0.1-0.7
			v-0.8H9.5v24.2c0,2.8-2.3,5.1-5.1,5.1c-0.8,0-1.6-0.2-2.3-0.5c0.9,1.2,2.4,2,4.1,2c2.8,0,5.1-2.3,5.1-5.1v-24.2H15.7z M5.9,232.1
			v-1.4c-0.5-0.1-1-0.1-1.5-0.1c-6.2,0-11.2,5-11.2,11.2c0,3.9,2,7.3,5,9.3c-2-2-3.2-4.8-3.2-7.8C-5.1,237.2-0.2,232.2,5.9,232.1
			L5.9,232.1z"/>
	</g>
	<line class="st19" x1="144.6" y1="-1.2" x2="144.6" y2="362.9"/>
	<line class="st20" x1="-46.9" y1="-1.2" x2="-46.9" y2="364.3"/>
	<line class="st20" x1="401.8" y1="-1.2" x2="401.8" y2="364.3"/>
</g>
<g id="TEXT">
	<text transform="matrix(1 0 0 1 -126.8612 -38.6572)"><tspan x="0" y="0" style="font-family:'Montserrat-Bold'; font-size:12px; letter-spacing:4;">Icons</tspan><tspan x="64.2" y="0" style="fill:#808080; font-family:'Montserrat-Bold'; font-size:12px; letter-spacing:4;"> &amp; </tspan><tspan x="94.1" y="0" style="font-family:'Montserrat-Bold'; font-size:12px; letter-spacing:4;">Social Media Logos</tspan><tspan x="321.2" y="0" style="fill:#808080; font-family:'Montserrat-Bold'; font-size:12px; letter-spacing:4;"> for </tspan><tspan x="378.7" y="0" style="font-family:'Montserrat-Bold'; font-size:12px; letter-spacing:4;">business card</tspan></text>
</g>
</svg>
