<?xml version="1.0" encoding="utf-8"?>
<!-- Generator: Adobe Illustrator 19.0.0, SVG Export Plug-In . SVG Version: 6.00 Build 0)  -->
<svg version="1.1" xmlns="http://www.w3.org/2000/svg" xmlns:xlink="http://www.w3.org/1999/xlink" x="0px" y="0px"
	 viewBox="0 0 35.4 35.4" style="enable-background:new 0 0 35.4 35.4;" xml:space="preserve">
<style type="text/css">
	*{fill:#fff !important}
	.st0{fill:#FFFFFF;}
	.st1{fill-rule:evenodd;clip-rule:evenodd;fill:#FFFFFF;}
	.st2{fill-rule:evenodd;clip-rule:evenodd;}
	.st3{fill:#D53692;}
	.st4{fill:#006EF5;}
	.st5{fill:#FCBB45;}
	.st6{fill:#8F39CE;}
	.st7{fill:#00D95F;}
	.st8{fill:#FF0000;}
	.st9{fill:#33CCFF;}
	.st10{fill:url(#SVGID_1_);}
	.st11{fill:#337FFF;}
	.st12{fill-rule:evenodd;clip-rule:evenodd;fill:#EE1D52;}
	.st13{fill-rule:evenodd;clip-rule:evenodd;fill:#69C9D0;}
	.st14{fill:url(#SVGID_2_);}
	.st15{fill:url(#SVGID_3_);}
	.st16{fill:url(#SVGID_4_);}
	.st17{fill-rule:evenodd;clip-rule:evenodd;fill:#FF0000;}
	.st18{fill-rule:evenodd;clip-rule:evenodd;fill:#00D95F;}
	.st19{fill:none;stroke:#999999;stroke-miterlimit:10;}
	.st20{fill:none;stroke:#999999;stroke-width:0.5;stroke-miterlimit:10;stroke-dasharray:12;}
</style>
<g id="BACKGROUND">
</g>
<g id="ELEMENTS">
	<g>
		<path d="M231.5-37.1c2.8-1.8,4.7-5,4.7-8.5c0-5.6-4.6-10.2-10.2-10.2s-10.2,4.6-10.2,10.2c0,3.6,1.9,6.7,4.7,8.5
			c-5.8,2.2-9.9,7.8-9.9,14.3c0,2.8,2.2,5,5,5h20.7c2.8,0,5-2.2,5-5C241.3-29.3,237.2-34.9,231.5-37.1z M218.5-45.7
			c0-4.2,3.4-7.5,7.5-7.5s7.5,3.4,7.5,7.5c0,4.2-3.4,7.5-7.5,7.5S218.5-41.5,218.5-45.7z M236.3-20.5h-20.7c-1.3,0-2.4-1.1-2.4-2.4
			c0-7,5.7-12.7,12.7-12.7c7,0,12.7,5.7,12.7,12.7C238.7-21.5,237.6-20.5,236.3-20.5z"/>
		<g>
			<path d="M233.7-1.4h-15.5c-3.1,0-5.7,2.5-5.7,5.7v27c0,3.1,2.5,5.7,5.7,5.7h15.5c3.1,0,5.7-2.6,5.7-5.7v-27
				C239.4,1.1,236.9-1.4,233.7-1.4z M218.2,1.2h15.5c1.7,0,3.1,1.4,3.1,3.1v21.7h-21.6V4.2C215.2,2.5,216.6,1.2,218.2,1.2z
				 M233.7,34.3h-15.5c-1.7,0-3.1-1.4-3.1-3.1v-2.8h21.6v2.8C236.8,33,235.4,34.3,233.7,34.3z"/>
			<circle cx="225.6" cy="3.9" r="1"/>
			<circle cx="225.6" cy="31.2" r="1"/>
		</g>
		<path d="M244.7,71.5l-14-16.1c-1.2-1.3-2.9-2.1-4.6-2.1c-1.8,0-3.5,0.8-4.6,2.1l-14,16.1c-0.3,0.4-0.4,0.9-0.2,1.4
			c0.2,0.5,0.7,0.8,1.2,0.8h2.4v16.4c0,0.7,0.6,1.3,1.3,1.3h28c0.7,0,1.3-0.6,1.3-1.3V73.7h2.4c0.5,0,1-0.3,1.2-0.8
			C245.1,72.4,245,71.9,244.7,71.5z M223.3,57.1c0.7-0.8,1.6-1.2,2.7-1.2c1,0,2,0.4,2.7,1.2l12.2,13.9h-29.6L223.3,57.1z
			 M238.7,88.7h-25.3V73.7h25.3V88.7z"/>
		<path d="M239.5,112h-27c-3,0-5.5,2.5-5.5,5.5v18.9c0,3,2.5,5.5,5.5,5.5h27c3,0,5.5-2.5,5.5-5.5v-18.9
			C245,114.4,242.5,112,239.5,112z M239.5,114.6c0.2,0,0.4,0,0.7,0.1l-11.4,12.9c-0.7,0.8-1.7,1.2-2.8,1.2c-1.1,0-2.1-0.5-2.8-1.2
			l-11.4-12.9c0.2,0,0.4-0.1,0.7-0.1H239.5z M242.4,136.4c0,1.6-1.3,2.9-2.9,2.9h-27c-1.6,0-2.9-1.3-2.9-2.9v-18.9
			c0-0.4,0.1-0.8,0.2-1.1l11.4,13c1.2,1.4,2.9,2.1,4.7,2.1c1.8,0,3.5-0.8,4.7-2.1l11.4-13c0.1,0.3,0.2,0.7,0.2,1.1V136.4z"/>
		<path d="M240.1,181.3L215,163c-0.9-0.6-2-0.7-3-0.2c-1,0.5-1.5,1.5-1.5,2.5l0,31c0,1.2,0.6,2.3,1.6,2.9c0.5,0.3,1.2,0.5,1.8,0.5
			c0.5,0,1.1-0.1,1.5-0.4c0.1-0.1,0.3-0.2,0.4-0.3l8.5-9.2l5.1,10c0.2,0.5,0.7,0.7,1.2,0.7c0.2,0,0.4,0,0.6-0.1
			c0.6-0.3,0.9-1.1,0.6-1.8l-5.1-10.1l12.5-1.3c0.2,0,0.3-0.1,0.5-0.1c1.1-0.5,1.8-1.6,1.8-2.8C241.5,183.1,241,182,240.1,181.3z
			 M238.6,184.6l-13.9,1.5c-0.3,0-0.6,0.2-0.8,0.4l-9.7,10.5c-0.3,0.1-0.5,0-0.6-0.1c-0.1-0.1-0.4-0.3-0.4-0.7l0-31
			c0,0,0-0.1,0.1-0.2c0,0,0.1,0,0.1,0c0.1,0,0.1,0,0.1,0l25,18.2c0.3,0.2,0.3,0.6,0.3,0.7C238.8,184.2,238.8,184.4,238.6,184.6z"/>
		<g>
			<g>
				<path d="M226,254.9L226,254.9c-0.4,0-0.7-0.2-1-0.4c-0.6-0.6-13.7-14.8-13.7-22.6c0-8.1,6.6-14.7,14.7-14.7
					c8.1,0,14.7,6.6,14.7,14.7c0,7.8-13.1,22-13.7,22.6C226.7,254.8,226.4,254.9,226,254.9z M226,219.8c-6.6,0-12,5.4-12,12
					c0,5.2,8,15.2,12,19.8c4.1-4.6,12-14.6,12-19.8C238,225.2,232.6,219.8,226,219.8z"/>
			</g>
			<g>
				<path d="M226,237.8c-3.6,0-6.6-3-6.6-6.6c0-3.6,3-6.6,6.6-6.6c3.6,0,6.6,3,6.6,6.6C232.6,234.9,229.6,237.8,226,237.8z
					 M226,227.3c-2.2,0-4,1.8-4,4c0,2.2,1.8,4,4,4c2.2,0,4-1.8,4-4C230,229,228.2,227.3,226,227.3z"/>
			</g>
		</g>
		<path d="M226,271.7c-10.5,0-19,8.5-19,19c0,10.5,8.5,19,19,19c10.5,0,19-8.5,19-19C245,280.2,236.5,271.7,226,271.7z M242.3,289.3
			h-7.1c-0.2-5.9-1.6-11-3.7-14.1C237.4,277.4,241.8,282.8,242.3,289.3z M226,307c-3,0-6.3-6.1-6.5-15.1h13.1
			C232.3,300.9,229,307,226,307z M219.4,289.3c0.3-8.9,3.6-15.1,6.5-15.1c3,0,6.3,6.1,6.5,15.1H219.4z M220.5,275.2
			c-2.1,3.2-3.5,8.2-3.7,14.1h-7.1C210.2,282.8,214.6,277.4,220.5,275.2z M209.7,292h7.1c0.2,5.9,1.6,11,3.7,14.1
			C214.6,304,210.2,298.5,209.7,292z M231.5,306.1c2.1-3.2,3.5-8.2,3.7-14.1h7.1C241.8,298.5,237.4,304,231.5,306.1z"/>
	</g>
	<g>
		<g>
			<g>
				<circle cx="290.1" cy="-47" r="7.6"/>
			</g>
			<g>
				<path d="M290.1-36.8L290.1-36.8c-7.7,0-14,6.3-14,14l0,0c0,2,1.6,3.7,3.7,3.7h20.7c2,0,3.7-1.6,3.7-3.7l0,0
					C304.1-30.6,297.8-36.8,290.1-36.8z"/>
			</g>
		</g>
		<g>
			<path d="M302.2,25.9V4.2c0-2.4-2-4.4-4.4-4.4h-15.5c-2.4,0-4.4,2-4.4,4.4v21.7H302.2z M290.1,2.6c0.7,0,1.3,0.6,1.3,1.3
				c0,0.7-0.6,1.3-1.3,1.3c-0.7,0-1.3-0.6-1.3-1.3C288.8,3.2,289.4,2.6,290.1,2.6z"/>
			<path d="M278,28.5v2.8c0,2.4,2,4.4,4.4,4.4h15.5c2.4,0,4.4-2,4.4-4.4v-2.8H278z M290.1,33.2c-0.7,0-1.3-0.6-1.3-1.3
				c0-0.7,0.6-1.3,1.3-1.3c0.7,0,1.3,0.6,1.3,1.3C291.4,32.6,290.8,33.2,290.1,33.2z"/>
		</g>
		<g>
			<g>
				<path d="M286.5,56.3l-12.5,14.4c-0.6,0.7-0.1,1.7,0.8,1.7h3.7h25.7h1.4c0.9,0,1.4-1.1,0.8-1.7l-12.5-14.4
					C291.8,54.1,288.4,54.1,286.5,56.3z"/>
			</g>
			<g>
				<path d="M304.1,75v14c0,0.6-0.5,1-1,1h-25.9c-0.6,0-1-0.5-1-1V75H304.1z"/>
			</g>
		</g>
		<g>
			<path d="M275,113.7l12.3,13.9c0.7,0.8,1.7,1.2,2.8,1.2c1.1,0,2.1-0.5,2.8-1.2l12.1-13.7c0.1-0.1,0.2-0.2,0.3-0.3
				c-0.5-0.2-1.1-0.4-1.7-0.4h-27C276,113.3,275.5,113.4,275,113.7C275,113.6,275,113.7,275,113.7z"/>
			<path d="M307.1,115.3c-0.1,0.1-0.1,0.3-0.2,0.4l-12.1,13.7c-1.2,1.4-2.9,2.1-4.7,2.1c-1.8,0-3.5-0.8-4.7-2.1l-12.3-13.9
				c0,0,0-0.1-0.1-0.1c-0.4,0.6-0.6,1.4-0.6,2.2v18.9c0,2.3,1.9,4.2,4.2,4.2h27c2.3,0,4.2-1.9,4.2-4.2v-18.9
				C307.8,116.7,307.6,115.9,307.1,115.3z"/>
		</g>
		<path d="M303.4,181.7l-25-18.2c-1-0.7-2.4,0-2.4,1.2l0,31c0,1.6,1.6,2.6,3,1.9l8.8-9.6l5.7,11.3c0.2,0.5,0.7,0.7,1.2,0.7
			c0.2,0,0.4,0,0.6-0.1c0.6-0.3,0.9-1.1,0.6-1.8l-5.8-11.4l13-1.4C304.5,184.5,304.6,182.6,303.4,181.7z"/>
		<g>
			<path d="M290.1,227.5c-2.2,0-4,1.8-4,4c0,2.2,1.8,4,4,4c2.2,0,4-1.8,4-4C294.1,229.3,292.3,227.5,290.1,227.5z"/>
			<path d="M290.1,218.8c-7.4,0-13.4,6-13.4,13.4c0,6.3,9.7,17.7,12.6,20.9c0.4,0.5,1.1,0.5,1.6,0c2.9-3.2,12.6-14.6,12.6-20.9
				C303.5,224.8,297.5,218.8,290.1,218.8z M290.1,238.1c-3.6,0-6.6-3-6.6-6.6c0-3.6,3-6.6,6.6-6.6c3.6,0,6.6,3,6.6,6.6
				C296.7,235.1,293.7,238.1,290.1,238.1z"/>
		</g>
		<g>
			<path d="M283.6,292c0.3,8.9,3.6,15.1,6.5,15.1c3,0,6.3-6.1,6.5-15.1H283.6z"/>
			<path d="M290.1,274.3c-3,0-6.3,6.1-6.5,15.1h13.1C296.4,280.4,293.1,274.3,290.1,274.3z"/>
			<path d="M299.3,289.3h8.5c-0.6-7.8-6.2-14.2-13.6-15.9C297.1,276.2,299.1,282.1,299.3,289.3z"/>
			<path d="M299.3,292c-0.2,7.2-2.2,13.1-5.2,15.9c7.4-1.7,13.1-8.1,13.6-15.9H299.3z"/>
			<path d="M280.9,292h-8.5c0.6,7.8,6.2,14.2,13.6,15.9C283.1,305.1,281.1,299.2,280.9,292z"/>
			<path d="M280.9,289.3c0.2-7.2,2.2-13.1,5.2-15.9c-7.4,1.7-13.1,8.1-13.6,15.9H280.9z"/>
		</g>
	</g>
	<g>
		<g>
			<circle cx="354.2" cy="-36.8" r="17.7"/>
			<g>
				<g>
					<circle class="st0" cx="354.2" cy="-45.2" r="5"/>
				</g>
				<g>
					<path class="st0" d="M354.2-38.4L354.2-38.4c-5.2,0-9.3,4.2-9.3,9.3l0,0c0,1.4,1.1,2.5,2.5,2.5h13.8c1.4,0,2.5-1.1,2.5-2.5l0,0
						C363.6-34.2,359.4-38.4,354.2-38.4z"/>
				</g>
			</g>
		</g>
		<g>
			<circle cx="354.2" cy="17.8" r="17.7"/>
			<g>
				<path class="st0" d="M362.2,23.1V8.8c0-1.6-1.3-2.9-2.9-2.9h-10.2c-1.6,0-2.9,1.3-2.9,2.9v14.3H362.2z M354.2,7.7
					c0.5,0,0.9,0.4,0.9,0.9c0,0.5-0.4,0.9-0.9,0.9c-0.5,0-0.9-0.4-0.9-0.9C353.3,8.1,353.7,7.7,354.2,7.7z"/>
				<path class="st0" d="M346.2,24.9v1.8c0,1.6,1.3,2.9,2.9,2.9h10.2c1.6,0,2.9-1.3,2.9-2.9v-1.8H346.2z M354.2,27.9
					c-0.5,0-0.9-0.4-0.9-0.9c0-0.5,0.4-0.9,0.9-0.9c0.5,0,0.9,0.4,0.9,0.9C355.1,27.6,354.7,27.9,354.2,27.9z"/>
			</g>
		</g>
		<g>
			<circle cx="354.2" cy="72.3" r="17.7"/>
			<g>
				<g>
					<path class="st0" d="M351.8,60.1l-8.3,9.6c-0.4,0.5-0.1,1.2,0.5,1.2h2.4h17.1h0.9c0.6,0,0.9-0.7,0.5-1.2l-8.3-9.6
						C355.3,58.6,353.1,58.6,351.8,60.1z"/>
				</g>
				<g>
					<path class="st0" d="M363.5,72.5v9.3c0,0.4-0.3,0.7-0.7,0.7h-17.2c-0.4,0-0.7-0.3-0.7-0.7v-9.3H363.5z"/>
				</g>
			</g>
		</g>
		<g>
			<circle cx="354.2" cy="126.9" r="17.7"/>
			<g>
				<path class="st0" d="M344.2,118.1l8.2,9.3c0.5,0.5,1.1,0.8,1.8,0.8c0.7,0,1.4-0.3,1.8-0.8l8.1-9.1c0.1-0.1,0.1-0.1,0.2-0.2
					c-0.3-0.1-0.7-0.2-1.1-0.2h-18C344.8,117.8,344.4,117.9,344.2,118.1C344.1,118.1,344.1,118.1,344.2,118.1z"/>
				<path class="st0" d="M365.6,119.1c0,0.1-0.1,0.2-0.2,0.3l-8.1,9.1c-0.8,0.9-1.9,1.4-3.2,1.4c-1.2,0-2.4-0.5-3.2-1.4l-8.2-9.3
					c0,0,0,0,0-0.1c-0.3,0.4-0.4,0.9-0.4,1.4v12.6c0,1.5,1.2,2.8,2.8,2.8h18c1.5,0,2.8-1.2,2.8-2.8v-12.6
					C366,120.1,365.8,119.6,365.6,119.1z"/>
			</g>
		</g>
		<g>
			<circle cx="354.2" cy="181.5" r="17.7"/>
			<path class="st0" d="M364.7,181.6l-15.7-11.5c-0.6-0.5-1.5,0-1.5,0.8l0,19.5c0,1,1,1.6,1.9,1.2l5.5-6l3.6,7.1
				c0.1,0.3,0.4,0.5,0.7,0.5c0.1,0,0.3,0,0.4-0.1c0.4-0.2,0.6-0.7,0.4-1.1l-3.6-7.1l8.2-0.9C365.4,183.4,365.4,182.2,364.7,181.6z"
				/>
		</g>
		<g>
			<circle cx="354.2" cy="236.1" r="17.7"/>
			<g>
				<path class="st0" d="M354.2,224.3c-5,0-9.1,4.1-9.1,9.1c0,4.3,6.6,12.1,8.6,14.3c0.3,0.3,0.8,0.3,1.1,0c2-2.2,8.6-10,8.6-14.3
					C363.3,228.4,359.2,224.3,354.2,224.3z M354.2,237.5c-2.5,0-4.5-2-4.5-4.5c0-2.5,2-4.5,4.5-4.5c2.5,0,4.5,2,4.5,4.5
					C358.7,235.4,356.7,237.5,354.2,237.5z"/>
			</g>
		</g>
		<g>
			<circle cx="354.2" cy="290.7" r="17.7"/>
			<g>
				<path class="st0" d="M349.8,291.5c0.2,6,2.4,10.1,4.4,10.1c2,0,4.2-4.1,4.4-10.1H349.8z"/>
				<path class="st0" d="M354.2,279.7c-2,0-4.2,4.1-4.4,10.1h8.8C358.4,283.8,356.2,279.7,354.2,279.7z"/>
				<path class="st0" d="M360.3,289.8h5.7c-0.4-5.2-4.1-9.5-9.1-10.7C358.9,281,360.2,284.9,360.3,289.8z"/>
				<path class="st0" d="M360.3,291.5c-0.1,4.8-1.5,8.8-3.5,10.7c5-1.2,8.7-5.4,9.1-10.7H360.3z"/>
				<path class="st0" d="M348.1,291.5h-5.7c0.4,5.2,4.1,9.5,9.1,10.7C349.5,300.3,348.2,296.4,348.1,291.5z"/>
				<path class="st0" d="M348.1,289.8c0.1-4.8,1.5-8.8,3.5-10.7c-5,1.2-8.7,5.4-9.1,10.7H348.1z"/>
			</g>
		</g>
	</g>
	<g>
		<g>
			<circle cx="530.5" cy="72.3" r="17.7"/>
			<path class="st0" d="M540.3,66.3c-0.6,0.3-1.3,0.4-2,0.6c0.3-0.1,0.8-0.6,1-0.9c0.3-0.4,0.5-0.7,0.6-1.2c0,0,0-0.1,0-0.1
				c0,0-0.1,0-0.1,0c-0.7,0.4-1.5,0.7-2.3,0.9c-0.1,0-0.1,0-0.2,0c-0.1-0.1-0.1-0.1-0.2-0.2c-0.3-0.3-0.7-0.5-1.1-0.7
				c-0.5-0.2-1.1-0.3-1.7-0.3c-0.6,0-1.1,0.2-1.6,0.5c-0.5,0.3-1,0.6-1.3,1.1c-0.4,0.5-0.6,1-0.8,1.6c-0.1,0.6-0.1,1.1,0,1.7
				c0,0.1,0,0.1-0.1,0.1c-3.2-0.5-5.8-1.6-7.9-4c-0.1-0.1-0.1-0.1-0.2,0c-0.9,1.4-0.5,3.7,0.7,4.8c0.2,0.1,0.3,0.3,0.5,0.4
				c-0.1,0-0.8-0.1-1.5-0.4c-0.1-0.1-0.1,0-0.1,0.1c0,0.2,0,0.3,0,0.5c0.2,1.4,1.2,2.7,2.5,3.2c0.2,0.1,0.3,0.1,0.5,0.2
				c-0.3,0.1-0.6,0.1-1.5,0c-0.1,0-0.2,0-0.1,0.1c0.7,1.8,2.1,2.3,3.2,2.6c0.1,0,0.3,0,0.4,0.1c0,0,0,0,0,0
				c-0.4,0.5-1.6,0.9-2.2,1.1c-1,0.4-2.2,0.5-3.3,0.4c-0.2,0-0.2,0-0.3,0c0,0,0,0.1,0.1,0.1c0.2,0.1,0.5,0.3,0.7,0.4
				c0.7,0.4,1.4,0.7,2.2,0.9c3.9,1.1,8.4,0.3,11.3-2.6c2.3-2.3,3.1-5.5,3.1-8.7c0-0.1,0.1-0.2,0.2-0.3c0.6-0.5,1.1-1,1.5-1.6
				C540.4,66.5,540.4,66.3,540.3,66.3C540.4,66.3,540.4,66.3,540.3,66.3C540.4,66.2,540.4,66.2,540.3,66.3z"/>
		</g>
		<g>
			<circle cx="530.5" cy="17.8" r="17.7"/>
			<g>
				<g>
					<circle class="st0" cx="536" cy="12.3" r="1.2"/>
					<path class="st0" d="M530.6,12.6c-2.8,0-5.1,2.3-5.1,5.1c0,2.8,2.3,5.1,5.1,5.1c2.8,0,5.1-2.3,5.1-5.1
						C535.7,14.9,533.4,12.6,530.6,12.6z M530.6,21c-1.8,0-3.3-1.5-3.3-3.3c0-1.8,1.5-3.3,3.3-3.3s3.3,1.5,3.3,3.3
						C533.9,19.5,532.4,21,530.6,21z"/>
					<path class="st0" d="M534.6,28.1h-8.3c-3.4,0-6.2-2.8-6.2-6.2v-8.3c0-3.4,2.8-6.2,6.2-6.2h8.3c3.4,0,6.2,2.8,6.2,6.2v8.3
						C540.9,25.3,538.1,28.1,534.6,28.1z M526.4,9.3c-2.4,0-4.3,1.9-4.3,4.3v8.3c0,2.4,1.9,4.3,4.3,4.3h8.3c2.4,0,4.3-1.9,4.3-4.3
						v-8.3c0-2.4-1.9-4.3-4.3-4.3H526.4z"/>
				</g>
			</g>
		</g>
		<g>
			<g>
				<path d="M548.2-36.8c0-9.8-7.9-17.7-17.7-17.7c-9.8,0-17.7,7.9-17.7,17.7c0,8.8,6.5,16.1,14.9,17.5v-12.4h-4.5v-5.1h4.5v-3.9
					c0-4.4,2.6-6.9,6.7-6.9c1.9,0,4,0.3,4,0.3v4.4h-2.2c-2.2,0-2.9,1.4-2.9,2.8v3.3h4.9l-0.8,5.1h-4.1v12.4
					C541.7-20.7,548.2-28,548.2-36.8z"/>
				<path class="st0" d="M537.4-31.7l0.8-5.1h-4.9v-3.3c0-1.4,0.7-2.8,2.9-2.8h2.2v-4.4c0,0-2-0.3-4-0.3c-4,0-6.7,2.4-6.7,6.9v3.9
					h-4.5v5.1h4.5v12.4c0.9,0.1,1.8,0.2,2.8,0.2c0.9,0,1.9-0.1,2.8-0.2v-12.4H537.4z"/>
			</g>
		</g>
		<g>
			<circle cx="530.5" cy="181.5" r="17.7"/>
			<path class="st0" d="M539.7,179.5c-0.2,0-0.4,0-0.5,0c-2,0-3.9-1-4.9-2.7v9.1c0,3.7-3,6.7-6.7,6.7c-3.7,0-6.7-3-6.7-6.7
				s3-6.7,6.7-6.7l0,0c0.1,0,0.3,0,0.4,0v3.3c-0.1,0-0.3,0-0.4,0c-1.9,0-3.4,1.5-3.4,3.4c0,1.9,1.5,3.4,3.4,3.4
				c1.9,0,3.6-1.5,3.6-3.4l0-15.5h3.2c0.3,2.8,2.6,5.1,5.4,5.3L539.7,179.5"/>
		</g>
		<g>
			<path d="M530.5,109.2c-9.8,0-17.7,7.9-17.7,17.7c0,7.2,4.3,13.4,10.5,16.1c0-0.5,0-1,0-1.5c0.1-1.7,0.3-2.3,2.5-11.6
				c0-0.1,0-0.3-0.1-0.4c-0.5-1.4-0.6-2.9-0.2-4.4c1-3.2,4.6-3.4,5.2-0.8c0.4,1.6-0.6,3.7-1.4,6.9c-0.7,2.6,2.4,4.4,5,2.5
				c2.4-1.7,3.3-5.9,3.2-8.9c-0.3-5.9-6.8-7.2-10.9-5.3c-4.7,2.2-5.8,8-3.7,10.7c0.3,0.3,0.5,0.5,0.4,0.9c-0.1,0.5-0.3,1.1-0.4,1.6
				c-0.1,0.4-0.4,0.5-0.8,0.4c-0.8-0.3-1.4-0.8-2-1.5c-1.8-2.2-2.3-6.7,0.1-10.4c2.6-4.2,7.6-5.8,12.1-5.3c5.4,0.6,8.8,4.3,9.4,8.4
				c0.3,1.9,0.1,6.6-2.6,9.9c-3.1,3.8-8,4-10.3,1.7c-0.2-0.2-0.3-0.4-0.5-0.6c0,0.1,0,0.2-0.1,0.2c-1.1,4.3-1.2,5.3-2.4,7.3
				c-0.2,0.3-0.4,0.6-0.6,0.9c1.7,0.5,3.4,0.8,5.3,0.8c9.8,0,17.7-7.9,17.7-17.7C548.2,117.1,540.3,109.2,530.5,109.2z"/>
			<path class="st0" d="M528.2,135.7c0-0.1,0-0.1,0.1-0.2c0.2,0.2,0.3,0.4,0.5,0.6c2.3,2.3,7.3,2.1,10.3-1.7c2.7-3.3,2.9-8,2.6-9.9
				c-0.6-4.2-4-7.8-9.4-8.4c-4.5-0.5-9.4,1.2-12.1,5.3c-2.4,3.7-1.9,8.2-0.1,10.4c0.5,0.7,1.2,1.2,2,1.5c0.4,0.2,0.7,0,0.8-0.4
				c0.1-0.5,0.3-1.1,0.4-1.6c0.1-0.3-0.1-0.6-0.4-0.9c-2.1-2.7-1.1-8.5,3.7-10.7c4.1-1.9,10.6-0.6,10.9,5.3c0.2,3-0.8,7.1-3.2,8.9
				c-2.6,1.9-5.7,0-5-2.5c0.8-3.1,1.8-5.3,1.4-6.9c-0.6-2.6-4.2-2.4-5.2,0.8c-0.5,1.5-0.4,2.9,0.2,4.4c0,0.1,0.1,0.2,0.1,0.4
				c-2.2,9.3-2.4,9.9-2.5,11.6c0,0.5,0,1,0,1.5c0.6,0.3,1.3,0.5,2,0.8c0.2-0.3,0.4-0.6,0.6-0.9C526.9,140.9,527.1,140,528.2,135.7z"
				/>
		</g>
		<g>
			<circle cx="530.5" cy="236.1" r="17.7"/>
			<path class="st0" d="M521,246.1l1.5-5.5c-0.8-1.5-1.3-3.2-1.3-4.9c0-5.6,4.6-10.2,10.2-10.2c5.6,0,10.2,4.6,10.2,10.2
				c0,5.6-4.6,10.2-10.2,10.2c-1.7,0-3.3-0.4-4.8-1.2L521,246.1z M526.8,242.5l0.3,0.2c1.3,0.8,2.7,1.2,4.2,1.2
				c4.5,0,8.2-3.7,8.2-8.2c0-4.5-3.7-8.2-8.2-8.2c-4.5,0-8.2,3.7-8.2,8.2c0,1.5,0.4,3,1.2,4.3l0.2,0.4l-0.8,3.1L526.8,242.5z"/>
			<path class="st1" d="M535.1,237.1c-0.4-0.3-1-0.5-1.5-0.3c-0.4,0.2-0.6,0.7-0.9,1c-0.1,0.2-0.3,0.2-0.5,0.1
				c-1.4-0.6-2.5-1.5-3.3-2.8c-0.1-0.2-0.1-0.4,0.1-0.6c0.2-0.3,0.5-0.6,0.6-1c0.1-0.4-0.1-0.8-0.3-1.1c-0.2-0.4-0.4-1-0.8-1.3
				c-0.4-0.2-0.9-0.1-1.3,0.2c-0.6,0.5-0.9,1.3-0.9,2c0,0.2,0,0.4,0.1,0.6c0.1,0.5,0.4,1,0.6,1.4c0.2,0.3,0.4,0.7,0.6,1
				c0.8,1,1.7,1.9,2.8,2.6c0.5,0.3,1.1,0.6,1.7,0.8c0.7,0.2,1.3,0.5,2,0.3c0.8-0.1,1.5-0.6,1.8-1.4c0.1-0.2,0.1-0.5,0.1-0.7
				C536.1,237.6,535.5,237.3,535.1,237.1z"/>
		</g>
		<g>
			<circle cx="530.5" cy="290.7" r="17.7"/>
			<path class="st0" d="M540,288.1c0-2.3-1.9-4.2-4.2-4.2h-10.9c-2.3,0-4.2,1.9-4.2,4.2v5.1c0,2.3,1.9,4.2,4.2,4.2h10.9
				c2.3,0,4.2-1.9,4.2-4.2V288.1z M533.6,291l-4.9,2.4c-0.2,0.1-0.8,0-0.8-0.3v-4.9c0-0.2,0.7-0.4,0.8-0.2l4.7,2.5
				C533.6,290.6,533.8,290.9,533.6,291z"/>
		</g>
	</g>
	<g>
		<g>
			<g>
				<circle cx="475.8" cy="8.4" r="2.1"/>
				<path d="M466.6,9c-4.8,0-8.7,3.9-8.7,8.7c0,4.8,3.9,8.7,8.7,8.7c4.8,0,8.7-3.9,8.7-8.7C475.3,12.9,471.4,9,466.6,9z M466.6,23.3
					c-3.1,0-5.6-2.5-5.6-5.6s2.5-5.6,5.6-5.6c3.1,0,5.6,2.5,5.6,5.6S469.6,23.3,466.6,23.3z"/>
				<path d="M473.5,35.4h-14.1c-5.9,0-10.6-4.8-10.6-10.6V10.6c0-5.9,4.8-10.6,10.6-10.6h14.1c5.9,0,10.6,4.8,10.6,10.6v14.1
					C484.1,30.6,479.3,35.4,473.5,35.4z M459.3,3.3c-4,0-7.3,3.3-7.3,7.3v14.1c0,4,3.3,7.3,7.3,7.3h14.1c4,0,7.3-3.3,7.3-7.3V10.6
					c0-4-3.3-7.3-7.3-7.3H459.3z"/>
			</g>
		</g>
		<path d="M474.6-34.7l1-6.4h-6.1v-4.2c0-1.8,0.9-3.5,3.6-3.5h2.8v-5.5c0,0-2.5-0.4-5-0.4c-5.1,0-8.4,3.1-8.4,8.6v4.9h-5.6v6.4h5.6
			v15.5h6.9v-15.5H474.6z"/>
		<path d="M487.7,58.8c-1.4,0.6-2.9,1-4.3,1.2c0.7-0.1,1.7-1.4,2.1-1.9c0.6-0.8,1.1-1.7,1.4-2.6c0-0.1,0.1-0.2,0-0.2
			c-0.1,0-0.2,0-0.2,0c-1.6,0.9-3.3,1.5-5.2,2c-0.1,0-0.3,0-0.4-0.1c-0.1-0.2-0.3-0.3-0.5-0.5c-0.8-0.6-1.6-1.2-2.5-1.5
			c-1.2-0.5-2.5-0.7-3.8-0.6c-1.3,0.1-2.5,0.4-3.6,1c-1.1,0.6-2.1,1.4-2.9,2.4c-0.8,1-1.4,2.2-1.7,3.5c-0.3,1.2-0.3,2.5-0.1,3.7
			c0,0.2,0,0.2-0.2,0.2c-7.1-1.1-12.9-3.6-17.7-9c-0.2-0.2-0.3-0.2-0.5,0c-2.1,3.1-1.1,8.1,1.5,10.6c0.3,0.3,0.7,0.7,1.1,1
			c-0.1,0-1.9-0.2-3.4-1c-0.2-0.1-0.3-0.1-0.3,0.2c0,0.3,0,0.6,0.1,1c0.4,3.2,2.6,6.1,5.6,7.2c0.4,0.2,0.8,0.3,1.1,0.3
			c-0.7,0.2-1.4,0.3-3.4,0.1c-0.2,0-0.3,0.1-0.2,0.3c1.5,4,4.7,5.2,7,5.9c0.3,0.1,0.6,0.1,1,0.1c0,0,0,0-0.1,0.1
			c-0.8,1.2-3.5,2.1-4.8,2.5c-2.3,0.8-4.9,1.2-7.3,0.9c-0.4-0.1-0.5-0.1-0.6,0c-0.1,0.1,0,0.2,0.1,0.3c0.5,0.3,1,0.6,1.5,0.9
			c1.6,0.8,3.2,1.5,4.9,2c8.8,2.4,18.7,0.6,25.2-5.9c5.2-5.1,7-12.2,7-19.3c0-0.3,0.3-0.4,0.5-0.6c1.3-1,2.4-2.2,3.4-3.6
			c0.2-0.3,0.2-0.6,0.2-0.7c0,0,0,0,0,0C487.9,58.7,487.9,58.8,487.7,58.8z"/>
		<path d="M481.8,178c-0.3,0-0.6,0-0.9,0c-3.2,0-6.3-1.6-8.1-4.4v14.8c0,6.1-4.9,11-11,11c-6.1,0-11-4.9-11-11c0-6.1,4.9-11,11-11
			l0,0c0.2,0,0.5,0,0.7,0v5.4c-0.2,0-0.4-0.1-0.7-0.1c-3.1,0-5.6,2.5-5.6,5.6c0,3.1,2.5,5.6,5.6,5.6c3.1,0,5.8-2.4,5.8-5.5l0.1-25.2
			h5.2c0.5,4.6,4.2,8.3,8.9,8.6L481.8,178"/>
		<path class="st2" d="M464.2,132.3c0,0.1-0.1,0.2-0.1,0.3c-1.3,5.1-1.4,6.2-2.8,8.6c-0.6,1.1-1.4,2.2-2.1,3.2
			c-0.1,0.1-0.2,0.3-0.4,0.2c-0.2,0-0.2-0.2-0.2-0.4c-0.2-1.5-0.3-3.1-0.3-4.7c0.1-2,0.3-2.7,2.9-13.8c0-0.2,0-0.3-0.1-0.5
			c-0.6-1.7-0.8-3.4-0.2-5.2c1.2-3.8,5.5-4.1,6.2-0.9c0.5,1.9-0.8,4.4-1.7,8.1c-0.8,3.1,2.8,5.2,5.9,3c2.8-2.1,3.9-7,3.7-10.5
			c-0.4-7-8.1-8.5-12.9-6.2c-5.6,2.6-6.8,9.5-4.3,12.6c0.3,0.4,0.6,0.6,0.5,1.1c-0.2,0.6-0.3,1.3-0.5,1.9c-0.1,0.5-0.5,0.6-1,0.4
			c-0.9-0.4-1.7-1-2.3-1.7c-2.1-2.6-2.7-7.9,0.1-12.3c3.1-4.9,9-6.9,14.3-6.3c6.3,0.7,10.4,5.1,11.1,10c0.3,2.2,0.1,7.8-3.1,11.7
			c-3.6,4.5-9.5,4.8-12.2,2C464.5,132.8,464.4,132.5,464.2,132.3z"/>
		<g>
			<path d="M448.8,253.8l2.5-9.5c-1.4-2.6-2.2-5.5-2.2-8.4c0-9.6,7.8-17.5,17.5-17.5c9.6,0,17.5,7.8,17.5,17.5
				c0,9.6-7.8,17.5-17.5,17.5c-2.9,0-5.7-0.7-8.3-2.1L448.8,253.8z M458.7,247.7l0.6,0.4c2.2,1.3,4.7,2,7.2,2
				c7.8,0,14.2-6.4,14.2-14.2c0-7.8-6.4-14.2-14.2-14.2c-7.8,0-14.2,6.4-14.2,14.2c0,2.6,0.7,5.1,2.1,7.3l0.4,0.6l-1.4,5.3
				L458.7,247.7z"/>
			<path class="st2" d="M473.1,238.3c-0.7-0.4-1.7-0.9-2.5-0.6c-0.6,0.3-1.1,1.3-1.5,1.8c-0.2,0.3-0.5,0.3-0.8,0.2
				c-2.4-1-4.3-2.6-5.7-4.8c-0.2-0.3-0.2-0.6,0.1-0.9c0.4-0.5,0.9-1,1-1.7c0.1-0.6-0.2-1.4-0.5-2c-0.3-0.7-0.7-1.8-1.5-2.2
				c-0.7-0.4-1.6-0.2-2.2,0.3c-1,0.8-1.5,2.2-1.5,3.5c0,0.4,0.1,0.7,0.1,1.1c0.2,0.9,0.6,1.7,1.1,2.4c0.3,0.6,0.7,1.1,1.1,1.7
				c1.3,1.8,2.9,3.3,4.8,4.5c0.9,0.6,2,1.1,3,1.4c1.2,0.4,2.2,0.8,3.5,0.6c1.3-0.3,2.6-1.1,3.2-2.4c0.2-0.4,0.2-0.8,0.1-1.2
				C474.9,239.2,473.7,238.7,473.1,238.3z"/>
		</g>
		<path d="M484.4,286c0-4.4-3.5-7.9-7.9-7.9h-20.2c-4.4,0-7.9,3.5-7.9,7.9v9.4c0,4.4,3.5,7.9,7.9,7.9h20.2c4.4,0,7.9-3.5,7.9-7.9
			V286z M472.5,291.4l-9,4.5c-0.4,0.2-1.6-0.1-1.6-0.5v-9.2c0-0.4,1.2-0.7,1.6-0.5l8.7,4.7C472.5,290.6,472.9,291.2,472.5,291.4z"/>
	</g>
	<g>
		<path class="st3" d="M-217.3-37.1c2.8-1.8,4.7-5,4.7-8.5c0-5.6-4.6-10.2-10.2-10.2c-5.6,0-10.2,4.6-10.2,10.2
			c0,3.6,1.9,6.7,4.7,8.5c-5.8,2.2-9.9,7.8-9.9,14.3c0,2.8,2.2,5,5,5h20.7c2.8,0,5-2.2,5-5C-207.4-29.3-211.5-34.9-217.3-37.1z
			 M-230.3-45.7c0-4.2,3.4-7.5,7.5-7.5c4.2,0,7.5,3.4,7.5,7.5c0,4.2-3.4,7.5-7.5,7.5C-226.9-38.1-230.3-41.5-230.3-45.7z
			 M-212.4-20.5h-20.7c-1.3,0-2.4-1.1-2.4-2.4c0-7,5.7-12.7,12.7-12.7c7,0,12.7,5.7,12.7,12.7C-210-21.5-211.1-20.5-212.4-20.5z"/>
		<g>
			<path class="st4" d="M-215-1.4h-15.5c-3.1,0-5.7,2.5-5.7,5.7v27c0,3.1,2.6,5.7,5.7,5.7h15.5c3.1,0,5.7-2.6,5.7-5.7v-27
				C-209.3,1.1-211.8-1.4-215-1.4z M-230.5,1.2h15.5c1.7,0,3.1,1.4,3.1,3.1v21.7h-21.6V4.2C-233.5,2.5-232.2,1.2-230.5,1.2z
				 M-215,34.3h-15.5c-1.7,0-3.1-1.4-3.1-3.1v-2.8h21.6v2.8C-211.9,33-213.3,34.3-215,34.3z"/>
			<circle class="st4" cx="-223.1" cy="3.9" r="1"/>
			<circle class="st4" cx="-223.1" cy="31.2" r="1"/>
		</g>
		<path class="st5" d="M-204,71.5l-14-16.1c-1.2-1.3-2.9-2.1-4.6-2.1c-1.8,0-3.5,0.8-4.6,2.1l-14,16.1c-0.3,0.4-0.4,0.9-0.2,1.4
			c0.2,0.5,0.7,0.8,1.2,0.8h2.4v16.4c0,0.7,0.6,1.3,1.3,1.3h28c0.7,0,1.3-0.6,1.3-1.3V73.7h2.4c0.5,0,1-0.3,1.2-0.8
			C-203.6,72.4-203.7,71.9-204,71.5z M-225.4,57.1c0.7-0.8,1.6-1.2,2.7-1.2c1,0,2,0.4,2.7,1.2l12.2,13.9h-29.6L-225.4,57.1z
			 M-210.1,88.7h-25.3V73.7h25.3V88.7z"/>
		<path class="st6" d="M-209.2,112h-27c-3,0-5.5,2.5-5.5,5.5v18.9c0,3,2.5,5.5,5.5,5.5h27c3,0,5.5-2.5,5.5-5.5v-18.9
			C-203.7,114.4-206.2,112-209.2,112z M-209.2,114.6c0.2,0,0.4,0,0.7,0.1l-11.4,12.9c-0.7,0.8-1.7,1.2-2.8,1.2
			c-1.1,0-2.1-0.5-2.8-1.2l-11.4-12.9c0.2,0,0.4-0.1,0.7-0.1H-209.2z M-206.3,136.4c0,1.6-1.3,2.9-2.9,2.9h-27
			c-1.6,0-2.9-1.3-2.9-2.9v-18.9c0-0.4,0.1-0.8,0.2-1.1l11.4,13c1.2,1.4,2.9,2.1,4.7,2.1c1.8,0,3.5-0.8,4.7-2.1l11.4-13
			c0.1,0.3,0.2,0.7,0.2,1.1V136.4z"/>
		<path class="st7" d="M-208.7,181.3l-25-18.2c-0.9-0.6-2-0.7-3-0.2c-1,0.5-1.5,1.5-1.5,2.5l0,31c0,1.2,0.6,2.3,1.6,2.9
			c0.5,0.3,1.2,0.5,1.8,0.5c0.5,0,1.1-0.1,1.5-0.4c0.1-0.1,0.3-0.2,0.4-0.3l8.5-9.2l5.1,10c0.2,0.5,0.7,0.7,1.2,0.7
			c0.2,0,0.4,0,0.6-0.1c0.6-0.3,0.9-1.1,0.6-1.8l-5.1-10.1l12.5-1.3c0.2,0,0.3-0.1,0.5-0.1c1.1-0.5,1.8-1.6,1.8-2.8
			C-207.2,183.1-207.7,182-208.7,181.3z M-210.1,184.6l-13.9,1.5c-0.3,0-0.6,0.2-0.8,0.4l-9.7,10.5c-0.3,0.1-0.5,0-0.6-0.1
			c-0.1-0.1-0.4-0.3-0.4-0.7l0-31c0,0,0-0.1,0.1-0.2c0,0,0.1,0,0.1,0c0.1,0,0.1,0,0.1,0l25,18.2c0.3,0.2,0.3,0.6,0.3,0.7
			C-209.9,184.2-209.9,184.4-210.1,184.6z"/>
		<g>
			<g>
				<path class="st8" d="M-222.7,254.9L-222.7,254.9c-0.4,0-0.7-0.2-1-0.4c-0.6-0.6-13.7-14.8-13.7-22.6c0-8.1,6.6-14.7,14.7-14.7
					c8.1,0,14.7,6.6,14.7,14.7c0,7.8-13.1,22-13.7,22.6C-222,254.8-222.4,254.9-222.7,254.9z M-222.7,219.8c-6.6,0-12,5.4-12,12
					c0,5.2,8,15.2,12,19.8c4.1-4.6,12-14.6,12-19.8C-210.7,225.2-216.1,219.8-222.7,219.8z"/>
			</g>
			<g>
				<path class="st8" d="M-222.7,237.8c-3.6,0-6.6-3-6.6-6.6c0-3.6,3-6.6,6.6-6.6c3.6,0,6.6,3,6.6,6.6
					C-216.1,234.9-219.1,237.8-222.7,237.8z M-222.7,227.3c-2.2,0-4,1.8-4,4c0,2.2,1.8,4,4,4c2.2,0,4-1.8,4-4
					C-218.7,229-220.5,227.3-222.7,227.3z"/>
			</g>
		</g>
		<path class="st9" d="M-222.7,271.7c-10.5,0-19,8.5-19,19c0,10.5,8.5,19,19,19c10.5,0,19-8.5,19-19
			C-203.7,280.2-212.2,271.7-222.7,271.7z M-206.4,289.3h-7.1c-0.2-5.9-1.6-11-3.7-14.1C-211.3,277.4-206.9,282.8-206.4,289.3z
			 M-222.7,307c-3,0-6.3-6.1-6.5-15.1h13.1C-216.5,300.9-219.8,307-222.7,307z M-229.3,289.3c0.3-8.9,3.6-15.1,6.5-15.1
			c3,0,6.3,6.1,6.5,15.1H-229.3z M-228.2,275.2c-2.1,3.2-3.5,8.2-3.7,14.1h-7.1C-238.5,282.8-234.2,277.4-228.2,275.2z M-239,292
			h7.1c0.2,5.9,1.6,11,3.7,14.1C-234.2,304-238.5,298.5-239,292z M-217.2,306.1c2.1-3.2,3.5-8.2,3.7-14.1h7.1
			C-206.9,298.5-211.3,304-217.2,306.1z"/>
	</g>
	<g>
		<g>
			<g>
				<circle class="st3" cx="-158.6" cy="-47" r="7.6"/>
			</g>
			<g>
				<path class="st3" d="M-158.6-36.8L-158.6-36.8c-7.7,0-14,6.3-14,14l0,0c0,2,1.6,3.7,3.7,3.7h20.7c2,0,3.7-1.6,3.7-3.7l0,0
					C-144.6-30.6-150.9-36.8-158.6-36.8z"/>
			</g>
		</g>
		<g>
			<path class="st4" d="M-146.5,25.9V4.2c0-2.4-2-4.4-4.4-4.4h-15.5c-2.4,0-4.4,2-4.4,4.4v21.7H-146.5z M-158.6,2.6
				c0.7,0,1.3,0.6,1.3,1.3c0,0.7-0.6,1.3-1.3,1.3c-0.7,0-1.3-0.6-1.3-1.3C-159.9,3.2-159.3,2.6-158.6,2.6z"/>
			<path class="st4" d="M-170.7,28.5v2.8c0,2.4,2,4.4,4.4,4.4h15.5c2.4,0,4.4-2,4.4-4.4v-2.8H-170.7z M-158.6,33.2
				c-0.7,0-1.3-0.6-1.3-1.3c0-0.7,0.6-1.3,1.3-1.3c0.7,0,1.3,0.6,1.3,1.3C-157.3,32.6-157.9,33.2-158.6,33.2z"/>
		</g>
		<g>
			<g>
				<path class="st5" d="M-162.3,56.3l-12.5,14.4c-0.6,0.7-0.1,1.7,0.8,1.7h3.7h25.7h1.4c0.9,0,1.4-1.1,0.8-1.7L-155,56.3
					C-156.9,54.1-160.3,54.1-162.3,56.3z"/>
			</g>
			<g>
				<path class="st5" d="M-144.6,75v14c0,0.6-0.5,1-1,1h-25.9c-0.6,0-1-0.5-1-1V75H-144.6z"/>
			</g>
		</g>
		<g>
			<path class="st6" d="M-173.7,113.7l12.3,13.9c0.7,0.8,1.7,1.2,2.8,1.2c1.1,0,2.1-0.5,2.8-1.2l12.1-13.7c0.1-0.1,0.2-0.2,0.3-0.3
				c-0.5-0.2-1.1-0.4-1.7-0.4h-27C-172.7,113.3-173.2,113.4-173.7,113.7C-173.7,113.6-173.7,113.7-173.7,113.7z"/>
			<path class="st6" d="M-141.6,115.3c-0.1,0.1-0.1,0.3-0.2,0.4l-12.1,13.7c-1.2,1.4-2.9,2.1-4.7,2.1c-1.8,0-3.5-0.8-4.7-2.1
				l-12.3-13.9c0,0,0-0.1-0.1-0.1c-0.4,0.6-0.6,1.4-0.6,2.2v18.9c0,2.3,1.9,4.2,4.2,4.2h27c2.3,0,4.2-1.9,4.2-4.2v-18.9
				C-140.9,116.7-141.2,115.9-141.6,115.3z"/>
		</g>
		<path class="st7" d="M-145.3,181.7l-25-18.2c-1-0.7-2.4,0-2.4,1.2l0,31c0,1.6,1.6,2.6,3,1.9l8.8-9.6l5.7,11.3
			c0.2,0.5,0.7,0.7,1.2,0.7c0.2,0,0.4,0,0.6-0.1c0.6-0.3,0.9-1.1,0.6-1.8l-5.8-11.4l13-1.4C-144.2,184.5-144.1,182.6-145.3,181.7z"
			/>
		<g>
			<path class="st8" d="M-158.6,227.5c-2.2,0-4,1.8-4,4c0,2.2,1.8,4,4,4c2.2,0,4-1.8,4-4C-154.6,229.3-156.4,227.5-158.6,227.5z"/>
			<path class="st8" d="M-158.6,218.8c-7.4,0-13.4,6-13.4,13.4c0,6.3,9.7,17.7,12.6,20.9c0.4,0.5,1.2,0.5,1.6,0
				c2.9-3.2,12.6-14.6,12.6-20.9C-145.3,224.8-151.2,218.8-158.6,218.8z M-158.6,238.1c-3.6,0-6.6-3-6.6-6.6c0-3.6,3-6.6,6.6-6.6
				c3.6,0,6.6,3,6.6,6.6C-152,235.1-155,238.1-158.6,238.1z"/>
		</g>
		<g>
			<path class="st9" d="M-165.2,292c0.3,8.9,3.6,15.1,6.5,15.1c3,0,6.3-6.1,6.5-15.1H-165.2z"/>
			<path class="st9" d="M-158.6,274.3c-3,0-6.3,6.1-6.5,15.1h13.1C-152.4,280.4-155.7,274.3-158.6,274.3z"/>
			<path class="st9" d="M-149.4,289.3h8.5c-0.6-7.8-6.2-14.2-13.6-15.9C-151.7,276.2-149.7,282.1-149.4,289.3z"/>
			<path class="st9" d="M-149.4,292c-0.2,7.2-2.2,13.1-5.2,15.9c7.4-1.7,13.1-8.1,13.6-15.9H-149.4z"/>
			<path class="st9" d="M-167.8,292h-8.5c0.6,7.8,6.2,14.2,13.6,15.9C-165.6,305.1-167.6,299.2-167.8,292z"/>
			<path class="st9" d="M-167.8,289.3c0.2-7.2,2.2-13.1,5.2-15.9c-7.4,1.7-13.1,8.1-13.6,15.9H-167.8z"/>
		</g>
	</g>
	<g>
		<g>
			<circle class="st3" cx="-94.5" cy="-36.8" r="17.7"/>
			<g>
				<g>
					<circle class="st0" cx="-94.5" cy="-45.2" r="5"/>
				</g>
				<g>
					<path class="st0" d="M-94.5-38.4L-94.5-38.4c-5.2,0-9.3,4.2-9.3,9.3l0,0c0,1.4,1.1,2.5,2.5,2.5h13.8c1.4,0,2.5-1.1,2.5-2.5l0,0
						C-85.2-34.2-89.4-38.4-94.5-38.4z"/>
				</g>
			</g>
		</g>
		<g>
			<circle class="st4" cx="-94.5" cy="17.8" r="17.7"/>
			<g>
				<path class="st0" d="M-86.5,23.1V8.8c0-1.6-1.3-2.9-2.9-2.9h-10.2c-1.6,0-2.9,1.3-2.9,2.9v14.3H-86.5z M-94.5,7.7
					c0.5,0,0.9,0.4,0.9,0.9c0,0.5-0.4,0.9-0.9,0.9c-0.5,0-0.9-0.4-0.9-0.9C-95.4,8.1-95,7.7-94.5,7.7z"/>
				<path class="st0" d="M-102.5,24.9v1.8c0,1.6,1.3,2.9,2.9,2.9h10.2c1.6,0,2.9-1.3,2.9-2.9v-1.8H-102.5z M-94.5,27.9
					c-0.5,0-0.9-0.4-0.9-0.9c0-0.5,0.4-0.9,0.9-0.9c0.5,0,0.9,0.4,0.9,0.9C-93.6,27.6-94,27.9-94.5,27.9z"/>
			</g>
		</g>
		<g>
			<circle class="st5" cx="-94.5" cy="72.3" r="17.7"/>
			<g>
				<g>
					<path class="st0" d="M-96.9,60.1l-8.3,9.6c-0.4,0.5-0.1,1.2,0.5,1.2h2.4h17.1h0.9c0.6,0,0.9-0.7,0.5-1.2l-8.3-9.6
						C-93.4,58.6-95.7,58.6-96.9,60.1z"/>
				</g>
				<g>
					<path class="st0" d="M-85.2,72.5v9.3c0,0.4-0.3,0.7-0.7,0.7h-17.2c-0.4,0-0.7-0.3-0.7-0.7v-9.3H-85.2z"/>
				</g>
			</g>
		</g>
		<g>
			<circle class="st6" cx="-94.5" cy="126.9" r="17.7"/>
			<g>
				<path class="st0" d="M-104.6,118.1l8.2,9.3c0.5,0.5,1.1,0.8,1.8,0.8c0.7,0,1.4-0.3,1.8-0.8l8.1-9.1c0.1-0.1,0.1-0.1,0.2-0.2
					c-0.3-0.1-0.7-0.2-1.1-0.2h-18C-103.9,117.8-104.3,117.9-104.6,118.1C-104.6,118.1-104.6,118.1-104.6,118.1z"/>
				<path class="st0" d="M-83.1,119.1c0,0.1-0.1,0.2-0.2,0.3l-8.1,9.1c-0.8,0.9-1.9,1.4-3.2,1.4c-1.2,0-2.4-0.5-3.2-1.4l-8.2-9.3
					c0,0,0,0,0-0.1c-0.3,0.4-0.4,0.9-0.4,1.4v12.6c0,1.5,1.2,2.8,2.8,2.8h18c1.5,0,2.8-1.2,2.8-2.8v-12.6
					C-82.7,120.1-82.9,119.6-83.1,119.1z"/>
			</g>
		</g>
		<g>
			<circle class="st7" cx="-94.5" cy="181.5" r="17.7"/>
			<path class="st0" d="M-84.1,181.6l-15.7-11.5c-0.6-0.5-1.5,0-1.5,0.8l0,19.5c0,1,1,1.6,1.9,1.2l5.5-6l3.6,7.1
				c0.1,0.3,0.4,0.5,0.7,0.5c0.1,0,0.3,0,0.4-0.1c0.4-0.2,0.6-0.7,0.4-1.1l-3.6-7.1l8.2-0.9C-83.4,183.4-83.3,182.2-84.1,181.6z"/>
		</g>
		<g>
			<circle class="st8" cx="-94.5" cy="236.1" r="17.7"/>
			<g>
				<path class="st0" d="M-94.5,224.3c-5,0-9.1,4.1-9.1,9.1c0,4.3,6.6,12.1,8.6,14.3c0.3,0.3,0.8,0.3,1.1,0c2-2.2,8.6-10,8.6-14.3
					C-85.4,228.4-89.5,224.3-94.5,224.3z M-94.5,237.5c-2.5,0-4.5-2-4.5-4.5c0-2.5,2-4.5,4.5-4.5c2.5,0,4.5,2,4.5,4.5
					C-90,235.4-92,237.5-94.5,237.5z"/>
			</g>
		</g>
		<g>
			<circle class="st9" cx="-94.5" cy="290.7" r="17.7"/>
			<g>
				<path class="st0" d="M-98.9,291.5c0.2,6,2.4,10.1,4.4,10.1c2,0,4.2-4.1,4.4-10.1H-98.9z"/>
				<path class="st0" d="M-94.5,279.7c-2,0-4.2,4.1-4.4,10.1h8.8C-90.3,283.8-92.5,279.7-94.5,279.7z"/>
				<path class="st0" d="M-88.4,289.8h5.7c-0.4-5.2-4.1-9.5-9.1-10.7C-89.9,281-88.5,284.9-88.4,289.8z"/>
				<path class="st0" d="M-88.4,291.5c-0.1,4.8-1.5,8.8-3.5,10.7c5-1.2,8.7-5.4,9.1-10.7H-88.4z"/>
				<path class="st0" d="M-100.7,291.5h-5.7c0.4,5.2,4.1,9.5,9.1,10.7C-99.2,300.3-100.5,296.4-100.7,291.5z"/>
				<path class="st0" d="M-100.7,289.8c0.1-4.8,1.5-8.8,3.5-10.7c-5,1.2-8.7,5.4-9.1,10.7H-100.7z"/>
			</g>
		</g>
	</g>
	<g>
		<g>
			<circle class="st9" cx="81.8" cy="72.3" r="17.7"/>
			<path class="st0" d="M91.6,66.3c-0.6,0.3-1.3,0.4-2,0.6c0.3-0.1,0.8-0.6,1-0.9c0.3-0.4,0.5-0.7,0.6-1.2c0,0,0-0.1,0-0.1
				c0,0-0.1,0-0.1,0c-0.7,0.4-1.5,0.7-2.3,0.9c-0.1,0-0.1,0-0.2,0c-0.1-0.1-0.1-0.1-0.2-0.2c-0.3-0.3-0.7-0.5-1.1-0.7
				c-0.5-0.2-1.1-0.3-1.7-0.3c-0.6,0-1.1,0.2-1.6,0.5c-0.5,0.3-1,0.6-1.3,1.1c-0.4,0.5-0.6,1-0.8,1.6c-0.1,0.6-0.1,1.1,0,1.7
				c0,0.1,0,0.1-0.1,0.1c-3.2-0.5-5.8-1.6-7.9-4c-0.1-0.1-0.1-0.1-0.2,0c-0.9,1.4-0.5,3.7,0.7,4.8c0.2,0.1,0.3,0.3,0.5,0.4
				c-0.1,0-0.8-0.1-1.5-0.4c-0.1-0.1-0.1,0-0.1,0.1c0,0.2,0,0.3,0,0.5c0.2,1.4,1.2,2.7,2.5,3.2c0.2,0.1,0.3,0.1,0.5,0.2
				c-0.3,0.1-0.6,0.1-1.5,0c-0.1,0-0.2,0-0.1,0.1c0.7,1.8,2.1,2.3,3.2,2.6c0.1,0,0.3,0,0.4,0.1c0,0,0,0,0,0
				c-0.4,0.5-1.6,0.9-2.2,1.1c-1,0.4-2.2,0.5-3.3,0.4c-0.2,0-0.2,0-0.3,0c0,0,0,0.1,0.1,0.1c0.2,0.1,0.5,0.3,0.7,0.4
				c0.7,0.4,1.4,0.7,2.2,0.9c3.9,1.1,8.4,0.3,11.3-2.6c2.3-2.3,3.1-5.5,3.1-8.7c0-0.1,0.1-0.2,0.2-0.3c0.6-0.5,1.1-1,1.5-1.6
				C91.6,66.5,91.6,66.3,91.6,66.3C91.6,66.3,91.6,66.3,91.6,66.3C91.6,66.2,91.6,66.2,91.6,66.3z"/>
		</g>
		<g>
			<linearGradient id="SVGID_1_" gradientUnits="userSpaceOnUse" x1="65.2218" y1="3.7559" x2="100.5964" y2="33.6332">
				<stop  offset="1.104800e-003" style="stop-color:#FBE18A"/>
				<stop  offset="0.2094" style="stop-color:#FCBB45"/>
				<stop  offset="0.3765" style="stop-color:#F75274"/>
				<stop  offset="0.5238" style="stop-color:#D53692"/>
				<stop  offset="0.7394" style="stop-color:#8F39CE"/>
				<stop  offset="1" style="stop-color:#5B4FE9"/>
			</linearGradient>
			<circle class="st10" cx="81.8" cy="17.8" r="17.7"/>
			<g>
				<g>
					<circle class="st0" cx="87.3" cy="12.3" r="1.2"/>
					<path class="st0" d="M81.9,12.6c-2.8,0-5.1,2.3-5.1,5.1c0,2.8,2.3,5.1,5.1,5.1c2.8,0,5.1-2.3,5.1-5.1
						C87,14.9,84.7,12.6,81.9,12.6z M81.9,21c-1.8,0-3.3-1.5-3.3-3.3c0-1.8,1.5-3.3,3.3-3.3s3.3,1.5,3.3,3.3
						C85.2,19.5,83.7,21,81.9,21z"/>
					<path class="st0" d="M85.9,28.1h-8.3c-3.4,0-6.2-2.8-6.2-6.2v-8.3c0-3.4,2.8-6.2,6.2-6.2h8.3c3.4,0,6.2,2.8,6.2,6.2v8.3
						C92.2,25.3,89.4,28.1,85.9,28.1z M77.7,9.3c-2.4,0-4.3,1.9-4.3,4.3v8.3c0,2.4,1.9,4.3,4.3,4.3h8.3c2.4,0,4.3-1.9,4.3-4.3v-8.3
						c0-2.4-1.9-4.3-4.3-4.3H77.7z"/>
				</g>
			</g>
		</g>
		<g>
			<g>
				<path class="st11" d="M99.5-36.8c0-9.8-7.9-17.7-17.7-17.7s-17.7,7.9-17.7,17.7c0,8.8,6.5,16.1,14.9,17.5v-12.4h-4.5v-5.1H79
					v-3.9c0-4.4,2.6-6.9,6.7-6.9c1.9,0,4,0.3,4,0.3v4.4h-2.2c-2.2,0-2.9,1.4-2.9,2.8v3.3h4.9l-0.8,5.1h-4.1v12.4
					C93-20.7,99.5-28,99.5-36.8z"/>
				<path class="st0" d="M88.7-31.7l0.8-5.1h-4.9v-3.3c0-1.4,0.7-2.8,2.9-2.8h2.2v-4.4c0,0-2-0.3-4-0.3c-4,0-6.7,2.4-6.7,6.9v3.9
					h-4.5v5.1H79v12.4c0.9,0.1,1.8,0.2,2.8,0.2s1.9-0.1,2.8-0.2v-12.4H88.7z"/>
			</g>
		</g>
		<g>
			<circle cx="81.8" cy="181.5" r="17.7"/>
			<g>
				<path class="st12" d="M86.4,178.5c1.4,1,3.2,1.6,5.1,1.6v-3.6c-0.4,0-0.7,0-1.1-0.1v2.9c-1.9,0-3.7-0.6-5.1-1.6v7.4
					c0,3.7-3,6.7-6.7,6.7c-1.4,0-2.7-0.4-3.8-1.1c1.2,1.3,2.9,2,4.8,2c3.7,0,6.7-3,6.7-6.7L86.4,178.5L86.4,178.5z M87.8,174.8
					c-0.7-0.8-1.2-1.8-1.3-3v-0.5h-1C85.7,172.8,86.6,174,87.8,174.8L87.8,174.8z M77.2,187.8c-0.4-0.5-0.6-1.2-0.6-1.9
					c0-1.7,1.4-3.1,3.1-3.1c0.3,0,0.6,0,0.9,0.1v-3.7c-0.4,0-0.7-0.1-1.1-0.1v2.9c-0.3-0.1-0.6-0.1-0.9-0.1c-1.7,0-3.1,1.4-3.1,3.1
					C75.5,186.2,76.2,187.2,77.2,187.8z"/>
				<path class="st1" d="M85.4,177.6c1.4,1,3.2,1.6,5.1,1.6v-2.9c-1.1-0.2-2-0.8-2.7-1.5c-1.2-0.8-2.1-2-2.3-3.4h-2.7v14.6
					c0,1.7-1.4,3.1-3.1,3.1c-1,0-1.9-0.5-2.5-1.2c-1-0.5-1.7-1.6-1.7-2.8c0-1.7,1.4-3.1,3.1-3.1c0.3,0,0.6,0.1,0.9,0.1v-2.9
					c-3.7,0.1-6.6,3.1-6.6,6.7c0,1.8,0.7,3.5,1.9,4.7c1.1,0.7,2.4,1.1,3.8,1.1c3.7,0,6.7-3,6.7-6.7V177.6z"/>
				<path class="st13" d="M90.5,176.3v-0.8c-1,0-1.9-0.3-2.7-0.8C88.5,175.6,89.4,176.1,90.5,176.3z M85.4,171.3
					c0-0.1,0-0.3-0.1-0.4v-0.5h-3.7V185c0,1.7-1.4,3.1-3.1,3.1c-0.5,0-1-0.1-1.4-0.3c0.6,0.7,1.5,1.2,2.5,1.2c1.7,0,3.1-1.4,3.1-3.1
					v-14.6H85.4z M79.5,179.2v-0.8c-0.3,0-0.6-0.1-0.9-0.1c-3.7,0-6.7,3-6.7,6.7c0,2.3,1.2,4.4,3,5.6c-1.2-1.2-1.9-2.9-1.9-4.7
					C72.9,182.2,75.9,179.2,79.5,179.2L79.5,179.2z"/>
			</g>
		</g>
		<g>
			<path class="st8" d="M81.8,109.2c-9.8,0-17.7,7.9-17.7,17.7c0,7.2,4.3,13.4,10.5,16.1c0-0.5,0-1,0-1.5c0.1-1.7,0.3-2.3,2.5-11.6
				c0-0.1,0-0.3-0.1-0.4c-0.5-1.4-0.6-2.9-0.2-4.4c1-3.2,4.6-3.4,5.2-0.8c0.4,1.6-0.6,3.7-1.4,6.9c-0.7,2.6,2.4,4.4,5,2.5
				c2.4-1.7,3.3-5.9,3.2-8.9c-0.3-5.9-6.8-7.2-10.9-5.3c-4.7,2.2-5.8,8-3.7,10.7c0.3,0.3,0.5,0.5,0.4,0.9c-0.1,0.5-0.3,1.1-0.4,1.6
				c-0.1,0.4-0.4,0.5-0.8,0.4c-0.8-0.3-1.4-0.8-2-1.5c-1.8-2.2-2.3-6.7,0.1-10.4c2.6-4.2,7.6-5.8,12.1-5.3c5.4,0.6,8.8,4.3,9.4,8.4
				c0.3,1.9,0.1,6.6-2.6,9.9c-3.1,3.8-8,4-10.3,1.7c-0.2-0.2-0.3-0.4-0.5-0.6c0,0.1,0,0.2-0.1,0.2c-1.1,4.3-1.2,5.3-2.4,7.3
				c-0.2,0.3-0.4,0.6-0.6,0.9c1.7,0.5,3.4,0.8,5.3,0.8c9.8,0,17.7-7.9,17.7-17.7C99.5,117.1,91.6,109.2,81.8,109.2z"/>
			<path class="st0" d="M79.4,135.7c0-0.1,0-0.1,0.1-0.2c0.2,0.2,0.3,0.4,0.5,0.6c2.3,2.3,7.3,2.1,10.3-1.7c2.7-3.3,2.9-8,2.6-9.9
				c-0.6-4.2-4-7.8-9.4-8.4c-4.5-0.5-9.4,1.2-12.1,5.3c-2.4,3.7-1.9,8.2-0.1,10.4c0.5,0.7,1.2,1.2,2,1.5c0.4,0.2,0.7,0,0.8-0.4
				c0.1-0.5,0.3-1.1,0.4-1.6c0.1-0.3-0.1-0.6-0.4-0.9c-2.1-2.7-1.1-8.5,3.7-10.7c4.1-1.9,10.6-0.6,10.9,5.3c0.2,3-0.8,7.1-3.2,8.9
				c-2.6,1.9-5.7,0-5-2.5c0.8-3.1,1.8-5.3,1.4-6.9c-0.6-2.6-4.2-2.4-5.2,0.8c-0.5,1.5-0.4,2.9,0.2,4.4c0,0.1,0.1,0.2,0.1,0.4
				c-2.2,9.3-2.4,9.9-2.5,11.6c0,0.5,0,1,0,1.5c0.6,0.3,1.3,0.5,2,0.8c0.2-0.3,0.4-0.6,0.6-0.9C78.2,140.9,78.3,140,79.4,135.7z"/>
		</g>
		<g>
			<circle class="st7" cx="81.8" cy="236.1" r="17.7"/>
			<path class="st0" d="M72.2,246.1l1.5-5.5c-0.8-1.5-1.3-3.2-1.3-4.9c0-5.6,4.6-10.2,10.2-10.2c5.6,0,10.2,4.6,10.2,10.2
				c0,5.6-4.6,10.2-10.2,10.2c-1.7,0-3.3-0.4-4.8-1.2L72.2,246.1z M78,242.5l0.3,0.2c1.3,0.8,2.7,1.2,4.2,1.2c4.5,0,8.2-3.7,8.2-8.2
				c0-4.5-3.7-8.2-8.2-8.2c-4.5,0-8.2,3.7-8.2,8.2c0,1.5,0.4,3,1.2,4.3l0.2,0.4l-0.8,3.1L78,242.5z"/>
			<path class="st1" d="M86.4,237.1c-0.4-0.3-1-0.5-1.5-0.3c-0.4,0.2-0.6,0.7-0.9,1c-0.1,0.2-0.3,0.2-0.5,0.1
				c-1.4-0.6-2.5-1.5-3.3-2.8c-0.1-0.2-0.1-0.4,0.1-0.6c0.2-0.3,0.5-0.6,0.6-1c0.1-0.4-0.1-0.8-0.3-1.1c-0.2-0.4-0.4-1-0.8-1.3
				c-0.4-0.2-0.9-0.1-1.3,0.2c-0.6,0.5-0.9,1.3-0.9,2c0,0.2,0,0.4,0.1,0.6c0.1,0.5,0.4,1,0.6,1.4c0.2,0.3,0.4,0.7,0.6,1
				c0.8,1,1.7,1.9,2.8,2.6c0.5,0.3,1.1,0.6,1.7,0.8c0.7,0.2,1.3,0.5,2,0.3c0.8-0.1,1.5-0.6,1.8-1.4c0.1-0.2,0.1-0.5,0.1-0.7
				C87.4,237.6,86.8,237.3,86.4,237.1z"/>
		</g>
		<g>
			<circle class="st8" cx="81.8" cy="290.7" r="17.7"/>
			<path class="st0" d="M91.3,288.1c0-2.3-1.9-4.2-4.2-4.2H76.2c-2.3,0-4.2,1.9-4.2,4.2v5.1c0,2.3,1.9,4.2,4.2,4.2H87
				c2.3,0,4.2-1.9,4.2-4.2V288.1z M84.9,291l-4.9,2.4c-0.2,0.1-0.8,0-0.8-0.3v-4.9c0-0.2,0.7-0.4,0.8-0.2l4.7,2.5
				C84.9,290.6,85.1,290.9,84.9,291z"/>
		</g>
	</g>
	<g>
		<g>
			<linearGradient id="SVGID_2_" gradientUnits="userSpaceOnUse" x1="10.8493" y1="-7.1224" x2="42.9374" y2="23.5913">
				<stop  offset="1.104800e-003" style="stop-color:#FBE18A"/>
				<stop  offset="0.2094" style="stop-color:#FCBB45"/>
				<stop  offset="0.3765" style="stop-color:#F75274"/>
				<stop  offset="0.5238" style="stop-color:#D53692"/>
				<stop  offset="0.7394" style="stop-color:#8F39CE"/>
				<stop  offset="1" style="stop-color:#5B4FE9"/>
			</linearGradient>
			<circle class="st14" cx="27.1" cy="8.4" r="2.1"/>
			<linearGradient id="SVGID_3_" gradientUnits="userSpaceOnUse" x1="1.7951" y1="2.337" x2="33.8832" y2="33.0507">
				<stop  offset="1.104800e-003" style="stop-color:#FBE18A"/>
				<stop  offset="0.2094" style="stop-color:#FCBB45"/>
				<stop  offset="0.3765" style="stop-color:#F75274"/>
				<stop  offset="0.5238" style="stop-color:#D53692"/>
				<stop  offset="0.7394" style="stop-color:#8F39CE"/>
				<stop  offset="1" style="stop-color:#5B4FE9"/>
			</linearGradient>
			<path class="st15" d="M17.8,9c-4.8,0-8.7,3.9-8.7,8.7c0,4.8,3.9,8.7,8.7,8.7c4.8,0,8.7-3.9,8.7-8.7C26.5,12.9,22.6,9,17.8,9z
				 M17.8,23.3c-3.1,0-5.6-2.5-5.6-5.6s2.5-5.6,5.6-5.6c3.1,0,5.6,2.5,5.6,5.6S20.9,23.3,17.8,23.3z"/>
			<linearGradient id="SVGID_4_" gradientUnits="userSpaceOnUse" x1="1.7256" y1="2.4097" x2="33.8135" y2="33.1231">
				<stop  offset="1.104800e-003" style="stop-color:#FBE18A"/>
				<stop  offset="0.2094" style="stop-color:#FCBB45"/>
				<stop  offset="0.3765" style="stop-color:#F75274"/>
				<stop  offset="0.5238" style="stop-color:#D53692"/>
				<stop  offset="0.7394" style="stop-color:#8F39CE"/>
				<stop  offset="1" style="stop-color:#5B4FE9"/>
			</linearGradient>
			<path class="st16" d="M24.8,35.4H10.6C4.8,35.4,0,30.6,0,24.8V10.6C0,4.8,4.8,0,10.6,0h14.1c5.9,0,10.6,4.8,10.6,10.6v14.1
				C35.4,30.6,30.6,35.4,24.8,35.4z M10.6,3.3c-4,0-7.3,3.3-7.3,7.3v14.1c0,4,3.3,7.3,7.3,7.3h14.1c4,0,7.3-3.3,7.3-7.3V10.6
				c0-4-3.3-7.3-7.3-7.3H10.6z"/>
		</g>
	</g>
	<path class="st11" d="M25.9-34.7l1-6.4h-6.1v-4.2c0-1.8,0.9-3.5,3.6-3.5h2.8v-5.5c0,0-2.5-0.4-5-0.4c-5.1,0-8.4,3.1-8.4,8.6v4.9
		H8.2v6.4h5.6v15.5h6.9v-15.5H25.9z"/>
	<path class="st9" d="M39,58.8c-1.4,0.6-2.9,1-4.3,1.2c0.7-0.1,1.7-1.4,2.1-1.9c0.6-0.8,1.1-1.7,1.4-2.6c0-0.1,0.1-0.2,0-0.2
		c-0.1,0-0.2,0-0.2,0c-1.6,0.9-3.3,1.5-5.2,2c-0.1,0-0.3,0-0.4-0.1c-0.1-0.2-0.3-0.3-0.5-0.5c-0.8-0.6-1.6-1.2-2.5-1.5
		c-1.2-0.5-2.5-0.7-3.8-0.6c-1.3,0.1-2.5,0.4-3.6,1C21,56.2,20,57,19.1,58c-0.8,1-1.4,2.2-1.8,3.5c-0.3,1.2-0.3,2.5-0.1,3.7
		c0,0.2,0,0.2-0.2,0.2c-7.1-1.1-12.9-3.6-17.7-9c-0.2-0.2-0.3-0.2-0.5,0c-2.1,3.1-1.1,8.1,1.5,10.6c0.3,0.3,0.7,0.7,1.1,1
		c-0.1,0-1.9-0.2-3.4-1c-0.2-0.1-0.3-0.1-0.3,0.2c0,0.3,0,0.6,0.1,1c0.4,3.2,2.6,6.1,5.6,7.2c0.4,0.2,0.8,0.3,1.1,0.3
		c-0.7,0.2-1.4,0.3-3.4,0.1C1,75.9,0.9,76,1,76.3c1.5,4,4.7,5.2,7,5.9c0.3,0.1,0.6,0.1,1,0.1c0,0,0,0-0.1,0.1
		c-0.8,1.2-3.5,2.1-4.8,2.5c-2.3,0.8-4.9,1.2-7.3,0.9c-0.4-0.1-0.5-0.1-0.6,0c-0.1,0.1,0,0.2,0.1,0.3c0.5,0.3,1,0.6,1.5,0.9
		c1.6,0.8,3.2,1.5,4.9,2c8.8,2.4,18.7,0.6,25.2-5.9c5.2-5.1,7-12.2,7-19.3c0-0.3,0.3-0.4,0.5-0.6c1.3-1,2.4-2.2,3.4-3.6
		c0.2-0.3,0.2-0.6,0.2-0.7c0,0,0,0,0,0C39.2,58.7,39.2,58.8,39,58.8z"/>
	<path class="st17" d="M15.4,132.3c0,0.1-0.1,0.2-0.1,0.3c-1.3,5.1-1.4,6.2-2.8,8.6c-0.6,1.1-1.4,2.2-2.1,3.2
		c-0.1,0.1-0.2,0.3-0.4,0.2c-0.2,0-0.2-0.2-0.2-0.4c-0.2-1.5-0.3-3.1-0.3-4.7c0.1-2,0.3-2.7,2.9-13.8c0-0.2,0-0.3-0.1-0.5
		c-0.6-1.7-0.8-3.4-0.2-5.2c1.2-3.8,5.5-4.1,6.2-0.9c0.5,1.9-0.8,4.4-1.7,8.1c-0.8,3.1,2.8,5.2,5.9,3c2.8-2.1,3.9-7,3.7-10.5
		c-0.4-7-8.1-8.5-12.9-6.2c-5.6,2.6-6.8,9.5-4.3,12.6c0.3,0.4,0.6,0.6,0.5,1.1c-0.2,0.6-0.3,1.3-0.5,1.9c-0.1,0.5-0.5,0.6-1,0.4
		c-0.9-0.4-1.7-1-2.3-1.7c-2.1-2.6-2.7-7.9,0.1-12.3c3.1-4.9,9-6.9,14.3-6.3c6.3,0.7,10.4,5.1,11.1,10c0.3,2.2,0.1,7.8-3.1,11.7
		c-3.6,4.5-9.5,4.8-12.2,2C15.8,132.8,15.7,132.5,15.4,132.3z"/>
	<g>
		<path class="st7" d="M0,253.8l2.5-9.5c-1.4-2.6-2.2-5.5-2.2-8.4c0-9.6,7.8-17.5,17.5-17.5c9.6,0,17.5,7.8,17.5,17.5
			c0,9.6-7.8,17.5-17.5,17.5c-2.9,0-5.7-0.7-8.3-2.1L0,253.8z M10,247.7l0.6,0.4c2.2,1.3,4.7,2,7.2,2c7.8,0,14.2-6.4,14.2-14.2
			c0-7.8-6.4-14.2-14.2-14.2c-7.8,0-14.2,6.4-14.2,14.2c0,2.6,0.7,5.1,2.1,7.3l0.4,0.6l-1.4,5.3L10,247.7z"/>
		<path class="st18" d="M24.4,238.3c-0.7-0.4-1.7-0.9-2.5-0.6c-0.7,0.3-1.1,1.3-1.5,1.8c-0.2,0.3-0.5,0.3-0.8,0.2
			c-2.4-1-4.3-2.6-5.7-4.8c-0.2-0.3-0.2-0.6,0.1-0.9c0.4-0.5,0.9-1,1-1.7c0.1-0.6-0.2-1.4-0.5-2c-0.3-0.7-0.7-1.8-1.5-2.2
			c-0.7-0.4-1.6-0.2-2.2,0.3c-1,0.8-1.5,2.2-1.5,3.5c0,0.4,0.1,0.7,0.1,1.1c0.2,0.9,0.6,1.7,1.1,2.4c0.3,0.6,0.7,1.1,1.1,1.7
			c1.3,1.8,2.9,3.3,4.8,4.5c0.9,0.6,2,1.1,3,1.4c1.2,0.4,2.2,0.8,3.5,0.6c1.3-0.3,2.6-1.1,3.2-2.4c0.2-0.4,0.2-0.8,0.1-1.2
			C26.2,239.2,25,238.7,24.4,238.3z"/>
	</g>
	<path class="st8" d="M35.7,286c0-4.4-3.5-7.9-7.9-7.9H7.6c-4.4,0-7.9,3.5-7.9,7.9v9.4c0,4.4,3.5,7.9,7.9,7.9h20.2
		c4.4,0,7.9-3.5,7.9-7.9V286z M23.8,291.4l-9,4.5c-0.4,0.2-1.6-0.1-1.6-0.5v-9.2c0-0.4,1.2-0.7,1.6-0.5l8.7,4.7
		C23.8,290.6,24.2,291.2,23.8,291.4z"/>
	<g>
		<path class="st12" d="M25.6,176.3c2.4,1.7,5.3,2.7,8.5,2.7V173c-0.6,0-1.2-0.1-1.8-0.2v4.8c-3.2,0-6.1-1-8.5-2.7v12.4
			c0,6.2-5,11.2-11.2,11.2c-2.3,0-4.5-0.7-6.2-1.9c2,2.1,4.9,3.4,8,3.4c6.2,0,11.2-5,11.2-11.2L25.6,176.3L25.6,176.3z M27.8,170.2
			c-1.2-1.3-2-3-2.2-4.9v-0.8h-1.7C24.3,166.9,25.7,169,27.8,170.2L27.8,170.2z M10.3,191.8c-0.7-0.9-1-2-1-3.1
			c0-2.8,2.3-5.1,5.1-5.1c0.5,0,1.1,0.1,1.6,0.2v-6.2c-0.6-0.1-1.2-0.1-1.8-0.1v4.8c-0.5-0.2-1-0.2-1.6-0.2c-2.8,0-5.1,2.3-5.1,5.1
			C7.4,189.2,8.6,191,10.3,191.8z"/>
		<path class="st2" d="M23.8,174.9c2.4,1.7,5.3,2.7,8.5,2.7v-4.8c-1.8-0.4-3.3-1.3-4.5-2.6c-2-1.3-3.4-3.3-3.9-5.7h-4.4v24.2
			c0,2.8-2.3,5.1-5.1,5.1c-1.7,0-3.1-0.8-4.1-2c-1.7-0.8-2.8-2.6-2.8-4.6c0-2.8,2.3-5.1,5.1-5.1c0.5,0,1.1,0.1,1.6,0.2v-4.8
			c-6.1,0.1-11,5.1-11,11.2c0,3,1.2,5.8,3.2,7.8c1.8,1.2,3.9,1.9,6.2,1.9c6.2,0,11.2-5,11.2-11.2V174.9z"/>
		<path class="st13" d="M32.2,172.8v-1.3c-1.6,0-3.1-0.4-4.5-1.3C28.9,171.5,30.5,172.4,32.2,172.8z M23.9,164.5
			c0-0.2-0.1-0.5-0.1-0.7V163h-6.1v24.2c0,2.8-2.3,5.1-5.1,5.1c-0.8,0-1.6-0.2-2.3-0.5c0.9,1.2,2.4,2,4.1,2c2.8,0,5.1-2.3,5.1-5.1
			v-24.2H23.9z M14.1,177.5v-1.4c-0.5-0.1-1-0.1-1.5-0.1c-6.2,0-11.2,5-11.2,11.2c0,3.9,2,7.3,5,9.3c-2-2-3.2-4.8-3.2-7.8
			C3.1,182.6,8,177.6,14.1,177.5L14.1,177.5z"/>
	</g>
	<line class="st19" x1="152.8" y1="-55.8" x2="152.8" y2="308.4"/>
	<line class="st20" x1="-38.7" y1="-55.8" x2="-38.7" y2="309.7"/>
	<line class="st20" x1="410" y1="-55.8" x2="410" y2="309.7"/>
</g>
<g id="TEXT">
	<text transform="matrix(1 0 0 1 -118.6456 -93.2513)"><tspan x="0" y="0" style="font-family:'Montserrat-Bold'; font-size:12px; letter-spacing:4;">Icons</tspan><tspan x="64.2" y="0" style="fill:#808080; font-family:'Montserrat-Bold'; font-size:12px; letter-spacing:4;"> &amp; </tspan><tspan x="94.1" y="0" style="font-family:'Montserrat-Bold'; font-size:12px; letter-spacing:4;">Social Media Logos</tspan><tspan x="321.2" y="0" style="fill:#808080; font-family:'Montserrat-Bold'; font-size:12px; letter-spacing:4;"> for </tspan><tspan x="378.7" y="0" style="font-family:'Montserrat-Bold'; font-size:12px; letter-spacing:4;">business card</tspan></text>
</g>
</svg>
