<?xml version="1.0" encoding="utf-8"?>
<!-- Generator: Adobe Illustrator 19.0.0, SVG Export Plug-In . SVG Version: 6.00 Build 0)  -->
<svg version="1.1" id="Layer_1" xmlns="http://www.w3.org/2000/svg" xmlns:xlink="http://www.w3.org/1999/xlink" x="0px" y="0px"
	 viewBox="0 0 1600 900" style="enable-background:new 0 0 1600 900;" xml:space="preserve">
<style type="text/css">
	.st0{fill:none;stroke:#ED1C24;stroke-width:3;stroke-miterlimit:10;}
	.st1{fill:none;stroke:#0C4776;stroke-width:3;stroke-miterlimit:10;}
</style>
<rect id="XMLID_1_" x="262.9" y="61.5" transform="matrix(0.3063 -0.9519 0.9519 0.3063 94.6545 479.1165)" class="st0" width="226.3" height="226.3"/>
<rect id="XMLID_3_" x="1151.9" y="497.3" transform="matrix(0.9442 0.3295 -0.3295 0.9442 259.4758 -374.0039)" class="st0" width="162.4" height="162.4"/>
<rect id="XMLID_11_" x="723.3" y="453.5" transform="matrix(0.9201 -0.3917 0.3917 0.9201 -132.1682 338.1966)" class="st0" width="79.3" height="79.3"/>
<rect id="XMLID_18_" x="1149.4" y="320.2" transform="matrix(0.8807 0.4736 -0.4736 0.8807 303.8118 -515.2291)" class="st0" width="50.8" height="50.8"/>
<rect id="XMLID_9_" x="1357.2" y="25.1" transform="matrix(0.8021 0.5971 -0.5971 0.8021 355.6826 -841.7396)" class="st0" width="181.5" height="181.5"/>
<rect id="XMLID_4_" x="-45.5" y="637" transform="matrix(0.9344 -0.3563 0.3563 0.9344 -272.1275 97.8458)" class="st0" width="350.1" height="301.4"/>
<path id="XMLID_6_" class="st1" d="M101.5,318.2c-89,11-152.3,92-141.3,181l322.3-39.8C271.6,370.5,190.5,307.2,101.5,318.2z"/>
<path id="XMLID_5_" class="st1" d="M645.1,274.4c95.9,115.3,267.1,131,382.3,35.1L680.2-108C564.9-12.1,549.2,159.1,645.1,274.4z"/>
<path id="XMLID_7_" class="st1" d="M645.3,787.2c33.9-81.4-4.5-174.8-85.9-208.7L436.6,873.1C518,907,611.4,868.6,645.3,787.2z"/>
<path id="XMLID_17_" class="st1" d="M1052,561.9c47.4-51.4,44.1-131.5-7.3-178.9L873.1,569.2C924.5,616.6,1004.6,613.4,1052,561.9z"
	/>
<path id="XMLID_8_" class="st1" d="M1354.4,721.6c-56.9,67.3-48.5,168,18.8,224.9l206.1-243.8C1512,645.9,1411.3,654.3,1354.4,721.6
	z"/>
<path id="XMLID_10_" class="st1" d="M1399.3,420.3c72.1,11.3,139.7-38,151-110.1l-261.1-40.9C1278,341.4,1327.2,409,1399.3,420.3z"
	/>
<polygon id="XMLID_13_" class="st1" points="724.1,606.6 890.9,933 1217.3,766.2 "/>
<polygon id="XMLID_15_" class="st1" points="1131.2,-45.9 1022.3,127.9 1196.1,236.9 "/>
<polygon id="XMLID_16_" class="st1" points="1407.3,517.4 1555.5,606.6 1644.7,458.4 "/>
<polygon id="XMLID_14_" class="st1" points="618.1,436.3 445.8,393.9 403.4,566.1 "/>
<polygon id="XMLID_12_" class="st1" points="-22.4,186.7 157.3,196.4 167,16.7 "/>
</svg>
