<?xml version="1.0" encoding="utf-8"?>
<!-- Generator: Adobe Illustrator 19.0.0, SVG Export Plug-In . SVG Version: 6.00 Build 0)  -->
<svg version="1.1" xmlns="http://www.w3.org/2000/svg" xmlns:xlink="http://www.w3.org/1999/xlink" x="0px" y="0px"
	 viewBox="0 0 43 35.4" style="enable-background:new 0 0 43 35.4;" xml:space="preserve">
<style type="text/css">
	*{fill:#fff !important;}
	.st0{fill:#FFFFFF;}
	.st1{fill-rule:evenodd;clip-rule:evenodd;fill:#FFFFFF;}
	.st2{fill-rule:evenodd;clip-rule:evenodd;}
	.st3{fill:#D53692;}
	.st4{fill:#006EF5;}
	.st5{fill:#FCBB45;}
	.st6{fill:#8F39CE;}
	.st7{fill:#00D95F;}
	.st8{fill:#FF0000;}
	.st9{fill:#33CCFF;}
	.st10{fill:url(#SVGID_1_);}
	.st11{fill:#337FFF;}
	.st12{fill-rule:evenodd;clip-rule:evenodd;fill:#EE1D52;}
	.st13{fill-rule:evenodd;clip-rule:evenodd;fill:#69C9D0;}
	.st14{fill:url(#SVGID_2_);}
	.st15{fill:url(#SVGID_3_);}
	.st16{fill:url(#SVGID_4_);}
	.st17{fill-rule:evenodd;clip-rule:evenodd;fill:#FF0000;}
	.st18{fill-rule:evenodd;clip-rule:evenodd;fill:#00D95F;}
	.st19{fill:none;stroke:#999999;stroke-miterlimit:10;}
	.st20{fill:none;stroke:#999999;stroke-width:0.5;stroke-miterlimit:10;stroke-dasharray:12;}
</style>
<g id="BACKGROUND">
</g>
<g id="ELEMENTS">
	<g>
		<path d="M235.3-91.7c2.8-1.8,4.7-5,4.7-8.5c0-5.6-4.6-10.2-10.2-10.2s-10.2,4.6-10.2,10.2c0,3.6,1.9,6.7,4.7,8.5
			c-5.8,2.2-9.9,7.8-9.9,14.3c0,2.8,2.2,5,5,5h20.7c2.8,0,5-2.2,5-5C245.1-83.9,241-89.5,235.3-91.7z M222.3-100.3
			c0-4.2,3.4-7.5,7.5-7.5s7.5,3.4,7.5,7.5c0,4.2-3.4,7.5-7.5,7.5S222.3-96.1,222.3-100.3z M240.1-75h-20.7c-1.3,0-2.4-1.1-2.4-2.4
			c0-7,5.7-12.7,12.7-12.7c7,0,12.7,5.7,12.7,12.7C242.5-76.1,241.4-75,240.1-75z"/>
		<g>
			<path d="M237.6-56H222c-3.1,0-5.7,2.5-5.7,5.7v27c0,3.1,2.5,5.7,5.7,5.7h15.5c3.1,0,5.7-2.6,5.7-5.7v-27
				C243.2-53.5,240.7-56,237.6-56z M222-53.4h15.5c1.7,0,3.1,1.4,3.1,3.1v21.7H219v-21.7C219-52,220.4-53.4,222-53.4z M237.6-20.3
				H222c-1.7,0-3.1-1.4-3.1-3.1v-2.8h21.6v2.8C240.6-21.6,239.2-20.3,237.6-20.3z"/>
			<circle cx="229.4" cy="-50.7" r="1"/>
			<circle cx="229.4" cy="-23.4" r="1"/>
		</g>
		<path d="M248.5,16.9l-14-16.1c-1.2-1.3-2.9-2.1-4.6-2.1c-1.8,0-3.5,0.8-4.6,2.1l-14,16.1c-0.3,0.4-0.4,0.9-0.2,1.4
			c0.2,0.5,0.7,0.8,1.2,0.8h2.4v16.4c0,0.7,0.6,1.3,1.3,1.3h28c0.7,0,1.3-0.6,1.3-1.3V19.1h2.4c0.5,0,1-0.3,1.2-0.8
			C248.9,17.8,248.8,17.3,248.5,16.9z M227.1,2.5c0.7-0.8,1.6-1.2,2.7-1.2c1,0,2,0.4,2.7,1.2l12.2,13.9H215L227.1,2.5z M242.5,34.2
			h-25.3V19.1h25.3V34.2z"/>
		<path d="M243.3,57.4h-27c-3,0-5.5,2.5-5.5,5.5v18.9c0,3,2.5,5.5,5.5,5.5h27c3,0,5.5-2.5,5.5-5.5V62.9
			C248.8,59.9,246.3,57.4,243.3,57.4z M243.3,60c0.2,0,0.4,0,0.7,0.1L232.6,73c-0.7,0.8-1.7,1.2-2.8,1.2c-1.1,0-2.1-0.5-2.8-1.2
			l-11.4-12.9c0.2,0,0.4-0.1,0.7-0.1H243.3z M246.2,81.8c0,1.6-1.3,2.9-2.9,2.9h-27c-1.6,0-2.9-1.3-2.9-2.9V62.9
			c0-0.4,0.1-0.8,0.2-1.1l11.4,13c1.2,1.4,2.9,2.1,4.7,2.1c1.8,0,3.5-0.8,4.7-2.1l11.4-13c0.1,0.3,0.2,0.7,0.2,1.1V81.8z"/>
		<path d="M243.9,126.7l-25-18.2c-0.9-0.6-2-0.7-3-0.2c-1,0.5-1.5,1.5-1.5,2.5l0,31c0,1.2,0.6,2.3,1.6,2.9c0.5,0.3,1.2,0.5,1.8,0.5
			c0.5,0,1.1-0.1,1.5-0.4c0.1-0.1,0.3-0.2,0.4-0.3l8.5-9.2l5.1,10c0.2,0.5,0.7,0.7,1.2,0.7c0.2,0,0.4,0,0.6-0.1
			c0.6-0.3,0.9-1.1,0.6-1.8l-5.1-10.1l12.5-1.3c0.2,0,0.3-0.1,0.5-0.1c1.1-0.5,1.8-1.6,1.8-2.8C245.3,128.5,244.8,127.4,243.9,126.7
			z M242.4,130l-13.9,1.5c-0.3,0-0.6,0.2-0.8,0.4l-9.7,10.5c-0.3,0.1-0.5,0-0.6-0.1c-0.1-0.1-0.4-0.3-0.4-0.7l0-31
			c0,0,0-0.1,0.1-0.2c0,0,0.1,0,0.1,0c0.1,0,0.1,0,0.1,0l25,18.2c0.3,0.2,0.3,0.6,0.3,0.7C242.6,129.6,242.6,129.8,242.4,130z"/>
		<g>
			<g>
				<path d="M229.8,200.3L229.8,200.3c-0.4,0-0.7-0.2-1-0.4c-0.6-0.6-13.7-14.8-13.7-22.6c0-8.1,6.6-14.7,14.7-14.7
					s14.7,6.6,14.7,14.7c0,7.8-13.1,22-13.7,22.6C230.5,200.2,230.2,200.3,229.8,200.3z M229.8,165.2c-6.6,0-12,5.4-12,12
					c0,5.2,8,15.2,12,19.8c4.1-4.6,12-14.6,12-19.8C241.8,170.6,236.4,165.2,229.8,165.2z"/>
			</g>
			<g>
				<path d="M229.8,183.2c-3.6,0-6.6-3-6.6-6.6c0-3.6,3-6.6,6.6-6.6c3.6,0,6.6,3,6.6,6.6C236.4,180.3,233.4,183.2,229.8,183.2z
					 M229.8,172.7c-2.2,0-4,1.8-4,4c0,2.2,1.8,4,4,4c2.2,0,4-1.8,4-4C233.8,174.5,232,172.7,229.8,172.7z"/>
			</g>
		</g>
		<path d="M229.8,217.1c-10.5,0-19,8.5-19,19c0,10.5,8.5,19,19,19c10.5,0,19-8.5,19-19C248.8,225.6,240.3,217.1,229.8,217.1z
			 M246.1,234.8H239c-0.2-5.9-1.6-11-3.7-14.1C241.2,222.8,245.6,228.2,246.1,234.8z M229.8,252.4c-3,0-6.3-6.1-6.5-15.1h13.1
			C236.1,246.3,232.8,252.4,229.8,252.4z M223.3,234.8c0.3-8.9,3.6-15.1,6.5-15.1c3,0,6.3,6.1,6.5,15.1H223.3z M224.3,220.6
			c-2.1,3.2-3.5,8.2-3.7,14.1h-7.1C214,228.2,218.4,222.8,224.3,220.6z M213.5,237.4h7.1c0.2,5.9,1.6,11,3.7,14.1
			C218.4,249.4,214,243.9,213.5,237.4z M235.3,251.5c2.1-3.2,3.5-8.2,3.7-14.1h7.1C245.6,243.9,241.2,249.4,235.3,251.5z"/>
	</g>
	<g>
		<g>
			<g>
				<circle cx="293.9" cy="-101.6" r="7.6"/>
			</g>
			<g>
				<path d="M293.9-91.4L293.9-91.4c-7.7,0-14,6.3-14,14l0,0c0,2,1.6,3.7,3.7,3.7h20.7c2,0,3.7-1.6,3.7-3.7l0,0
					C307.9-85.2,301.6-91.4,293.9-91.4z"/>
			</g>
		</g>
		<g>
			<path d="M306-28.7v-21.7c0-2.4-2-4.4-4.4-4.4h-15.5c-2.4,0-4.4,2-4.4,4.4v21.7H306z M293.9-52c0.7,0,1.3,0.6,1.3,1.3
				c0,0.7-0.6,1.3-1.3,1.3c-0.7,0-1.3-0.6-1.3-1.3C292.6-51.4,293.2-52,293.9-52z"/>
			<path d="M281.8-26.1v2.8c0,2.4,2,4.4,4.4,4.4h15.5c2.4,0,4.4-2,4.4-4.4v-2.8H281.8z M293.9-21.4c-0.7,0-1.3-0.6-1.3-1.3
				c0-0.7,0.6-1.3,1.3-1.3c0.7,0,1.3,0.6,1.3,1.3C295.2-22,294.6-21.4,293.9-21.4z"/>
		</g>
		<g>
			<g>
				<path d="M290.3,1.7L277.7,16c-0.6,0.7-0.1,1.7,0.8,1.7h3.7h25.7h1.4c0.9,0,1.4-1.1,0.8-1.7L297.5,1.7
					C295.6-0.5,292.2-0.5,290.3,1.7z"/>
			</g>
			<g>
				<path d="M307.9,20.4v14c0,0.6-0.5,1-1,1H281c-0.6,0-1-0.5-1-1v-14H307.9z"/>
			</g>
		</g>
		<g>
			<path d="M278.8,59.1L291.1,73c0.7,0.8,1.7,1.2,2.8,1.2c1.1,0,2.1-0.5,2.8-1.2l12.1-13.7c0.1-0.1,0.2-0.2,0.3-0.3
				c-0.5-0.2-1.1-0.4-1.7-0.4h-27C279.8,58.7,279.3,58.8,278.8,59.1C278.8,59,278.8,59.1,278.8,59.1z"/>
			<path d="M311,60.7c-0.1,0.1-0.1,0.3-0.2,0.4l-12.1,13.7c-1.2,1.4-2.9,2.1-4.7,2.1c-1.8,0-3.5-0.8-4.7-2.1l-12.3-13.9
				c0,0,0-0.1-0.1-0.1c-0.4,0.6-0.6,1.4-0.6,2.2v18.9c0,2.3,1.9,4.2,4.2,4.2h27c2.3,0,4.2-1.9,4.2-4.2V62.9
				C311.6,62.1,311.4,61.3,311,60.7z"/>
		</g>
		<path d="M307.2,127.1l-25-18.2c-1-0.7-2.4,0-2.4,1.2l0,31c0,1.6,1.6,2.6,3,1.9l8.8-9.6l5.7,11.3c0.2,0.5,0.7,0.7,1.2,0.7
			c0.2,0,0.4,0,0.6-0.1c0.6-0.3,0.9-1.1,0.6-1.8l-5.8-11.4l13-1.4C308.3,129.9,308.5,128,307.2,127.1z"/>
		<g>
			<path d="M293.9,172.9c-2.2,0-4,1.8-4,4c0,2.2,1.8,4,4,4c2.2,0,4-1.8,4-4C297.9,174.7,296.1,172.9,293.9,172.9z"/>
			<path d="M293.9,164.2c-7.4,0-13.4,6-13.4,13.4c0,6.3,9.7,17.7,12.6,20.9c0.4,0.5,1.1,0.5,1.6,0c2.9-3.2,12.6-14.6,12.6-20.9
				C307.3,170.2,301.3,164.2,293.9,164.2z M293.9,183.5c-3.6,0-6.6-3-6.6-6.6c0-3.6,3-6.6,6.6-6.6c3.6,0,6.6,3,6.6,6.6
				C300.5,180.5,297.5,183.5,293.9,183.5z"/>
		</g>
		<g>
			<path d="M287.4,237.4c0.3,8.9,3.6,15.1,6.5,15.1c3,0,6.3-6.1,6.5-15.1H287.4z"/>
			<path d="M293.9,219.7c-3,0-6.3,6.1-6.5,15.1h13.1C300.2,225.8,296.9,219.7,293.9,219.7z"/>
			<path d="M303.1,234.8h8.5c-0.6-7.8-6.2-14.2-13.6-15.9C300.9,221.6,302.9,227.5,303.1,234.8z"/>
			<path d="M303.1,237.4c-0.2,7.2-2.2,13.1-5.2,15.9c7.4-1.7,13.1-8.1,13.6-15.9H303.1z"/>
			<path d="M284.7,237.4h-8.5c0.6,7.8,6.2,14.2,13.6,15.9C286.9,250.5,284.9,244.6,284.7,237.4z"/>
			<path d="M284.7,234.8c0.2-7.2,2.2-13.1,5.2-15.9c-7.4,1.7-13.1,8.1-13.6,15.9H284.7z"/>
		</g>
	</g>
	<g>
		<g>
			<circle cx="358" cy="-91.4" r="17.7"/>
			<g>
				<g>
					<circle class="st0" cx="358" cy="-99.8" r="5"/>
				</g>
				<g>
					<path class="st0" d="M358-93L358-93c-5.2,0-9.3,4.2-9.3,9.3l0,0c0,1.4,1.1,2.5,2.5,2.5h13.8c1.4,0,2.5-1.1,2.5-2.5l0,0
						C367.4-88.8,363.2-93,358-93z"/>
				</g>
			</g>
		</g>
		<g>
			<circle cx="358" cy="-36.8" r="17.7"/>
			<g>
				<path class="st0" d="M366-31.5v-14.3c0-1.6-1.3-2.9-2.9-2.9h-10.2c-1.6,0-2.9,1.3-2.9,2.9v14.3H366z M358-46.8
					c0.5,0,0.9,0.4,0.9,0.9s-0.4,0.9-0.9,0.9c-0.5,0-0.9-0.4-0.9-0.9S357.5-46.8,358-46.8z"/>
				<path class="st0" d="M350-29.7v1.8c0,1.6,1.3,2.9,2.9,2.9h10.2c1.6,0,2.9-1.3,2.9-2.9v-1.8H350z M358-26.6
					c-0.5,0-0.9-0.4-0.9-0.9s0.4-0.9,0.9-0.9c0.5,0,0.9,0.4,0.9,0.9S358.5-26.6,358-26.6z"/>
			</g>
		</g>
		<g>
			<circle cx="358" cy="17.7" r="17.7"/>
			<g>
				<g>
					<path class="st0" d="M355.6,5.5l-8.3,9.6c-0.4,0.5-0.1,1.2,0.5,1.2h2.4h17.1h0.9c0.6,0,0.9-0.7,0.5-1.2l-8.3-9.6
						C359.1,4,356.9,4,355.6,5.5z"/>
				</g>
				<g>
					<path class="st0" d="M367.3,17.9v9.3c0,0.4-0.3,0.7-0.7,0.7h-17.2c-0.4,0-0.7-0.3-0.7-0.7v-9.3H367.3z"/>
				</g>
			</g>
		</g>
		<g>
			<circle cx="358" cy="72.3" r="17.7"/>
			<g>
				<path class="st0" d="M348,63.5l8.2,9.3c0.5,0.5,1.1,0.8,1.8,0.8c0.7,0,1.4-0.3,1.8-0.8l8.1-9.1c0.1-0.1,0.1-0.1,0.2-0.2
					c-0.3-0.1-0.7-0.2-1.1-0.2h-18C348.6,63.2,348.2,63.3,348,63.5C347.9,63.5,347.9,63.5,348,63.5z"/>
				<path class="st0" d="M369.4,64.5c0,0.1-0.1,0.2-0.2,0.3l-8.1,9.1c-0.8,0.9-1.9,1.4-3.2,1.4c-1.2,0-2.4-0.5-3.2-1.4l-8.2-9.3
					c0,0,0,0,0-0.1c-0.3,0.4-0.4,0.9-0.4,1.4v12.6c0,1.5,1.2,2.8,2.8,2.8h18c1.5,0,2.8-1.2,2.8-2.8V66
					C369.8,65.5,369.6,65,369.4,64.5z"/>
			</g>
		</g>
		<g>
			<circle cx="358" cy="126.9" r="17.7"/>
			<path class="st0" d="M368.5,127l-15.7-11.5c-0.6-0.5-1.5,0-1.5,0.8l0,19.5c0,1,1,1.6,1.9,1.2l5.5-6l3.6,7.1
				c0.1,0.3,0.4,0.5,0.7,0.5c0.1,0,0.3,0,0.4-0.1c0.4-0.2,0.6-0.7,0.4-1.1l-3.6-7.1l8.2-0.9C369.2,128.8,369.3,127.6,368.5,127z"/>
		</g>
		<g>
			<circle cx="358" cy="181.5" r="17.7"/>
			<g>
				<path class="st0" d="M358,169.7c-5,0-9.1,4.1-9.1,9.1c0,4.3,6.6,12.1,8.6,14.3c0.3,0.3,0.8,0.3,1.1,0c2-2.2,8.6-10,8.6-14.3
					C367.1,173.8,363,169.7,358,169.7z M358,182.9c-2.5,0-4.5-2-4.5-4.5c0-2.5,2-4.5,4.5-4.5c2.5,0,4.5,2,4.5,4.5
					C362.5,180.8,360.5,182.9,358,182.9z"/>
			</g>
		</g>
		<g>
			<circle cx="358" cy="236.1" r="17.7"/>
			<g>
				<path class="st0" d="M353.6,236.9c0.2,6,2.4,10.1,4.4,10.1c2,0,4.2-4.1,4.4-10.1H353.6z"/>
				<path class="st0" d="M358,225.1c-2,0-4.2,4.1-4.4,10.1h8.8C362.2,229.2,360,225.1,358,225.1z"/>
				<path class="st0" d="M364.1,235.2h5.7c-0.4-5.2-4.1-9.5-9.1-10.7C362.7,226.4,364,230.4,364.1,235.2z"/>
				<path class="st0" d="M364.1,236.9c-0.1,4.8-1.5,8.8-3.5,10.7c5-1.2,8.7-5.4,9.1-10.7H364.1z"/>
				<path class="st0" d="M351.9,236.9h-5.7c0.4,5.2,4.1,9.5,9.1,10.7C353.4,245.7,352,241.8,351.9,236.9z"/>
				<path class="st0" d="M351.9,235.2c0.1-4.8,1.5-8.8,3.5-10.7c-5,1.2-8.7,5.4-9.1,10.7H351.9z"/>
			</g>
		</g>
	</g>
	<g>
		<g>
			<circle cx="534.3" cy="17.7" r="17.7"/>
			<path class="st0" d="M544.1,11.7c-0.6,0.3-1.3,0.4-2,0.6c0.3-0.1,0.8-0.6,1-0.9c0.3-0.4,0.5-0.7,0.6-1.2c0,0,0-0.1,0-0.1
				c0,0-0.1,0-0.1,0c-0.7,0.4-1.5,0.7-2.3,0.9c-0.1,0-0.1,0-0.2,0c-0.1-0.1-0.1-0.1-0.2-0.2c-0.3-0.3-0.7-0.5-1.1-0.7
				c-0.5-0.2-1.1-0.3-1.7-0.3c-0.6,0-1.1,0.2-1.6,0.5c-0.5,0.3-1,0.6-1.3,1.1c-0.4,0.5-0.6,1-0.8,1.6c-0.1,0.6-0.1,1.1,0,1.7
				c0,0.1,0,0.1-0.1,0.1c-3.2-0.5-5.8-1.6-7.9-4c-0.1-0.1-0.1-0.1-0.2,0c-0.9,1.4-0.5,3.7,0.7,4.8c0.2,0.1,0.3,0.3,0.5,0.4
				c-0.1,0-0.8-0.1-1.5-0.4c-0.1-0.1-0.1,0-0.1,0.1c0,0.2,0,0.3,0,0.5c0.2,1.4,1.2,2.7,2.5,3.2c0.2,0.1,0.3,0.1,0.5,0.2
				c-0.3,0.1-0.6,0.1-1.5,0c-0.1,0-0.2,0-0.1,0.1c0.7,1.8,2.1,2.3,3.2,2.6c0.1,0,0.3,0,0.4,0.1c0,0,0,0,0,0
				c-0.4,0.5-1.6,0.9-2.2,1.1c-1,0.4-2.2,0.5-3.3,0.4c-0.2,0-0.2,0-0.3,0c0,0,0,0.1,0.1,0.1c0.2,0.1,0.5,0.3,0.7,0.4
				c0.7,0.4,1.4,0.7,2.2,0.9c3.9,1.1,8.4,0.3,11.3-2.6c2.3-2.3,3.1-5.5,3.1-8.7c0-0.1,0.1-0.2,0.2-0.3c0.6-0.5,1.1-1,1.5-1.6
				C544.2,11.9,544.2,11.7,544.1,11.7C544.2,11.7,544.2,11.7,544.1,11.7C544.2,11.6,544.2,11.6,544.1,11.7z"/>
		</g>
		<g>
			<circle cx="534.3" cy="-36.8" r="17.7"/>
			<g>
				<g>
					<circle class="st0" cx="539.8" cy="-42.3" r="1.2"/>
					<path class="st0" d="M534.4-42c-2.8,0-5.1,2.3-5.1,5.1c0,2.8,2.3,5.1,5.1,5.1s5.1-2.3,5.1-5.1C539.5-39.7,537.2-42,534.4-42z
						 M534.4-33.6c-1.8,0-3.3-1.5-3.3-3.3c0-1.8,1.5-3.3,3.3-3.3c1.8,0,3.3,1.5,3.3,3.3C537.7-35.1,536.2-33.6,534.4-33.6z"/>
					<path class="st0" d="M538.5-26.5h-8.3c-3.4,0-6.2-2.8-6.2-6.2V-41c0-3.4,2.8-6.2,6.2-6.2h8.3c3.4,0,6.2,2.8,6.2,6.2v8.3
						C544.7-29.3,541.9-26.5,538.5-26.5z M530.2-45.3c-2.4,0-4.3,1.9-4.3,4.3v8.3c0,2.4,1.9,4.3,4.3,4.3h8.3c2.4,0,4.3-1.9,4.3-4.3
						V-41c0-2.4-1.9-4.3-4.3-4.3H530.2z"/>
				</g>
			</g>
		</g>
		<g>
			<g>
				<path d="M552-91.4c0-9.8-7.9-17.7-17.7-17.7c-9.8,0-17.7,7.9-17.7,17.7c0,8.8,6.5,16.1,14.9,17.5v-12.4h-4.5v-5.1h4.5v-3.9
					c0-4.4,2.6-6.9,6.7-6.9c1.9,0,4,0.3,4,0.3v4.4H540c-2.2,0-2.9,1.4-2.9,2.8v3.3h4.9l-0.8,5.1h-4.1v12.4
					C545.5-75.3,552-82.6,552-91.4z"/>
				<path class="st0" d="M541.2-86.3l0.8-5.1h-4.9v-3.3c0-1.4,0.7-2.8,2.9-2.8h2.2v-4.4c0,0-2-0.3-4-0.3c-4,0-6.7,2.4-6.7,6.9v3.9
					h-4.5v5.1h4.5v12.4c0.9,0.1,1.8,0.2,2.8,0.2c0.9,0,1.9-0.1,2.8-0.2v-12.4H541.2z"/>
			</g>
		</g>
		<g>
			<circle cx="534.3" cy="126.9" r="17.7"/>
			<path class="st0" d="M543.5,124.9c-0.2,0-0.4,0-0.5,0c-2,0-3.9-1-4.9-2.7v9.1c0,3.7-3,6.7-6.7,6.7c-3.7,0-6.7-3-6.7-6.7
				s3-6.7,6.7-6.7l0,0c0.1,0,0.3,0,0.4,0v3.3c-0.1,0-0.3,0-0.4,0c-1.9,0-3.4,1.5-3.4,3.4c0,1.9,1.5,3.4,3.4,3.4
				c1.9,0,3.6-1.5,3.6-3.4l0-15.5h3.2c0.3,2.8,2.6,5.1,5.4,5.3L543.5,124.9"/>
		</g>
		<g>
			<path d="M534.3,54.6c-9.8,0-17.7,7.9-17.7,17.7c0,7.2,4.3,13.4,10.5,16.1c0-0.5,0-1,0-1.5c0.1-1.7,0.3-2.3,2.5-11.6
				c0-0.1,0-0.3-0.1-0.4c-0.5-1.4-0.6-2.9-0.2-4.4c1-3.2,4.6-3.4,5.2-0.8c0.4,1.6-0.6,3.7-1.4,6.9c-0.7,2.6,2.4,4.4,5,2.5
				c2.4-1.7,3.3-5.9,3.2-8.9c-0.3-5.9-6.8-7.2-10.9-5.3c-4.7,2.2-5.8,8-3.7,10.7c0.3,0.3,0.5,0.5,0.4,0.9c-0.1,0.5-0.3,1.1-0.4,1.6
				c-0.1,0.4-0.4,0.5-0.8,0.4c-0.8-0.3-1.4-0.8-2-1.5c-1.8-2.2-2.3-6.7,0.1-10.4c2.6-4.2,7.6-5.8,12.1-5.3c5.4,0.6,8.8,4.3,9.4,8.4
				c0.3,1.9,0.1,6.6-2.6,9.9c-3.1,3.8-8,4-10.3,1.7c-0.2-0.2-0.3-0.4-0.5-0.6c0,0.1,0,0.2-0.1,0.2c-1.1,4.3-1.2,5.3-2.4,7.3
				c-0.2,0.3-0.4,0.6-0.6,0.9c1.7,0.5,3.4,0.8,5.3,0.8c9.8,0,17.7-7.9,17.7-17.7C552,62.6,544.1,54.6,534.3,54.6z"/>
			<path class="st0" d="M532,81.1c0-0.1,0-0.1,0.1-0.2c0.2,0.2,0.3,0.4,0.5,0.6c2.3,2.3,7.3,2.1,10.3-1.7c2.7-3.3,2.9-8,2.6-9.9
				c-0.6-4.2-4-7.8-9.4-8.4c-4.5-0.5-9.4,1.2-12.1,5.3c-2.4,3.7-1.9,8.2-0.1,10.4c0.5,0.7,1.2,1.2,2,1.5c0.4,0.2,0.7,0,0.8-0.4
				c0.1-0.5,0.3-1.1,0.4-1.6c0.1-0.3-0.1-0.6-0.4-0.9c-2.1-2.7-1.1-8.5,3.7-10.7c4.1-1.9,10.6-0.6,10.9,5.3c0.2,3-0.8,7.1-3.2,8.9
				c-2.6,1.9-5.7,0-5-2.5c0.8-3.1,1.8-5.3,1.4-6.9c-0.6-2.6-4.2-2.4-5.2,0.8c-0.5,1.5-0.4,2.9,0.2,4.4c0,0.1,0.1,0.2,0.1,0.4
				c-2.2,9.3-2.4,9.9-2.5,11.6c0,0.5,0,1,0,1.5c0.6,0.3,1.3,0.5,2,0.8c0.2-0.3,0.4-0.6,0.6-0.9C530.7,86.3,530.9,85.4,532,81.1z"/>
		</g>
		<g>
			<circle cx="534.3" cy="181.5" r="17.7"/>
			<path class="st0" d="M524.8,191.5l1.5-5.5c-0.8-1.5-1.3-3.2-1.3-4.9c0-5.6,4.6-10.2,10.2-10.2c5.6,0,10.2,4.6,10.2,10.2
				c0,5.6-4.6,10.2-10.2,10.2c-1.7,0-3.3-0.4-4.8-1.2L524.8,191.5z M530.6,188l0.3,0.2c1.3,0.8,2.7,1.2,4.2,1.2
				c4.5,0,8.2-3.7,8.2-8.2c0-4.5-3.7-8.2-8.2-8.2c-4.5,0-8.2,3.7-8.2,8.2c0,1.5,0.4,3,1.2,4.3l0.2,0.4l-0.8,3.1L530.6,188z"/>
			<path class="st1" d="M538.9,182.5c-0.4-0.3-1-0.5-1.5-0.3c-0.4,0.2-0.6,0.7-0.9,1c-0.1,0.2-0.3,0.2-0.5,0.1
				c-1.4-0.6-2.5-1.5-3.3-2.8c-0.1-0.2-0.1-0.4,0.1-0.6c0.2-0.3,0.5-0.6,0.6-1c0.1-0.4-0.1-0.8-0.3-1.1c-0.2-0.4-0.4-1-0.8-1.3
				c-0.4-0.2-0.9-0.1-1.3,0.2c-0.6,0.5-0.9,1.3-0.9,2c0,0.2,0,0.4,0.1,0.6c0.1,0.5,0.4,1,0.6,1.4c0.2,0.3,0.4,0.7,0.6,1
				c0.8,1,1.7,1.9,2.8,2.6c0.5,0.3,1.1,0.6,1.7,0.8c0.7,0.2,1.3,0.5,2,0.3c0.8-0.1,1.5-0.6,1.8-1.4c0.1-0.2,0.1-0.5,0.1-0.7
				C539.9,183,539.3,182.7,538.9,182.5z"/>
		</g>
		<g>
			<circle cx="534.3" cy="236.1" r="17.7"/>
			<path class="st0" d="M543.8,233.5c0-2.3-1.9-4.2-4.2-4.2h-10.9c-2.3,0-4.2,1.9-4.2,4.2v5.1c0,2.3,1.9,4.2,4.2,4.2h10.9
				c2.3,0,4.2-1.9,4.2-4.2V233.5z M537.4,236.4l-4.9,2.4c-0.2,0.1-0.8,0-0.8-0.3v-4.9c0-0.2,0.7-0.4,0.8-0.2l4.7,2.5
				C537.4,236.1,537.6,236.3,537.4,236.4z"/>
		</g>
	</g>
	<g>
		<g>
			<g>
				<circle cx="479.6" cy="-46.2" r="2.1"/>
				<path d="M470.4-45.6c-4.8,0-8.7,3.9-8.7,8.7c0,4.8,3.9,8.7,8.7,8.7c4.8,0,8.7-3.9,8.7-8.7C479.1-41.7,475.2-45.6,470.4-45.6z
					 M470.4-31.3c-3.1,0-5.6-2.5-5.6-5.6s2.5-5.6,5.6-5.6c3.1,0,5.6,2.5,5.6,5.6S473.4-31.3,470.4-31.3z"/>
				<path d="M477.3-19.2h-14.1c-5.9,0-10.6-4.8-10.6-10.6V-44c0-5.9,4.8-10.6,10.6-10.6h14.1c5.9,0,10.6,4.8,10.6,10.6v14.1
					C487.9-24,483.1-19.2,477.3-19.2z M463.1-51.3c-4,0-7.3,3.3-7.3,7.3v14.1c0,4,3.3,7.3,7.3,7.3h14.1c4,0,7.3-3.3,7.3-7.3V-44
					c0-4-3.3-7.3-7.3-7.3H463.1z"/>
			</g>
		</g>
		<path d="M478.4-89.3l1-6.4h-6.1v-4.2c0-1.8,0.9-3.5,3.6-3.5h2.8v-5.5c0,0-2.5-0.4-5-0.4c-5.1,0-8.4,3.1-8.4,8.6v4.9h-5.6v6.4h5.6
			v15.5h6.9v-15.5H478.4z"/>
		<path d="M491.5,4.2c-1.4,0.6-2.9,1-4.3,1.2c0.7-0.1,1.7-1.4,2.1-1.9c0.6-0.8,1.1-1.7,1.4-2.6c0-0.1,0.1-0.2,0-0.2
			c-0.1,0-0.2,0-0.2,0c-1.6,0.9-3.3,1.5-5.2,2c-0.1,0-0.3,0-0.4-0.1c-0.1-0.2-0.3-0.3-0.5-0.5c-0.8-0.6-1.6-1.2-2.5-1.5
			c-1.2-0.5-2.5-0.7-3.8-0.6c-1.3,0.1-2.5,0.4-3.6,1c-1.1,0.6-2.1,1.4-2.9,2.4c-0.8,1-1.4,2.2-1.7,3.5c-0.3,1.2-0.3,2.5-0.1,3.7
			c0,0.2,0,0.2-0.2,0.2c-7.1-1.1-12.9-3.6-17.7-9c-0.2-0.2-0.3-0.2-0.5,0c-2.1,3.1-1.1,8.1,1.5,10.6c0.3,0.3,0.7,0.7,1.1,1
			c-0.1,0-1.9-0.2-3.4-1c-0.2-0.1-0.3-0.1-0.3,0.2c0,0.3,0,0.6,0.1,1c0.4,3.2,2.6,6.1,5.6,7.2c0.4,0.2,0.8,0.3,1.1,0.3
			c-0.7,0.2-1.4,0.3-3.4,0.1c-0.2,0-0.3,0.1-0.2,0.3c1.5,4,4.7,5.2,7,5.9c0.3,0.1,0.6,0.1,1,0.1c0,0,0,0-0.1,0.1
			c-0.8,1.2-3.5,2.1-4.8,2.5c-2.3,0.8-4.9,1.2-7.3,0.9c-0.4-0.1-0.5-0.1-0.6,0c-0.1,0.1,0,0.2,0.1,0.3c0.5,0.3,1,0.6,1.5,0.9
			c1.6,0.8,3.2,1.5,4.9,2c8.8,2.4,18.7,0.6,25.2-5.9c5.2-5.1,7-12.2,7-19.3c0-0.3,0.3-0.4,0.5-0.6c1.3-1,2.4-2.2,3.4-3.6
			c0.2-0.3,0.2-0.6,0.2-0.7c0,0,0,0,0,0C491.7,4.1,491.7,4.2,491.5,4.2z"/>
		<path d="M485.6,123.4c-0.3,0-0.6,0-0.9,0c-3.2,0-6.3-1.6-8.1-4.4V134c0,6.1-4.9,11-11,11c-6.1,0-11-4.9-11-11c0-6.1,4.9-11,11-11
			l0,0c0.2,0,0.5,0,0.7,0v5.4c-0.2,0-0.4-0.1-0.7-0.1c-3.1,0-5.6,2.5-5.6,5.6c0,3.1,2.5,5.6,5.6,5.6c3.1,0,5.8-2.4,5.8-5.5l0.1-25.2
			h5.2c0.5,4.6,4.2,8.3,8.9,8.6L485.6,123.4"/>
		<path class="st2" d="M468,77.7c0,0.1-0.1,0.2-0.1,0.3c-1.3,5.1-1.4,6.2-2.8,8.6c-0.6,1.1-1.4,2.2-2.1,3.2
			c-0.1,0.1-0.2,0.3-0.4,0.2c-0.2,0-0.2-0.2-0.2-0.4c-0.2-1.5-0.3-3.1-0.3-4.7c0.1-2,0.3-2.7,2.9-13.8c0-0.2,0-0.3-0.1-0.5
			c-0.6-1.7-0.8-3.4-0.2-5.2c1.2-3.8,5.5-4.1,6.2-0.9c0.5,1.9-0.8,4.4-1.7,8.1c-0.8,3.1,2.8,5.2,5.9,3c2.8-2.1,3.9-7,3.7-10.5
			c-0.4-7-8.1-8.5-12.9-6.2c-5.6,2.6-6.8,9.5-4.3,12.6c0.3,0.4,0.6,0.6,0.5,1.1c-0.2,0.6-0.3,1.3-0.5,1.9c-0.1,0.5-0.5,0.6-1,0.4
			c-0.9-0.4-1.7-1-2.3-1.7c-2.1-2.6-2.7-7.9,0.1-12.3c3.1-4.9,9-6.9,14.3-6.3c6.3,0.7,10.4,5.1,11.1,10c0.3,2.2,0.1,7.8-3.1,11.7
			c-3.6,4.5-9.5,4.8-12.2,2C468.3,78.2,468.2,77.9,468,77.7z"/>
		<g>
			<path d="M452.6,199.2l2.5-9.5c-1.4-2.6-2.2-5.5-2.2-8.4c0-9.6,7.8-17.5,17.5-17.5c9.6,0,17.5,7.8,17.5,17.5
				c0,9.6-7.8,17.5-17.5,17.5c-2.9,0-5.7-0.7-8.3-2.1L452.6,199.2z M462.5,193.1l0.6,0.4c2.2,1.3,4.7,2,7.2,2
				c7.8,0,14.2-6.4,14.2-14.2c0-7.8-6.4-14.2-14.2-14.2c-7.8,0-14.2,6.4-14.2,14.2c0,2.6,0.7,5.1,2.1,7.3l0.4,0.6l-1.4,5.3
				L462.5,193.1z"/>
			<path class="st2" d="M476.9,183.7c-0.7-0.4-1.7-0.9-2.5-0.6c-0.6,0.3-1.1,1.3-1.5,1.8c-0.2,0.3-0.5,0.3-0.8,0.2
				c-2.4-1-4.3-2.6-5.7-4.8c-0.2-0.3-0.2-0.6,0.1-0.9c0.4-0.5,0.9-1,1-1.7c0.1-0.6-0.2-1.4-0.5-2c-0.3-0.7-0.7-1.8-1.5-2.2
				c-0.7-0.4-1.6-0.2-2.2,0.3c-1,0.8-1.5,2.2-1.5,3.5c0,0.4,0.1,0.7,0.1,1.1c0.2,0.9,0.6,1.7,1.1,2.4c0.3,0.6,0.7,1.1,1.1,1.7
				c1.3,1.8,2.9,3.3,4.8,4.5c0.9,0.6,2,1.1,3,1.4c1.2,0.4,2.2,0.8,3.5,0.6c1.3-0.3,2.6-1.1,3.2-2.4c0.2-0.4,0.2-0.8,0.1-1.2
				C478.7,184.6,477.6,184.1,476.9,183.7z"/>
		</g>
		<path d="M488.2,231.4c0-4.4-3.5-7.9-7.9-7.9h-20.2c-4.4,0-7.9,3.5-7.9,7.9v9.4c0,4.4,3.5,7.9,7.9,7.9h20.2c4.4,0,7.9-3.5,7.9-7.9
			V231.4z M476.3,236.8l-9,4.5c-0.4,0.2-1.6-0.1-1.6-0.5v-9.2c0-0.4,1.2-0.7,1.6-0.5l8.7,4.7C476.3,236,476.7,236.6,476.3,236.8z"/>
	</g>
	<g>
		<path class="st3" d="M-213.4-91.7c2.8-1.8,4.7-5,4.7-8.5c0-5.6-4.6-10.2-10.2-10.2c-5.6,0-10.2,4.6-10.2,10.2
			c0,3.6,1.9,6.7,4.7,8.5c-5.8,2.2-9.9,7.8-9.9,14.3c0,2.8,2.2,5,5,5h20.7c2.8,0,5-2.2,5-5C-203.6-83.9-207.7-89.5-213.4-91.7z
			 M-226.4-100.3c0-4.2,3.4-7.5,7.5-7.5c4.2,0,7.5,3.4,7.5,7.5c0,4.2-3.4,7.5-7.5,7.5C-223.1-92.7-226.4-96.1-226.4-100.3z
			 M-208.6-75h-20.7c-1.3,0-2.4-1.1-2.4-2.4c0-7,5.7-12.7,12.7-12.7c7,0,12.7,5.7,12.7,12.7C-206.2-76.1-207.3-75-208.6-75z"/>
		<g>
			<path class="st4" d="M-211.2-56h-15.5c-3.1,0-5.7,2.5-5.7,5.7v27c0,3.1,2.6,5.7,5.7,5.7h15.5c3.1,0,5.7-2.6,5.7-5.7v-27
				C-205.5-53.5-208-56-211.2-56z M-226.7-53.4h15.5c1.7,0,3.1,1.4,3.1,3.1v21.7h-21.6v-21.7C-229.7-52-228.4-53.4-226.7-53.4z
				 M-211.2-20.3h-15.5c-1.7,0-3.1-1.4-3.1-3.1v-2.8h21.6v2.8C-208.1-21.6-209.5-20.3-211.2-20.3z"/>
			<circle class="st4" cx="-219.3" cy="-50.7" r="1"/>
			<circle class="st4" cx="-219.3" cy="-23.4" r="1"/>
		</g>
		<path class="st5" d="M-200.2,16.9l-14-16.1c-1.2-1.3-2.9-2.1-4.6-2.1c-1.8,0-3.5,0.8-4.6,2.1l-14,16.1c-0.3,0.4-0.4,0.9-0.2,1.4
			c0.2,0.5,0.7,0.8,1.2,0.8h2.4v16.4c0,0.7,0.6,1.3,1.3,1.3h28c0.7,0,1.3-0.6,1.3-1.3V19.1h2.4c0.5,0,1-0.3,1.2-0.8
			C-199.8,17.8-199.9,17.3-200.2,16.9z M-221.6,2.5c0.7-0.8,1.6-1.2,2.7-1.2c1,0,2,0.4,2.7,1.2l12.2,13.9h-29.6L-221.6,2.5z
			 M-206.2,34.2h-25.3V19.1h25.3V34.2z"/>
		<path class="st6" d="M-205.4,57.4h-27c-3,0-5.5,2.5-5.5,5.5v18.9c0,3,2.5,5.5,5.5,5.5h27c3,0,5.5-2.5,5.5-5.5V62.9
			C-199.9,59.9-202.4,57.4-205.4,57.4z M-205.4,60c0.2,0,0.4,0,0.7,0.1L-216.2,73c-0.7,0.8-1.7,1.2-2.8,1.2c-1.1,0-2.1-0.5-2.8-1.2
			l-11.4-12.9c0.2,0,0.4-0.1,0.7-0.1H-205.4z M-202.5,81.8c0,1.6-1.3,2.9-2.9,2.9h-27c-1.6,0-2.9-1.3-2.9-2.9V62.9
			c0-0.4,0.1-0.8,0.2-1.1l11.4,13c1.2,1.4,2.9,2.1,4.7,2.1c1.8,0,3.5-0.8,4.7-2.1l11.4-13c0.1,0.3,0.2,0.7,0.2,1.1V81.8z"/>
		<path class="st7" d="M-204.9,126.7l-25-18.2c-0.9-0.6-2-0.7-3-0.2c-1,0.5-1.5,1.5-1.5,2.5l0,31c0,1.2,0.6,2.3,1.6,2.9
			c0.5,0.3,1.2,0.5,1.8,0.5c0.5,0,1.1-0.1,1.5-0.4c0.1-0.1,0.3-0.2,0.4-0.3l8.5-9.2l5.1,10c0.2,0.5,0.7,0.7,1.2,0.7
			c0.2,0,0.4,0,0.6-0.1c0.6-0.3,0.9-1.1,0.6-1.8l-5.1-10.1l12.5-1.3c0.2,0,0.3-0.1,0.5-0.1c1.1-0.5,1.8-1.6,1.8-2.8
			C-203.4,128.5-203.9,127.4-204.9,126.7z M-206.3,130l-13.9,1.5c-0.3,0-0.6,0.2-0.8,0.4l-9.7,10.5c-0.3,0.1-0.5,0-0.6-0.1
			c-0.1-0.1-0.4-0.3-0.4-0.7l0-31c0,0,0-0.1,0.1-0.2c0,0,0.1,0,0.1,0c0.1,0,0.1,0,0.1,0l25,18.2c0.3,0.2,0.3,0.6,0.3,0.7
			C-206.1,129.6-206.1,129.8-206.3,130z"/>
		<g>
			<g>
				<path class="st8" d="M-218.9,200.3L-218.9,200.3c-0.4,0-0.7-0.2-1-0.4c-0.6-0.6-13.7-14.8-13.7-22.6c0-8.1,6.6-14.7,14.7-14.7
					c8.1,0,14.7,6.6,14.7,14.7c0,7.8-13.1,22-13.7,22.6C-218.2,200.2-218.6,200.3-218.9,200.3z M-218.9,165.2c-6.6,0-12,5.4-12,12
					c0,5.2,8,15.2,12,19.8c4.1-4.6,12-14.6,12-19.8C-206.9,170.6-212.3,165.2-218.9,165.2z"/>
			</g>
			<g>
				<path class="st8" d="M-218.9,183.2c-3.6,0-6.6-3-6.6-6.6c0-3.6,3-6.6,6.6-6.6c3.6,0,6.6,3,6.6,6.6
					C-212.3,180.3-215.3,183.2-218.9,183.2z M-218.9,172.7c-2.2,0-4,1.8-4,4c0,2.2,1.8,4,4,4c2.2,0,4-1.8,4-4
					C-214.9,174.5-216.7,172.7-218.9,172.7z"/>
			</g>
		</g>
		<path class="st9" d="M-218.9,217.1c-10.5,0-19,8.5-19,19c0,10.5,8.5,19,19,19c10.5,0,19-8.5,19-19
			C-199.9,225.6-208.4,217.1-218.9,217.1z M-202.6,234.8h-7.1c-0.2-5.9-1.6-11-3.7-14.1C-207.5,222.8-203.1,228.2-202.6,234.8z
			 M-218.9,252.4c-3,0-6.3-6.1-6.5-15.1h13.1C-212.7,246.3-215.9,252.4-218.9,252.4z M-225.5,234.8c0.3-8.9,3.6-15.1,6.5-15.1
			c3,0,6.3,6.1,6.5,15.1H-225.5z M-224.4,220.6c-2.1,3.2-3.5,8.2-3.7,14.1h-7.1C-234.7,228.2-230.4,222.8-224.4,220.6z
			 M-235.2,237.4h7.1c0.2,5.9,1.6,11,3.7,14.1C-230.4,249.4-234.7,243.9-235.2,237.4z M-213.4,251.5c2.1-3.2,3.5-8.2,3.7-14.1h7.1
			C-203.1,243.9-207.5,249.4-213.4,251.5z"/>
	</g>
	<g>
		<g>
			<g>
				<circle class="st3" cx="-154.8" cy="-101.6" r="7.6"/>
			</g>
			<g>
				<path class="st3" d="M-154.8-91.4L-154.8-91.4c-7.7,0-14,6.3-14,14l0,0c0,2,1.6,3.7,3.7,3.7h20.7c2,0,3.7-1.6,3.7-3.7l0,0
					C-140.8-85.2-147.1-91.4-154.8-91.4z"/>
			</g>
		</g>
		<g>
			<path class="st4" d="M-142.7-28.7v-21.7c0-2.4-2-4.4-4.4-4.4h-15.5c-2.4,0-4.4,2-4.4,4.4v21.7H-142.7z M-154.8-52
				c0.7,0,1.3,0.6,1.3,1.3c0,0.7-0.6,1.3-1.3,1.3c-0.7,0-1.3-0.6-1.3-1.3C-156.1-51.4-155.5-52-154.8-52z"/>
			<path class="st4" d="M-166.9-26.1v2.8c0,2.4,2,4.4,4.4,4.4h15.5c2.4,0,4.4-2,4.4-4.4v-2.8H-166.9z M-154.8-21.4
				c-0.7,0-1.3-0.6-1.3-1.3c0-0.7,0.6-1.3,1.3-1.3c0.7,0,1.3,0.6,1.3,1.3C-153.5-22-154.1-21.4-154.8-21.4z"/>
		</g>
		<g>
			<g>
				<path class="st5" d="M-158.5,1.7L-171,16c-0.6,0.7-0.1,1.7,0.8,1.7h3.7h25.7h1.4c0.9,0,1.4-1.1,0.8-1.7l-12.5-14.4
					C-153.1-0.5-156.5-0.5-158.5,1.7z"/>
			</g>
			<g>
				<path class="st5" d="M-140.8,20.4v14c0,0.6-0.5,1-1,1h-25.9c-0.6,0-1-0.5-1-1v-14H-140.8z"/>
			</g>
		</g>
		<g>
			<path class="st6" d="M-169.9,59.1l12.3,13.9c0.7,0.8,1.7,1.2,2.8,1.2c1.1,0,2.1-0.5,2.8-1.2l12.1-13.7c0.1-0.1,0.2-0.2,0.3-0.3
				c-0.5-0.2-1.1-0.4-1.7-0.4h-27C-168.9,58.7-169.4,58.8-169.9,59.1C-169.9,59-169.9,59.1-169.9,59.1z"/>
			<path class="st6" d="M-137.8,60.7c-0.1,0.1-0.1,0.3-0.2,0.4l-12.1,13.7c-1.2,1.4-2.9,2.1-4.7,2.1c-1.8,0-3.5-0.8-4.7-2.1
				l-12.3-13.9c0,0,0-0.1-0.1-0.1c-0.4,0.6-0.6,1.4-0.6,2.2v18.9c0,2.3,1.9,4.2,4.2,4.2h27c2.3,0,4.2-1.9,4.2-4.2V62.9
				C-137.1,62.1-137.4,61.3-137.8,60.7z"/>
		</g>
		<path class="st7" d="M-141.5,127.1l-25-18.2c-1-0.7-2.4,0-2.4,1.2l0,31c0,1.6,1.6,2.6,3,1.9l8.8-9.6l5.7,11.3
			c0.2,0.5,0.7,0.7,1.2,0.7c0.2,0,0.4,0,0.6-0.1c0.6-0.3,0.9-1.1,0.6-1.8l-5.8-11.4l13-1.4C-140.4,129.9-140.3,128-141.5,127.1z"/>
		<g>
			<path class="st8" d="M-154.8,172.9c-2.2,0-4,1.8-4,4c0,2.2,1.8,4,4,4c2.2,0,4-1.8,4-4C-150.8,174.7-152.6,172.9-154.8,172.9z"/>
			<path class="st8" d="M-154.8,164.2c-7.4,0-13.4,6-13.4,13.4c0,6.3,9.7,17.7,12.6,20.9c0.4,0.5,1.2,0.5,1.6,0
				c2.9-3.2,12.6-14.6,12.6-20.9C-141.5,170.2-147.4,164.2-154.8,164.2z M-154.8,183.5c-3.6,0-6.6-3-6.6-6.6c0-3.6,3-6.6,6.6-6.6
				c3.6,0,6.6,3,6.6,6.6C-148.2,180.5-151.2,183.5-154.8,183.5z"/>
		</g>
		<g>
			<path class="st9" d="M-161.4,237.4c0.3,8.9,3.6,15.1,6.5,15.1c3,0,6.3-6.1,6.5-15.1H-161.4z"/>
			<path class="st9" d="M-154.8,219.7c-3,0-6.3,6.1-6.5,15.1h13.1C-148.6,225.8-151.8,219.7-154.8,219.7z"/>
			<path class="st9" d="M-145.6,234.8h8.5c-0.6-7.8-6.2-14.2-13.6-15.9C-147.9,221.6-145.9,227.5-145.6,234.8z"/>
			<path class="st9" d="M-145.6,237.4c-0.2,7.2-2.2,13.1-5.2,15.9c7.4-1.7,13.1-8.1,13.6-15.9H-145.6z"/>
			<path class="st9" d="M-164,237.4h-8.5c0.6,7.8,6.2,14.2,13.6,15.9C-161.8,250.5-163.8,244.6-164,237.4z"/>
			<path class="st9" d="M-164,234.8c0.2-7.2,2.2-13.1,5.2-15.9c-7.4,1.7-13.1,8.1-13.6,15.9H-164z"/>
		</g>
	</g>
	<g>
		<g>
			<circle class="st3" cx="-90.7" cy="-91.4" r="17.7"/>
			<g>
				<g>
					<circle class="st0" cx="-90.7" cy="-99.8" r="5"/>
				</g>
				<g>
					<path class="st0" d="M-90.7-93L-90.7-93c-5.2,0-9.3,4.2-9.3,9.3l0,0c0,1.4,1.1,2.5,2.5,2.5h13.8c1.4,0,2.5-1.1,2.5-2.5l0,0
						C-81.4-88.8-85.5-93-90.7-93z"/>
				</g>
			</g>
		</g>
		<g>
			<circle class="st4" cx="-90.7" cy="-36.8" r="17.7"/>
			<g>
				<path class="st0" d="M-82.7-31.5v-14.3c0-1.6-1.3-2.9-2.9-2.9h-10.2c-1.6,0-2.9,1.3-2.9,2.9v14.3H-82.7z M-90.7-46.8
					c0.5,0,0.9,0.4,0.9,0.9s-0.4,0.9-0.9,0.9c-0.5,0-0.9-0.4-0.9-0.9S-91.2-46.8-90.7-46.8z"/>
				<path class="st0" d="M-98.7-29.7v1.8c0,1.6,1.3,2.9,2.9,2.9h10.2c1.6,0,2.9-1.3,2.9-2.9v-1.8H-98.7z M-90.7-26.6
					c-0.5,0-0.9-0.4-0.9-0.9s0.4-0.9,0.9-0.9c0.5,0,0.9,0.4,0.9,0.9S-90.2-26.6-90.7-26.6z"/>
			</g>
		</g>
		<g>
			<circle class="st5" cx="-90.7" cy="17.7" r="17.7"/>
			<g>
				<g>
					<path class="st0" d="M-93.1,5.5l-8.3,9.6c-0.4,0.5-0.1,1.2,0.5,1.2h2.4h17.1h0.9c0.6,0,0.9-0.7,0.5-1.2l-8.3-9.6
						C-89.6,4-91.9,4-93.1,5.5z"/>
				</g>
				<g>
					<path class="st0" d="M-81.4,17.9v9.3c0,0.4-0.3,0.7-0.7,0.7h-17.2c-0.4,0-0.7-0.3-0.7-0.7v-9.3H-81.4z"/>
				</g>
			</g>
		</g>
		<g>
			<circle class="st6" cx="-90.7" cy="72.3" r="17.7"/>
			<g>
				<path class="st0" d="M-100.8,63.5l8.2,9.3c0.5,0.5,1.1,0.8,1.8,0.8c0.7,0,1.4-0.3,1.8-0.8l8.1-9.1c0.1-0.1,0.1-0.1,0.2-0.2
					c-0.3-0.1-0.7-0.2-1.1-0.2h-18C-100.1,63.2-100.5,63.3-100.8,63.5C-100.8,63.5-100.8,63.5-100.8,63.5z"/>
				<path class="st0" d="M-79.3,64.5c0,0.1-0.1,0.2-0.2,0.3l-8.1,9.1c-0.8,0.9-1.9,1.4-3.2,1.4c-1.2,0-2.4-0.5-3.2-1.4l-8.2-9.3
					c0,0,0,0,0-0.1c-0.3,0.4-0.4,0.9-0.4,1.4v12.6c0,1.5,1.2,2.8,2.8,2.8h18c1.5,0,2.8-1.2,2.8-2.8V66C-78.9,65.5-79.1,65-79.3,64.5
					z"/>
			</g>
		</g>
		<g>
			<circle class="st7" cx="-90.7" cy="126.9" r="17.7"/>
			<path class="st0" d="M-80.3,127L-96,115.5c-0.6-0.5-1.5,0-1.5,0.8l0,19.5c0,1,1,1.6,1.9,1.2l5.5-6l3.6,7.1
				c0.1,0.3,0.4,0.5,0.7,0.5c0.1,0,0.3,0,0.4-0.1c0.4-0.2,0.6-0.7,0.4-1.1l-3.6-7.1l8.2-0.9C-79.6,128.8-79.5,127.6-80.3,127z"/>
		</g>
		<g>
			<circle class="st8" cx="-90.7" cy="181.5" r="17.7"/>
			<g>
				<path class="st0" d="M-90.7,169.7c-5,0-9.1,4.1-9.1,9.1c0,4.3,6.6,12.1,8.6,14.3c0.3,0.3,0.8,0.3,1.1,0c2-2.2,8.6-10,8.6-14.3
					C-81.6,173.8-85.7,169.7-90.7,169.7z M-90.7,182.9c-2.5,0-4.5-2-4.5-4.5c0-2.5,2-4.5,4.5-4.5c2.5,0,4.5,2,4.5,4.5
					C-86.2,180.8-88.2,182.9-90.7,182.9z"/>
			</g>
		</g>
		<g>
			<circle class="st9" cx="-90.7" cy="236.1" r="17.7"/>
			<g>
				<path class="st0" d="M-95.1,236.9c0.2,6,2.4,10.1,4.4,10.1c2,0,4.2-4.1,4.4-10.1H-95.1z"/>
				<path class="st0" d="M-90.7,225.1c-2,0-4.2,4.1-4.4,10.1h8.8C-86.5,229.2-88.7,225.1-90.7,225.1z"/>
				<path class="st0" d="M-84.6,235.2h5.7c-0.4-5.2-4.1-9.5-9.1-10.7C-86.1,226.4-84.7,230.4-84.6,235.2z"/>
				<path class="st0" d="M-84.6,236.9c-0.1,4.8-1.5,8.8-3.5,10.7c5-1.2,8.7-5.4,9.1-10.7H-84.6z"/>
				<path class="st0" d="M-96.8,236.9h-5.7c0.4,5.2,4.1,9.5,9.1,10.7C-95.4,245.7-96.7,241.8-96.8,236.9z"/>
				<path class="st0" d="M-96.8,235.2c0.1-4.8,1.5-8.8,3.5-10.7c-5,1.2-8.7,5.4-9.1,10.7H-96.8z"/>
			</g>
		</g>
	</g>
	<g>
		<g>
			<circle class="st9" cx="85.6" cy="17.7" r="17.7"/>
			<path class="st0" d="M95.4,11.7c-0.6,0.3-1.3,0.4-2,0.6c0.3-0.1,0.8-0.6,1-0.9c0.3-0.4,0.5-0.7,0.6-1.2c0,0,0-0.1,0-0.1
				c0,0-0.1,0-0.1,0c-0.7,0.4-1.5,0.7-2.3,0.9c-0.1,0-0.1,0-0.2,0c-0.1-0.1-0.1-0.1-0.2-0.2c-0.3-0.3-0.7-0.5-1.1-0.7
				c-0.5-0.2-1.1-0.3-1.7-0.3c-0.6,0-1.1,0.2-1.6,0.5c-0.5,0.3-1,0.6-1.3,1.1c-0.4,0.5-0.6,1-0.8,1.6c-0.1,0.6-0.1,1.1,0,1.7
				c0,0.1,0,0.1-0.1,0.1c-3.2-0.5-5.8-1.6-7.9-4c-0.1-0.1-0.1-0.1-0.2,0c-0.9,1.4-0.5,3.7,0.7,4.8c0.2,0.1,0.3,0.3,0.5,0.4
				c-0.1,0-0.8-0.1-1.5-0.4c-0.1-0.1-0.1,0-0.1,0.1c0,0.2,0,0.3,0,0.5c0.2,1.4,1.2,2.7,2.5,3.2c0.2,0.1,0.3,0.1,0.5,0.2
				c-0.3,0.1-0.6,0.1-1.5,0c-0.1,0-0.2,0-0.1,0.1c0.7,1.8,2.1,2.3,3.2,2.6c0.1,0,0.3,0,0.4,0.1c0,0,0,0,0,0
				c-0.4,0.5-1.6,0.9-2.2,1.1c-1,0.4-2.2,0.5-3.3,0.4c-0.2,0-0.2,0-0.3,0c0,0,0,0.1,0.1,0.1c0.2,0.1,0.5,0.3,0.7,0.4
				c0.7,0.4,1.4,0.7,2.2,0.9c3.9,1.1,8.4,0.3,11.3-2.6c2.3-2.3,3.1-5.5,3.1-8.7c0-0.1,0.1-0.2,0.2-0.3c0.6-0.5,1.1-1,1.5-1.6
				C95.4,11.9,95.4,11.7,95.4,11.7C95.4,11.7,95.4,11.7,95.4,11.7C95.4,11.6,95.4,11.6,95.4,11.7z"/>
		</g>
		<g>
			<linearGradient id="SVGID_1_" gradientUnits="userSpaceOnUse" x1="69.0249" y1="-50.8382" x2="104.3995" y2="-20.961">
				<stop  offset="1.104800e-003" style="stop-color:#FBE18A"/>
				<stop  offset="0.2094" style="stop-color:#FCBB45"/>
				<stop  offset="0.3765" style="stop-color:#F75274"/>
				<stop  offset="0.5238" style="stop-color:#D53692"/>
				<stop  offset="0.7394" style="stop-color:#8F39CE"/>
				<stop  offset="1" style="stop-color:#5B4FE9"/>
			</linearGradient>
			<circle class="st10" cx="85.6" cy="-36.8" r="17.7"/>
			<g>
				<g>
					<circle class="st0" cx="91.1" cy="-42.3" r="1.2"/>
					<path class="st0" d="M85.7-42c-2.8,0-5.1,2.3-5.1,5.1c0,2.8,2.3,5.1,5.1,5.1c2.8,0,5.1-2.3,5.1-5.1C90.8-39.7,88.5-42,85.7-42z
						 M85.7-33.6c-1.8,0-3.3-1.5-3.3-3.3c0-1.8,1.5-3.3,3.3-3.3s3.3,1.5,3.3,3.3C89-35.1,87.5-33.6,85.7-33.6z"/>
					<path class="st0" d="M89.7-26.5h-8.3c-3.4,0-6.2-2.8-6.2-6.2V-41c0-3.4,2.8-6.2,6.2-6.2h8.3c3.4,0,6.2,2.8,6.2,6.2v8.3
						C96-29.3,93.2-26.5,89.7-26.5z M81.5-45.3c-2.4,0-4.3,1.9-4.3,4.3v8.3c0,2.4,1.9,4.3,4.3,4.3h8.3c2.4,0,4.3-1.9,4.3-4.3V-41
						c0-2.4-1.9-4.3-4.3-4.3H81.5z"/>
				</g>
			</g>
		</g>
		<g>
			<g>
				<path class="st11" d="M103.3-91.4c0-9.8-7.9-17.7-17.7-17.7s-17.7,7.9-17.7,17.7c0,8.8,6.5,16.1,14.9,17.5v-12.4h-4.5v-5.1h4.5
					v-3.9c0-4.4,2.6-6.9,6.7-6.9c1.9,0,4,0.3,4,0.3v4.4h-2.2c-2.2,0-2.9,1.4-2.9,2.8v3.3h4.9l-0.8,5.1h-4.1v12.4
					C96.8-75.3,103.3-82.6,103.3-91.4z"/>
				<path class="st0" d="M92.5-86.3l0.8-5.1h-4.9v-3.3c0-1.4,0.7-2.8,2.9-2.8h2.2v-4.4c0,0-2-0.3-4-0.3c-4,0-6.7,2.4-6.7,6.9v3.9
					h-4.5v5.1h4.5v12.4c0.9,0.1,1.8,0.2,2.8,0.2s1.9-0.1,2.8-0.2v-12.4H92.5z"/>
			</g>
		</g>
		<g>
			<circle cx="85.6" cy="126.9" r="17.7"/>
			<g>
				<path class="st12" d="M90.2,123.9c1.4,1,3.2,1.6,5.1,1.6v-3.6c-0.4,0-0.7,0-1.1-0.1v2.9c-1.9,0-3.7-0.6-5.1-1.6v7.4
					c0,3.7-3,6.7-6.7,6.7c-1.4,0-2.7-0.4-3.8-1.1c1.2,1.3,2.9,2,4.8,2c3.7,0,6.7-3,6.7-6.7L90.2,123.9L90.2,123.9z M91.6,120.2
					c-0.7-0.8-1.2-1.8-1.3-3v-0.5h-1C89.5,118.2,90.4,119.4,91.6,120.2L91.6,120.2z M81,133.2c-0.4-0.5-0.6-1.2-0.6-1.9
					c0-1.7,1.4-3.1,3.1-3.1c0.3,0,0.6,0,0.9,0.1v-3.7c-0.4,0-0.7-0.1-1.1-0.1v2.9c-0.3-0.1-0.6-0.1-0.9-0.1c-1.7,0-3.1,1.4-3.1,3.1
					C79.3,131.6,80,132.7,81,133.2z"/>
				<path class="st1" d="M89.2,123c1.4,1,3.2,1.6,5.1,1.6v-2.9c-1.1-0.2-2-0.8-2.7-1.5c-1.2-0.8-2.1-2-2.3-3.4h-2.7v14.6
					c0,1.7-1.4,3.1-3.1,3.1c-1,0-1.9-0.5-2.5-1.2c-1-0.5-1.7-1.6-1.7-2.8c0-1.7,1.4-3.1,3.1-3.1c0.3,0,0.6,0.1,0.9,0.1v-2.9
					c-3.7,0.1-6.6,3.1-6.6,6.7c0,1.8,0.7,3.5,1.9,4.7c1.1,0.7,2.4,1.1,3.8,1.1c3.7,0,6.7-3,6.7-6.7V123z"/>
				<path class="st13" d="M94.3,121.7v-0.8c-1,0-1.9-0.3-2.7-0.8C92.3,121,93.2,121.5,94.3,121.7z M89.2,116.7c0-0.1,0-0.3-0.1-0.4
					v-0.5h-3.7v14.6c0,1.7-1.4,3.1-3.1,3.1c-0.5,0-1-0.1-1.4-0.3c0.6,0.7,1.5,1.2,2.5,1.2c1.7,0,3.1-1.4,3.1-3.1v-14.6H89.2z
					 M83.4,124.6v-0.8c-0.3,0-0.6-0.1-0.9-0.1c-3.7,0-6.7,3-6.7,6.7c0,2.3,1.2,4.4,3,5.6c-1.2-1.2-1.9-2.9-1.9-4.7
					C76.7,127.6,79.7,124.6,83.4,124.6L83.4,124.6z"/>
			</g>
		</g>
		<g>
			<path class="st8" d="M85.6,54.6c-9.8,0-17.7,7.9-17.7,17.7c0,7.2,4.3,13.4,10.5,16.1c0-0.5,0-1,0-1.5c0.1-1.7,0.3-2.3,2.5-11.6
				c0-0.1,0-0.3-0.1-0.4c-0.5-1.4-0.6-2.9-0.2-4.4c1-3.2,4.6-3.4,5.2-0.8c0.4,1.6-0.6,3.7-1.4,6.9c-0.7,2.6,2.4,4.4,5,2.5
				c2.4-1.7,3.3-5.9,3.2-8.9c-0.3-5.9-6.8-7.2-10.9-5.3c-4.7,2.2-5.8,8-3.7,10.7c0.3,0.3,0.5,0.5,0.4,0.9c-0.1,0.5-0.3,1.1-0.4,1.6
				c-0.1,0.4-0.4,0.5-0.8,0.4c-0.8-0.3-1.4-0.8-2-1.5c-1.8-2.2-2.3-6.7,0.1-10.4c2.6-4.2,7.6-5.8,12.1-5.3c5.4,0.6,8.8,4.3,9.4,8.4
				c0.3,1.9,0.1,6.6-2.6,9.9c-3.1,3.8-8,4-10.3,1.7c-0.2-0.2-0.3-0.4-0.5-0.6c0,0.1,0,0.2-0.1,0.2c-1.1,4.3-1.2,5.3-2.4,7.3
				c-0.2,0.3-0.4,0.6-0.6,0.9c1.7,0.5,3.4,0.8,5.3,0.8c9.8,0,17.7-7.9,17.7-17.7C103.3,62.6,95.4,54.6,85.6,54.6z"/>
			<path class="st0" d="M83.3,81.1c0-0.1,0-0.1,0.1-0.2c0.2,0.2,0.3,0.4,0.5,0.6c2.3,2.3,7.3,2.1,10.3-1.7c2.7-3.3,2.9-8,2.6-9.9
				c-0.6-4.2-4-7.8-9.4-8.4c-4.5-0.5-9.4,1.2-12.1,5.3c-2.4,3.7-1.9,8.2-0.1,10.4c0.5,0.7,1.2,1.2,2,1.5c0.4,0.2,0.7,0,0.8-0.4
				c0.1-0.5,0.3-1.1,0.4-1.6c0.1-0.3-0.1-0.6-0.4-0.9c-2.1-2.7-1.1-8.5,3.7-10.7c4.1-1.9,10.6-0.6,10.9,5.3c0.2,3-0.8,7.1-3.2,8.9
				c-2.6,1.9-5.7,0-5-2.5c0.8-3.1,1.8-5.3,1.4-6.9c-0.6-2.6-4.2-2.4-5.2,0.8c-0.5,1.5-0.4,2.9,0.2,4.4c0,0.1,0.1,0.2,0.1,0.4
				c-2.2,9.3-2.4,9.9-2.5,11.6c0,0.5,0,1,0,1.5c0.6,0.3,1.3,0.5,2,0.8c0.2-0.3,0.4-0.6,0.6-0.9C82,86.3,82.2,85.4,83.3,81.1z"/>
		</g>
		<g>
			<circle class="st7" cx="85.6" cy="181.5" r="17.7"/>
			<path class="st0" d="M76,191.5l1.5-5.5c-0.8-1.5-1.3-3.2-1.3-4.9c0-5.6,4.6-10.2,10.2-10.2c5.6,0,10.2,4.6,10.2,10.2
				c0,5.6-4.6,10.2-10.2,10.2c-1.7,0-3.3-0.4-4.8-1.2L76,191.5z M81.8,188l0.3,0.2c1.3,0.8,2.7,1.2,4.2,1.2c4.5,0,8.2-3.7,8.2-8.2
				c0-4.5-3.7-8.2-8.2-8.2c-4.5,0-8.2,3.7-8.2,8.2c0,1.5,0.4,3,1.2,4.3l0.2,0.4l-0.8,3.1L81.8,188z"/>
			<path class="st1" d="M90.2,182.5c-0.4-0.3-1-0.5-1.5-0.3c-0.4,0.2-0.6,0.7-0.9,1c-0.1,0.2-0.3,0.2-0.5,0.1
				c-1.4-0.6-2.5-1.5-3.3-2.8c-0.1-0.2-0.1-0.4,0.1-0.6c0.2-0.3,0.5-0.6,0.6-1c0.1-0.4-0.1-0.8-0.3-1.1c-0.2-0.4-0.4-1-0.8-1.3
				c-0.4-0.2-0.9-0.1-1.3,0.2c-0.6,0.5-0.9,1.3-0.9,2c0,0.2,0,0.4,0.1,0.6c0.1,0.5,0.4,1,0.6,1.4c0.2,0.3,0.4,0.7,0.6,1
				c0.8,1,1.7,1.9,2.8,2.6c0.5,0.3,1.1,0.6,1.7,0.8c0.7,0.2,1.3,0.5,2,0.3c0.8-0.1,1.5-0.6,1.8-1.4c0.1-0.2,0.1-0.5,0.1-0.7
				C91.2,183,90.6,182.7,90.2,182.5z"/>
		</g>
		<g>
			<circle class="st8" cx="85.6" cy="236.1" r="17.7"/>
			<path class="st0" d="M95.1,233.5c0-2.3-1.9-4.2-4.2-4.2H80c-2.3,0-4.2,1.9-4.2,4.2v5.1c0,2.3,1.9,4.2,4.2,4.2h10.9
				c2.3,0,4.2-1.9,4.2-4.2V233.5z M88.7,236.4l-4.9,2.4c-0.2,0.1-0.8,0-0.8-0.3v-4.9c0-0.2,0.7-0.4,0.8-0.2l4.7,2.5
				C88.7,236.1,88.9,236.3,88.7,236.4z"/>
		</g>
	</g>
	<g>
		<g>
			<linearGradient id="SVGID_2_" gradientUnits="userSpaceOnUse" x1="14.6524" y1="-61.7165" x2="46.7406" y2="-31.0028">
				<stop  offset="1.104800e-003" style="stop-color:#FBE18A"/>
				<stop  offset="0.2094" style="stop-color:#FCBB45"/>
				<stop  offset="0.3765" style="stop-color:#F75274"/>
				<stop  offset="0.5238" style="stop-color:#D53692"/>
				<stop  offset="0.7394" style="stop-color:#8F39CE"/>
				<stop  offset="1" style="stop-color:#5B4FE9"/>
			</linearGradient>
			<circle class="st14" cx="30.9" cy="-46.2" r="2.1"/>
			<linearGradient id="SVGID_3_" gradientUnits="userSpaceOnUse" x1="5.5982" y1="-52.2571" x2="37.6863" y2="-21.5434">
				<stop  offset="1.104800e-003" style="stop-color:#FBE18A"/>
				<stop  offset="0.2094" style="stop-color:#FCBB45"/>
				<stop  offset="0.3765" style="stop-color:#F75274"/>
				<stop  offset="0.5238" style="stop-color:#D53692"/>
				<stop  offset="0.7394" style="stop-color:#8F39CE"/>
				<stop  offset="1" style="stop-color:#5B4FE9"/>
			</linearGradient>
			<path class="st15" d="M21.6-45.6c-4.8,0-8.7,3.9-8.7,8.7c0,4.8,3.9,8.7,8.7,8.7c4.8,0,8.7-3.9,8.7-8.7
				C30.4-41.7,26.4-45.6,21.6-45.6z M21.6-31.3c-3.1,0-5.6-2.5-5.6-5.6s2.5-5.6,5.6-5.6c3.1,0,5.6,2.5,5.6,5.6S24.7-31.3,21.6-31.3z
				"/>
			<linearGradient id="SVGID_4_" gradientUnits="userSpaceOnUse" x1="5.5287" y1="-52.1844" x2="37.6166" y2="-21.471">
				<stop  offset="1.104800e-003" style="stop-color:#FBE18A"/>
				<stop  offset="0.2094" style="stop-color:#FCBB45"/>
				<stop  offset="0.3765" style="stop-color:#F75274"/>
				<stop  offset="0.5238" style="stop-color:#D53692"/>
				<stop  offset="0.7394" style="stop-color:#8F39CE"/>
				<stop  offset="1" style="stop-color:#5B4FE9"/>
			</linearGradient>
			<path class="st16" d="M28.6-19.2H14.4C8.6-19.2,3.8-24,3.8-29.8V-44c0-5.9,4.8-10.6,10.6-10.6h14.1c5.9,0,10.6,4.8,10.6,10.6
				v14.1C39.2-24,34.4-19.2,28.6-19.2z M14.4-51.3c-4,0-7.3,3.3-7.3,7.3v14.1c0,4,3.3,7.3,7.3,7.3h14.1c4,0,7.3-3.3,7.3-7.3V-44
				c0-4-3.3-7.3-7.3-7.3H14.4z"/>
		</g>
	</g>
	<path class="st11" d="M29.7-89.3l1-6.4h-6.1v-4.2c0-1.8,0.9-3.5,3.6-3.5H31v-5.5c0,0-2.5-0.4-5-0.4c-5.1,0-8.4,3.1-8.4,8.6v4.9H12
		v6.4h5.6v15.5h6.9v-15.5H29.7z"/>
	<path class="st9" d="M42.8,4.2c-1.4,0.6-2.9,1-4.3,1.2c0.7-0.1,1.7-1.4,2.1-1.9C41.2,2.8,41.8,1.9,42,1c0-0.1,0.1-0.2,0-0.2
		c-0.1,0-0.2,0-0.2,0c-1.6,0.9-3.3,1.5-5.2,2c-0.1,0-0.3,0-0.4-0.1c-0.1-0.2-0.3-0.3-0.5-0.5c-0.8-0.6-1.6-1.2-2.5-1.5
		c-1.2-0.5-2.5-0.7-3.8-0.6c-1.3,0.1-2.5,0.4-3.6,1c-1.1,0.6-2.1,1.4-2.9,2.4c-0.8,1-1.4,2.2-1.8,3.5c-0.3,1.2-0.3,2.5-0.1,3.7
		c0,0.2,0,0.2-0.2,0.2C13.9,9.8,8,7.3,3.2,1.8C3,1.6,2.9,1.6,2.7,1.9C0.6,5,1.7,10,4.3,12.5c0.3,0.3,0.7,0.7,1.1,1
		c-0.1,0-1.9-0.2-3.4-1c-0.2-0.1-0.3-0.1-0.3,0.2c0,0.3,0,0.6,0.1,1c0.4,3.2,2.6,6.1,5.6,7.2C7.6,21,8,21.2,8.4,21.2
		C7.7,21.4,7,21.5,5,21.4c-0.2,0-0.3,0.1-0.2,0.3c1.5,4,4.7,5.2,7,5.9c0.3,0.1,0.6,0.1,1,0.1c0,0,0,0-0.1,0.1
		C12,29,9.2,29.8,7.9,30.3c-2.3,0.8-4.9,1.2-7.3,0.9c-0.4-0.1-0.5-0.1-0.6,0c-0.1,0.1,0,0.2,0.1,0.3c0.5,0.3,1,0.6,1.5,0.9
		c1.6,0.8,3.2,1.5,4.9,2c8.8,2.4,18.7,0.6,25.2-5.9c5.2-5.1,7-12.2,7-19.3c0-0.3,0.3-0.4,0.5-0.6c1.3-1,2.4-2.2,3.4-3.6
		C43,4.7,43,4.4,43,4.3c0,0,0,0,0,0C43,4.1,43,4.2,42.8,4.2z"/>
	<path class="st17" d="M19.3,77.7c0,0.1-0.1,0.2-0.1,0.3c-1.3,5.1-1.4,6.2-2.8,8.6c-0.6,1.1-1.4,2.2-2.1,3.2
		c-0.1,0.1-0.2,0.3-0.4,0.2c-0.2,0-0.2-0.2-0.2-0.4c-0.2-1.5-0.3-3.1-0.3-4.7c0.1-2,0.3-2.7,2.9-13.8c0-0.2,0-0.3-0.1-0.5
		c-0.6-1.7-0.8-3.4-0.2-5.2c1.2-3.8,5.5-4.1,6.2-0.9c0.5,1.9-0.8,4.4-1.7,8.1c-0.8,3.1,2.8,5.2,5.9,3c2.8-2.1,3.9-7,3.7-10.5
		c-0.4-7-8.1-8.5-12.9-6.2c-5.6,2.6-6.8,9.5-4.3,12.6c0.3,0.4,0.6,0.6,0.5,1.1c-0.2,0.6-0.3,1.3-0.5,1.9c-0.1,0.5-0.5,0.6-1,0.4
		c-0.9-0.4-1.7-1-2.3-1.7C7.5,70.7,6.9,65.4,9.7,61c3.1-4.9,9-6.9,14.3-6.3c6.3,0.7,10.4,5.1,11.1,10c0.3,2.2,0.1,7.8-3.1,11.7
		c-3.6,4.5-9.5,4.8-12.2,2C19.6,78.2,19.5,77.9,19.3,77.7z"/>
	<g>
		<path class="st7" d="M3.8,199.2l2.5-9.5c-1.4-2.6-2.2-5.5-2.2-8.4c0-9.6,7.8-17.5,17.5-17.5c9.6,0,17.5,7.8,17.5,17.5
			c0,9.6-7.8,17.5-17.5,17.5c-2.9,0-5.7-0.7-8.3-2.1L3.8,199.2z M13.8,193.1l0.6,0.4c2.2,1.3,4.7,2,7.2,2c7.8,0,14.2-6.4,14.2-14.2
			c0-7.8-6.4-14.2-14.2-14.2c-7.8,0-14.2,6.4-14.2,14.2c0,2.6,0.7,5.1,2.1,7.3l0.4,0.6l-1.4,5.3L13.8,193.1z"/>
		<path class="st18" d="M28.2,183.7c-0.7-0.4-1.7-0.9-2.5-0.6c-0.7,0.3-1.1,1.3-1.5,1.8c-0.2,0.3-0.5,0.3-0.8,0.2
			c-2.4-1-4.3-2.6-5.7-4.8c-0.2-0.3-0.2-0.6,0.1-0.9c0.4-0.5,0.9-1,1-1.7c0.1-0.6-0.2-1.4-0.5-2c-0.3-0.7-0.7-1.8-1.5-2.2
			c-0.7-0.4-1.6-0.2-2.2,0.3c-1,0.8-1.5,2.2-1.5,3.5c0,0.4,0.1,0.7,0.1,1.1c0.2,0.9,0.6,1.7,1.1,2.4c0.3,0.6,0.7,1.1,1.1,1.7
			c1.3,1.8,2.9,3.3,4.8,4.5c0.9,0.6,2,1.1,3,1.4c1.2,0.4,2.2,0.8,3.5,0.6c1.3-0.3,2.6-1.1,3.2-2.4c0.2-0.4,0.2-0.8,0.1-1.2
			C30,184.6,28.8,184.1,28.2,183.7z"/>
	</g>
	<path class="st8" d="M39.5,231.4c0-4.4-3.5-7.9-7.9-7.9H11.4c-4.4,0-7.9,3.5-7.9,7.9v9.4c0,4.4,3.5,7.9,7.9,7.9h20.2
		c4.4,0,7.9-3.5,7.9-7.9V231.4z M27.6,236.8l-9,4.5c-0.4,0.2-1.6-0.1-1.6-0.5v-9.2c0-0.4,1.2-0.7,1.6-0.5l8.7,4.7
		C27.6,236,28,236.6,27.6,236.8z"/>
	<g>
		<path class="st12" d="M29.4,121.7c2.4,1.7,5.3,2.7,8.5,2.7v-6.1c-0.6,0-1.2-0.1-1.8-0.2v4.8c-3.2,0-6.1-1-8.5-2.7v12.4
			c0,6.2-5,11.2-11.2,11.2c-2.3,0-4.5-0.7-6.2-1.9c2,2.1,4.9,3.4,8,3.4c6.2,0,11.2-5,11.2-11.2L29.4,121.7L29.4,121.7z M31.6,115.6
			c-1.2-1.3-2-3-2.2-4.9v-0.8h-1.7C28.1,112.3,29.6,114.4,31.6,115.6L31.6,115.6z M14.1,137.2c-0.7-0.9-1-2-1-3.1
			c0-2.8,2.3-5.1,5.1-5.1c0.5,0,1.1,0.1,1.6,0.2V123c-0.6-0.1-1.2-0.1-1.8-0.1v4.8c-0.5-0.2-1-0.2-1.6-0.2c-2.8,0-5.1,2.3-5.1,5.1
			C11.2,134.6,12.4,136.4,14.1,137.2z"/>
		<path class="st2" d="M27.6,120.3C30,122,32.9,123,36,123v-4.8c-1.8-0.4-3.3-1.3-4.5-2.6c-2-1.3-3.4-3.3-3.9-5.7h-4.4v24.2
			c0,2.8-2.3,5.1-5.1,5.1c-1.7,0-3.1-0.8-4.1-2c-1.7-0.8-2.8-2.6-2.8-4.6c0-2.8,2.3-5.1,5.1-5.1c0.5,0,1.1,0.1,1.6,0.2v-4.8
			c-6.1,0.1-11,5.1-11,11.2c0,3.1,1.2,5.8,3.2,7.8c1.8,1.2,3.9,1.9,6.2,1.9c6.2,0,11.2-5,11.2-11.2V120.3z"/>
		<path class="st13" d="M36,118.2v-1.3c-1.6,0-3.1-0.4-4.5-1.3C32.7,116.9,34.3,117.8,36,118.2z M27.7,109.9c0-0.2-0.1-0.5-0.1-0.7
			v-0.8h-6.1v24.2c0,2.8-2.3,5.1-5.1,5.1c-0.8,0-1.6-0.2-2.3-0.5c0.9,1.2,2.4,2,4.1,2c2.8,0,5.1-2.3,5.1-5.1v-24.2H27.7z
			 M17.9,122.9v-1.4c-0.5-0.1-1-0.1-1.5-0.1c-6.2,0-11.2,5-11.2,11.2c0,3.9,2,7.3,5,9.3c-2-2-3.2-4.8-3.2-7.8
			C6.9,128,11.8,123,17.9,122.9L17.9,122.9z"/>
	</g>
	<line class="st19" x1="156.6" y1="-110.4" x2="156.6" y2="253.8"/>
	<line class="st20" x1="-34.9" y1="-110.4" x2="-34.9" y2="255.1"/>
	<line class="st20" x1="413.8" y1="-110.4" x2="413.8" y2="255.1"/>
</g>
<g id="TEXT">
	<text transform="matrix(1 0 0 1 -114.8425 -147.8454)"><tspan x="0" y="0" style="font-family:'Montserrat-Bold'; font-size:12px; letter-spacing:4;">Icons</tspan><tspan x="64.2" y="0" style="fill:#808080; font-family:'Montserrat-Bold'; font-size:12px; letter-spacing:4;"> &amp; </tspan><tspan x="94.1" y="0" style="font-family:'Montserrat-Bold'; font-size:12px; letter-spacing:4;">Social Media Logos</tspan><tspan x="321.2" y="0" style="fill:#808080; font-family:'Montserrat-Bold'; font-size:12px; letter-spacing:4;"> for </tspan><tspan x="378.7" y="0" style="font-family:'Montserrat-Bold'; font-size:12px; letter-spacing:4;">business card</tspan></text>
</g>
</svg>
