<?xml version="1.0" encoding="utf-8"?>
<!-- Generator: Adobe Illustrator 19.0.0, SVG Export Plug-In . SVG Version: 6.00 Build 0)  -->
<svg version="1.1" id="Слой_1" xmlns="http://www.w3.org/2000/svg" xmlns:xlink="http://www.w3.org/1999/xlink" x="0px" y="0px"
	 viewBox="0 0 2870.3 1284" style="enable-background:new 0 0 2870.3 1284;" xml:space="preserve">
<style type="text/css">
	.st0{fill:#EBF3FA;}
	.st1{fill:#2E3552;}
	.st2{fill:#FFB27D;}
	.st3{fill:#233862;}
	.st4{fill:#EFCBAB;}
	.st5{fill:#D8A987;}
	.st6{fill:#ED985F;}
	.st7{fill:#132644;}
	.st8{fill:#FFFFFF;}
	.st9{fill:#D2E3FC;}
	.st10{fill:#EE9849;}
	.st11{fill:#1C468A;}
	.st12{fill:#BC3F3F;}
	.st13{fill:#FFF0E6;}
	.st14{fill:#FCECDB;}
	.st15{fill:#932424;}
	.st16{fill:#EF9E67;}
	.st17{fill:#A53D38;}
	.st18{fill:#C45446;}
	.st19{fill:#912F2F;}
	.st20{fill:#9B2323;}
	.st21{fill:#C94C43;}
	.st22{fill:#ED975D;}
	.st23{fill:#F99746;}
	.st24{fill:#DDB08E;}
	.st25{fill:#B56F40;}
	.st26{fill:#99592E;}
	.st27{fill:#2C3A64;}
	.st28{fill:#82B378;}
	.st29{fill:#EF7E29;}
	.st30{fill:#AA443E;}
	.st31{fill:#6BB7BF;}
	.st32{fill:#86D1CD;}
	.st33{fill:#5685D8;}
	.st34{fill:#739AF0;}
	.st35{fill:#ED7D2B;}
</style>
<g>
	<g>
		<path class="st0" d="M83.6,1280.9c0,0-208.3-449.8,32.6-730.2c198.1-230.5,467.3-275.8,676.4-137
			c89.1,59.1,337.8,45.1,637.5-236.2c389.2-365.3,1364.9-162.8,1176.5,567.5c-91.2,353.4,299.3,183.3,111.4,536.5L83.6,1280.9z"/>
		<path class="st1" d="M2867.1,1284H23.4c-1.8,0-3.2-1.5-3.2-3.2v-1.1c0-1.8,1.5-3.2,3.2-3.2h2843.8c1.8,0,3.2,1.5,3.2,3.2v1.1
			C2870.3,1282.5,2868.9,1284,2867.1,1284z"/>
		<g>
			<polygon class="st2" points="405.1,756 395.5,860.3 409.7,862.5 449.8,769.7 			"/>
			<path class="st2" d="M411.6,851.7c0,0-3.3,10.9-1.2,19c1.4,5.4-7.1,12.9-16.4,23.2c-0.9,1-2.7,0-2.5-1.4c0.1-0.7,0.3-1.6,0.8-2.6
				c1.7-3.9,6.5-10.7,6.5-10.7c-0.4-1.5-10.3,3.8-15.9,7.5c-3.3,2.2-12.7,12.3-15.2,10.8c-2.5-1.5,1.5-11.3,5.9-18.5
				c4.4-7.2,20-13.3,22-18.8C397.5,854.7,411.6,851.7,411.6,851.7z"/>
			<polygon class="st3" points="457.4,377.8 561.2,333.5 656.9,379.2 561.2,427.7 			"/>
			<g>
				<g>
					<path class="st4" d="M474.2,428.7l1.5-2c-20.9-15.7-16.8-42-15.6-48c0.2-0.8-0.2-1.6-0.8-2l0,0c-0.6-0.5-1.5-0.1-1.7,0.7
						C456.2,384.3,452.3,412.3,474.2,428.7z"/>
				</g>
				<polygon class="st5" points="475.6,426.7 478.8,427.9 476.1,431.2 474.2,428.7 				"/>
				<path class="st4" d="M478.8,427.9c0,0,3.9,2.8,5.2,2c0,0-1.3,3.7-3.2,4.1c0,0-3.5-1.2-4.7-2.7L478.8,427.9z"/>
			</g>
			<polygon class="st2" points="524.5,1169.2 517.4,1198.8 508.1,1238.1 478.9,1238.1 477.1,1200.4 475.8,1171.4 			"/>
			<path class="st3" d="M467.3,1281.3c0,0,0-14.3,2-19.1c2-4.8,9.5-24.1,9.5-24.1h29.2c0,0,5.4,17.7,5.8,23.4c0.3,5.8,0,19.7,0,19.7
				H467.3z"/>
			<path class="st3" d="M652.8,1281.3c0,0,0-14.3-2-19.1c-2-4.8-9.5-24.1-9.5-24.1H612c0,0-5.4,17.7-5.8,23.4
				c-0.3,5.8,0,19.7,0,19.7H652.8z"/>
			<path class="st2" d="M535.7,478.6c0,0-1,31.8-5.1,46.1l-32.3,69.5l71.4,98.8l50-127.7l-29-40c0,0-8.7-42.7-4.2-58.5
				C591.3,451.1,535.7,478.6,535.7,478.6z"/>
			<path class="st6" d="M535.6,483c0,0,9.6,23.1,27.7,22.6c18.1-0.5,22.2-21,22.2-21L535.6,483z"/>
			<path class="st7" d="M524.8,464.3c0,0-5.8-29.2-9.9-38c-4.1-8.8-7.5-48.2,37.7-50.3c0,0,17.3,2,26.8-3.7c0,0,0,5.8-2.4,7.8
				c0,0,11.8-7.4,24,6.2c12.2,13.6-4.3,64.8-3.3,76L524.8,464.3z"/>
			<path class="st2" d="M561.2,496.7c-13.1-0.2-37.2-17.7-37.2-39.3v-33.7c0-7.9,5.5-14.3,12.2-14.3h50c6.7,0,12.2,6.5,12.2,14.3
				v31.8C598.4,478.1,576.2,497,561.2,496.7z"/>
			<path class="st7" d="M524,441.7c0,0,0.1-20.3,16.1-23.4c16-3.1,52,9.9,57.1-4.9c5.1-14.8-69.4-14.5-73.2-5.1
				C520.2,417.7,524,441.7,524,441.7z"/>
			<polygon class="st8" points="530.6,524.7 560.5,531.4 590.7,524.2 598.4,570.5 564.5,685.8 527.5,547.6 			"/>
			<polygon class="st9" points="529.2,534.2 552.9,551.9 560.7,539.2 567.9,551.9 593.2,529.9 588.2,524.2 560.5,531.4 530.6,530.1 
							"/>
			<path class="st10" d="M653.5,785.7l-71.1,4.4c-0.4-0.7-0.9-0.7-1.4,0.1l-20.9,1.3L471,786c0,0-22.4,102.3-13.6,238.7
				c2.8,43.5,9.1,172.3,15.1,217.9l61.1,0.6c7.9-51.5,17.1-180.1,22-202.2c2.2-10,4.3-20,6.3-29.8c1.8,11.2,2.9,20.3,2.9,26
				c0,9.1,2.6,23.5,6.3,40.9c5.1,24.5,20.3,137.3,24.8,166.8h64.1c0.8-40.6,4.3-178.5,5-220.2C666.7,913.5,653.5,785.7,653.5,785.7z
				"/>
			<path class="st11" d="M702.5,1145.2c-32.7,17.1-255.2,37.4-295.1-9.6c-6.8-8,88-604.2,88-604.2s6.1-1.8,16.4-3.7
				c5.3-1,11.6-2,18.8-2.9c0.1,2.2,15.4,99,36.4,136.8c0,0,23.7-52.1,23.8-136.3c0-0.4-0.1-0.8-0.1-1.2c4.5,0.5,9,1.1,13.6,1.9
				c1.9,0.3,3.9,0.7,5.8,1.1c7.3,1.5,14.7,3.4,22,5.8C632.1,532.9,709.3,1141.7,702.5,1145.2z"/>
			<path class="st11" d="M521.3,525.9c0,0-34.1,261.6-47.1,281.2c-5.5,8.2-13.5,9.5-22.9,7.7c-1.8-0.3-3.7-0.8-5.5-1.4l-26.1-10
				l-0.1,0c-4.2-1.7-8.5-3.3-12.8-4.6c-26.8-8.3-24.7-30.9-17.5-61.7c7.2-30.8,54.5-179,70.5-189.5
				C487.9,529.1,521.3,525.9,521.3,525.9z"/>
			<path class="st2" d="M590.7,524.2c-22.4-2.4-43.5-1.3-60.1,0.7c0-0.1,0-0.1,0-0.1S586.2,490.3,590.7,524.2z"/>
			<path class="st12" d="M571.1,685.8c-34.4-25.3-59.3-158.1-59.3-158.1c5.3-1,11.6-2,18.8-2.9c0.1,2.2,14.6,93.7,35.5,131.5
				c0,0,24.6-46.8,24.7-130.9c0-0.4-0.1-0.8-0.1-1.2c4.5,0.5,9,1.1,13.6,1.9c1.9,0.3,3.9,0.7,5.8,1.1
				C610.1,598,571.1,685.8,571.1,685.8z"/>
			<path class="st13" d="M549.6,471.7c0,0,15.7-1.6,23,0.2c0,0-3.9,6.3-10.3,6.3C555.9,478.1,551.1,475.7,549.6,471.7z"/>
			<path class="st11" d="M511.7,393.2l0.9,15.3c0,0,35.2-23.5,92.9-1.9l-0.8-22.1c-0.8-4.3-3.5-8-7.3-10.2
				c-10.8-6.2-36.2-17.8-76.2,1.6C515.6,378.5,512.1,387,511.7,393.2z"/>
			<polygon class="st8" points="533.3,510.7 521.3,525.9 553,547.6 560.5,531.4 			"/>
			<polygon class="st8" points="588.3,510.7 560.5,531.4 568.5,547.6 595.8,524.8 			"/>
			<circle class="st9" cx="561.2" cy="568.8" r="2.2"/>
			<circle class="st9" cx="561.2" cy="592.3" r="2.2"/>
			<circle class="st9" cx="561.2" cy="616.6" r="2.2"/>
			<path class="st11" d="M632.1,532.9c0,0,21.4,8.9,32.8,35.1c11.4,26.2,58.9,97.8,57.5,131.3c-1.4,33.5-7.8,64-39.7,65
				c-21.9,0.7-44.2-20.7-44.2-52.8C638.6,679.5,632.1,532.9,632.1,532.9z"/>
			<path class="st3" d="M700.1,745.6c-0.9,9-4.2,16.3-12.3,18.4c-25.6,6.4-36.9-18.3-31.5-42.5c0.2-0.8,0.4-1.6,0.6-2.3
				c5.5-17.7,25.1-20.4,32.4-20.8c1.7-0.1,2.7-0.1,2.7-0.1s0.1,0.4,0.4,1.1C694.2,704.8,701.7,728.4,700.1,745.6z"/>
			<path class="st2" d="M700.1,745.6c0,0-74.6-33.6-104.1-72.1c-2.2-2.8,3.4-6.3,3.4-6.3l89.8,31.2l3.1,1.1
				C694.2,704.8,701.7,728.4,700.1,745.6z"/>
			<g>
				<rect x="513.8" y="669" class="st14" width="98.5" height="129.9"/>
				<g>
					<polygon class="st15" points="554.3,760.5 543.2,779 550.2,778 553.2,783.6 562.6,766.6 					"/>
					<polygon class="st15" points="569,759.3 580,777.9 573,776.9 570,782.4 560.6,765.4 					"/>
					<path class="st12" d="M550.4,756.4c1.2-8.1,5.6-11.3,12.3-12.3c8.8-1.3,12.3,5.5,12.3,12.3c0,6.8-5.5,12.3-12.3,12.3
						C555.9,768.7,549.3,763.1,550.4,756.4z"/>
					<g>
						<path class="st15" d="M562.7,766.2c-3,0-6-1.4-7.9-3.6c-1.6-1.8-2.3-4.1-1.9-6.3l0,0c0.9-5.8,3.9-8.8,9.7-9.7
							c2.7-0.4,5,0.1,6.7,1.6c2,1.7,3.2,4.7,3.2,8.2C572.5,761.8,568.1,766.2,562.7,766.2z M564.3,747.6c-0.5,0-1,0-1.5,0.1
							c-5.3,0.8-7.9,3.4-8.8,8.8l0,0c-0.3,1.9,0.3,3.8,1.7,5.4c1.7,2,4.4,3.2,7,3.2c4.8,0,8.7-3.9,8.7-8.7c0-3.1-1-5.8-2.8-7.3
							C567.4,748.1,566,747.6,564.3,747.6z"/>
					</g>
				</g>
				<g>
					<path class="st11" d="M576.8,684.6h-27.4c-0.5,0-0.8-0.4-0.8-0.8l0,0c0-0.5,0.4-0.8,0.8-0.8h27.4c0.5,0,0.8,0.4,0.8,0.8l0,0
						C577.6,684.2,577.2,684.6,576.8,684.6z"/>
					<path class="st11" d="M582.1,688H544c-0.5,0-0.8-0.4-0.8-0.8l0,0c0-0.5,0.4-0.8,0.8-0.8h38.1c0.5,0,0.8,0.4,0.8,0.8l0,0
						C582.9,687.7,582.6,688,582.1,688z"/>
				</g>
				<g>
					<path class="st11" d="M591.1,716.7H535c-0.5,0-0.9-0.4-0.9-0.9l0,0c0-0.5,0.4-0.9,0.9-0.9h56.2c0.5,0,0.9,0.4,0.9,0.9l0,0
						C592.1,716.3,591.7,716.7,591.1,716.7z"/>
					<path class="st11" d="M591.1,721.4H535c-0.5,0-0.9-0.4-0.9-0.9l0,0c0-0.5,0.4-0.9,0.9-0.9h56.2c0.5,0,0.9,0.4,0.9,0.9l0,0
						C592.1,721,591.7,721.4,591.1,721.4z"/>
					<path class="st11" d="M591.1,725.6H535c-0.5,0-0.9-0.4-0.9-0.9l0,0c0-0.5,0.4-0.9,0.9-0.9h56.2c0.5,0,0.9,0.4,0.9,0.9l0,0
						C592.1,725.1,591.7,725.6,591.1,725.6z"/>
					<path class="st11" d="M591.1,730.1H535c-0.5,0-0.9-0.4-0.9-0.9l0,0c0-0.5,0.4-0.9,0.9-0.9h56.2c0.5,0,0.9,0.4,0.9,0.9l0,0
						C592.1,729.7,591.7,730.1,591.1,730.1z"/>
				</g>
				<path class="st11" d="M595.9,756.9c-1.8,1.5-3.7,2.7-5.7,3.8c0.2-0.5,0.3-1.1,0.3-1.6c0-0.7-0.6-1-1.1-1.2
					c-0.1-0.1-0.3-0.1-0.4-0.2c0.2-0.2,0.3-0.5,0.2-0.8c-0.2-0.5-0.9-0.4-1.1,0c0,0.1-0.1,0.2-0.1,0.3c-0.1,0-0.2-0.1-0.2-0.2
					c0.3-0.6,0.6-1.2,0.9-1.9c0.1-0.1,0-0.3-0.1-0.4c-0.5-0.4-1.1-0.2-1.5,0.2c-0.5,0.5-0.3,1.3-0.1,1.9c0,0,0,0.1,0,0.1
					c-0.4,0.8-0.9,1.5-1.4,2.2c0,0-0.1-0.1-0.1-0.1c-0.1-0.1-0.3-0.3-0.4-0.5c0.2-0.6,0.4-1.2,0.4-1.8c0-0.3-0.3-0.4-0.5-0.3
					c-0.7,0.2-1,0.9-0.9,1.6c0,0.2,0.1,0.5,0.2,0.7c-0.1,0.3-0.3,0.6-0.5,0.9c-0.1,0.2,0,0.4,0.1,0.5c-0.2,0.7-0.5,1.4-1,2
					c-0.4,0.4-1.2,0.7-1.6,0.2c-0.3-0.3-0.4-0.8-0.4-1.3c-0.1-1-0.2-2.1-0.1-3.1c0-0.5,0.1-1,0.2-1.5c0.1-0.3,0.3-0.7,0.4-0.2
					c0.1,0.2,0,0.6-0.1,0.9c0,0.4,0.6,0.5,0.7,0.1c0.1-0.5,0.3-1.6-0.3-1.9c-0.5-0.3-0.9,0.1-1.2,0.5c-0.8,1.5-0.5,3.5-0.4,5
					c0.1,1.3,0.6,2.8,2.2,2.4c1.5-0.4,2.1-2.3,2.4-3.6c0-0.1,0-0.2,0-0.2c0,0,0,0,0,0c0.1,0.1,0.1,0.1,0.2,0.2
					c0.1,0.1,0.2,0.2,0.3,0.3c-0.2,0.2-0.3,0.4-0.5,0.7c-0.1,0.1-0.1,0.3,0,0.4c0.5,0.6,1.4,0.2,1.4-0.6c0-0.2,0-0.3-0.1-0.5
					c0.5-0.7,0.9-1.4,1.3-2.1c0.2,0.2,0.5,0.3,0.8,0.3c0,0,0,0,0.1,0c0.2,0.2,0.4,0.3,0.6,0.5c0.2,0.1,0.4,0.2,0.6,0.3
					c0.3,0.3,0.2,0.6,0.2,1c-0.1,0.5-0.3,1-0.4,1.5c-0.7,0.4-1.4,0.9-1.6,1.7c-0.2,0.7,0,1.5,0.6,1.9c0.2,0.1,0.4,0,0.5-0.2
					c0.4-1,0.7-1.9,1-2.9c0,0,0-0.1,0-0.1c0.6-0.3,1.3-0.7,1.9-1c1.6-1,3.1-2,4.6-3.2C596.7,757.1,596.2,756.6,595.9,756.9z
					 M587.5,755.9c0-0.3,0.1-0.8,0.5-0.8c-0.1,0.3-0.3,0.6-0.4,0.9C587.5,756,587.5,756,587.5,755.9z M588.4,763.9
					c-0.3-0.5,0.1-1.2,0.6-1.7C588.8,762.8,588.6,763.4,588.4,763.9z"/>
				<g>
					<path class="st11" d="M608.5,795.1h-90.1V673.4h90.1V795.1z M519.4,794.1h88.1V674.5h-88.1V794.1z"/>
				</g>
			</g>
			<path class="st2" d="M577.6,659.1c0,0-18.2,15.6-11.6,17.9c6.5,2.3,24.1-8.1,27.5-8.1c3.4,0,11.4,0,11.4,0s-11.2-13-17.1-12.6
				C581.8,656.7,577.6,659.1,577.6,659.1z"/>
			<path class="st3" d="M474.2,631.4l-22.9,183.5c-1.8-0.3-3.7-0.8-5.5-1.4l-26.1-10l-0.1,0c0,0,8-8.3,19-37.2
				C449.4,737.3,474.2,631.4,474.2,631.4z"/>
		</g>
		<g>
			<path class="st2" d="M1039.6,838.4c0,0,9.6,20.8,9.1,26.5c-0.5,5.7-9.1,23.7-9.1,23.7l-10.4-47.8L1039.6,838.4z"/>
			<polygon class="st2" points="1032.1,749 1039.6,838.4 1029.2,840.9 1001.8,759.7 			"/>
			<polygon class="st3" points="808.5,461.7 911.8,400.7 982.7,450.4 884.4,507.7 			"/>
			<path class="st7" d="M861.5,489.8c0,0-2.6,15-17.1,22.8c-14.4,7.7-26.8,10-23.7,34.9c3.1,24.9-13.9,30.6-17,47.1
				c-3.1,16.5-2.7,46.7,38.7,37.7c41.4-9,136.2-2.6,146.5-16c10.3-13.4,3.1-41.3-14.5-62.4c-17.5-21.2,5.7-35-2.6-53.6
				c-8.3-18.6-24.1-37.8-24.1-37.8S879.6,449.5,861.5,489.8z"/>
			<polygon class="st2" points="881.1,1175.9 895.1,1234.8 916,1234.6 916.8,1175.9 			"/>
			<polygon class="st2" points="1057.1,1178.4 1096.9,1234.8 1112.4,1214.9 1088.5,1170.7 			"/>
			<path class="st2" d="M936.1,582.8c0.1,0.1-2.6,65.5-13.8,65.6c-2.4,0-19.7-45.8-21.9-46.4c-12-3.3-13.7-32.6-13.5-32.7
				c5.1-1,6.5-8,6.4-38l2.3,0.5l38.6,7.6c0,0-0.9,12.2-0.9,23.6C933.3,572.7,933.9,581.8,936.1,582.8z"/>
			<g>
				<g>
					<path class="st4" d="M780,517.2l-1.3-2.6c28.1-13.4,29.6-45,29.6-52.3c0-0.9,0.5-1.8,1.4-2.2l0,0c0.9-0.4,1.8,0.3,1.8,1.2
						C811.5,469.8,809.4,503.2,780,517.2z"/>
				</g>
				<polygon class="st5" points="778.8,514.5 774.9,515.2 777.1,519.7 780,517.2 				"/>
				<path class="st4" d="M774.9,515.2c0,0-5.2,2.4-6.6,1c0,0,0.6,4.6,2.7,5.5c0,0,4.4-0.5,6.1-2L774.9,515.2z"/>
			</g>
			<path class="st16" d="M934.2,539.5c0,0-0.9,12.2-0.9,23.6c-21.6-0.6-33-20.3-37.7-31.3L934.2,539.5z"/>
			<path class="st7" d="M887.6,533.2c0,0-14.6-15.3-20.3-29.8c-4.1-10.3-6.6-51.1,34.4-53.4c0,0,11.8-1.2,24.2,4
				c9.8,4.1,24.9,14.2,17.9,51.7l-1.3,12.4L887.6,533.2z"/>
			<path class="st17" d="M1108.7,1202c0,0-10.3,1.8-18.7,2.4c-1.9,0.1-3.6,0.2-5.2,0.2c-4.1,0-11.4-1.5-16.3-2.7l-0.4-0.1
				c-2.2-0.5-3.8-0.9-4.4-1.1l-0.3-0.1c0,0-51.2-57-79.9-148.3c-0.7-2.1-1.4-4.3-2.1-6.4c-15.7-45.8-48.3-103.3-65.5-155.4
				c-2.7-8.3-5.2-16.1-7.4-23.5c-0.7-2.4-1.4-4.7-2-7c-12.7-44-16.3-72.8-19.7-103.7l103.2,26.3
				C990.1,782.7,1033.4,970.5,1108.7,1202z"/>
			<path class="st2" d="M941,545.6c0,0-50,10.9-56.3-20.3c-6.3-31.2-17-50.8,14.6-59.1c31.6-8.3,40.3,2.4,44.9,12.3
				C948.8,488.3,953.8,541.9,941,545.6z"/>
			<path class="st7" d="M922,460.8c0,0-6.3,39.4-26.3,49.1c-20,9.7-30.2,5.9-30.2,5.9s13.6-16.1,12.4-39.2
				C877.8,476.6,908.1,445.5,922,460.8z"/>
			<path class="st7" d="M919.1,464.5c0,0,11.9,6.1,16,13.6c4.1,7.4,12.6,10.1,13.2,22.1c0,0,5.3-27-9.1-38.7
				C923.9,448.9,919.1,464.5,919.1,464.5z"/>
			<path class="st2" d="M894.4,1231.5c0,0,1.7,11.7-2.7,24.1c0,0-3.4,15.6,11.9,15.9c15.4,0.3,19.1-1.2,17.4-10.7
				c-1.7-9.6-5.1-26.1-5.1-26.1L894.4,1231.5z"/>
			<path class="st18" d="M891.7,1255.6c0,0-2.8,14.7-1.1,22.6c0,0,4.6,3.5,15.8,3.5c10.6,0,16.1-3.5,16.1-3.5s0.3-16.2-2.5-23
				C920,1255.2,909.1,1271.5,891.7,1255.6z"/>
			<path class="st2" d="M1149.4,1262.3c0,0-28.3-31.5-37-47.5l-21.1,10.8l47.1,44.2l11-1.5L1149.4,1262.3z"/>
			<path class="st18" d="M1167.4,1280.8c0,0-30.5,0-35.7-0.6c-5.2-0.6-9.4-8.1-15.1-19.4c-2.3-4.6-7.5-7.2-12.8-8.6v26.2h-8
				l-7.6-27.8c-5-9.2-0.4-17.6,3.1-24.9c4.1,0,15.2,2.8,36.1,26.4c6.9,7.7,14.5,10.5,22,10.3c0.1,0.1,0.2,0.1,0.3,0.2
				C1167.1,1270.3,1167.4,1280.8,1167.4,1280.8z"/>
			<path class="st19" d="M1090,1204.4c-1.9,0.1-3.6,0.2-5.2,0.2c-4.1,0-11.4-1.5-16.3-2.7l-0.4-0.1l-4.4-1.1l-0.3-0.1
				c0,0-51.2-57-79.9-148.3c-0.7-2.1-1.4-4.3-2.1-6.4c-15.7-45.8-48.3-103.3-65.5-155.4c-2.7-8.3-5.2-16.1-7.4-23.5
				c-0.7-2.4-1.4-4.7-2-7l18.3-13.9c0,0,54.8,88.7,71.8,172.3C1010.6,1087.7,1071.2,1177.5,1090,1204.4z"/>
			<path class="st17" d="M926.7,1026.3c0.3,40.6-1.7,134-7,172.7c0,0-5,4.4-17.5,4.5c-12.7,0.1-18.4-4.6-18.4-4.6
				c-13.3-67.2-22.7-122.8-29.6-170.8c-5.6-39.3-10.6-73-14.5-102.1c-3.4-25.7,18.2-95.4,18.2-95.4l81-7.9
				C937.5,893.8,926.5,1002.7,926.7,1026.3z"/>
			<path class="st19" d="M902.2,1203.4c-10.8,0.6-18.4-4.6-18.4-4.6c-13.3-67.2-22.7-122.8-29.6-170.8c-5.6-39.3-10.6-73-14.5-102.1
				c-3.4-25.7,18.2-95.4,18.2-95.4l27.5,17.6c0,0-39,35.4-29.4,102.4C865.5,1017.6,888.9,1193.9,902.2,1203.4z"/>
			<path class="st11" d="M1029.8,774.5c-5.1,1.7-10.8,2.7-16.4,3.5c-9,1.3-17.7,2.2-23.4,4.7c-16.6,7.5-56.7-214.2-56.7-214.2
				s29.2,0.3,42.6,21.4c13.4,21.1,65.6,125.6,70.3,159C1048.3,764,1040.5,770.8,1029.8,774.5z"/>
			<path class="st11" d="M1090,1073.4c0,0-2.7,6.7-10.1,16.1c-3.7,4.7-8.5,10-14.7,15.6c-16.4,14.5-42.6,30.3-83,38.1
				c-2.1,0.4-4.3,0.8-6.6,1.2c-12.2,2-23.9,3.5-35,4.4c-22.7,2-43,2.1-60.4,1.3c-11.9-0.5-22.3-1.5-31.1-2.6
				c-19.8-2.5-31.1-5.5-31.1-5.5s0-200.3,16.5-319.3c9.1-65.9,39.8-253.2,39.8-253.2l15.2-2.3l36.5,81.4l7.2-80l16.6,5.3
				c8.2,2.6,14.4,9.3,16.5,17.6L1090,1073.4z"/>
			<g>
				<polygon class="st12" points="972.2,765.7 887.4,757.1 901.2,634.3 985.9,642.9 				"/>
				<polygon class="st20" points="901.2,634.3 895.7,633.9 882.9,756.6 887.4,757.1 				"/>
			</g>
			<path class="st2" d="M830,697.6c0,0,59.5,18.2,116.4,26.3c0,0,18.8,8.1,10,10.3c-2.3,0.6-116.2,25.4-133.1,9.3L830,697.6z"/>
			<path class="st11" d="M889.5,567.1c0,0-44.5,5.4-52,14.4c-23.7,28.4-45.2,149.8-26.6,177.9c22.2,33.5,56.4-19.1,67.1-50
				C883.5,693.2,892.6,596.3,889.5,567.1z"/>
			<path class="st2" d="M940.8,723.1c0,0,7-0.7,8.3-2.9c2.7-4.5,6.8-4.4,10.3-5c3.5-0.6,7.4-4.4,8.1-3.6c0.7,0.8-2.6,5-4.4,6.6
				c0,0,3.8,0.2,6.2-1c2.5-1.2,11.2-11.1,11.2-6.9c0.1,10.3-0.7,12-9.5,19.3c-7.3,6-31.9,8.2-31.9,8.2L940.8,723.1z"/>
			<path class="st3" d="M889.4,694.9l-1.7,17.4c-2.8-0.6-6-1.6-9.7-3.1c-24.4-9.8-14.8-58.3-14.8-58.3
				C867,670.4,879.2,685.4,889.4,694.9z"/>
			<path class="st11" d="M947.8,462.4c0,0-36.1-13.7-86.3,27.4l1-9.4c0.9-8.4,5.2-16,12-21.1c7.6-5.7,19.8-11.9,38.1-14.5
				c12.6-1.8,25.1,3.6,32.5,13.9L947.8,462.4z"/>
			<path class="st3" d="M1029.8,774.5c-5.1,1.7-10.8,2.7-16.4,3.5L990,674.6C990,674.6,1029.4,754.1,1029.8,774.5z"/>
			<path class="st8" d="M923.1,528.4c0,0,2.3,4.4,5.7,4.5c3.4,0,12-0.8,12.6-1.6c0.6-0.8,2.3-5.5,2.3-5.5S929.5,525.5,923.1,528.4z"
				/>
		</g>
		<g>
			<path class="st2" d="M2084.9,659.9c0,0-3.7-5.3-8-8.6c-4.3-3.3-8.8-9.5-7.4-11.5c1.3-2,14.1-11.4,14.1-11.4l6.8,16.9
				L2084.9,659.9z"/>
			<polygon class="st3" points="2195.4,462.9 2306.9,418.7 2369.3,478.8 2263.3,520.2 			"/>
			<path class="st2" d="M2134.6,701.2l-44.4-57l-5.3,15.8c0,0,45.5,103.4,66.3,93.8C2160.9,749.2,2134.6,701.2,2134.6,701.2z"/>
			<path class="st21" d="M2273.4,515.2c0,0-21.7,12.8-8.4,37.5c0,0-19-3.5-23.1-9.1c0,0,0.5,2.4,1.2,3.5c0,0-22.2-2.8-26.3-11.1
				c-8.4-17.1,12-16,20.9-33.7c11.6-23.2,29.7-41.4,55.4-28.6c0,0,35.9-2,19.7,44.1c-16.2,46-0.9,50.1-0.9,50.1s-4.8,1-6.9,0.4
				c0,0-2.7-1.9-2.9-3.8c0,0-0.1,2.8,0.5,3.8c0,0-17-2.8-23.6-11.3C2272.4,548.6,2268.4,524.3,2273.4,515.2z"/>
			<path class="st2" d="M2242.1,589.3C2242,589.3,2242,589.3,2242.1,589.3C2241.9,589.3,2241.9,589.3,2242.1,589.3z"/>
			<path class="st2" d="M2294.7,574.1c0.6,5.7,1.4,10.8,1.7,13.3c0.2,1.8,4.2,32.9-3,33.2c-7.2,0.3-25.1,37.2-33.2,36.9
				c-9-0.3-17-68.2-18.2-68.2c2.3-1,9.3-23.3,11.6-31.8c2.7-10.3,4.8-21.5,4.8-21.5l36.6,2.3l2.2,0.1c-1.3,5-2.3,9.7-3,14.1
				c-0.1,0.6-0.2,1.2-0.3,1.8C2293.3,559.1,2293.9,567.1,2294.7,574.1z"/>
			<path class="st21" d="M2253.4,532.3c0,0-5.9-18.8-4.7-33.3c0.9-10.3,17.3-39.5,52.6-24.6c0,0,8.6-2.1,16.8,7.4
				c6.5,7.5,15,22.1-6.3,50.6l-6.2,9.9L2253.4,532.3z"/>
			<path class="st22" d="M2294.7,574.1c-25.6-7.5-36.5-37.1-36.5-37.1c10.8,0.3,24.9,7.8,36,15.5c-0.1,0.6-0.2,1.2-0.3,1.8
				C2293.3,559.1,2293.9,567.1,2294.7,574.1z"/>
			<path class="st2" d="M2296.5,563.7c0,0-46.3-11.4-38.7-40.1c7.6-28.7,6.7-49.5,36.5-43.4c29.9,6.1,32.7,18.5,32.5,28.7
				C2326.7,519.1,2308.8,566,2296.5,563.7z"/>
			<path class="st21" d="M2315.6,485c0,0-21.5,30.3-42.2,30.2c-20.7-0.1-27.7-7.6-27.7-7.6s18-7.9,26.5-27.6
				C2272.2,480,2310.3,466.5,2315.6,485z"/>
			<path class="st21" d="M2311.7,486.9c0,0,7.4,10,7.8,17.9c0.4,7.9-2.6,23.2,1.9,23.9c0,0,15.6-20.4,8.3-36.1
				C2322,475.9,2311.7,486.9,2311.7,486.9z"/>
			<path class="st21" d="M2313.2,488.5c0,0-18.3,32.9-45.7,37.7c0,0,30.2-15.2,38.4-37.9C2314,465.6,2313.2,488.5,2313.2,488.5z"/>
			<path class="st8" d="M2289.3,545.3c0,0,0.6,4.4,3.4,5.4c2.8,1,10.2,2.9,10.9,2.4s3.5-3.9,3.5-3.9S2295.5,544.8,2289.3,545.3z"/>
			<path class="st2" d="M2272,984.4c-0.6,2.5-1.2,4.9-1.8,7.3c-3.5,14.5-6.7,27.9-8.8,39.2c-2.7,14.6-3.3,25.5,0.2,30.1
				c9,11.8,6.7,75,3.8,120.5c-1.8,27.1-3.8,47.9-3.8,47.9l-16.4,16.8c0,0-5.2-26.9-11.7-59.5c-8.8-43.8-20-98-24.4-111.3
				c-3.5-10.5-8.6-55.4-13.1-101.3c-0.2-2.3-0.4-4.6-0.7-6.9c-0.8-8-1.5-16-2.3-23.8c-4-43.4,1.8-84.2,1.8-84.2s21.3-17.5,48.7-19.9
				c16.1-1.4,31.3,3.7,38.8,23.6C2293.4,891.8,2282.3,941.7,2272,984.4z"/>
			<path class="st22" d="M2272,984.4c-22.4-16.2-53.9-45-65.4-92.2c-2.2-23.5,16.3-45.8,37-52.8c16.1-1.4,31.3,3.7,38.8,23.6
				C2293.4,891.8,2282.3,941.7,2272,984.4z"/>
			<path class="st2" d="M2353.7,699.3l110.1,28.4v12.9c0,0-109.6-1.3-116.6-13.5C2340.1,714.9,2353.7,699.3,2353.7,699.3z"/>
			<path class="st2" d="M2463.9,1123.1l-5.1,21.2c0,0-22.7-11.7-51.6-26.9c-45-23.7-104.9-55.8-116.6-64.8
				c-7.7-5.9-18-38.2-27.4-74.6c-14.1-54.4-26.5-118.1-26.5-118.1s20.9-80.3,76.8-31.2c33.4,29.4,28.2,86.1,24.6,130.2
				c-2.4,29.6-4.2,53.5,6.9,59.7c15.9,8.9,54.5,41.4,81.8,73.2c9.8,11.4,18.1,22.7,23.4,32.8L2463.9,1123.1z"/>
			<path class="st2" d="M2463.9,727.8c0,0,20.2-10,28.2-10.9c8-1,21.5-1.3,21.5,0c0,1.3-14.5,10.3-18.3,10.9
				c-3.9,0.6-11.2,6.1-9,6.8c2.2,0.6,14.1-2.1,14.3,0c0.2,2.1-7.2,3.4-8.5,5c-1.3,1.6-5.8,3.5-13,2.6c-7.2-1-15.2-1.4-15.2-1.4
				V727.8z"/>
			<path class="st11" d="M2463.9,1030.5c-71.1,102.4-254.5,113.9-254.5,113.9c-29.8-108.7-17.6-383.5-10.8-485.7
				c-0.4-17.8,0.3-32.9,3.2-38.7c4.6-9,29.4-24.7,38.3-32.5c0,0,2.1-0.8,3.8-1c1.3,4.7,17.9,60.8,19.5,59.6
				c1.6-1.2,29.5-54.4,32.4-60.7c3,0.1,5,0.2,5.6,0.2c4.9,0.2,31.4,5.5,33.7,9.8c0.8,1.5,8.4,21.7,18,48.4c0,0,0,0,0,0.1
				c17.9,50.1,44.2,40.7,54.7,55.6c6.6,9.3,3.7,26.7-8.4,41.8c-1,1.3-2.1,2.5-3.3,3.8c-9.3,9.8-21.8,15.6-42.3,12.6
				c-5.1-0.8-15.4-5.7-23.8-12.9C2350.1,820.1,2463.9,1030.5,2463.9,1030.5z"/>
			<path class="st23" d="M2245.1,583.8l-9.6,5.5c0,0,26.3,74.3,27.6,74s40.8-77.6,40.8-77.6l-8.1-3.4l-32.4,63.7L2245.1,583.8z"/>
			<path class="st11" d="M2327,487.9c0,0-33.7-18.9-89.3,14.3l2.4-9.1c2.1-8.2,7.5-15.1,15-19.1c8.4-4.5,21.4-8.9,39.8-8.7
				c12.7,0.1,24.3,7.3,30.1,18.6L2327,487.9z"/>
			<g>
				<g>
					<path class="st4" d="M2159.1,512.2l-0.8-2.8c29.8-8.8,36.2-39.8,37.3-47.1c0.1-0.9,0.8-1.7,1.7-1.9l0,0
						c0.9-0.2,1.8,0.5,1.6,1.5C2197.6,470.2,2190.3,502.9,2159.1,512.2z"/>
				</g>
				<polygon class="st5" points="2158.3,509.4 2154.3,509.4 2155.9,514.2 2159.1,512.2 				"/>
				<path class="st4" d="M2154.3,509.4c0,0-5.5,1.5-6.6,0c0,0-0.1,4.6,1.8,5.9c0,0,4.4,0.1,6.3-1L2154.3,509.4z"/>
			</g>
			<path class="st8" d="M2247,590.5c0,0,8.8,16.2,43.8,1.4l-27.5,54.1L2247,590.5z"/>
			<path class="st11" d="M2235.5,589.3c0,0-4.6,153.9-42.5,183.7c-2.7,2.1-5.5,3.6-8.5,4.4c-19.2,4.9-33.1-6.5-42.5-22.4
				c-13.1-22-17.6-52.5-15.3-59.5c4.2-13.4,14,10.3,34.5,3.8c20.5-6.5,26-89,40.3-101C2205,595.2,2235.5,589.3,2235.5,589.3z"/>
			<g>
				<path class="st4" d="M2050.2,698.8c0,0-5.7-3.1-11.2-7.1c-2.5-1.8-4.9-3.9-6.7-5.9c-1-1.1-1.8-2.3-2.3-3.3
					c0,0,46.3-55.8,50-62.3c3.7-6.6,38.7-60.7,38.7-60.7s4.3,2,9.4,5.3c1.9,1.2,3.9,2.7,5.9,4.2c3.6,2.9,7,6.3,9.1,10
					c0,0-50.9,51.6-54.5,59C2085,645.6,2050.2,698.8,2050.2,698.8z"/>
				<path class="st24" d="M2039,691.7c-2.5-1.8-4.9-3.9-6.7-5.9c-1-1.1-1.8-2.3-2.3-3.3c0,0,46.3-55.8,50-62.3
					c3.7-6.6,38.7-60.7,38.7-60.7s4.3,2,9.4,5.3c1.9,1.2,3.9,2.7,5.9,4.2c-14.3,14.6-52.9,54.4-56.2,61.2
					C2074.6,636.9,2049.5,675.7,2039,691.7z"/>
				<path class="st21" d="M2086.7,609.3c0,0-13.7,13.3-15.2,22.3l14.3,11.5c0,0,12.5-12.3,16.5-21.3L2086.7,609.3z"/>
			</g>
			<path class="st2" d="M2090.2,644.2c0,0,1-9-1.1-12.2c-2.1-3.2-2.3-11.9-4.2-11c-1.9,0.9-0.7,8.1-1.9,11.5
				c-1.2,3.5-3,19.5,1.9,22.6C2089.8,658.2,2090.2,644.2,2090.2,644.2z"/>
			<path class="st2" d="M2076.3,621.6c0,0-5.7-0.9-7.8,2.9c-2.1,3.8-4.6,9.9-0.7,12.4C2071.7,639.3,2076.3,621.6,2076.3,621.6z"/>
			<path class="st8" d="M2265.5,1181.5c-1.8,27.1-3.8,47.9-3.8,47.9l-16.4,16.8c0,0-5.2-26.9-11.7-59.5
				C2233.6,1186.7,2252,1193.1,2265.5,1181.5z"/>
			<path class="st3" d="M2278.1,1253.7l-8.8,4.8c-3.2,1.1-5.9,1.5-9.1,2.7c-4.9,1.9-8.4,5.6-8.6,6.3c-2.5,10.1-6,9.5-6,9.5
				l-35.4,0.3c-1.7-0.8,1.2-8,2.5-9.3c3.4-3.3,13.4-1.6,17-12c2.1-5.8,12.2-24,12.2-24l0.1-0.1c0.3-0.2,2.2-0.6,12.5,1.6
				c5.3,1.1,7.5-9.6,7.5-9.6s1.7,0.3,3.5,1.7c1.5,1,3,2.7,3.9,5.3c1.3,3.7,6.5,9,10.2,12.4c2.3,2.1,4,3.5,4,3.5
				S2285.2,1248.6,2278.1,1253.7z"/>
			<path class="st8" d="M2463.9,1123.1l-5.1,21.2c0,0-22.7-11.7-51.6-26.9c11.2-7.1,16.8-17.7,19.5-25.7
				c9.8,11.4,18.1,22.7,23.4,32.8L2463.9,1123.1z"/>
			<path class="st3" d="M2493.3,1131.3c0,0,0,0-0.1,0c-0.7-0.2-3.7-1.2-5.8-6c-1.3-3.2-1.7-5.8-3-9l-5-8.7c-5.3-6.9-7.1-5.3-7.1-5.3
				s-1.4,1.8-3.4,4.1c-3.4,3.8-8.5,9.2-12.1,10.6c-2.6,1-4.2,2.6-5.2,4.1c-1.3,1.9-1.6,3.6-1.6,3.6s10.8,1.9,9.9,7.2
				c-1.8,10.3-1.4,12.2-1.2,12.5l0.1,0.1c0,0,18.4,9.6,24.3,11.5c10.5,3.4,16,10.5,19.4,13.7c1.4,1.3,3.3,1.9,5.2,1.6
				c2.8-0.4,6.3-1.3,7.1-3L2493.3,1131.3z"/>
			<circle class="st3" cx="2261.4" cy="693.5" r="5.3"/>
			<circle class="st3" cx="2261.4" cy="733" r="5.3"/>
			<path class="st3" d="M2399.3,741.1c-1,1.3-2.1,2.5-3.3,3.8c-9.3,9.8-21.8,15.6-42.3,12.6c-5.1-0.8-15.4-5.7-23.8-12.9
				c0,0-16.9-46.1-14.6-52.6c2.3-6.5,34.8,44,61.8,46.4C2387.7,739.2,2394.8,740.1,2399.3,741.1z"/>
			<path class="st3" d="M2201,705.2l-8,67.8c-2.7,2.1-5.5,3.6-8.5,4.4c-19.2,4.9-33.1-6.5-42.5-22.4c9.8,1.4,33.7,3.5,38.9-6.9
				C2187.3,735,2201,705.2,2201,705.2z"/>
		</g>
		<g>
			<path class="st25" d="M1735.4,336c0,0,9.6-8.6,11.9-14.7c2.3-6,2.1-16.2,2.1-22.8c0,0-2.9-1-3.6,2.1c-0.7,3.1-2,10.4-4.6,11.9
				c-2.7,1.5-8.6,1.3-10,8.8C1729.8,328.9,1735.4,336,1735.4,336z"/>
			<path class="st25" d="M1713.6,337.5c0,0-8.7-17.8-6.9-23.6c1.8-5.8,28.5-12.1,32-9.4c3.5,2.7,0,36,0,36L1713.6,337.5z"/>
			<path class="st25" d="M1994.5,873.4c0,0-1.3,14.7,3.8,21.7c5.1,7,7.9,13.4,9.6,10.2c1.7-3.2-2.8-14.3-1.3-14
				c1.5,0.2,5.6,13.2,7.7,17.2c2.1,4,6.6,10.4,9.5,7.2c3-3.2-2.8-33.4-5.1-37.2c-2.3-3.8-7.2-12.3-7.2-12.3L1994.5,873.4z"/>
			<polygon class="st3" points="1810.9,430.7 1912.6,373.6 1980.8,458.2 1887.8,503.3 			"/>
			<path class="st21" d="M1853.6,457.7c0,0-2.1,9.1-8.1,12.4c-6,3.2,3.4,12,1.1,18.5c-2.3,6.5,7.1,14.8,7.1,14.8l65.6,7.6
				c0,0,9.6-4.2,10.5-15.5c0.9-11.3,1.9-25.4,1.9-25.4l-28.7-21.9l-41.3,2L1853.6,457.7z"/>
			<g>
				<path class="st4" d="M1633.1,348.2c0,0-3-7.1-5.2-14.9c-1-3.6-1.7-7.3-1.9-10.5c-0.1-1.8,0-3.5,0.3-4.8c0,0,84.6-17.5,92.9-20.9
					c8.3-3.4,81.1-27.8,81.1-27.8s2.5,5.1,4.8,12c0.8,2.6,1.7,5.4,2.3,8.3c1.2,5.4,1.8,11.1,1,16.1c0,0-85.7,10.2-94.6,14.4
					C1705,324.6,1633.1,348.2,1633.1,348.2z"/>
				<path class="st24" d="M1628,333.4c-1-3.6-1.7-7.3-1.9-10.5c-0.1-1.8,0-3.5,0.3-4.8c0,0,84.6-17.5,92.9-20.9
					c8.3-3.4,81.1-27.8,81.1-27.8s2.5,5.1,4.8,12c0.8,2.6,1.7,5.4,2.3,8.3c-24.1,3-89.6,11.3-97.7,15.2
					C1701.8,308.8,1649.5,326.2,1628,333.4z"/>
				<path class="st21" d="M1733.6,292.1c0,0-22.6,2.2-30.8,9.4l4.8,21.3c0,0,20.7-2.1,31.2-7.6L1733.6,292.1z"/>
			</g>
			<path class="st3" d="M1754.1,1277.2c0,0,0-13.6,1.9-18.1c1.9-4.5,9-22.9,9-22.9h27.8c0,0,5.2,16.8,5.5,22.3
				c0.3,5.5,0,18.8,0,18.8H1754.1z"/>
			<path class="st3" d="M1930.3,1277.2c0,0,0-13.6-1.9-18.1c-1.9-4.5-9-22.9-9-22.9h-27.8c0,0-5.2,16.8-5.5,22.3
				c-0.3,5.5,0,18.8,0,18.8H1930.3z"/>
			<path class="st25" d="M1860.9,512.4c0,0-5.6,29.8-11.5,42.6l-33.5,16.5l46.9,92.8l64.5-58.2l-21.4-41.8c0,0-2-41.4,4.5-55.5
				C1917,494.6,1860.9,512.4,1860.9,512.4z"/>
			<path class="st26" d="M1860.1,516.5c0,0,5.7,23.1,22.7,25.2c17.1,2.1,23.9-16.5,23.9-16.5L1860.1,516.5z"/>
			<path class="st25" d="M1882.2,533.1c-12.3-2.1-32.4-22-29.3-42.3l4.9-31.7c1.1-7.4,7.2-12.7,13.6-11.7l46.9,7.2
				c6.3,1,10.5,7.8,9.4,15.2l-4.6,29.9C1919.8,521,1896.2,535.5,1882.2,533.1z"/>
			<path class="st23" d="M1757.6,806.7c-0.1-3.7,4.8,147.2-2.4,232.9c-7.1,84.6,0.1,202.3,0.1,202.3s23.2,12.8,48.4,0
				c0,0,27.6-163.4,27.4-202.3c-0.2-41.4,30-226.4,30-226.4L1757.6,806.7z"/>
			<path class="st23" d="M1929.3,1241.9c0,0-23.2,12.8-48.4,0c0,0-27.6-163.4-27.4-202.3c0.1-17.5-5.3-60.6-11.5-104.6
				c-8.5-60.1-18.6-121.8-18.6-121.8l107.5-6.7c0,0-8.9,148.5-1.6,233.1C1936.6,1124.2,1929.3,1241.9,1929.3,1241.9z"/>
			<g>
				<g>
					<path class="st27" d="M1872.1,492.9c-4.6-0.7-13.6-3.1-14-11.3c-0.1-2.5,0.7-4.6,2.3-6c1.8-1.6,4.4-2.2,7.1-1.8l14.1,2.2
						c2.7,0.4,4.4,1.5,5.2,3.1c1.3,2.8-0.6,6.5-1.5,7.9c-3,4.9-6.4,6.9-10.7,6.2C1874.5,493.2,1873.5,493.2,1872.1,492.9z
						 M1867.4,474.7c-2.5-0.4-4.8,0.2-6.4,1.6c-1.4,1.2-2.1,3.1-2,5.3c0.2,4.2,2.9,7.3,7.9,9.2c3.9,1.4,7.7,1.6,7.8,1.6l0.1,0
						c3.9,0.6,7-1.2,9.8-5.8c0.6-1,2.6-4.5,1.4-7c-0.6-1.4-2.2-2.3-4.5-2.6L1867.4,474.7z"/>
				</g>
				<g>
					<path class="st27" d="M1904.6,497.9c-1.4-0.2-2.4-0.5-2.6-0.5c-4.3-0.7-6.9-3.6-8.3-9.2c-0.4-1.6-1.1-5.7,1-8
						c1.2-1.4,3.2-1.8,5.9-1.4l14.1,2.2c2.8,0.4,5.1,1.8,6.3,3.9c1.1,1.9,1.2,4.1,0.4,6.4C1918.5,499,1909.2,498.6,1904.6,497.9z
						 M1900.5,479.8c-2.4-0.4-4.1,0-5.1,1.1c-1.8,2-1,5.9-0.8,7.1c1.3,5.2,3.7,7.9,7.6,8.5l0.1,0c0,0,3.8,1,7.9,0.8
						c5.4-0.3,8.9-2.4,10.3-6.4c0.8-2.1,0.7-4-0.3-5.6c-1.1-1.8-3.1-3-5.6-3.4L1900.5,479.8z"/>
				</g>
				<g>
					<path class="st27" d="M1885.1,483.1c-0.2,0-0.4-0.2-0.5-0.4c-0.1-0.3,0.1-0.6,0.4-0.7c0.3-0.1,6.2-1.7,10.7,1.7
						c0.2,0.2,0.3,0.5,0.1,0.8c-0.2,0.2-0.5,0.3-0.8,0.1c-4.1-3-9.6-1.5-9.7-1.5C1885.2,483.2,1885.1,483.2,1885.1,483.1z"/>
				</g>
			</g>
			<path class="st8" d="M1872.7,571.4l-31.8-13.8c0,0-16.4,130.6,5.5,138.7c0,0,62.6-111.1,58.3-125.4L1872.7,571.4z"/>
			<path class="st9" d="M1852.6,549.4c0,0-9,1.5-13.6,6c0,0,6.8,22.1,24.9,28.7l7.8-12.7C1871.6,571.4,1856.8,564.4,1852.6,549.4z"
				/>
			<path class="st9" d="M1871.6,571.4c0,0,29.6-1.1,34-15.4c0,0,5.9,6.2,5.7,16.2c0,0-9.4,14.1-32.8,14.3L1871.6,571.4z"/>
			<path class="st13" d="M1874.1,510.9c0,0,15.7,0.7,22.7,3.5c0,0-4.8,5.7-11.1,4.7C1879.4,518.1,1875,515.1,1874.1,510.9z"/>
			<path class="st25" d="M1762.6,464.5c-14.3,9-33.8,21.2-49.7,30.8c-0.8-2.7-1.4-5.1-1.7-7.3c-5.3-33.7,2.4-150.5,2.4-150.5
				s5.3-2.7,10.8-3.1c10.4-0.8,14.3,6.1,14.3,6.1S1756.7,443.3,1762.6,464.5z"/>
			<path class="st11" d="M2015.5,871l-10.8,4.5c-17.2,6.1-35.8-2.1-41.4-19.5c-7.6-23.4-8.4-48.7-11.2-69.5
				c-1.4-10.2-3-31.3-9.2-47.7c0,0,0,0,0,0l10.8,363.3c-162.2,11.5-241.3-81.7-241.3-81.7c-4.2-98.4,35.1-320,49.4-396.8
				c-6.9-15.6-56-60.4-64.2-104.4c-3.8-20.4,8.1-34.9,22.6-44.6c18.2-12.3,40.5-17.1,40.5-17.1l52.4,70.1c2.2,2.5,3.8,4.5,4.4,5.7
				c4,8.2,25,21.9,25,21.9c-0.1,0.4,2.3,118.1,6.5,121.9c6.2-2.3,47.5-85.1,56.7-112.7c13.2,3.6,27.4,8.5,42.4,15.1
				c0,0,28.4,15.1,32.4,81.2c3.4,56,37.6,127.5,45.4,192.4C2026.9,860.7,2022.6,868.1,2015.5,871z"/>
			<path class="st21" d="M1836.8,551.1c0,0,3.8,114.1,8.7,142.7l72.8-125.7l-10-3.7l-57.5,104.2l-5.7-113.4L1836.8,551.1z"/>
			<path class="st8" d="M1852.6,546.7c0,0-9,1.5-13.6,6c0,0,6.8,22.1,24.9,28.7l7.8-10C1871.6,571.4,1856.8,561.7,1852.6,546.7z"/>
			<path class="st8" d="M1871.6,571.4c0,0,29.6-3.8,34-18.1c0,0,5.9,6.2,5.7,16.2c0,0-9.4,14.1-32.8,14.3L1871.6,571.4z"/>
			<circle class="st3" cx="1833.6" cy="705.9" r="5.4"/>
			<circle class="st3" cx="1823.4" cy="754.4" r="5.4"/>
			<g>
				<g>
					<path class="st4" d="M1818.3,484.3l1.8-1.7c-18-19-9.6-44.2-7.4-50c0.3-0.7,0.1-1.6-0.4-2.1l0,0c-0.6-0.6-1.5-0.4-1.8,0.4
						C1807.9,437.6,1799.5,464.5,1818.3,484.3z"/>
				</g>
				<polygon class="st5" points="1820.1,482.6 1823,484.3 1819.8,487.1 1818.3,484.3 				"/>
				<path class="st4" d="M1823,484.3c0,0,3.4,3.4,4.8,2.8c0,0-1.9,3.4-3.8,3.5c0,0-3.3-1.7-4.2-3.4L1823,484.3z"/>
			</g>
			<path class="st21" d="M1855.3,464.6c0,0,12.6,0.9,16.3-5.5c0,0,10.2,2.6,14.8-1.3c0,0,15.8,3.2,16.2-3.2c0,0,12.1,24.2,25.3,19.1
				c13.2-5.1-21.2-29.5-21.2-29.5l-45,6L1855.3,464.6z"/>
			<path class="st11" d="M1856.2,446.5l-2.6,11.2c0,0,35.2-12.5,78.1,12.4l-0.5-18.1c-0.1-3.5-1.7-6.8-4.4-9.1
				c-7.8-6.4-26.3-18.9-60.7-9C1861.2,435.3,1857.3,441.6,1856.2,446.5z"/>
			<path class="st25" d="M1702.6,308.1c-0.1-0.7-2.4-5.5,0.7-10c3.2-4.5,24-11.4,25.9-7.7c1.9,3.6,0.7,16.2-6,19
				C1716.6,312.2,1703.1,310.9,1702.6,308.1z"/>
			<path class="st3" d="M1761.9,623.6c-6.9-15.6-56-60.4-64.2-104.4c-3.8-20.4,8.1-34.9,22.6-44.6c0,0-6.8,30.9,12.5,58.8
				C1752.1,561.2,1761.9,623.6,1761.9,623.6z"/>
			<path class="st3" d="M2004.7,875.5c-17.2,6.1-35.8-2.1-41.4-19.5c-7.6-23.4-8.4-48.7-11.2-69.5c-1.4-10.2-3-31.3-9.2-47.7
				c0.6,0.9,19.2,30.4,36,78.1C1995.9,865.4,1990.6,872.5,2004.7,875.5z"/>
		</g>
		<path class="st28" d="M2662.9,1276.4h-91.5c-4.9-4.2,3.4-13.6,12.1-14.2c3.8-0.3,8.5,0.5,14,1.7c1.3-16.7,8.4-91.9,35.5-88.8
			c30.5,3.4,0,33.1-8.6,50.7c-6.4,13-13.1,31.7-16.2,40.5c2.5,0.5,5,1.1,7.6,1.5c4-12.4,19.1-54.1,38.2-51.7
			c22.4,2.8,13.4,19.6-2.5,29.5c-11.7,7.3-26,17.7-32.8,22.7c5.8,0.9,11.8,1.6,17.9,1.4C2652.3,1269.3,2659.9,1273.9,2662.9,1276.4z
			"/>
		<g>
			<path class="st28" d="M343.1,1276.4c0,0-42.2-115.8-71.8-106C241.7,1180.3,343.1,1276.4,343.1,1276.4z"/>
			<path class="st28" d="M327,1276.4c-3.6,0-70.9-69.8-75.4-51.6C247.1,1243.2,327,1276.4,327,1276.4z"/>
			<path class="st28" d="M398.8,1276.4c0,0-27.8-25.5-63.1-18.9c-35.2,6.6-50.3,13.9-72.4,8.9c-22.1-5-33.4,10-33.4,10H398.8z"/>
		</g>
		<g>
			<path class="st2" d="M1369.1,987.9c6.5-10.2-48.2-122.6-18.8-185.2c3.7-7.8,71.8,3.9,71.8,3.9s13.9,158.1,6.1,200
				c-5.5,29.6-16.4,116.8-22.2,165.5c0,0.2,0,0.3-0.1,0.5c-1.4,11.6-2.5,20.9-3.2,26.7c-0.5,4.4,0,8.8,1.5,13
				c4.3,11.9,13.8,36.5,18.5,39.9c0,0-25.8,7.4-30.7,4.5c-5-2.9-17.5-48.3-17.5-48.3c2.2-4.2,3-9,2.2-13.7c-1-6.2-2.5-15.9-4.1-27.8
				c0,0,0,0,0,0c0,0,0,0,0,0C1350.3,1076.6,1353.6,1012.2,1369.1,987.9z"/>
			<path class="st2" d="M1223.4,1189.7c3.6-3.2,6-7.4,6.9-12.1c1.3-6.1,3.3-15.7,6-27.5l0,0c11-92,36.9-151.1,60-168.4
				c9.7-7.2-1.8-131.7,47.8-179.9c6.2-6,65.8,29,65.8,29s-42.8,152.8-64.9,189.2c-15.6,25.7-56.6,103.5-79.3,146.9c0,0,0,0,0,0
				c0,0,0,0,0,0c-5.5,10.5-9.9,19-12.7,24.3c-2,3.9-3.1,8.3-3.2,12.7c-0.1,12.7-1.8,46.6,3.2,49.6c3.1,1.8,5.8,3.9,8,5.9
				c0,0-23.5-2-26.4-2.2c-2.8-0.1-20.9-56.6-21.2-57.7c0,0,0,0,0,0C1217.1,1195.6,1220.8,1192,1223.4,1189.7z"/>
			<polygon class="st3" points="1201.8,1220.3 1195.9,1254.9 1199,1257.2 1217.5,1230.5 			"/>
			<path class="st11" d="M1202.5,1222.9c20.2,10.6,23.2,45.9,26.4,53.5l36.9,0.1c5.6-1.9,3.4-9.8-4.6-17.2c0,0-23.5-2-26.4-2.2
				c-2.8-0.1-20.9-56.6-21.2-57.7C1205,1208.7,1196.8,1220,1202.5,1222.9z"/>
			<path class="st23" d="M1234.7,1105.9c1.6,44.2,89.5,35.7,89.5,35.7l11.6-56.2l7.7-37.3l2.6-12.4l-3.9-1.8l-55.9-26.5l-17.5-8.3
				l-0.7,2.2l-30.1,94.4l0,0L1234.7,1105.9z"/>
			<path class="st29" d="M1238,1095.7c25.4-26.1,97.9-10.3,97.9-10.3l7.7-37.3l-1.3-14.2l-55.9-26.5l-18.2-6.1L1238,1095.7
				L1238,1095.7z"/>
			<polygon class="st3" points="1367.7,1243.4 1372.5,1276.4 1377.9,1276.4 1380.4,1250.9 			"/>
			<path class="st11" d="M1367.7,1243.4c11.2,5.2,23.5,27,29.2,33l46.6,0.3c5.8-4.8-14.5-20.2-20.8-24.7c0,0-25.8,7.4-30.7,4.5
				c-5-2.9-17.5-48.3-17.5-48.3C1368.9,1218.8,1359.5,1239.6,1367.7,1243.4z"/>
			<path class="st23" d="M1346.1,1019.5l11.6,126.9c21.5,27.2,78.2,10.5,78.2,10.5s4.3-104.8,6.5-108.9l-8.2-2.4L1346.1,1019.5z"/>
			<path class="st29" d="M1346.1,1019.5l11.6,126.9c0.6-62.4,81.4-56.2,81.4-56.2l-4.9-44.7L1346.1,1019.5z"/>
			<polygon class="st3" points="1445.1,423.4 1326.6,376.4 1260.3,440.4 1372.9,484.3 			"/>
			<path class="st7" d="M1389.6,445c0,0,0.2,14.1,10.6,18.5c21.5,9.1,1,19.7,22.1,34.5c4.8,3.4,8.3,24.7-25.2,27.9
				c-33.5,3.2-37.7,6-37.7,6s-24.9,16-52.4-0.5c-16-9.5,4.1-36-3.2-42.7c-9.9-9.1-11.2-38.8,3.2-51.1c14.4-12.3,37.3-19.4,37.3-19.4
				L1389.6,445z"/>
			<g>
				<g>
					<path class="st4" d="M1483.6,475.8l0.9-3c-31.7-9.4-38.5-42.3-39.7-50c-0.1-1-0.9-1.8-1.8-2l0,0c-1-0.3-1.9,0.6-1.7,1.6
						C1442.7,431.2,1450.5,465.9,1483.6,475.8z"/>
				</g>
				<polygon class="st5" points="1484.5,472.8 1488.7,472.8 1487.1,477.9 1483.6,475.8 				"/>
				<path class="st4" d="M1488.7,472.8c0,0,5.8,1.6,7.1,0c0,0,0.1,4.9-1.9,6.2c0,0-4.7,0.2-6.7-1.1L1488.7,472.8z"/>
			</g>
			<path class="st2" d="M1396.8,534.7c-2.4-0.3-9.5-6-12.7-14.7c-3.9-10.5-7.2-21.8-7.2-21.8l-10.3,1.7l-27.5,4.5l-2.3,0.4
				c2.2,5.8,3.9,11.3,5,16.3c2.2,9.1,2.8,16.8,2.6,22.6c-0.3,5.9-3.3,7.4-5,8.6c-0.8,0.5,29,98.2,43.4,93.3
				C1395.4,641.4,1398,534.4,1396.8,534.7z"/>
			<path class="st22" d="M1344.5,543.7c16.5-6.7,32.5-45.5,32.5-45.5c-3.3-0.4-6.8,0.3-10.3,1.7c-9.1,3.7-18.4,12.4-24.7,21.2
				C1344.1,530.2,1344.7,537.9,1344.5,543.7z"/>
			<path class="st2" d="M1333.9,527.9c0,0,49.1-8,43.7-38.5c-5.4-30.5-2.7-52.1-34.3-48.3c-31.6,3.8-35.6,16.5-36.3,27.2
				C1306.3,478.9,1321,529.2,1333.9,527.9z"/>
			<path class="st2" d="M1329.5,556.2c0,0-82.9-24.9-88.8-31.9c-5.9-6.9-20.2-99.1-20.2-112.3l-12.1,1.7c0,0-8.9,104.8,1.4,128.5
				c10.4,23.8,114.9,61.2,114.9,61.2L1329.5,556.2z"/>
			<path class="st23" d="M1394.3,533.6c0,0-10.2,31.7-50,11.8l41.9,92.1l10.9-82.3L1394.3,533.6z"/>
			<path class="st2" d="M1428.2,542.9c0,0-5,16.5,91,68.8l70.8-48.5l8.5,7.1c0,0-67.9,81.8-78.5,80.1c-10.6-1.7-83.5-49.7-83.5-49.7
				L1428.2,542.9z"/>
			<path class="st11" d="M1167.3,952.2c0,0,2.6,8.2,8.5,20.1c10.2,20.4,30.3,51.7,63.8,70.4c38.1,21.3,161.4,62,246.1,42.3
				c0,0-8-268-25.8-378.2c-0.4-2.6-0.8-5-1.2-7.4c5.2,19.8,31.7,26.3,42.5,22.6c23.9-8,32.2-26.6,33.3-46.2
				c1.7-30.2-13.5-63-15.3-64c-39.1-22.2-46.4-57.5-65.4-70.1c-17-11.2-57.5-8.3-59.5-8.1l-8.9,88.1l-41.2-76.3
				c-0.1,0-66.4-5.8-103.6-21c0,0-111,153.6,26.5,151.6c0,35.4-16.5,67.5-32.5,115.3C1218.9,838.7,1167.3,952.2,1167.3,952.2z"/>
			<path class="st8" d="M1344.6,505.7c0,0-0.5,5-3.7,6.2c-3.1,1.2-11.5,3.5-12.3,3c-0.9-0.5-4.1-4.3-4.1-4.3
				S1337.6,505.2,1344.6,505.7z"/>
			<path class="st2" d="M1220.8,412.1c0,0,5.1-3.5,2.4-13.2c-1.8-6.5-0.6-11.8-2-11.6c-1.5,0.2-2.6,8.6-3.5,10.7
				c-0.7,1.8-11.8-19.1-14.6-17.5c-2.8,1.6-8.3,9.9,4.9,38.4L1220.8,412.1z"/>
			<path class="st2" d="M1590,563.3c0,0,7.5-17.9,10.1-21.6c5-7.3,19.1-11.9,20.1-8.6c0.9,3.2-9.1,8-9.5,15.4
				c-0.1,2.1,4.1-1.9,6.7-3.5c1.6-0.9,2.5-0.2,1.7,1c-4.2,6.1-6.4,12.3-10.4,14.6c-4,2.3-10.1,9.8-10.1,9.8L1590,563.3z"/>
			<polygon class="st30" points="1394.3,533.6 1385.5,621.6 1344.5,543.7 1329.5,543.7 1389.9,653.5 1405.4,533.1 			"/>
			<path class="st7" d="M1313.6,442.2c0,0-14.4,17,31,25.3c14.6,2.7,21.9,16.8,17.9,28.7c-5.9,17.6,9,36.7,30.9,29.8
				c17.4-5.4-11-86.9-26.5-88.2C1351.5,436.5,1313.6,442.2,1313.6,442.2z"/>
			<path class="st7" d="M1329.5,446.1c0,0-14.6,10.5-15.8,18.9c-1.2,8.4-4.6,20.4-10.2,11.9s-6.5-19.9,0-27.7
				c6.5-7.7,21-11.2,24.1-8.6C1330.8,443.3,1329.5,446.1,1329.5,446.1z"/>
			<path class="st11" d="M1303.8,441.3c0,0,27.8-24,87,11.3l0.8-14.6c-2.3-8.7-5-8.6-13-12.8c-8.9-4.8-22.7-9.4-42.3-9.3
				c-13.5,0.1-21.4-1.6-27.5,10.4L1303.8,441.3z"/>
			<g>
				<path class="st4" d="M1672.4,608.8c0,0,5.2-5.7,9.8-12.3c2.1-3.1,4.1-6.3,5.3-9.2c0.7-1.7,1.2-3.3,1.3-4.7
					c0,0-73.9-44.8-80.6-50.7c-6.7-6-67.1-53.3-67.1-53.3s-4,3.9-8.5,9.7c-1.7,2.1-3.4,4.5-5,7.1c-3,4.7-5.5,9.9-6.4,14.8
					c0,0,77.4,38.3,84.3,45.2C1612.6,562.4,1672.4,608.8,1672.4,608.8z"/>
				<path class="st24" d="M1682.2,596.5c2.1-3.1,4.1-6.3,5.3-9.2c0.7-1.7,1.2-3.3,1.3-4.7c0,0-73.9-44.8-80.6-50.7
					c-6.7-6-67.1-53.3-67.1-53.3s-4,3.9-8.5,9.7c-1.7,2.1-3.4,4.5-5,7.1c21.8,10.9,80.7,40.6,87,47
					C1620.9,548.6,1664.3,582.5,1682.2,596.5z"/>
				<path class="st21" d="M1596.5,522.2c0,0,20.5,9.6,25.8,19.2l-11.6,18.5c0,0-18.8-8.9-26.8-17.6L1596.5,522.2z"/>
			</g>
			<path class="st2" d="M1608.6,560.6c0,0,5.2-2.1,8.3-6c3.1-3.9,7.3-10.2,2.1-8.6c-5.2,1.6-14.5,8.1-18,8.7
				c-3.5,0.6-2.2,3.3-2.5,4.1C1598.2,559.6,1608.6,560.6,1608.6,560.6z"/>
			<path class="st3" d="M1167.3,952.2c0,0,2.6,8.2,8.5,20.1c22.3-23.5,53.3-61,74.9-106.1c37.3-77.8,16.5-190.2,16.5-190.2
				c0,35.4-16.5,67.5-32.5,115.3C1218.9,838.7,1167.3,952.2,1167.3,952.2z"/>
			<circle class="st3" cx="1393.4" cy="685.3" r="3.7"/>
			<circle class="st3" cx="1393.4" cy="752.7" r="3.7"/>
			<path class="st3" d="M1459.9,706.7c-0.4-2.6-0.8-5-1.2-7.4c5.2,19.8,31.7,26.3,42.5,22.6c23.9-8,32.2-26.6,33.3-46.2
				c-2.6,1.3-41.3,21.1-59.3,9.5c-18.4-11.8-29.7-38.7-30.1-39.5L1459.9,706.7z"/>
		</g>
		<g>
			<path class="st31" d="M2240.2,344.8c0,0-10.9,8.2-23.5,7.5c-9.3-0.5-18.9-8.7-19.3-9.2l-6.8,13.2c0,0,17.4,9.5,31.8,6
				c4.4-1.1,11.4-5.8,14.5-9.3C2240.4,349.1,2240.2,344.8,2240.2,344.8z"/>
			<path class="st32" d="M2238.7,318l18.2-8.6c0,0-0.8,38.8-32.1,52.1C2224.7,361.5,2243.7,334.1,2238.7,318z"/>
		</g>
		<g>
			<path class="st31" d="M305.6,697.5c0,0-10.9,8.2-23.5,7.5c-9.3-0.5-18.9-8.7-19.3-9.2l-6.8,13.2c0,0,17.4,9.5,31.8,6
				c4.4-1.1,11.4-5.8,14.5-9.3C305.8,701.9,305.6,697.5,305.6,697.5z"/>
			<path class="st32" d="M304.1,670.7l18.2-8.6c0,0-0.8,38.8-32.1,52.1C290.2,714.2,309.1,686.8,304.1,670.7z"/>
		</g>
		<g>
			<path class="st33" d="M1773,92.5c0,0,26.5-18.4,46.4,9l21.9-9.4c0,0-10.8-17-53.1-9.5C1760.4,87.6,1773,92.5,1773,92.5z"/>
			<path class="st34" d="M1746.9,110.5c0,0,7.2-29.8,61.6-29.8c0,0-20.4,1.9-36.3,28.4L1746.9,110.5z"/>
		</g>
		<path class="st35" d="M1599.2,212.1c0,0-14.6-9.2-16.2-20.4c0,0-14.3,0.8-17.3,5.4c0,0,6.5,18.5,14.3,22
			C1579.9,219.1,1597.3,220.2,1599.2,212.1z"/>
		<path class="st35" d="M2569.7,991.1c0,0-14.6-9.2-16.2-20.4c0,0-14.3,0.8-17.3,5.4c0,0,6.5,18.5,14.3,22
			C2550.5,998.1,2567.8,999.2,2569.7,991.1z"/>
		<path class="st35" d="M180.1,965.3c0,0-14.6-9.2-16.2-20.4c0,0-14.3,0.8-17.3,5.4c0,0,6.5,18.5,14.3,22
			C160.9,972.2,178.2,973.3,180.1,965.3z"/>
	</g>
</g>
</svg>
