<?xml version="1.0" encoding="utf-8"?>
<!-- Generator: Adobe Illustrator 19.0.0, SVG Export Plug-In . SVG Version: 6.00 Build 0)  -->
<svg version="1.1" id="Layer_1" xmlns="http://www.w3.org/2000/svg" xmlns:xlink="http://www.w3.org/1999/xlink" x="0px" y="0px"
	 viewBox="0 0 87.5 58.7" style="enable-background:new 0 0 87.5 58.7;" xml:space="preserve">
<path d="M87.3,24.4c0.3,0.2,0.3,0.7-0.1,0.8L72.7,31L41.4,43.4c-0.1,0-0.2,0-0.4,0L11.5,28.8L0.2,23.2c-0.3-0.2-0.3-0.6,0-0.8L43,0
	c0.1-0.1,0.3-0.1,0.4,0L87.3,24.4z"/>
<polygon points="72.7,26.9 72.7,31 41.2,43.5 11.5,28.8 11.5,26.9 "/>
<path d="M41.2,45.7l27.9-11.1v11.1c0,7.2-12.1,13-27.1,13c-14.9,0-27-5.8-27-13v-13L41.2,45.7z"/>
<polygon points="76.5,28.8 76.5,42.9 78,42.9 78,26.5 "/>
<circle cx="77.3" cy="42.9" r="1.8"/>
<path d="M77.9,42.2c0,0,3.7,11.1,5.8,13.1s-5.6,1.4-6.9-0.5c-1.4-1.9-0.4-11.5-0.4-11.5"/>
</svg>
