<?xml version="1.0" encoding="utf-8"?>
<!-- Generator: Adobe Illustrator 19.0.0, SVG Export Plug-In . SVG Version: 6.00 Build 0)  -->
<svg version="1.1" xmlns="http://www.w3.org/2000/svg" xmlns:xlink="http://www.w3.org/1999/xlink" x="0px" y="0px"
	 viewBox="0 0 36 25.2" style="enable-background:new 0 0 36 25.2;" xml:space="preserve">
<style type="text/css">
	*{fill:#fff !important}
	.st0{fill:#FFFFFF;}
	.st1{fill-rule:evenodd;clip-rule:evenodd;fill:#FFFFFF;}
	.st2{fill-rule:evenodd;clip-rule:evenodd;}
	.st3{fill:#D53692;}
	.st4{fill:#006EF5;}
	.st5{fill:#FCBB45;}
	.st6{fill:#8F39CE;}
	.st7{fill:#00D95F;}
	.st8{fill:#FF0000;}
	.st9{fill:#33CCFF;}
	.st10{fill:url(#SVGID_1_);}
	.st11{fill:#337FFF;}
	.st12{fill-rule:evenodd;clip-rule:evenodd;fill:#EE1D52;}
	.st13{fill-rule:evenodd;clip-rule:evenodd;fill:#69C9D0;}
	.st14{fill:url(#SVGID_2_);}
	.st15{fill:url(#SVGID_3_);}
	.st16{fill:url(#SVGID_4_);}
	.st17{fill-rule:evenodd;clip-rule:evenodd;fill:#FF0000;}
	.st18{fill-rule:evenodd;clip-rule:evenodd;fill:#00D95F;}
	.st19{fill:none;stroke:#999999;stroke-miterlimit:10;}
	.st20{fill:none;stroke:#999999;stroke-width:0.5;stroke-miterlimit:10;stroke-dasharray:12;}
</style>
<g id="BACKGROUND">
</g>
<g id="ELEMENTS">
	<g>
		<path d="M231.8-315.2c2.8-1.8,4.7-5,4.7-8.5c0-5.6-4.6-10.2-10.2-10.2s-10.2,4.6-10.2,10.2c0,3.6,1.9,6.7,4.7,8.5
			c-5.8,2.2-9.9,7.8-9.9,14.3c0,2.8,2.2,5,5,5h20.7c2.8,0,5-2.2,5-5C241.6-307.4,237.5-313,231.8-315.2z M218.7-323.8
			c0-4.2,3.4-7.5,7.5-7.5s7.5,3.4,7.5,7.5c0,4.2-3.4,7.5-7.5,7.5S218.7-319.6,218.7-323.8z M236.6-298.5h-20.7
			c-1.3,0-2.4-1.1-2.4-2.4c0-7,5.7-12.7,12.7-12.7c7,0,12.7,5.7,12.7,12.7C239-299.6,237.9-298.5,236.6-298.5z"/>
		<g>
			<path d="M234-279.5h-15.5c-3.1,0-5.7,2.5-5.7,5.7v27c0,3.1,2.5,5.7,5.7,5.7H234c3.1,0,5.7-2.6,5.7-5.7v-27
				C239.7-277,237.2-279.5,234-279.5z M218.5-276.9H234c1.7,0,3.1,1.4,3.1,3.1v21.7h-21.6v-21.7
				C215.5-275.5,216.8-276.9,218.5-276.9z M234-243.7h-15.5c-1.7,0-3.1-1.4-3.1-3.1v-2.8h21.6v2.8
				C237.1-245.1,235.7-243.7,234-243.7z"/>
			<circle cx="225.9" cy="-274.2" r="1"/>
			<circle cx="225.9" cy="-246.9" r="1"/>
		</g>
		<path d="M245-206.6l-14-16.1c-1.2-1.3-2.9-2.1-4.6-2.1c-1.8,0-3.5,0.8-4.6,2.1l-14,16.1c-0.3,0.4-0.4,0.9-0.2,1.4
			c0.2,0.5,0.7,0.8,1.2,0.8h2.4v16.4c0,0.7,0.6,1.3,1.3,1.3h28c0.7,0,1.3-0.6,1.3-1.3v-16.4h2.4c0.5,0,1-0.3,1.2-0.8
			C245.4-205.6,245.3-206.2,245-206.6z M223.6-220.9c0.7-0.8,1.6-1.2,2.7-1.2c1,0,2,0.4,2.7,1.2l12.2,13.9h-29.6L223.6-220.9z
			 M238.9-189.3h-25.3v-15.1h25.3V-189.3z"/>
		<path d="M239.8-166.1h-27c-3,0-5.5,2.5-5.5,5.5v18.9c0,3,2.5,5.5,5.5,5.5h27c3,0,5.5-2.5,5.5-5.5v-18.9
			C245.3-163.6,242.8-166.1,239.8-166.1z M239.8-163.5c0.2,0,0.4,0,0.7,0.1L229-150.4c-0.7,0.8-1.7,1.2-2.8,1.2
			c-1.1,0-2.1-0.5-2.8-1.2l-11.4-12.9c0.2,0,0.4-0.1,0.7-0.1H239.8z M242.7-141.7c0,1.6-1.3,2.9-2.9,2.9h-27c-1.6,0-2.9-1.3-2.9-2.9
			v-18.9c0-0.4,0.1-0.8,0.2-1.1l11.4,13c1.2,1.4,2.9,2.1,4.7,2.1c1.8,0,3.5-0.8,4.7-2.1l11.4-13c0.1,0.3,0.2,0.7,0.2,1.1V-141.7z"/>
		<path d="M240.3-96.8l-25-18.2c-0.9-0.6-2-0.7-3-0.2c-1,0.5-1.5,1.5-1.5,2.5l0,31c0,1.2,0.6,2.3,1.6,2.9c0.5,0.3,1.2,0.5,1.8,0.5
			c0.5,0,1.1-0.1,1.5-0.4c0.1-0.1,0.3-0.2,0.4-0.3l8.5-9.2l5.1,10c0.2,0.5,0.7,0.7,1.2,0.7c0.2,0,0.4,0,0.6-0.1
			c0.6-0.3,0.9-1.1,0.6-1.8l-5.1-10.1l12.5-1.3c0.2,0,0.3-0.1,0.5-0.1c1.1-0.5,1.8-1.6,1.8-2.8C241.8-95,241.3-96.1,240.3-96.8z
			 M238.9-93.5L224.9-92c-0.3,0-0.6,0.2-0.8,0.4L214.4-81c-0.3,0.1-0.5,0-0.6-0.1c-0.1-0.1-0.4-0.3-0.4-0.7l0-31c0,0,0-0.1,0.1-0.2
			c0,0,0.1,0,0.1,0c0.1,0,0.1,0,0.1,0l25,18.2c0.3,0.2,0.3,0.6,0.3,0.7C239.1-93.9,239.1-93.7,238.9-93.5z"/>
		<g>
			<g>
				<path d="M226.3-23.1L226.3-23.1c-0.4,0-0.7-0.2-1-0.4c-0.6-0.6-13.7-14.8-13.7-22.6c0-8.1,6.6-14.7,14.7-14.7
					c8.1,0,14.7,6.6,14.7,14.7c0,7.8-13.1,22-13.7,22.6C227-23.3,226.6-23.1,226.3-23.1z M226.3-58.2c-6.6,0-12,5.4-12,12
					c0,5.2,8,15.2,12,19.8c4.1-4.6,12-14.6,12-19.8C238.3-52.8,232.9-58.2,226.3-58.2z"/>
			</g>
			<g>
				<path d="M226.3-40.2c-3.6,0-6.6-3-6.6-6.6c0-3.6,3-6.6,6.6-6.6c3.6,0,6.6,3,6.6,6.6C232.9-43.2,229.9-40.2,226.3-40.2z
					 M226.3-50.8c-2.2,0-4,1.8-4,4c0,2.2,1.8,4,4,4c2.2,0,4-1.8,4-4C230.3-49,228.5-50.8,226.3-50.8z"/>
			</g>
		</g>
		<path d="M226.3-6.4c-10.5,0-19,8.5-19,19c0,10.5,8.5,19,19,19c10.5,0,19-8.5,19-19C245.3,2.1,236.8-6.4,226.3-6.4z M242.6,11.3
			h-7.1c-0.2-5.9-1.6-11-3.7-14.1C237.7-0.7,242.1,4.7,242.6,11.3z M226.3,29c-3,0-6.3-6.1-6.5-15.1h13.1
			C232.5,22.8,229.2,29,226.3,29z M219.7,11.3c0.3-8.9,3.6-15.1,6.5-15.1c3,0,6.3,6.1,6.5,15.1H219.7z M220.8-2.8
			c-2.1,3.2-3.5,8.2-3.7,14.1H210C210.5,4.7,214.8-0.7,220.8-2.8z M210,13.9h7.1c0.2,5.9,1.6,11,3.7,14.1
			C214.8,25.9,210.5,20.4,210,13.9z M231.8,28c2.1-3.2,3.5-8.2,3.7-14.1h7.1C242.1,20.4,237.7,25.9,231.8,28z"/>
	</g>
	<g>
		<g>
			<g>
				<circle cx="290.4" cy="-325" r="7.6"/>
			</g>
			<g>
				<path d="M290.4-314.9L290.4-314.9c-7.7,0-14,6.3-14,14l0,0c0,2,1.6,3.7,3.7,3.7h20.7c2,0,3.7-1.6,3.7-3.7l0,0
					C304.4-308.6,298.1-314.9,290.4-314.9z"/>
			</g>
		</g>
		<g>
			<path d="M302.5-252.2v-21.7c0-2.4-2-4.4-4.4-4.4h-15.5c-2.4,0-4.4,2-4.4,4.4v21.7H302.5z M290.4-275.5c0.7,0,1.3,0.6,1.3,1.3
				c0,0.7-0.6,1.3-1.3,1.3c-0.7,0-1.3-0.6-1.3-1.3C289.1-274.9,289.7-275.5,290.4-275.5z"/>
			<path d="M278.3-249.6v2.8c0,2.4,2,4.4,4.4,4.4h15.5c2.4,0,4.4-2,4.4-4.4v-2.8H278.3z M290.4-244.9c-0.7,0-1.3-0.6-1.3-1.3
				c0-0.7,0.6-1.3,1.3-1.3c0.7,0,1.3,0.6,1.3,1.3C291.7-245.5,291.1-244.9,290.4-244.9z"/>
		</g>
		<g>
			<g>
				<path d="M286.7-221.8l-12.5,14.4c-0.6,0.7-0.1,1.7,0.8,1.7h3.7h25.7h1.4c0.9,0,1.4-1.1,0.8-1.7L294-221.8
					C292.1-224,288.7-224,286.7-221.8z"/>
			</g>
			<g>
				<path d="M304.4-203.1v14c0,0.6-0.5,1-1,1h-25.9c-0.6,0-1-0.5-1-1v-14H304.4z"/>
			</g>
		</g>
		<g>
			<path d="M275.3-164.4l12.3,13.9c0.7,0.8,1.7,1.2,2.8,1.2c1.1,0,2.1-0.5,2.8-1.2l12.1-13.7c0.1-0.1,0.2-0.2,0.3-0.3
				c-0.5-0.2-1.1-0.4-1.7-0.4h-27C276.3-164.8,275.8-164.7,275.3-164.4C275.3-164.4,275.3-164.4,275.3-164.4z"/>
			<path d="M307.4-162.8c-0.1,0.1-0.1,0.3-0.2,0.4l-12.1,13.7c-1.2,1.4-2.9,2.1-4.7,2.1c-1.8,0-3.5-0.8-4.7-2.1l-12.3-13.9
				c0,0,0-0.1-0.1-0.1c-0.4,0.6-0.6,1.4-0.6,2.2v18.9c0,2.3,1.9,4.2,4.2,4.2h27c2.3,0,4.2-1.9,4.2-4.2v-18.9
				C308.1-161.4,307.8-162.2,307.4-162.8z"/>
		</g>
		<path d="M303.7-96.4l-25-18.2c-1-0.7-2.4,0-2.4,1.2l0,31c0,1.6,1.6,2.6,3,1.9l8.8-9.6l5.7,11.3c0.2,0.5,0.7,0.7,1.2,0.7
			c0.2,0,0.4,0,0.6-0.1c0.6-0.3,0.9-1.1,0.6-1.8l-5.8-11.4l13-1.4C304.8-93.6,304.9-95.5,303.7-96.4z"/>
		<g>
			<path d="M290.4-50.6c-2.2,0-4,1.8-4,4c0,2.2,1.8,4,4,4c2.2,0,4-1.8,4-4C294.4-48.8,292.6-50.6,290.4-50.6z"/>
			<path d="M290.4-59.3c-7.4,0-13.4,6-13.4,13.4c0,6.3,9.7,17.7,12.6,20.9c0.4,0.5,1.1,0.5,1.6,0c2.9-3.2,12.6-14.6,12.6-20.9
				C303.7-53.3,297.8-59.3,290.4-59.3z M290.4-40c-3.6,0-6.6-3-6.6-6.6c0-3.6,3-6.6,6.6-6.6c3.6,0,6.6,3,6.6,6.6
				C297-42.9,294-40,290.4-40z"/>
		</g>
		<g>
			<path d="M283.8,13.9c0.3,8.9,3.6,15.1,6.5,15.1c3,0,6.3-6.1,6.5-15.1H283.8z"/>
			<path d="M290.4-3.8c-3,0-6.3,6.1-6.5,15.1h13.1C296.6,2.3,293.4-3.8,290.4-3.8z"/>
			<path d="M299.6,11.3h8.5c-0.6-7.8-6.2-14.2-13.6-15.9C297.3-1.8,299.3,4,299.6,11.3z"/>
			<path d="M299.6,13.9c-0.2,7.2-2.2,13.1-5.2,15.9c7.4-1.7,13.1-8.1,13.6-15.9H299.6z"/>
			<path d="M281.2,13.9h-8.5c0.6,7.8,6.2,14.2,13.6,15.9C283.4,27,281.4,21.1,281.2,13.9z"/>
			<path d="M281.2,11.3c0.2-7.2,2.2-13.1,5.2-15.9c-7.4,1.7-13.1,8.1-13.6,15.9H281.2z"/>
		</g>
	</g>
	<g>
		<g>
			<circle cx="354.5" cy="-314.9" r="17.7"/>
			<g>
				<g>
					<circle class="st0" cx="354.5" cy="-323.2" r="5"/>
				</g>
				<g>
					<path class="st0" d="M354.5-316.5L354.5-316.5c-5.2,0-9.3,4.2-9.3,9.3l0,0c0,1.4,1.1,2.5,2.5,2.5h13.8c1.4,0,2.5-1.1,2.5-2.5
						l0,0C363.8-312.3,359.7-316.5,354.5-316.5z"/>
				</g>
			</g>
		</g>
		<g>
			<circle cx="354.5" cy="-260.3" r="17.7"/>
			<g>
				<path class="st0" d="M362.5-255v-14.3c0-1.6-1.3-2.9-2.9-2.9h-10.2c-1.6,0-2.9,1.3-2.9,2.9v14.3H362.5z M354.5-270.3
					c0.5,0,0.9,0.4,0.9,0.9c0,0.5-0.4,0.9-0.9,0.9c-0.5,0-0.9-0.4-0.9-0.9C353.6-269.9,354-270.3,354.5-270.3z"/>
				<path class="st0" d="M346.5-253.2v1.8c0,1.6,1.3,2.9,2.9,2.9h10.2c1.6,0,2.9-1.3,2.9-2.9v-1.8H346.5z M354.5-250.1
					c-0.5,0-0.9-0.4-0.9-0.9s0.4-0.9,0.9-0.9c0.5,0,0.9,0.4,0.9,0.9S355-250.1,354.5-250.1z"/>
			</g>
		</g>
		<g>
			<circle cx="354.5" cy="-205.7" r="17.7"/>
			<g>
				<g>
					<path class="st0" d="M352.1-218l-8.3,9.6c-0.4,0.5-0.1,1.2,0.5,1.2h2.4h17.1h0.9c0.6,0,0.9-0.7,0.5-1.2l-8.3-9.6
						C355.6-219.5,353.3-219.5,352.1-218z"/>
				</g>
				<g>
					<path class="st0" d="M363.8-205.5v9.3c0,0.4-0.3,0.7-0.7,0.7h-17.2c-0.4,0-0.7-0.3-0.7-0.7v-9.3H363.8z"/>
				</g>
			</g>
		</g>
		<g>
			<circle cx="354.5" cy="-151.2" r="17.7"/>
			<g>
				<path class="st0" d="M344.4-160l8.2,9.3c0.5,0.5,1.1,0.8,1.8,0.8c0.7,0,1.4-0.3,1.8-0.8l8.1-9.1c0.1-0.1,0.1-0.1,0.2-0.2
					c-0.3-0.1-0.7-0.2-1.1-0.2h-18C345.1-160.2,344.7-160.2,344.4-160C344.4-160,344.4-160,344.4-160z"/>
				<path class="st0" d="M365.9-158.9c0,0.1-0.1,0.2-0.2,0.3l-8.1,9.1c-0.8,0.9-1.9,1.4-3.2,1.4c-1.2,0-2.4-0.5-3.2-1.4l-8.2-9.3
					c0,0,0,0,0-0.1c-0.3,0.4-0.4,0.9-0.4,1.4v12.6c0,1.5,1.2,2.8,2.8,2.8h18c1.5,0,2.8-1.2,2.8-2.8v-12.6
					C366.3-158,366.1-158.5,365.9-158.9z"/>
			</g>
		</g>
		<g>
			<circle cx="354.5" cy="-96.6" r="17.7"/>
			<path class="st0" d="M364.9-96.5l-15.7-11.5c-0.6-0.5-1.5,0-1.5,0.8l0,19.5c0,1,1,1.6,1.9,1.2l5.5-6l3.6,7.1
				c0.1,0.3,0.4,0.5,0.7,0.5c0.1,0,0.3,0,0.4-0.1c0.4-0.2,0.6-0.7,0.4-1.1l-3.6-7.1l8.2-0.9C365.6-94.7,365.7-95.9,364.9-96.5z"/>
		</g>
		<g>
			<circle cx="354.5" cy="-42" r="17.7"/>
			<g>
				<path class="st0" d="M354.5-53.8c-5,0-9.1,4.1-9.1,9.1c0,4.3,6.6,12.1,8.6,14.3c0.3,0.3,0.8,0.3,1.1,0c2-2.2,8.6-10,8.6-14.3
					C363.6-49.7,359.5-53.8,354.5-53.8z M354.5-40.6c-2.5,0-4.5-2-4.5-4.5c0-2.5,2-4.5,4.5-4.5c2.5,0,4.5,2,4.5,4.5
					C359-42.6,357-40.6,354.5-40.6z"/>
			</g>
		</g>
		<g>
			<circle cx="354.5" cy="12.6" r="17.7"/>
			<g>
				<path class="st0" d="M350.1,13.5c0.2,6,2.4,10.1,4.4,10.1c2,0,4.2-4.1,4.4-10.1H350.1z"/>
				<path class="st0" d="M354.5,1.6c-2,0-4.2,4.1-4.4,10.1h8.8C358.7,5.7,356.5,1.6,354.5,1.6z"/>
				<path class="st0" d="M360.6,11.7h5.7c-0.4-5.2-4.1-9.5-9.1-10.7C359.1,2.9,360.5,6.9,360.6,11.7z"/>
				<path class="st0" d="M360.6,13.5c-0.1,4.8-1.5,8.8-3.5,10.7c5-1.2,8.7-5.4,9.1-10.7H360.6z"/>
				<path class="st0" d="M348.3,13.5h-5.7c0.4,5.2,4.1,9.5,9.1,10.7C349.8,22.2,348.5,18.3,348.3,13.5z"/>
				<path class="st0" d="M348.3,11.7c0.1-4.8,1.5-8.8,3.5-10.7c-5,1.2-8.7,5.4-9.1,10.7H348.3z"/>
			</g>
		</g>
	</g>
	<g>
		<g>
			<circle cx="530.8" cy="-205.7" r="17.7"/>
			<path class="st0" d="M540.6-211.8c-0.6,0.3-1.3,0.4-2,0.6c0.3-0.1,0.8-0.6,1-0.9c0.3-0.4,0.5-0.7,0.6-1.2c0,0,0-0.1,0-0.1
				c0,0-0.1,0-0.1,0c-0.7,0.4-1.5,0.7-2.3,0.9c-0.1,0-0.1,0-0.2,0c-0.1-0.1-0.1-0.1-0.2-0.2c-0.3-0.3-0.7-0.5-1.1-0.7
				c-0.5-0.2-1.1-0.3-1.7-0.3c-0.6,0-1.1,0.2-1.6,0.5c-0.5,0.3-1,0.6-1.3,1.1c-0.4,0.5-0.6,1-0.8,1.6c-0.1,0.6-0.1,1.1,0,1.7
				c0,0.1,0,0.1-0.1,0.1c-3.2-0.5-5.8-1.6-7.9-4c-0.1-0.1-0.1-0.1-0.2,0c-0.9,1.4-0.5,3.7,0.7,4.8c0.2,0.1,0.3,0.3,0.5,0.4
				c-0.1,0-0.8-0.1-1.5-0.4c-0.1-0.1-0.1,0-0.1,0.1c0,0.2,0,0.3,0,0.5c0.2,1.4,1.2,2.7,2.5,3.2c0.2,0.1,0.3,0.1,0.5,0.2
				c-0.3,0.1-0.6,0.1-1.5,0c-0.1,0-0.2,0-0.1,0.1c0.7,1.8,2.1,2.3,3.2,2.6c0.1,0,0.3,0,0.4,0.1c0,0,0,0,0,0
				c-0.4,0.5-1.6,0.9-2.2,1.1c-1,0.4-2.2,0.5-3.3,0.4c-0.2,0-0.2,0-0.3,0c0,0,0,0.1,0.1,0.1c0.2,0.1,0.5,0.3,0.7,0.4
				c0.7,0.4,1.4,0.7,2.2,0.9c3.9,1.1,8.4,0.3,11.3-2.6c2.3-2.3,3.1-5.5,3.1-8.7c0-0.1,0.1-0.2,0.2-0.3c0.6-0.5,1.1-1,1.5-1.6
				C540.6-211.6,540.6-211.7,540.6-211.8C540.6-211.8,540.6-211.8,540.6-211.8C540.6-211.9,540.6-211.8,540.6-211.8z"/>
		</g>
		<g>
			<circle cx="530.8" cy="-260.3" r="17.7"/>
			<g>
				<g>
					<circle class="st0" cx="536.3" cy="-265.8" r="1.2"/>
					<path class="st0" d="M530.9-265.5c-2.8,0-5.1,2.3-5.1,5.1c0,2.8,2.3,5.1,5.1,5.1c2.8,0,5.1-2.3,5.1-5.1
						C536-263.2,533.7-265.5,530.9-265.5z M530.9-257.1c-1.8,0-3.3-1.5-3.3-3.3c0-1.8,1.5-3.3,3.3-3.3c1.8,0,3.3,1.5,3.3,3.3
						C534.2-258.5,532.7-257.1,530.9-257.1z"/>
					<path class="st0" d="M534.9-250h-8.3c-3.4,0-6.2-2.8-6.2-6.2v-8.3c0-3.4,2.8-6.2,6.2-6.2h8.3c3.4,0,6.2,2.8,6.2,6.2v8.3
						C541.2-252.8,538.4-250,534.9-250z M526.7-268.8c-2.4,0-4.3,1.9-4.3,4.3v8.3c0,2.4,1.9,4.3,4.3,4.3h8.3c2.4,0,4.3-1.9,4.3-4.3
						v-8.3c0-2.4-1.9-4.3-4.3-4.3H526.7z"/>
				</g>
			</g>
		</g>
		<g>
			<g>
				<path d="M548.5-314.9c0-9.8-7.9-17.7-17.7-17.7c-9.8,0-17.7,7.9-17.7,17.7c0,8.8,6.5,16.1,14.9,17.5v-12.4h-4.5v-5.1h4.5v-3.9
					c0-4.4,2.6-6.9,6.7-6.9c1.9,0,4,0.3,4,0.3v4.4h-2.2c-2.2,0-2.9,1.4-2.9,2.8v3.3h4.9l-0.8,5.1h-4.1v12.4
					C542-298.8,548.5-306.1,548.5-314.9z"/>
				<path class="st0" d="M537.7-309.8l0.8-5.1h-4.9v-3.3c0-1.4,0.7-2.8,2.9-2.8h2.2v-4.4c0,0-2-0.3-4-0.3c-4,0-6.7,2.4-6.7,6.9v3.9
					h-4.5v5.1h4.5v12.4c0.9,0.1,1.8,0.2,2.8,0.2c0.9,0,1.9-0.1,2.8-0.2v-12.4H537.7z"/>
			</g>
		</g>
		<g>
			<circle cx="530.8" cy="-96.6" r="17.7"/>
			<path class="st0" d="M540-98.6c-0.2,0-0.4,0-0.5,0c-2,0-3.9-1-4.9-2.7v9.1c0,3.7-3,6.7-6.7,6.7c-3.7,0-6.7-3-6.7-6.7
				c0-3.7,3-6.7,6.7-6.7l0,0c0.1,0,0.3,0,0.4,0v3.3c-0.1,0-0.3,0-0.4,0c-1.9,0-3.4,1.5-3.4,3.4c0,1.9,1.5,3.4,3.4,3.4
				c1.9,0,3.6-1.5,3.6-3.4l0-15.5h3.2c0.3,2.8,2.6,5.1,5.4,5.3L540-98.6"/>
		</g>
		<g>
			<path d="M530.8-168.9c-9.8,0-17.7,7.9-17.7,17.7c0,7.2,4.3,13.4,10.5,16.1c0-0.5,0-1,0-1.5c0.1-1.7,0.3-2.3,2.5-11.6
				c0-0.1,0-0.3-0.1-0.4c-0.5-1.4-0.6-2.9-0.2-4.4c1-3.2,4.6-3.4,5.2-0.8c0.4,1.6-0.6,3.7-1.4,6.9c-0.7,2.6,2.4,4.4,5,2.5
				c2.4-1.7,3.3-5.9,3.2-8.9c-0.3-5.9-6.8-7.2-10.9-5.3c-4.7,2.2-5.8,8-3.7,10.7c0.3,0.3,0.5,0.5,0.4,0.9c-0.1,0.5-0.3,1.1-0.4,1.6
				c-0.1,0.4-0.4,0.5-0.8,0.4c-0.8-0.3-1.4-0.8-2-1.5c-1.8-2.2-2.3-6.7,0.1-10.4c2.6-4.2,7.6-5.8,12.1-5.3c5.4,0.6,8.8,4.3,9.4,8.4
				c0.3,1.9,0.1,6.6-2.6,9.9c-3.1,3.8-8,4-10.3,1.7c-0.2-0.2-0.3-0.4-0.5-0.6c0,0.1,0,0.2-0.1,0.2c-1.1,4.3-1.2,5.3-2.4,7.3
				c-0.2,0.3-0.4,0.6-0.6,0.9c1.7,0.5,3.4,0.8,5.3,0.8c9.8,0,17.7-7.9,17.7-17.7C548.5-160.9,540.6-168.9,530.8-168.9z"/>
			<path class="st0" d="M528.4-142.4c0-0.1,0-0.1,0.1-0.2c0.2,0.2,0.3,0.4,0.5,0.6c2.3,2.3,7.3,2.1,10.3-1.7c2.7-3.3,2.9-8,2.6-9.9
				c-0.6-4.2-4-7.8-9.4-8.4c-4.5-0.5-9.4,1.2-12.1,5.3c-2.4,3.7-1.9,8.2-0.1,10.4c0.5,0.7,1.2,1.2,2,1.5c0.4,0.2,0.7,0,0.8-0.4
				c0.1-0.5,0.3-1.1,0.4-1.6c0.1-0.3-0.1-0.6-0.4-0.9c-2.1-2.7-1.1-8.5,3.7-10.7c4.1-1.9,10.6-0.6,10.9,5.3c0.2,3-0.8,7.1-3.2,8.9
				c-2.6,1.9-5.7,0-5-2.5c0.8-3.1,1.8-5.3,1.4-6.9c-0.6-2.6-4.2-2.4-5.2,0.8c-0.5,1.5-0.4,2.9,0.2,4.4c0,0.1,0.1,0.2,0.1,0.4
				c-2.2,9.3-2.4,9.9-2.5,11.6c0,0.5,0,1,0,1.5c0.6,0.3,1.3,0.5,2,0.8c0.2-0.3,0.4-0.6,0.6-0.9C527.2-137.2,527.3-138.1,528.4-142.4
				z"/>
		</g>
		<g>
			<circle cx="530.8" cy="-42" r="17.7"/>
			<path class="st0" d="M521.2-32l1.5-5.5c-0.8-1.5-1.3-3.2-1.3-4.9c0-5.6,4.6-10.2,10.2-10.2c5.6,0,10.2,4.6,10.2,10.2
				c0,5.6-4.6,10.2-10.2,10.2c-1.7,0-3.3-0.4-4.8-1.2L521.2-32z M527-35.5l0.3,0.2c1.3,0.8,2.7,1.2,4.2,1.2c4.5,0,8.2-3.7,8.2-8.2
				c0-4.5-3.7-8.2-8.2-8.2c-4.5,0-8.2,3.7-8.2,8.2c0,1.5,0.4,3,1.2,4.3l0.2,0.4l-0.8,3.1L527-35.5z"/>
			<path class="st1" d="M535.4-41c-0.4-0.3-1-0.5-1.5-0.3c-0.4,0.2-0.6,0.7-0.9,1c-0.1,0.2-0.3,0.2-0.5,0.1
				c-1.4-0.6-2.5-1.5-3.3-2.8c-0.1-0.2-0.1-0.4,0.1-0.6c0.2-0.3,0.5-0.6,0.6-1c0.1-0.4-0.1-0.8-0.3-1.1c-0.2-0.4-0.4-1-0.8-1.3
				c-0.4-0.2-0.9-0.1-1.3,0.2c-0.6,0.5-0.9,1.3-0.9,2c0,0.2,0,0.4,0.1,0.6c0.1,0.5,0.4,1,0.6,1.4c0.2,0.3,0.4,0.7,0.6,1
				c0.8,1,1.7,1.9,2.8,2.6c0.5,0.3,1.1,0.6,1.7,0.8c0.7,0.2,1.3,0.5,2,0.3c0.8-0.1,1.5-0.6,1.8-1.4c0.1-0.2,0.1-0.5,0.1-0.7
				C536.4-40.5,535.8-40.8,535.4-41z"/>
		</g>
		<g>
			<circle cx="530.8" cy="12.6" r="17.7"/>
			<path class="st0" d="M540.3,10.1c0-2.3-1.9-4.2-4.2-4.2h-10.9c-2.3,0-4.2,1.9-4.2,4.2v5.1c0,2.3,1.9,4.2,4.2,4.2H536
				c2.3,0,4.2-1.9,4.2-4.2V10.1z M533.9,13l-4.9,2.4c-0.2,0.1-0.8,0-0.8-0.3v-4.9c0-0.2,0.7-0.4,0.8-0.2l4.7,2.5
				C533.9,12.6,534.1,12.9,533.9,13z"/>
		</g>
	</g>
	<g>
		<g>
			<g>
				<circle cx="476.1" cy="-269.7" r="2.1"/>
				<path d="M466.8-269.1c-4.8,0-8.7,3.9-8.7,8.7c0,4.8,3.9,8.7,8.7,8.7c4.8,0,8.7-3.9,8.7-8.7C475.6-265.2,471.6-269.1,466.8-269.1
					z M466.8-254.8c-3.1,0-5.6-2.5-5.6-5.6c0-3.1,2.5-5.6,5.6-5.6c3.1,0,5.6,2.5,5.6,5.6C472.4-257.3,469.9-254.8,466.8-254.8z"/>
				<path d="M473.8-242.7h-14.1c-5.9,0-10.6-4.8-10.6-10.6v-14.1c0-5.9,4.8-10.6,10.6-10.6h14.1c5.9,0,10.6,4.8,10.6,10.6v14.1
					C484.4-247.5,479.6-242.7,473.8-242.7z M459.6-274.7c-4,0-7.3,3.3-7.3,7.3v14.1c0,4,3.3,7.3,7.3,7.3h14.1c4,0,7.3-3.3,7.3-7.3
					v-14.1c0-4-3.3-7.3-7.3-7.3H459.6z"/>
			</g>
		</g>
		<path d="M474.9-312.8l1-6.4h-6.1v-4.2c0-1.8,0.9-3.5,3.6-3.5h2.8v-5.5c0,0-2.5-0.4-5-0.4c-5.1,0-8.4,3.1-8.4,8.6v4.9h-5.6v6.4h5.6
			v15.5h6.9v-15.5H474.9z"/>
		<path d="M488-219.2c-1.4,0.6-2.9,1-4.3,1.2c0.7-0.1,1.7-1.4,2.1-1.9c0.6-0.8,1.1-1.7,1.4-2.6c0-0.1,0.1-0.2,0-0.2
			c-0.1,0-0.2,0-0.2,0c-1.6,0.9-3.3,1.5-5.2,2c-0.1,0-0.3,0-0.4-0.1c-0.1-0.2-0.3-0.3-0.5-0.5c-0.8-0.6-1.6-1.2-2.5-1.5
			c-1.2-0.5-2.5-0.7-3.8-0.6c-1.3,0.1-2.5,0.4-3.6,1c-1.1,0.6-2.1,1.4-2.9,2.4c-0.8,1-1.4,2.2-1.7,3.5c-0.3,1.2-0.3,2.5-0.1,3.7
			c0,0.2,0,0.2-0.2,0.2c-7.1-1.1-12.9-3.6-17.7-9c-0.2-0.2-0.3-0.2-0.5,0c-2.1,3.1-1.1,8.1,1.5,10.6c0.3,0.3,0.7,0.7,1.1,1
			c-0.1,0-1.9-0.2-3.4-1c-0.2-0.1-0.3-0.1-0.3,0.2c0,0.3,0,0.6,0.1,1c0.4,3.2,2.6,6.1,5.6,7.2c0.4,0.2,0.8,0.3,1.1,0.3
			c-0.7,0.2-1.4,0.3-3.4,0.1c-0.2,0-0.3,0.1-0.2,0.3c1.5,4,4.7,5.2,7,5.9c0.3,0.1,0.6,0.1,1,0.1c0,0,0,0-0.1,0.1
			c-0.8,1.2-3.5,2.1-4.8,2.5c-2.3,0.8-4.9,1.2-7.3,0.9c-0.4-0.1-0.5-0.1-0.6,0c-0.1,0.1,0,0.2,0.1,0.3c0.5,0.3,1,0.6,1.5,0.9
			c1.6,0.8,3.2,1.5,4.9,2c8.8,2.4,18.7,0.6,25.2-5.9c5.2-5.1,7-12.2,7-19.3c0-0.3,0.3-0.4,0.5-0.6c1.3-1,2.4-2.2,3.4-3.6
			c0.2-0.3,0.2-0.6,0.2-0.7c0,0,0,0,0,0C488.2-219.4,488.2-219.3,488-219.2z"/>
		<path d="M482.1-100c-0.3,0-0.6,0-0.9,0c-3.2,0-6.3-1.6-8.1-4.4v14.8c0,6.1-4.9,11-11,11c-6.1,0-11-4.9-11-11c0-6.1,4.9-11,11-11
			l0,0c0.2,0,0.5,0,0.7,0v5.4c-0.2,0-0.4-0.1-0.7-0.1c-3.1,0-5.6,2.5-5.6,5.6c0,3.1,2.5,5.6,5.6,5.6c3.1,0,5.8-2.4,5.8-5.5l0.1-25.2
			h5.2c0.5,4.6,4.2,8.3,8.9,8.6L482.1-100"/>
		<path class="st2" d="M464.4-145.8c0,0.1-0.1,0.2-0.1,0.3c-1.3,5.1-1.4,6.2-2.8,8.6c-0.6,1.1-1.4,2.2-2.1,3.2
			c-0.1,0.1-0.2,0.3-0.4,0.2c-0.2,0-0.2-0.2-0.2-0.4c-0.2-1.5-0.3-3.1-0.3-4.7c0.1-2,0.3-2.7,2.9-13.8c0-0.2,0-0.3-0.1-0.5
			c-0.6-1.7-0.8-3.4-0.2-5.2c1.2-3.8,5.5-4.1,6.2-0.9c0.5,1.9-0.8,4.4-1.7,8.1c-0.8,3.1,2.8,5.2,5.9,3c2.8-2.1,3.9-7,3.7-10.5
			c-0.4-7-8.1-8.5-12.9-6.2c-5.6,2.6-6.8,9.5-4.3,12.6c0.3,0.4,0.6,0.6,0.5,1.1c-0.2,0.6-0.3,1.3-0.5,1.9c-0.1,0.5-0.5,0.6-1,0.4
			c-0.9-0.4-1.7-1-2.3-1.7c-2.1-2.6-2.7-7.9,0.1-12.3c3.1-4.9,9-6.9,14.3-6.3c6.3,0.7,10.4,5.1,11.1,10c0.3,2.2,0.1,7.8-3.1,11.7
			c-3.6,4.5-9.5,4.8-12.2,2C464.8-145.3,464.7-145.6,464.4-145.8z"/>
		<g>
			<path d="M449-24.3l2.5-9.5c-1.4-2.6-2.2-5.5-2.2-8.4c0-9.6,7.8-17.5,17.5-17.5c9.6,0,17.5,7.8,17.5,17.5
				c0,9.6-7.8,17.5-17.5,17.5c-2.9,0-5.7-0.7-8.3-2.1L449-24.3z M459-30.4l0.6,0.4c2.2,1.3,4.7,2,7.2,2c7.8,0,14.2-6.4,14.2-14.2
				c0-7.8-6.4-14.2-14.2-14.2c-7.8,0-14.2,6.4-14.2,14.2c0,2.6,0.7,5.1,2.1,7.3l0.4,0.6l-1.4,5.3L459-30.4z"/>
			<path class="st2" d="M473.4-39.8c-0.7-0.4-1.7-0.9-2.5-0.6c-0.6,0.3-1.1,1.3-1.5,1.8c-0.2,0.3-0.5,0.3-0.8,0.2
				c-2.4-1-4.3-2.6-5.7-4.8c-0.2-0.3-0.2-0.6,0.1-0.9c0.4-0.5,0.9-1,1-1.7c0.1-0.6-0.2-1.4-0.5-2c-0.3-0.7-0.7-1.8-1.5-2.2
				c-0.7-0.4-1.6-0.2-2.2,0.3c-1,0.8-1.5,2.2-1.5,3.5c0,0.4,0.1,0.7,0.1,1.1c0.2,0.9,0.6,1.7,1.1,2.4c0.3,0.6,0.7,1.1,1.1,1.7
				c1.3,1.8,2.9,3.3,4.8,4.5c0.9,0.6,2,1.1,3,1.4c1.2,0.4,2.2,0.8,3.5,0.6c1.3-0.3,2.6-1.1,3.2-2.4c0.2-0.4,0.2-0.8,0.1-1.2
				C475.2-38.9,474-39.4,473.4-39.8z"/>
		</g>
		<path d="M484.7,7.9c0-4.4-3.5-7.9-7.9-7.9h-20.2c-4.4,0-7.9,3.5-7.9,7.9v9.4c0,4.4,3.5,7.9,7.9,7.9h20.2c4.4,0,7.9-3.5,7.9-7.9
			V7.9z M472.8,13.3l-9,4.5c-0.4,0.2-1.6-0.1-1.6-0.5V8.1c0-0.4,1.2-0.7,1.6-0.5l8.7,4.7C472.8,12.6,473.2,13.1,472.8,13.3z"/>
	</g>
	<g>
		<path class="st3" d="M-217-315.2c2.8-1.8,4.7-5,4.7-8.5c0-5.6-4.6-10.2-10.2-10.2s-10.2,4.6-10.2,10.2c0,3.6,1.9,6.7,4.7,8.5
			c-5.8,2.2-9.9,7.8-9.9,14.3c0,2.8,2.2,5,5,5h20.7c2.8,0,5-2.2,5-5C-207.1-307.4-211.2-313-217-315.2z M-230-323.8
			c0-4.2,3.4-7.5,7.5-7.5c4.2,0,7.5,3.4,7.5,7.5c0,4.2-3.4,7.5-7.5,7.5C-226.6-316.2-230-319.6-230-323.8z M-212.1-298.5h-20.7
			c-1.3,0-2.4-1.1-2.4-2.4c0-7,5.7-12.7,12.7-12.7c7,0,12.7,5.7,12.7,12.7C-209.7-299.6-210.8-298.5-212.1-298.5z"/>
		<g>
			<path class="st4" d="M-214.7-279.5h-15.5c-3.1,0-5.7,2.5-5.7,5.7v27c0,3.1,2.6,5.7,5.7,5.7h15.5c3.1,0,5.7-2.6,5.7-5.7v-27
				C-209-277-211.5-279.5-214.7-279.5z M-230.2-276.9h15.5c1.7,0,3.1,1.4,3.1,3.1v21.7h-21.6v-21.7
				C-233.2-275.5-231.9-276.9-230.2-276.9z M-214.7-243.7h-15.5c-1.7,0-3.1-1.4-3.1-3.1v-2.8h21.6v2.8
				C-211.6-245.1-213-243.7-214.7-243.7z"/>
			<circle class="st4" cx="-222.8" cy="-274.2" r="1"/>
			<circle class="st4" cx="-222.8" cy="-246.9" r="1"/>
		</g>
		<path class="st5" d="M-203.8-206.6l-14-16.1c-1.2-1.3-2.9-2.1-4.6-2.1c-1.8,0-3.5,0.8-4.6,2.1l-14,16.1c-0.3,0.4-0.4,0.9-0.2,1.4
			c0.2,0.5,0.7,0.8,1.2,0.8h2.4v16.4c0,0.7,0.6,1.3,1.3,1.3h28c0.7,0,1.3-0.6,1.3-1.3v-16.4h2.4c0.5,0,1-0.3,1.2-0.8
			C-203.3-205.6-203.4-206.2-203.8-206.6z M-225.1-220.9c0.7-0.8,1.6-1.2,2.7-1.2c1,0,2,0.4,2.7,1.2l12.2,13.9h-29.6L-225.1-220.9z
			 M-209.8-189.3h-25.3v-15.1h25.3V-189.3z"/>
		<path class="st6" d="M-208.9-166.1h-27c-3,0-5.5,2.5-5.5,5.5v18.9c0,3,2.5,5.5,5.5,5.5h27c3,0,5.5-2.5,5.5-5.5v-18.9
			C-203.4-163.6-205.9-166.1-208.9-166.1z M-208.9-163.5c0.2,0,0.4,0,0.7,0.1l-11.4,12.9c-0.7,0.8-1.7,1.2-2.8,1.2
			c-1.1,0-2.1-0.5-2.8-1.2l-11.4-12.9c0.2,0,0.4-0.1,0.7-0.1H-208.9z M-206.1-141.7c0,1.6-1.3,2.9-2.9,2.9h-27
			c-1.6,0-2.9-1.3-2.9-2.9v-18.9c0-0.4,0.1-0.8,0.2-1.1l11.4,13c1.2,1.4,2.9,2.1,4.7,2.1c1.8,0,3.5-0.8,4.7-2.1l11.4-13
			c0.1,0.3,0.2,0.7,0.2,1.1V-141.7z"/>
		<path class="st7" d="M-208.4-96.8l-25-18.2c-0.9-0.6-2-0.7-3-0.2c-1,0.5-1.5,1.5-1.5,2.5l0,31c0,1.2,0.6,2.3,1.6,2.9
			c0.5,0.3,1.2,0.5,1.8,0.5c0.5,0,1.1-0.1,1.5-0.4c0.1-0.1,0.3-0.2,0.4-0.3l8.5-9.2l5.1,10c0.2,0.5,0.7,0.7,1.2,0.7
			c0.2,0,0.4,0,0.6-0.1c0.6-0.3,0.9-1.1,0.6-1.8l-5.1-10.1l12.5-1.3c0.2,0,0.3-0.1,0.5-0.1c1.1-0.5,1.8-1.6,1.8-2.8
			C-206.9-95-207.4-96.1-208.4-96.8z M-209.9-93.5l-13.9,1.5c-0.3,0-0.6,0.2-0.8,0.4l-9.7,10.5c-0.3,0.1-0.5,0-0.6-0.1
			c-0.1-0.1-0.4-0.3-0.4-0.7l0-31c0,0,0-0.1,0.1-0.2c0,0,0.1,0,0.1,0c0.1,0,0.1,0,0.1,0l25,18.2c0.3,0.2,0.3,0.6,0.3,0.7
			C-209.6-93.9-209.7-93.7-209.9-93.5z"/>
		<g>
			<g>
				<path class="st8" d="M-222.4-23.1L-222.4-23.1c-0.4,0-0.7-0.2-1-0.4c-0.6-0.6-13.7-14.8-13.7-22.6c0-8.1,6.6-14.7,14.7-14.7
					c8.1,0,14.7,6.6,14.7,14.7c0,7.8-13.1,22-13.7,22.6C-221.7-23.3-222.1-23.1-222.4-23.1z M-222.4-58.2c-6.6,0-12,5.4-12,12
					c0,5.2,8,15.2,12,19.8c4.1-4.6,12-14.6,12-19.8C-210.4-52.8-215.8-58.2-222.4-58.2z"/>
			</g>
			<g>
				<path class="st8" d="M-222.4-40.2c-3.6,0-6.6-3-6.6-6.6c0-3.6,3-6.6,6.6-6.6c3.6,0,6.6,3,6.6,6.6
					C-215.8-43.2-218.8-40.2-222.4-40.2z M-222.4-50.8c-2.2,0-4,1.8-4,4c0,2.2,1.8,4,4,4c2.2,0,4-1.8,4-4
					C-218.5-49-220.2-50.8-222.4-50.8z"/>
			</g>
		</g>
		<path class="st9" d="M-222.4-6.4c-10.5,0-19,8.5-19,19c0,10.5,8.5,19,19,19c10.5,0,19-8.5,19-19C-203.4,2.1-212-6.4-222.4-6.4z
			 M-206.1,11.3h-7.1c-0.2-5.9-1.6-11-3.7-14.1C-211-0.7-206.6,4.7-206.1,11.3z M-222.4,29c-3,0-6.3-6.1-6.5-15.1h13.1
			C-216.2,22.8-219.5,29-222.4,29z M-229,11.3c0.3-8.9,3.6-15.1,6.5-15.1c3,0,6.3,6.1,6.5,15.1H-229z M-227.9-2.8
			c-2.1,3.2-3.5,8.2-3.7,14.1h-7.1C-238.2,4.7-233.9-0.7-227.9-2.8z M-238.8,13.9h7.1c0.2,5.9,1.6,11,3.7,14.1
			C-233.9,25.9-238.2,20.4-238.8,13.9z M-216.9,28c2.1-3.2,3.5-8.2,3.7-14.1h7.1C-206.6,20.4-211,25.9-216.9,28z"/>
	</g>
	<g>
		<g>
			<g>
				<circle class="st3" cx="-158.3" cy="-325" r="7.6"/>
			</g>
			<g>
				<path class="st3" d="M-158.3-314.9L-158.3-314.9c-7.7,0-14,6.3-14,14l0,0c0,2,1.6,3.7,3.7,3.7h20.7c2,0,3.7-1.6,3.7-3.7l0,0
					C-144.3-308.6-150.6-314.9-158.3-314.9z"/>
			</g>
		</g>
		<g>
			<path class="st4" d="M-146.2-252.2v-21.7c0-2.4-2-4.4-4.4-4.4h-15.5c-2.4,0-4.4,2-4.4,4.4v21.7H-146.2z M-158.3-275.5
				c0.7,0,1.3,0.6,1.3,1.3c0,0.7-0.6,1.3-1.3,1.3c-0.7,0-1.3-0.6-1.3-1.3C-159.6-274.9-159.1-275.5-158.3-275.5z"/>
			<path class="st4" d="M-170.5-249.6v2.8c0,2.4,2,4.4,4.4,4.4h15.5c2.4,0,4.4-2,4.4-4.4v-2.8H-170.5z M-158.3-244.9
				c-0.7,0-1.3-0.6-1.3-1.3c0-0.7,0.6-1.3,1.3-1.3c0.7,0,1.3,0.6,1.3,1.3C-157-245.5-157.6-244.9-158.3-244.9z"/>
		</g>
		<g>
			<g>
				<path class="st5" d="M-162-221.8l-12.5,14.4c-0.6,0.7-0.1,1.7,0.8,1.7h3.7h25.7h1.4c0.9,0,1.4-1.1,0.8-1.7l-12.5-14.4
					C-156.6-224-160-224-162-221.8z"/>
			</g>
			<g>
				<path class="st5" d="M-144.4-203.1v14c0,0.6-0.5,1-1,1h-25.9c-0.6,0-1-0.5-1-1v-14H-144.4z"/>
			</g>
		</g>
		<g>
			<path class="st6" d="M-173.4-164.4l12.3,13.9c0.7,0.8,1.7,1.2,2.8,1.2c1.1,0,2.1-0.5,2.8-1.2l12.1-13.7c0.1-0.1,0.2-0.2,0.3-0.3
				c-0.5-0.2-1.1-0.4-1.7-0.4h-27C-172.4-164.8-173-164.7-173.4-164.4C-173.4-164.4-173.4-164.4-173.4-164.4z"/>
			<path class="st6" d="M-141.3-162.8c-0.1,0.1-0.1,0.3-0.2,0.4l-12.1,13.7c-1.2,1.4-2.9,2.1-4.7,2.1c-1.8,0-3.5-0.8-4.7-2.1
				l-12.3-13.9c0,0,0-0.1-0.1-0.1c-0.4,0.6-0.6,1.4-0.6,2.2v18.9c0,2.3,1.9,4.2,4.2,4.2h27c2.3,0,4.2-1.9,4.2-4.2v-18.9
				C-140.6-161.4-140.9-162.2-141.3-162.8z"/>
		</g>
		<path class="st7" d="M-145-96.4l-25-18.2c-1-0.7-2.4,0-2.4,1.2l0,31c0,1.6,1.6,2.6,3,1.9l8.8-9.6l5.7,11.3
			c0.2,0.5,0.7,0.7,1.2,0.7c0.2,0,0.4,0,0.6-0.1c0.6-0.3,0.9-1.1,0.6-1.8l-5.8-11.4l13-1.4C-143.9-93.6-143.8-95.5-145-96.4z"/>
		<g>
			<path class="st8" d="M-158.3-50.6c-2.2,0-4,1.8-4,4c0,2.2,1.8,4,4,4c2.2,0,4-1.8,4-4C-154.4-48.8-156.1-50.6-158.3-50.6z"/>
			<path class="st8" d="M-158.3-59.3c-7.4,0-13.4,6-13.4,13.4c0,6.3,9.7,17.7,12.6,20.9c0.4,0.5,1.2,0.5,1.6,0
				c2.9-3.2,12.6-14.6,12.6-20.9C-145-53.3-151-59.3-158.3-59.3z M-158.3-40c-3.6,0-6.6-3-6.6-6.6c0-3.6,3-6.6,6.6-6.6
				c3.6,0,6.6,3,6.6,6.6C-151.7-42.9-154.7-40-158.3-40z"/>
		</g>
		<g>
			<path class="st9" d="M-164.9,13.9c0.3,8.9,3.6,15.1,6.5,15.1c3,0,6.3-6.1,6.5-15.1H-164.9z"/>
			<path class="st9" d="M-158.3-3.8c-3,0-6.3,6.1-6.5,15.1h13.1C-152.1,2.3-155.4-3.8-158.3-3.8z"/>
			<path class="st9" d="M-149.2,11.3h8.5c-0.6-7.8-6.2-14.2-13.6-15.9C-151.4-1.8-149.4,4-149.2,11.3z"/>
			<path class="st9" d="M-149.2,13.9c-0.2,7.2-2.2,13.1-5.2,15.9c7.4-1.7,13.1-8.1,13.6-15.9H-149.2z"/>
			<path class="st9" d="M-167.5,13.9h-8.5c0.6,7.8,6.2,14.2,13.6,15.9C-165.3,27-167.3,21.1-167.5,13.9z"/>
			<path class="st9" d="M-167.5,11.3c0.2-7.2,2.2-13.1,5.2-15.9c-7.4,1.7-13.1,8.1-13.6,15.9H-167.5z"/>
		</g>
	</g>
	<g>
		<g>
			<circle class="st3" cx="-94.2" cy="-314.9" r="17.7"/>
			<g>
				<g>
					<circle class="st0" cx="-94.2" cy="-323.2" r="5"/>
				</g>
				<g>
					<path class="st0" d="M-94.2-316.5L-94.2-316.5c-5.2,0-9.3,4.2-9.3,9.3l0,0c0,1.4,1.1,2.5,2.5,2.5h13.8c1.4,0,2.5-1.1,2.5-2.5
						l0,0C-84.9-312.3-89.1-316.5-94.2-316.5z"/>
				</g>
			</g>
		</g>
		<g>
			<circle class="st4" cx="-94.2" cy="-260.3" r="17.7"/>
			<g>
				<path class="st0" d="M-86.2-255v-14.3c0-1.6-1.3-2.9-2.9-2.9h-10.2c-1.6,0-2.9,1.3-2.9,2.9v14.3H-86.2z M-94.2-270.3
					c0.5,0,0.9,0.4,0.9,0.9c0,0.5-0.4,0.9-0.9,0.9c-0.5,0-0.9-0.4-0.9-0.9C-95.1-269.9-94.7-270.3-94.2-270.3z"/>
				<path class="st0" d="M-102.2-253.2v1.8c0,1.6,1.3,2.9,2.9,2.9h10.2c1.6,0,2.9-1.3,2.9-2.9v-1.8H-102.2z M-94.2-250.1
					c-0.5,0-0.9-0.4-0.9-0.9s0.4-0.9,0.9-0.9c0.5,0,0.9,0.4,0.9,0.9S-93.8-250.1-94.2-250.1z"/>
			</g>
		</g>
		<g>
			<circle class="st5" cx="-94.2" cy="-205.7" r="17.7"/>
			<g>
				<g>
					<path class="st0" d="M-96.7-218l-8.3,9.6c-0.4,0.5-0.1,1.2,0.5,1.2h2.4h17.1h0.9c0.6,0,0.9-0.7,0.5-1.2l-8.3-9.6
						C-93.1-219.5-95.4-219.5-96.7-218z"/>
				</g>
				<g>
					<path class="st0" d="M-84.9-205.5v9.3c0,0.4-0.3,0.7-0.7,0.7h-17.2c-0.4,0-0.7-0.3-0.7-0.7v-9.3H-84.9z"/>
				</g>
			</g>
		</g>
		<g>
			<circle class="st6" cx="-94.2" cy="-151.2" r="17.7"/>
			<g>
				<path class="st0" d="M-104.3-160l8.2,9.3c0.5,0.5,1.1,0.8,1.8,0.8c0.7,0,1.4-0.3,1.8-0.8l8.1-9.1c0.1-0.1,0.1-0.1,0.2-0.2
					c-0.3-0.1-0.7-0.2-1.1-0.2h-18C-103.6-160.2-104-160.2-104.3-160C-104.3-160-104.3-160-104.3-160z"/>
				<path class="st0" d="M-82.9-158.9c0,0.1-0.1,0.2-0.2,0.3l-8.1,9.1c-0.8,0.9-1.9,1.4-3.2,1.4c-1.2,0-2.4-0.5-3.2-1.4l-8.2-9.3
					c0,0,0,0,0-0.1c-0.3,0.4-0.4,0.9-0.4,1.4v12.6c0,1.5,1.2,2.8,2.8,2.8h18c1.5,0,2.8-1.2,2.8-2.8v-12.6
					C-82.4-158-82.6-158.5-82.9-158.9z"/>
			</g>
		</g>
		<g>
			<circle class="st7" cx="-94.2" cy="-96.6" r="17.7"/>
			<path class="st0" d="M-83.8-96.5l-15.7-11.5c-0.6-0.5-1.5,0-1.5,0.8l0,19.5c0,1,1,1.6,1.9,1.2l5.5-6l3.6,7.1
				c0.1,0.3,0.4,0.5,0.7,0.5c0.1,0,0.3,0,0.4-0.1c0.4-0.2,0.6-0.7,0.4-1.1l-3.6-7.1l8.2-0.9C-83.1-94.7-83-95.9-83.8-96.5z"/>
		</g>
		<g>
			<circle class="st8" cx="-94.2" cy="-42" r="17.7"/>
			<g>
				<path class="st0" d="M-94.2-53.8c-5,0-9.1,4.1-9.1,9.1c0,4.3,6.6,12.1,8.6,14.3c0.3,0.3,0.8,0.3,1.1,0c2-2.2,8.6-10,8.6-14.3
					C-85.1-49.7-89.2-53.8-94.2-53.8z M-94.2-40.6c-2.5,0-4.5-2-4.5-4.5c0-2.5,2-4.5,4.5-4.5c2.5,0,4.5,2,4.5,4.5
					C-89.7-42.6-91.7-40.6-94.2-40.6z"/>
			</g>
		</g>
		<g>
			<circle class="st9" cx="-94.2" cy="12.6" r="17.7"/>
			<g>
				<path class="st0" d="M-98.6,13.5c0.2,6,2.4,10.1,4.4,10.1c2,0,4.2-4.1,4.4-10.1H-98.6z"/>
				<path class="st0" d="M-94.2,1.6c-2,0-4.2,4.1-4.4,10.1h8.8C-90,5.7-92.2,1.6-94.2,1.6z"/>
				<path class="st0" d="M-88.1,11.7h5.7c-0.4-5.2-4.1-9.5-9.1-10.7C-89.6,2.9-88.2,6.9-88.1,11.7z"/>
				<path class="st0" d="M-88.1,13.5c-0.1,4.8-1.5,8.8-3.5,10.7c5-1.2,8.7-5.4,9.1-10.7H-88.1z"/>
				<path class="st0" d="M-100.4,13.5h-5.7c0.4,5.2,4.1,9.5,9.1,10.7C-98.9,22.2-100.2,18.3-100.4,13.5z"/>
				<path class="st0" d="M-100.4,11.7c0.1-4.8,1.5-8.8,3.5-10.7c-5,1.2-8.7,5.4-9.1,10.7H-100.4z"/>
			</g>
		</g>
	</g>
	<g>
		<g>
			<circle class="st9" cx="82.1" cy="-205.7" r="17.7"/>
			<path class="st0" d="M91.9-211.8c-0.6,0.3-1.3,0.4-2,0.6c0.3-0.1,0.8-0.6,1-0.9c0.3-0.4,0.5-0.7,0.6-1.2c0,0,0-0.1,0-0.1
				c0,0-0.1,0-0.1,0c-0.7,0.4-1.5,0.7-2.3,0.9c-0.1,0-0.1,0-0.2,0c-0.1-0.1-0.1-0.1-0.2-0.2c-0.3-0.3-0.7-0.5-1.1-0.7
				c-0.5-0.2-1.1-0.3-1.7-0.3c-0.6,0-1.1,0.2-1.6,0.5c-0.5,0.3-1,0.6-1.3,1.1c-0.4,0.5-0.6,1-0.8,1.6c-0.1,0.6-0.1,1.1,0,1.7
				c0,0.1,0,0.1-0.1,0.1c-3.2-0.5-5.8-1.6-7.9-4c-0.1-0.1-0.1-0.1-0.2,0c-0.9,1.4-0.5,3.7,0.7,4.8c0.2,0.1,0.3,0.3,0.5,0.4
				c-0.1,0-0.8-0.1-1.5-0.4c-0.1-0.1-0.1,0-0.1,0.1c0,0.2,0,0.3,0,0.5c0.2,1.4,1.2,2.7,2.5,3.2c0.2,0.1,0.3,0.1,0.5,0.2
				c-0.3,0.1-0.6,0.1-1.5,0c-0.1,0-0.2,0-0.1,0.1c0.7,1.8,2.1,2.3,3.2,2.6c0.1,0,0.3,0,0.4,0.1c0,0,0,0,0,0
				c-0.4,0.5-1.6,0.9-2.2,1.1c-1,0.4-2.2,0.5-3.3,0.4c-0.2,0-0.2,0-0.3,0c0,0,0,0.1,0.1,0.1c0.2,0.1,0.5,0.3,0.7,0.4
				c0.7,0.4,1.4,0.7,2.2,0.9c3.9,1.1,8.4,0.3,11.3-2.6c2.3-2.3,3.1-5.5,3.1-8.7c0-0.1,0.1-0.2,0.2-0.3c0.6-0.5,1.1-1,1.5-1.6
				C91.9-211.6,91.9-211.7,91.9-211.8C91.9-211.8,91.9-211.8,91.9-211.8C91.9-211.9,91.9-211.8,91.9-211.8z"/>
		</g>
		<g>
			<linearGradient id="SVGID_1_" gradientUnits="userSpaceOnUse" x1="65.507" y1="-274.3221" x2="100.8816" y2="-244.4448">
				<stop  offset="1.104800e-003" style="stop-color:#FBE18A"/>
				<stop  offset="0.2094" style="stop-color:#FCBB45"/>
				<stop  offset="0.3765" style="stop-color:#F75274"/>
				<stop  offset="0.5238" style="stop-color:#D53692"/>
				<stop  offset="0.7394" style="stop-color:#8F39CE"/>
				<stop  offset="1" style="stop-color:#5B4FE9"/>
			</linearGradient>
			<circle class="st10" cx="82.1" cy="-260.3" r="17.7"/>
			<g>
				<g>
					<circle class="st0" cx="87.6" cy="-265.8" r="1.2"/>
					<path class="st0" d="M82.2-265.5c-2.8,0-5.1,2.3-5.1,5.1c0,2.8,2.3,5.1,5.1,5.1c2.8,0,5.1-2.3,5.1-5.1
						C87.3-263.2,85-265.5,82.2-265.5z M82.2-257.1c-1.8,0-3.3-1.5-3.3-3.3c0-1.8,1.5-3.3,3.3-3.3c1.8,0,3.3,1.5,3.3,3.3
						C85.4-258.5,84-257.1,82.2-257.1z"/>
					<path class="st0" d="M86.2-250h-8.3c-3.4,0-6.2-2.8-6.2-6.2v-8.3c0-3.4,2.8-6.2,6.2-6.2h8.3c3.4,0,6.2,2.8,6.2,6.2v8.3
						C92.4-252.8,89.7-250,86.2-250z M77.9-268.8c-2.4,0-4.3,1.9-4.3,4.3v8.3c0,2.4,1.9,4.3,4.3,4.3h8.3c2.4,0,4.3-1.9,4.3-4.3v-8.3
						c0-2.4-1.9-4.3-4.3-4.3H77.9z"/>
				</g>
			</g>
		</g>
		<g>
			<g>
				<path class="st11" d="M99.8-314.9c0-9.8-7.9-17.7-17.7-17.7s-17.7,7.9-17.7,17.7c0,8.8,6.5,16.1,14.9,17.5v-12.4h-4.5v-5.1h4.5
					v-3.9c0-4.4,2.6-6.9,6.7-6.9c1.9,0,4,0.3,4,0.3v4.4h-2.2c-2.2,0-2.9,1.4-2.9,2.8v3.3h4.9l-0.8,5.1h-4.1v12.4
					C93.3-298.8,99.8-306.1,99.8-314.9z"/>
				<path class="st0" d="M89-309.8l0.8-5.1h-4.9v-3.3c0-1.4,0.7-2.8,2.9-2.8H90v-4.4c0,0-2-0.3-4-0.3c-4,0-6.7,2.4-6.7,6.9v3.9h-4.5
					v5.1h4.5v12.4c0.9,0.1,1.8,0.2,2.8,0.2s1.9-0.1,2.8-0.2v-12.4H89z"/>
			</g>
		</g>
		<g>
			<circle cx="82.1" cy="-96.6" r="17.7"/>
			<g>
				<path class="st12" d="M86.7-99.6c1.4,1,3.2,1.6,5.1,1.6v-3.6c-0.4,0-0.7,0-1.1-0.1v2.9c-1.9,0-3.7-0.6-5.1-1.6v7.4
					c0,3.7-3,6.7-6.7,6.7c-1.4,0-2.7-0.4-3.8-1.1c1.2,1.3,2.9,2,4.8,2c3.7,0,6.7-3,6.7-6.7L86.7-99.6L86.7-99.6z M88-103.3
					c-0.7-0.8-1.2-1.8-1.3-3v-0.5h-1C86-105.3,86.8-104.1,88-103.3L88-103.3z M77.5-90.3c-0.4-0.5-0.6-1.2-0.6-1.9
					c0-1.7,1.4-3.1,3.1-3.1c0.3,0,0.6,0,0.9,0.1v-3.7c-0.4,0-0.7-0.1-1.1-0.1v2.9c-0.3-0.1-0.6-0.1-0.9-0.1c-1.7,0-3.1,1.4-3.1,3.1
					C75.8-91.9,76.5-90.8,77.5-90.3z"/>
				<path class="st1" d="M85.7-100.5c1.4,1,3.2,1.6,5.1,1.6v-2.9c-1.1-0.2-2-0.8-2.7-1.5c-1.2-0.8-2.1-2-2.3-3.4h-2.7v14.6
					c0,1.7-1.4,3.1-3.1,3.1c-1,0-1.9-0.5-2.5-1.2c-1-0.5-1.7-1.6-1.7-2.8c0-1.7,1.4-3.1,3.1-3.1c0.3,0,0.6,0.1,0.9,0.1v-2.9
					c-3.7,0.1-6.6,3.1-6.6,6.7c0,1.8,0.7,3.5,1.9,4.7c1.1,0.7,2.4,1.1,3.8,1.1c3.7,0,6.7-3,6.7-6.7V-100.5z"/>
				<path class="st13" d="M90.7-101.8v-0.8c-1,0-1.9-0.3-2.7-0.8C88.8-102.5,89.7-102,90.7-101.8z M85.7-106.8c0-0.1,0-0.3-0.1-0.4
					v-0.5H82v14.6c0,1.7-1.4,3.1-3.1,3.1c-0.5,0-1-0.1-1.4-0.3c0.6,0.7,1.5,1.2,2.5,1.2c1.7,0,3.1-1.4,3.1-3.1v-14.6H85.7z
					 M79.8-98.9v-0.8c-0.3,0-0.6-0.1-0.9-0.1c-3.7,0-6.7,3-6.7,6.7c0,2.3,1.2,4.4,3,5.6c-1.2-1.2-1.9-2.9-1.9-4.7
					C73.2-95.9,76.2-98.8,79.8-98.9L79.8-98.9z"/>
			</g>
		</g>
		<g>
			<path class="st8" d="M82.1-168.9c-9.8,0-17.7,7.9-17.7,17.7c0,7.2,4.3,13.4,10.5,16.1c0-0.5,0-1,0-1.5c0.1-1.7,0.3-2.3,2.5-11.6
				c0-0.1,0-0.3-0.1-0.4c-0.5-1.4-0.6-2.9-0.2-4.4c1-3.2,4.6-3.4,5.2-0.8c0.4,1.6-0.6,3.7-1.4,6.9c-0.7,2.6,2.4,4.4,5,2.5
				c2.4-1.7,3.3-5.9,3.2-8.9c-0.3-5.9-6.8-7.2-10.9-5.3c-4.7,2.2-5.8,8-3.7,10.7c0.3,0.3,0.5,0.5,0.4,0.9c-0.1,0.5-0.3,1.1-0.4,1.6
				c-0.1,0.4-0.4,0.5-0.8,0.4c-0.8-0.3-1.4-0.8-2-1.5c-1.8-2.2-2.3-6.7,0.1-10.4c2.6-4.2,7.6-5.8,12.1-5.3c5.4,0.6,8.8,4.3,9.4,8.4
				c0.3,1.9,0.1,6.6-2.6,9.9c-3.1,3.8-8,4-10.3,1.7c-0.2-0.2-0.3-0.4-0.5-0.6c0,0.1,0,0.2-0.1,0.2c-1.1,4.3-1.2,5.3-2.4,7.3
				c-0.2,0.3-0.4,0.6-0.6,0.9c1.7,0.5,3.4,0.8,5.3,0.8c9.8,0,17.7-7.9,17.7-17.7C99.8-160.9,91.8-168.9,82.1-168.9z"/>
			<path class="st0" d="M79.7-142.4c0-0.1,0-0.1,0.1-0.2c0.2,0.2,0.3,0.4,0.5,0.6c2.3,2.3,7.3,2.1,10.3-1.7c2.7-3.3,2.9-8,2.6-9.9
				c-0.6-4.2-4-7.8-9.4-8.4c-4.5-0.5-9.4,1.2-12.1,5.3c-2.4,3.7-1.9,8.2-0.1,10.4c0.5,0.7,1.2,1.2,2,1.5c0.4,0.2,0.7,0,0.8-0.4
				c0.1-0.5,0.3-1.1,0.4-1.6c0.1-0.3-0.1-0.6-0.4-0.9c-2.1-2.7-1.1-8.5,3.7-10.7c4.1-1.9,10.6-0.6,10.9,5.3c0.2,3-0.8,7.1-3.2,8.9
				c-2.6,1.9-5.7,0-5-2.5c0.8-3.1,1.8-5.3,1.4-6.9c-0.6-2.6-4.2-2.4-5.2,0.8c-0.5,1.5-0.4,2.9,0.2,4.4c0,0.1,0.1,0.2,0.1,0.4
				c-2.2,9.3-2.4,9.9-2.5,11.6c0,0.5,0,1,0,1.5c0.6,0.3,1.3,0.5,2,0.8c0.2-0.3,0.4-0.6,0.6-0.9C78.5-137.2,78.6-138.1,79.7-142.4z"
				/>
		</g>
		<g>
			<circle class="st7" cx="82.1" cy="-42" r="17.7"/>
			<path class="st0" d="M72.5-32l1.5-5.5c-0.8-1.5-1.3-3.2-1.3-4.9c0-5.6,4.6-10.2,10.2-10.2C88.5-52.6,93-48,93-42.4
				c0,5.6-4.6,10.2-10.2,10.2c-1.7,0-3.3-0.4-4.8-1.2L72.5-32z M78.3-35.5l0.3,0.2c1.3,0.8,2.7,1.2,4.2,1.2c4.5,0,8.2-3.7,8.2-8.2
				c0-4.5-3.7-8.2-8.2-8.2c-4.5,0-8.2,3.7-8.2,8.2c0,1.5,0.4,3,1.2,4.3l0.2,0.4l-0.8,3.1L78.3-35.5z"/>
			<path class="st1" d="M86.7-41c-0.4-0.3-1-0.5-1.5-0.3c-0.4,0.2-0.6,0.7-0.9,1c-0.1,0.2-0.3,0.2-0.5,0.1c-1.4-0.6-2.5-1.5-3.3-2.8
				c-0.1-0.2-0.1-0.4,0.1-0.6c0.2-0.3,0.5-0.6,0.6-1c0.1-0.4-0.1-0.8-0.3-1.1c-0.2-0.4-0.4-1-0.8-1.3c-0.4-0.2-0.9-0.1-1.3,0.2
				c-0.6,0.5-0.9,1.3-0.9,2c0,0.2,0,0.4,0.1,0.6c0.1,0.5,0.4,1,0.6,1.4c0.2,0.3,0.4,0.7,0.6,1c0.8,1,1.7,1.9,2.8,2.6
				c0.5,0.3,1.1,0.6,1.7,0.8c0.7,0.2,1.3,0.5,2,0.3c0.8-0.1,1.5-0.6,1.8-1.4c0.1-0.2,0.1-0.5,0.1-0.7C87.7-40.5,87.1-40.8,86.7-41z"
				/>
		</g>
		<g>
			<circle class="st8" cx="82.1" cy="12.6" r="17.7"/>
			<path class="st0" d="M91.5,10.1c0-2.3-1.9-4.2-4.2-4.2H76.4c-2.3,0-4.2,1.9-4.2,4.2v5.1c0,2.3,1.9,4.2,4.2,4.2h10.9
				c2.3,0,4.2-1.9,4.2-4.2V10.1z M85.2,13l-4.9,2.4c-0.2,0.1-0.8,0-0.8-0.3v-4.9c0-0.2,0.7-0.4,0.8-0.2l4.7,2.5
				C85.2,12.6,85.4,12.9,85.2,13z"/>
		</g>
	</g>
	<g>
		<g>
			<linearGradient id="SVGID_2_" gradientUnits="userSpaceOnUse" x1="11.1345" y1="-285.2004" x2="43.2226" y2="-254.4867">
				<stop  offset="1.104800e-003" style="stop-color:#FBE18A"/>
				<stop  offset="0.2094" style="stop-color:#FCBB45"/>
				<stop  offset="0.3765" style="stop-color:#F75274"/>
				<stop  offset="0.5238" style="stop-color:#D53692"/>
				<stop  offset="0.7394" style="stop-color:#8F39CE"/>
				<stop  offset="1" style="stop-color:#5B4FE9"/>
			</linearGradient>
			<circle class="st14" cx="27.3" cy="-269.7" r="2.1"/>
			<linearGradient id="SVGID_3_" gradientUnits="userSpaceOnUse" x1="2.0803" y1="-275.741" x2="34.1684" y2="-245.0273">
				<stop  offset="1.104800e-003" style="stop-color:#FBE18A"/>
				<stop  offset="0.2094" style="stop-color:#FCBB45"/>
				<stop  offset="0.3765" style="stop-color:#F75274"/>
				<stop  offset="0.5238" style="stop-color:#D53692"/>
				<stop  offset="0.7394" style="stop-color:#8F39CE"/>
				<stop  offset="1" style="stop-color:#5B4FE9"/>
			</linearGradient>
			<path class="st15" d="M18.1-269.1c-4.8,0-8.7,3.9-8.7,8.7c0,4.8,3.9,8.7,8.7,8.7c4.8,0,8.7-3.9,8.7-8.7
				C26.8-265.2,22.9-269.1,18.1-269.1z M18.1-254.8c-3.1,0-5.6-2.5-5.6-5.6c0-3.1,2.5-5.6,5.6-5.6c3.1,0,5.6,2.5,5.6,5.6
				C23.7-257.3,21.2-254.8,18.1-254.8z"/>
			<linearGradient id="SVGID_4_" gradientUnits="userSpaceOnUse" x1="2.0108" y1="-275.6683" x2="34.0987" y2="-244.9549">
				<stop  offset="1.104800e-003" style="stop-color:#FBE18A"/>
				<stop  offset="0.2094" style="stop-color:#FCBB45"/>
				<stop  offset="0.3765" style="stop-color:#F75274"/>
				<stop  offset="0.5238" style="stop-color:#D53692"/>
				<stop  offset="0.7394" style="stop-color:#8F39CE"/>
				<stop  offset="1" style="stop-color:#5B4FE9"/>
			</linearGradient>
			<path class="st16" d="M25-242.7H10.9c-5.9,0-10.6-4.8-10.6-10.6v-14.1c0-5.9,4.8-10.6,10.6-10.6H25c5.9,0,10.6,4.8,10.6,10.6
				v14.1C35.7-247.5,30.9-242.7,25-242.7z M10.9-274.7c-4,0-7.3,3.3-7.3,7.3v14.1c0,4,3.3,7.3,7.3,7.3H25c4,0,7.3-3.3,7.3-7.3v-14.1
				c0-4-3.3-7.3-7.3-7.3H10.9z"/>
		</g>
	</g>
	<path class="st11" d="M26.2-312.8l1-6.4H21v-4.2c0-1.8,0.9-3.5,3.6-3.5h2.8v-5.5c0,0-2.5-0.4-5-0.4c-5.1,0-8.4,3.1-8.4,8.6v4.9H8.5
		v6.4h5.6v15.5H21v-15.5H26.2z"/>
	<path class="st9" d="M39.3-219.2c-1.4,0.6-2.9,1-4.3,1.2c0.7-0.1,1.7-1.4,2.1-1.9c0.6-0.8,1.1-1.7,1.4-2.6c0-0.1,0.1-0.2,0-0.2
		c-0.1,0-0.2,0-0.2,0c-1.6,0.9-3.3,1.5-5.2,2c-0.1,0-0.3,0-0.4-0.1c-0.2-0.2-0.3-0.3-0.5-0.5c-0.8-0.6-1.6-1.2-2.5-1.5
		c-1.2-0.5-2.5-0.7-3.8-0.6c-1.3,0.1-2.5,0.4-3.6,1c-1.1,0.6-2.1,1.4-2.9,2.4c-0.8,1-1.4,2.2-1.8,3.5c-0.3,1.2-0.3,2.5-0.1,3.7
		c0,0.2,0,0.2-0.2,0.2c-7.1-1.1-12.9-3.6-17.7-9c-0.2-0.2-0.3-0.2-0.5,0c-2.1,3.1-1.1,8.1,1.5,10.6c0.3,0.3,0.7,0.7,1.1,1
		c-0.1,0-1.9-0.2-3.4-1c-0.2-0.1-0.3-0.1-0.3,0.2c0,0.3,0,0.6,0.1,1c0.4,3.2,2.6,6.1,5.6,7.2c0.4,0.2,0.8,0.3,1.1,0.3
		c-0.7,0.2-1.4,0.3-3.4,0.1c-0.2,0-0.3,0.1-0.2,0.3c1.5,4,4.7,5.2,7,5.9c0.3,0.1,0.6,0.1,1,0.1c0,0,0,0-0.1,0.1
		c-0.8,1.2-3.5,2.1-4.8,2.5c-2.3,0.8-4.9,1.2-7.3,0.9c-0.4-0.1-0.5-0.1-0.6,0c-0.1,0.1,0,0.2,0.1,0.3c0.5,0.3,1,0.6,1.5,0.9
		c1.6,0.8,3.2,1.5,4.9,2c8.8,2.4,18.7,0.6,25.2-5.9c5.2-5.1,7-12.2,7-19.3c0-0.3,0.3-0.4,0.5-0.6c1.3-1,2.4-2.2,3.4-3.6
		c0.2-0.3,0.2-0.6,0.2-0.7c0,0,0,0,0,0C39.5-219.4,39.5-219.3,39.3-219.2z"/>
	<path class="st17" d="M15.7-145.8c0,0.1-0.1,0.2-0.1,0.3c-1.3,5.1-1.4,6.2-2.8,8.6c-0.6,1.1-1.4,2.2-2.1,3.2
		c-0.1,0.1-0.2,0.3-0.4,0.2c-0.2,0-0.2-0.2-0.2-0.4c-0.2-1.5-0.3-3.1-0.3-4.7c0.1-2,0.3-2.7,2.9-13.8c0-0.2,0-0.3-0.1-0.5
		c-0.6-1.7-0.8-3.4-0.2-5.2c1.2-3.8,5.5-4.1,6.2-0.9c0.5,1.9-0.8,4.4-1.7,8.1c-0.8,3.1,2.8,5.2,5.9,3c2.8-2.1,3.9-7,3.7-10.5
		c-0.4-7-8.1-8.5-12.9-6.2c-5.6,2.6-6.8,9.5-4.3,12.6c0.3,0.4,0.6,0.6,0.5,1.1c-0.2,0.6-0.3,1.3-0.5,1.9c-0.1,0.5-0.5,0.6-1,0.4
		c-0.9-0.4-1.7-1-2.3-1.7c-2.1-2.6-2.7-7.9,0.1-12.3c3.1-4.9,9-6.9,14.3-6.3c6.3,0.7,10.4,5.1,11.1,10c0.3,2.2,0.1,7.8-3.1,11.7
		c-3.6,4.5-9.5,4.8-12.2,2C16.1-145.3,15.9-145.6,15.7-145.8z"/>
	<g>
		<path class="st7" d="M0.3-24.3l2.5-9.5c-1.4-2.6-2.2-5.5-2.2-8.4c0-9.6,7.8-17.5,17.5-17.5c9.6,0,17.5,7.8,17.5,17.5
			c0,9.6-7.8,17.5-17.5,17.5c-2.9,0-5.7-0.7-8.3-2.1L0.3-24.3z M10.3-30.4l0.6,0.4c2.2,1.3,4.7,2,7.2,2c7.8,0,14.2-6.4,14.2-14.2
			c0-7.8-6.4-14.2-14.2-14.2C10.3-56.4,4-50,4-42.2c0,2.6,0.7,5.1,2.1,7.3l0.4,0.6L5-29L10.3-30.4z"/>
		<path class="st18" d="M24.6-39.8c-0.7-0.4-1.7-0.9-2.5-0.6c-0.7,0.3-1.1,1.3-1.5,1.8c-0.2,0.3-0.5,0.3-0.8,0.2
			c-2.4-1-4.3-2.6-5.7-4.8c-0.2-0.3-0.2-0.6,0.1-0.9c0.4-0.5,0.9-1,1-1.7c0.1-0.6-0.2-1.4-0.5-2c-0.3-0.7-0.7-1.8-1.5-2.2
			c-0.7-0.4-1.6-0.2-2.2,0.3c-1,0.8-1.5,2.2-1.5,3.5c0,0.4,0.1,0.7,0.1,1.1c0.2,0.9,0.6,1.7,1.1,2.4c0.3,0.6,0.7,1.1,1.1,1.7
			c1.3,1.8,2.9,3.3,4.8,4.5c0.9,0.6,2,1.1,3,1.4c1.2,0.4,2.2,0.8,3.5,0.6c1.3-0.3,2.6-1.1,3.2-2.4c0.2-0.4,0.2-0.8,0.1-1.2
			C26.4-38.9,25.3-39.4,24.6-39.8z"/>
	</g>
	<path class="st8" d="M36,7.9C36,3.5,32.4,0,28.1,0H7.9C3.5,0,0,3.5,0,7.9v9.4c0,4.4,3.5,7.9,7.9,7.9h20.2c4.4,0,7.9-3.5,7.9-7.9
		V7.9z M24.1,13.3l-9,4.5c-0.4,0.2-1.6-0.1-1.6-0.5V8.1c0-0.4,1.2-0.7,1.6-0.5l8.7,4.7C24.1,12.6,24.5,13.1,24.1,13.3z"/>
	<g>
		<path class="st12" d="M25.8-101.7c2.4,1.7,5.3,2.7,8.5,2.7v-6.1c-0.6,0-1.2-0.1-1.8-0.2v4.8c-3.2,0-6.1-1-8.5-2.7v12.4
			c0,6.2-5,11.2-11.2,11.2c-2.3,0-4.5-0.7-6.2-1.9c2,2.1,4.9,3.4,8,3.4c6.2,0,11.2-5,11.2-11.2L25.8-101.7L25.8-101.7z M28-107.9
			c-1.2-1.3-2-3-2.2-4.9v-0.8h-1.7C24.6-111.2,26-109.1,28-107.9L28-107.9z M10.5-86.3c-0.7-0.9-1-2-1-3.1c0-2.8,2.3-5.1,5.1-5.1
			c0.5,0,1.1,0.1,1.6,0.2v-6.2c-0.6-0.1-1.2-0.1-1.8-0.1v4.8c-0.5-0.2-1-0.2-1.6-0.2c-2.8,0-5.1,2.3-5.1,5.1
			C7.7-88.9,8.9-87.1,10.5-86.3z"/>
		<path class="st2" d="M24.1-103.2c2.4,1.7,5.3,2.7,8.5,2.7v-4.8c-1.8-0.4-3.3-1.3-4.5-2.6c-2-1.3-3.4-3.3-3.9-5.7h-4.4v24.2
			c0,2.8-2.3,5.1-5.1,5.1c-1.7,0-3.1-0.8-4.1-2c-1.7-0.8-2.8-2.6-2.8-4.6c0-2.8,2.3-5.1,5.1-5.1c0.5,0,1.1,0.1,1.6,0.2v-4.8
			c-6.1,0.1-11,5.1-11,11.2c0,3,1.2,5.8,3.2,7.8c1.8,1.2,3.9,1.9,6.2,1.9c6.2,0,11.2-5,11.2-11.2V-103.2z"/>
		<path class="st13" d="M32.5-105.3v-1.3c-1.6,0-3.1-0.4-4.5-1.3C29.2-106.5,30.8-105.6,32.5-105.3z M24.2-113.6
			c0-0.2-0.1-0.5-0.1-0.7v-0.8H18v24.2c0,2.8-2.3,5.1-5.1,5.1c-0.8,0-1.6-0.2-2.3-0.5c0.9,1.2,2.4,2,4.1,2c2.8,0,5.1-2.3,5.1-5.1
			v-24.2H24.2z M14.4-100.6v-1.4c-0.5-0.1-1-0.1-1.5-0.1c-6.2,0-11.2,5-11.2,11.2c0,3.9,2,7.3,5,9.3c-2-2-3.2-4.8-3.2-7.8
			C3.4-95.5,8.3-100.4,14.4-100.6L14.4-100.6z"/>
	</g>
	<line class="st19" x1="153.1" y1="-333.9" x2="153.1" y2="30.3"/>
	<line class="st20" x1="-38.4" y1="-333.9" x2="-38.4" y2="31.6"/>
	<line class="st20" x1="410.3" y1="-333.9" x2="410.3" y2="31.6"/>
</g>
<g id="TEXT">
	<text transform="matrix(1 0 0 1 -118.3604 -371.3293)"><tspan x="0" y="0" style="font-family:'Montserrat-Bold'; font-size:12px; letter-spacing:4;">Icons</tspan><tspan x="64.2" y="0" style="fill:#808080; font-family:'Montserrat-Bold'; font-size:12px; letter-spacing:4;"> &amp; </tspan><tspan x="94.1" y="0" style="font-family:'Montserrat-Bold'; font-size:12px; letter-spacing:4;">Social Media Logos</tspan><tspan x="321.2" y="0" style="fill:#808080; font-family:'Montserrat-Bold'; font-size:12px; letter-spacing:4;"> for </tspan><tspan x="378.7" y="0" style="font-family:'Montserrat-Bold'; font-size:12px; letter-spacing:4;">business card</tspan></text>
</g>
</svg>
